<svg width="104" height="104" viewBox="0 0 104 104" fill="none" xmlns="http://www.w3.org/2000/svg">
<path d="M24.2 51.9C22.8 52.1 21.4 52.5 20.2 53.2V35.6C20.2 33.2 22 31.2 24.3 30.9C24.3 31.1 24.2 31.4 24.2 31.6V51.9Z" fill="black" stroke-width="2" stroke-miterlimit="10" stroke-linecap="round" stroke-linejoin="round"/>
<path d="M80.2 62.8C79.8 65.1 77.9 66.9 75.4 66.9H39.6C39.7 66.4 39.7 65.8 39.7 65.3C39.7 64.5 39.6 63.7 39.5 62.9H79.4C79.6 62.8 79.9 62.8 80.2 62.8Z" fill="black" stroke-width="2" stroke-miterlimit="10" stroke-linecap="round" stroke-linejoin="round"/>
<path d="M71.6 26.8H29C28 26.8 27.1 27.1 26.3 27.6C25.2 28.3 24.5 29.5 24.2 30.8" stroke-width="2" stroke-miterlimit="10" stroke-linecap="round" stroke-linejoin="round"/>
<path d="M84.2 37.7V58.0999C84.2 60.4999 82.4 62.5 80.1 62.8" stroke-width="2" stroke-miterlimit="10" stroke-linecap="round" stroke-linejoin="round"/>
<path d="M74.1 34.7L61.9 46.5C58.2 50.1 52.3 50.2 48.4 46.8L26.4 27.7L26.3 27.6" stroke-width="2"/>
<path d="M81.5 38C87 38 91.5 33.5 91.5 28C91.5 22.5 87 18 81.5 18C76 18 71.5 22.5 71.5 28C71.5 33.6 76 38 81.5 38Z" stroke-width="2" stroke-miterlimit="10" stroke-linecap="round" stroke-linejoin="round"/>
<path d="M77 28L80 31L86 25" stroke-width="2" stroke-miterlimit="10" stroke-linecap="round" stroke-linejoin="round"/>
<path d="M32.8 63.5V63.6C32.9 63.9 33.1 64.2 33.2 64.4C33.8 66 33.8 67.4 33.3 68.4C32.2 71.2 28.5 71.7 27.7 69.1" stroke-width="2" stroke-miterlimit="10" stroke-linecap="round" stroke-linejoin="round"/>
<path d="M25.6 69.8C27.2568 69.8 28.6 68.4568 28.6 66.8C28.6 65.1431 27.2568 63.8 25.6 63.8C23.9431 63.8 22.6 65.1431 22.6 66.8C22.6 68.4568 23.9431 69.8 25.6 69.8Z" stroke-width="2"/>
<path d="M25.9 74.7C24.5 74.7 23.1 74.4 21.8 73.7C20.5 73 19.5 72 18.8 70.7C18.1 69.5 17.7 68.1 17.7 66.6C17.7 65.2 18.1 63.8 18.9 62.6C19.1 62.2 19.4 61.9 19.7 61.6C20.4 60.8 21.2 60.2 22.1 59.8C22.6 59.5 23.2 59.3 23.7 59.2C24.5 59 25.4 58.9 26.2 59C27.6 59.1 29 59.6 30.2 60.4C31.4 61.2 32.3 62.4 32.9 63.7" stroke-width="2" stroke-linecap="round" stroke-linejoin="round"/>
<path d="M53.4 76.2V86.3" stroke-width="2" stroke-miterlimit="10" stroke-linecap="round" stroke-linejoin="round"/>
<path d="M58.4 81.2H48.3" stroke-width="2" stroke-miterlimit="10" stroke-linecap="round" stroke-linejoin="round"/>
<path d="M49.8 77.7L56.9 84.8" stroke-width="2" stroke-miterlimit="10" stroke-linecap="round" stroke-linejoin="round"/>
<path d="M56.9 77.7L49.8 84.8" stroke-width="2" stroke-miterlimit="10" stroke-linecap="round" stroke-linejoin="round"/>
<path d="M69.2 76.2V86.3" stroke-width="2" stroke-miterlimit="10" stroke-linecap="round" stroke-linejoin="round"/>
<path d="M74.3 81.2H64.2" stroke-width="2" stroke-miterlimit="10" stroke-linecap="round" stroke-linejoin="round"/>
<path d="M65.7 77.7L72.8 84.8" stroke-width="2" stroke-miterlimit="10" stroke-linecap="round" stroke-linejoin="round"/>
<path d="M72.8 77.7L65.7 84.8" stroke-width="2" stroke-miterlimit="10" stroke-linecap="round" stroke-linejoin="round"/>
<path d="M85.1 76.2V86.3" stroke-width="2" stroke-miterlimit="10" stroke-linecap="round" stroke-linejoin="round"/>
<path d="M90.2 81.2H80.1" stroke-width="2" stroke-miterlimit="10" stroke-linecap="round" stroke-linejoin="round"/>
<path d="M81.5 77.7L88.6 84.8" stroke-width="2" stroke-miterlimit="10" stroke-linecap="round" stroke-linejoin="round"/>
<path d="M88.7 77.7L81.6 84.8" stroke-width="2" stroke-miterlimit="10" stroke-linecap="round" stroke-linejoin="round"/>
<path d="M25.7 80.5C33.2663 80.5 39.4 74.3663 39.4 66.8C39.4 59.2337 33.2663 53.1 25.7 53.1C18.1337 53.1 12 59.2337 12 66.8C12 74.3663 18.1337 80.5 25.7 80.5Z" stroke-width="2" stroke-miterlimit="10" stroke-linecap="round" stroke-linejoin="round"/>
</svg>
