<svg xmlns="http://www.w3.org/2000/svg" viewBox="0 0 202 38" height="38"><path d="M11.19 28.22C15.39 28.22 18.22 25.98 19.42 22.12L17.24 20.69C16.62 23.83 14.78 25.93 11.22 25.93C6.94 25.93 4.98 22.88 4.98 18.59C4.98 14.31 6.94 11.26 11.22 11.26C14.78 11.26 16.62 13.36 17.24 16.49L19.42 15.06C18.22 11.20 15.39 8.96 11.19 8.96C5.51 8.96 2.40 13.19 2.40 18.59C2.40 24 5.51 28.22 11.19 28.22M25.33 28.28C28.13 28.28 29.59 26.26 30.04 24.47L30.04 25.42C30.04 27.33 31.04 28 32.44 28L34.01 28L34.01 25.79L33.14 25.79C32.64 25.79 32.39 25.59 32.39 24.95L32.39 19.38C32.39 16.16 30.60 14.17 27.26 14.17C24.24 14.17 22.22 15.88 21.41 17.28L23.06 18.98C23.76 17.50 25.05 16.38 26.98 16.38C29.11 16.38 29.87 17.56 29.95 19.15L25.05 21.34C23.12 22.20 21.75 23.35 21.75 25.17C21.75 26.96 23.04 28.28 25.33 28.28M24.21 24.78C24.21 23.94 24.80 23.38 26.09 22.76L30.04 20.92L30.04 22.79C30.04 24.75 28.41 26.26 26.12 26.26C24.86 26.26 24.21 25.70 24.21 24.78M39.28 28L39.28 24.53C39.75 26.60 41.04 28.34 43.64 28.34C47.09 28.34 49.22 25.54 49.22 21.25C49.22 16.97 47.09 14.17 43.64 14.17C41.04 14.17 39.75 15.90 39.28 17.98L39.28 9.24L36.84 9.24L36.84 28M39.28 22.23L39.28 20.30C39.28 18.06 40.23 16.24 42.80 16.24C44.99 16.24 46.75 17.81 46.75 21.25C46.75 24.72 44.99 26.29 42.80 26.29C40.23 26.29 39.28 24.47 39.28 22.23M54.59 12.26L54.59 9.24L52.16 9.24L52.16 12.26M54.59 28L54.59 14.45L52.16 14.45L52.16 28M60.70 28L60.70 20.33C60.70 18.06 61.65 16.24 64.25 16.24C66.55 16.24 67.25 17.47 67.25 19.24L67.25 28L69.66 28L69.66 18.65C69.66 15.76 68 14.17 65.34 14.17C62.68 14.17 61.23 15.96 60.70 18.06L60.70 14.45L58.26 14.45L58.26 28M78.98 28.28C81.92 28.28 83.80 26.91 84.80 25.28L83.32 23.60C82.79 24.78 81.70 26.26 78.98 26.26C76.57 26.26 74.98 24.64 74.84 21.78L84.89 21.78C84.94 21.53 85 21.11 85 20.69C85 16.72 82.68 14.17 78.84 14.17C75.12 14.17 72.48 16.94 72.48 21.22C72.48 25.54 75.14 28.28 78.98 28.28M78.84 16.21C81.11 16.21 82.56 17.53 82.82 20.02L74.89 20.02C75.20 17.50 76.66 16.21 78.84 16.21M92.39 28.31C94.27 28.31 95.56 27.44 96.14 26.52L95.33 24.11C94.97 24.95 94.13 25.96 92.92 25.96C91.86 25.96 91.05 25.54 91.05 23.80L91.05 16.35L95.50 16.35L95.50 14.45L91.05 14.45L91.05 10.92L88.61 12.71L88.61 14.45L86.43 14.45L86.43 16.35L88.61 16.35L88.61 24.53C88.61 26.85 90.18 28.31 92.39 28.31M111.74 28.22C116.05 28.22 118.46 24.92 118.60 20.75L119.36 28L120.87 28L120.87 18.59L112.58 18.59L112.58 20.75L118.32 20.75C117.62 23.91 116.19 25.93 112.58 25.93C108.52 25.93 106.64 22.88 106.64 18.59C106.64 14.31 108.58 11.26 112.83 11.26C116.14 11.26 117.98 13.27 118.63 15.93L120.81 14.50C119.55 10.95 116.72 8.96 112.80 8.96C107.15 8.96 104.07 13.10 104.07 18.59C104.07 24.28 106.73 28.22 111.74 28.22M126.86 28L126.86 20.33C126.86 18 128.43 15.96 130.16 15.96C131.14 15.96 131.56 16.63 131.56 17.42C131.56 18.17 131.20 19.01 130.75 19.40L133.41 19.40C133.64 19.07 133.94 18.23 133.94 17.08C133.94 15.18 132.54 14.14 131.09 14.14C128.79 14.14 127.39 15.96 126.86 18.06L126.86 14.45L124.42 14.45L124.42 28M141.31 28.28C145.06 28.28 147.72 25.51 147.72 21.22C147.72 16.94 145.06 14.17 141.31 14.17C137.56 14.17 134.92 16.94 134.92 21.22C134.92 25.51 137.56 28.28 141.31 28.28M141.31 26.24C139.01 26.24 137.42 24.64 137.42 21.22C137.42 17.78 139.01 16.21 141.31 16.21C143.63 16.21 145.26 17.78 145.26 21.22C145.26 24.64 143.63 26.24 141.31 26.24M155.08 28.31C156.96 28.31 158.25 27.44 158.84 26.52L158.02 24.11C157.66 24.95 156.82 25.96 155.62 25.96C154.55 25.96 153.74 25.54 153.74 23.80L153.74 16.35L158.19 16.35L158.19 14.45L153.74 14.45L153.74 10.92L151.30 12.71L151.30 14.45L149.12 14.45L149.12 16.35L151.30 16.35L151.30 24.53C151.30 26.85 152.87 28.31 155.08 28.31M166.06 28.28C169 28.28 170.88 26.91 171.88 25.28L170.40 23.60C169.87 24.78 168.78 26.26 166.06 26.26C163.65 26.26 162.06 24.64 161.92 21.78L171.97 21.78C172.02 21.53 172.08 21.11 172.08 20.69C172.08 16.72 169.76 14.17 165.92 14.17C162.20 14.17 159.56 16.94 159.56 21.22C159.56 25.54 162.22 28.28 166.06 28.28M165.92 16.21C168.19 16.21 169.64 17.53 169.90 20.02L161.97 20.02C162.28 17.50 163.74 16.21 165.92 16.21M180.20 28.28C182.83 28.28 185.13 27.08 185.13 24.39C185.13 22.51 184.12 21.25 181.07 20.52L179.33 20.08C177.48 19.63 176.59 19.21 176.59 18C176.59 16.86 177.60 16.24 179 16.24C180.93 16.24 182.22 17.25 182.89 18.84L184.74 17.47C183.98 15.68 181.99 14.17 179.14 14.17C176.20 14.17 174.29 15.68 174.29 18.14C174.29 20.64 176.39 21.56 178.32 22.01L180.12 22.43C181.71 22.79 182.94 23.18 182.94 24.42C182.94 25.62 181.88 26.24 180.28 26.24C177.60 26.24 176.11 24.70 175.64 23.16L173.87 24.53C174.80 27.05 177.37 28.28 180.20 28.28M190.39 28L190.39 23.27L192.55 21.22L196.94 28L199.88 28L194.23 19.71L199.80 14.45L196.75 14.45L192.30 18.70L190.31 20.66L190.39 18.76L190.39 9.24L187.96 9.24L187.96 28" fill="#0f172a"/></svg>
