<svg xmlns="http://www.w3.org/2000/svg" viewBox="0 0 176 38" height="38"><path d="M12.28 28.42C18.44 28.42 22.39 24.02 22.28 17.58L12.09 17.58L12.09 20.05L19.03 20.05C18.47 23.49 16.12 25.79 12.4 25.79C7.92 25.79 5.2 22.43 5.2 17.98C5.2 13.24 8.06 10.25 12.03 10.25C15.48 10.25 17.69 12.24 18.44 14.81L22.03 14.81C20.8 10.64 17.3 7.48 12.12 7.48C6.26 7.48 2.01 11.98 2.01 17.92C2.01 24.02 6.49 28.42 12.28 28.42M31.38 28.28C34.88 28.28 37.43 26.29 38.16 22.99L35.36 22.99C34.88 24.92 33.42 26.07 31.32 26.07C28.83 26.07 27.32 24.3 27.1 21.28L38.16 21.28C38.66 16.46 35.72 12.88 31.3 12.88C27.21 12.88 24.21 16.1 24.21 20.5C24.21 25.17 27.1 28.28 31.38 28.28M31.24 15.01C33.54 15.01 35.02 16.66 35.16 19.4L27.12 19.4C27.43 16.63 28.97 15.01 31.24 15.01M43.98 19.63C43.98 17 45.6 15.37 47.54 15.37C49.64 15.37 50.76 16.8 50.76 19.35L50.76 28L53.58 28L53.58 18.4C53.58 14.84 51.57 12.88 48.52 12.88C46.47 12.88 44.79 13.97 43.78 15.62L43.78 13.16L41.15 13.16L41.15 28L43.98 28M63.44 28.28C66.94 28.28 69.49 26.29 70.22 22.99L67.42 22.99C66.94 24.92 65.48 26.07 63.38 26.07C60.89 26.07 59.38 24.3 59.16 21.28L70.22 21.28C70.72 16.46 67.78 12.88 63.36 12.88C59.27 12.88 56.27 16.1 56.27 20.5C56.27 25.17 59.16 28.28 63.44 28.28M63.3 15.01C65.6 15.01 67.08 16.66 67.22 19.4L59.18 19.4C59.49 16.63 61.03 15.01 63.3 15.01M76.04 20.41C76.04 17.14 78.36 15.74 81.56 15.9L81.56 12.96C79.12 12.96 76.88 14.25 75.84 16.3L75.84 13.16L73.21 13.16L73.21 28L76.04 28M92.78 28L95.14 28L95.14 18.48C95.14 14.95 93.01 12.88 89.34 12.88C85.87 12.88 83.49 15.09 83.35 18.42L85.92 18.42C86.01 16.35 87.27 15.12 89.34 15.12C91.3 15.12 92.45 16.32 92.45 18.45L92.45 19.54C91.24 19.4 90.54 19.38 89.68 19.38C85.25 19.38 82.93 20.89 82.93 23.8C82.93 26.52 84.94 28.28 88.02 28.28C90.21 28.28 91.86 27.36 92.78 25.7M85.62 23.72C85.62 21.98 87.02 21.14 89.84 21.14C90.57 21.14 91.36 21.17 92.45 21.31L92.45 22.51C92.45 24.78 90.96 26.26 88.58 26.26C86.76 26.26 85.62 25.26 85.62 23.72M101.77 28L101.77 7.9L98.92 7.9L98.92 28M126.47 22.12C126.47 19.12 124.54 17.61 121.09 16.91L118.12 16.32C116.25 15.93 114.6 15.26 114.6 13.36C114.6 11.62 116.02 10.08 118.63 10.08C121.15 10.08 122.88 11.76 123.05 14.17L126.19 14.17C125.94 10.16 122.77 7.62 118.6 7.62C114.43 7.62 111.46 10.16 111.46 13.55C111.46 16.97 114.04 18.4 116.86 18.96L119.78 19.52C122.1 20.02 123.19 20.86 123.19 22.54C123.19 24.61 121.29 25.82 118.74 25.82C115.66 25.82 114.04 24.16 113.9 21.62L110.76 21.62C111.01 25.62 113.95 28.28 118.8 28.28C123.67 28.28 126.47 25.62 126.47 22.12M138.79 28L141.14 28L141.14 18.48C141.14 14.95 139.01 12.88 135.34 12.88C131.87 12.88 129.49 15.09 129.35 18.42L131.93 18.42C132.01 16.35 133.27 15.12 135.34 15.12C137.3 15.12 138.45 16.32 138.45 18.45L138.45 19.54C137.25 19.4 136.55 19.38 135.68 19.38C131.26 19.38 128.93 20.89 128.93 23.8C128.93 26.52 130.95 28.28 134.03 28.28C136.21 28.28 137.86 27.36 138.79 25.7M131.62 23.72C131.62 21.98 133.02 21.14 135.85 21.14C136.58 21.14 137.36 21.17 138.45 21.31L138.45 22.51C138.45 24.78 136.97 26.26 134.59 26.26C132.77 26.26 131.62 25.26 131.62 23.72M147.75 19.63C147.75 17 149.37 15.37 151.3 15.37C153.4 15.37 154.52 16.8 154.52 19.35L154.52 28L157.35 28L157.35 18.4C157.35 14.84 155.34 12.88 152.28 12.88C150.24 12.88 148.56 13.97 147.55 15.62L147.55 13.16L144.92 13.16L144.92 28L147.75 28M172.86 23.58C172.86 21.45 171.46 20.16 168.52 19.63L166 19.15C164.21 18.82 163.46 18.26 163.46 17.05C163.46 15.76 164.66 15.01 166.45 15.01C168.44 15.01 169.76 16.04 169.92 17.84L172.64 17.84C172.39 14.78 169.98 12.88 166.42 12.88C162.98 12.88 160.71 14.7 160.71 17.3C160.71 19.54 162.25 20.94 165 21.48L167.4 21.92C169.25 22.29 170.01 22.82 170.01 24.05C170.01 25.45 168.69 26.15 166.7 26.15C164.44 26.15 162.95 25 162.84 23.16L160.12 23.16C160.4 26.35 162.73 28.28 166.65 28.28C170.6 28.28 172.86 26.49 172.86 23.58" fill="#0f172a"/></svg>
