<svg xmlns="http://www.w3.org/2000/svg" viewBox="0 0 164 38" height="38"><path d="M3.91 28L7.08 28L7.08 19.04L17.74 19.04L17.74 28L20.91 28L20.91 7.59L17.74 7.59L17.74 16.30L7.08 16.30L7.08 7.59L3.91 7.59M31.02 28.28C33.34 28.28 35.13 27.10 35.80 25.23L36.03 25.23L36.25 28L39.05 28L39.05 13.22L36.03 13.22L36.03 21.53C36.03 24.11 34.66 25.82 32.36 25.82C30.37 25.82 29.08 24.86 29.08 22.01L29.08 13.22L26.06 13.22L26.06 22.43C26.06 26.01 27.74 28.28 31.02 28.28M51.46 28.25C55.07 28.25 57.22 25.84 57.22 20.75L57.22 20.36C57.22 15.74 55.35 12.94 51.48 12.94C49.41 12.94 47.62 14 46.92 15.71L46.72 15.71L46.72 7.59L43.73 7.59L43.73 28L46.56 28L46.72 25.48L46.92 25.48C47.62 27.22 49.38 28.25 51.46 28.25M50.36 25.82C48.12 25.82 46.72 24.28 46.72 21.84L46.72 19.35C46.72 16.94 48.12 15.40 50.36 15.40C52.63 15.40 54 16.80 54 19.21L54 21.98C54 24.42 52.63 25.82 50.36 25.82M66.63 28.28C71.28 28.28 73.52 25.40 73.52 20.69L73.52 20.58C73.52 15.40 70.75 12.94 66.63 12.94C62.49 12.94 59.72 15.40 59.72 20.58L59.72 20.69C59.74 25.40 61.96 28.28 66.63 28.28M66.63 25.82C64.22 25.82 62.80 24.42 62.80 22.01L62.80 19.21C62.80 16.91 64.28 15.40 66.63 15.40C68.96 15.40 70.44 16.91 70.44 19.21L70.44 22.01C70.44 24.42 69.04 25.82 66.63 25.82M81.58 28L85.76 28L85.76 25.59L81.92 25.59L81.92 15.68L85.92 15.68L85.92 13.22L81.92 13.22L81.92 8.43L78.92 8.43L78.92 13.22L75.51 13.22L75.51 15.68L78.92 15.68L78.92 25.40C78.92 26.94 79.65 28 81.58 28M103.56 28.28C108.35 28.28 111.57 26.32 111.57 22.15C111.57 17.95 108.32 16.74 104.60 16.07C101.66 15.51 99.48 15.09 99.48 12.80C99.48 10.98 101.02 9.83 103.51 9.83C106.39 9.83 107.82 11.14 107.90 13.36L111.15 13.36C111.10 9.63 108.44 7.31 103.56 7.31C99.06 7.31 96.06 9.44 96.06 13.13C96.06 16.77 98.92 18.06 102.70 18.82C105.69 19.43 108.16 19.82 108.16 22.40C108.16 24.47 106.67 25.73 103.65 25.73C100.68 25.73 98.86 24.50 98.75 21.64L95.50 21.64C95.50 25.54 98.22 28.28 103.56 28.28M120.08 28.28C122.16 28.28 123.92 27.22 124.65 25.54L124.84 25.54L124.84 28L127.84 28L127.84 13.22L124.98 13.22L124.84 15.71L124.65 15.71C123.95 14 122.18 12.94 120.08 12.94C116.50 12.94 114.32 15.37 114.32 20.44L114.32 20.86C114.32 25.48 116.19 28.28 120.08 28.28M121.20 25.82C118.91 25.82 117.54 24.42 117.54 22.01L117.54 19.24C117.54 16.80 118.91 15.40 121.20 15.40C123.42 15.40 124.82 16.94 124.82 19.38L124.82 21.87C124.82 24.28 123.42 25.82 121.20 25.82M132.68 28L135.68 28L135.68 19.74C135.68 17.11 137.05 15.40 139.40 15.40C141.39 15.40 142.71 16.35 142.71 19.24L142.71 28L145.73 28L145.73 18.87C145.73 14.90 143.83 12.94 140.58 12.94C138.34 12.94 136.55 14.14 135.90 15.99L135.71 15.99L135.46 13.22L132.68 13.22M155.28 28.28C159 28.28 161.36 26.63 161.36 23.72C161.36 20.13 158.47 19.54 155.98 19.18C154.10 18.87 152.54 18.62 152.54 17.02C152.54 15.88 153.43 15.06 155.25 15.06C157.02 15.06 158.16 15.88 158.19 17.47L161.05 17.47C160.96 14.64 158.72 12.94 155.28 12.94C151.98 12.94 149.60 14.53 149.60 17.39C149.60 20.44 152.34 21.17 154.75 21.53C157.10 21.92 158.30 22.20 158.30 24.02C158.30 25.20 157.38 26.10 155.39 26.10C153.40 26.10 152.09 25.31 152.03 23.38L149.15 23.35C149.15 26.29 151.25 28.28 155.28 28.28" fill="#0f172a"/></svg>
