<svg xmlns="http://www.w3.org/2000/svg" viewBox="0 0 167 38" height="38"><path d="M20.93 17.82C20.93 11.31 17.03 7.36 11.76 7.36C6.47 7.36 2.58 11.31 2.58 17.82C2.58 24.32 6.47 28.28 11.76 28.28C17.03 28.28 20.93 24.33 20.93 17.82M5.63 17.82C5.63 12.86 8.25 10.16 11.76 10.16C15.26 10.16 17.88 12.86 17.88 17.82C17.88 22.78 15.26 25.47 11.76 25.47C8.25 25.47 5.63 22.78 5.63 17.82M24.51 13.72L24.51 32.73C24.51 33.38 24.85 33.73 25.50 33.73L26.48 33.73C27.13 33.73 27.48 33.38 27.48 32.73L27.48 25.62L27.66 25.62C28.19 26.60 29.29 28.30 32.07 28.30C35.77 28.30 38.46 25.34 38.46 20.39C38.46 15.44 35.73 12.53 32.04 12.53C29.21 12.53 28.18 14.26 27.66 15.20L27.41 15.20L27.41 13.72C27.41 13.08 27.06 12.73 26.41 12.73L25.50 12.73C24.85 12.73 24.51 13.08 24.51 13.72M27.42 20.36C27.42 17.17 28.81 15.05 31.41 15.05C34.10 15.05 35.45 17.33 35.45 20.36C35.45 23.43 34.06 25.76 31.41 25.76C28.85 25.76 27.42 23.58 27.42 20.36M48.37 28.31C51.31 28.31 53.50 27.03 54.43 25.01C54.66 24.50 54.33 24.11 53.65 23.98L52.77 23.82C52.20 23.71 51.86 23.94 51.52 24.44C50.87 25.38 49.76 25.85 48.40 25.85C45.85 25.85 44.14 24.20 44.06 21.26L53.93 21.26C54.57 21.26 54.92 20.91 54.92 20.26L54.92 20.20C54.92 14.69 51.62 12.53 48.16 12.53C43.90 12.53 41.10 15.77 41.10 20.46C41.10 25.21 43.87 28.31 48.37 28.31M44.07 19.03C44.19 16.86 45.76 14.98 48.18 14.98C50.49 14.98 52 16.69 52.01 19.03M61.21 27.01L61.21 18.93C61.21 16.50 62.70 15.10 64.77 15.10C66.78 15.10 68.01 16.43 68.01 18.64L68.01 27.01C68.01 27.65 68.36 28 69 28L69.99 28C70.63 28 70.98 27.65 70.98 27.01L70.98 18.29C70.98 14.51 68.90 12.53 65.78 12.53C63.48 12.53 61.98 13.59 61.28 15.21L61.09 15.21L61.09 13.72C61.09 13.08 60.74 12.73 60.09 12.73L59.23 12.73C58.58 12.73 58.23 13.08 58.23 13.72L58.23 27.01C58.23 27.65 58.58 28 59.23 28L60.21 28C60.86 28 61.21 27.65 61.21 27.01M82.61 8.63L82.61 27.01C82.61 27.65 82.96 28 83.61 28L84.69 28C85.34 28 85.69 27.65 85.69 27.01L85.69 20.29L90.06 20.29L93.82 27.29C94.08 27.78 94.45 28 94.99 28L96.35 28C97.13 28 97.43 27.51 97.05 26.82L93.18 19.76C95.68 18.83 96.92 16.75 96.92 14.02C96.92 10.27 94.60 7.64 89.87 7.64L83.61 7.64C82.96 7.64 82.61 7.98 82.61 8.63M85.69 17.65L85.69 10.27L89.54 10.27C92.58 10.27 93.83 11.71 93.83 14.02C93.83 16.32 92.58 17.65 89.58 17.65M110.11 13.72L110.11 21.67C110.12 24.26 108.19 25.49 106.52 25.49C104.68 25.49 103.40 24.16 103.40 22.08L103.40 13.72C103.40 13.08 103.06 12.73 102.41 12.73L101.43 12.73C100.78 12.73 100.43 13.08 100.43 13.72L100.43 22.44C100.43 26.23 102.51 28.20 105.44 28.20C107.74 28.20 109.30 26.99 110.01 25.36L110.17 25.36L110.17 27.01C110.17 27.65 110.51 28 111.16 28L112.10 28C112.74 28 113.09 27.65 113.09 27.01L113.09 13.72C113.09 13.08 112.74 12.73 112.10 12.73L111.10 12.73C110.45 12.73 110.11 13.08 110.11 13.72M120.05 27.01L120.05 18.93C120.05 16.50 121.54 15.10 123.61 15.10C125.63 15.10 126.85 16.43 126.85 18.64L126.85 27.01C126.85 27.65 127.20 28 127.85 28L128.83 28C129.48 28 129.82 27.65 129.82 27.01L129.82 18.29C129.82 14.51 127.75 12.53 124.62 12.53C122.33 12.53 120.83 13.59 120.12 15.21L119.93 15.21L119.93 13.72C119.93 13.08 119.58 12.73 118.94 12.73L118.07 12.73C117.42 12.73 117.08 13.08 117.08 13.72L117.08 27.01C117.08 27.65 117.42 28 118.07 28L119.06 28C119.70 28 120.05 27.65 120.05 27.01M139.52 28.30C142.30 28.30 143.40 26.60 143.93 25.62L144.18 25.62L144.18 27.01C144.18 27.65 144.53 28 145.18 28L146.09 28C146.74 28 147.09 27.65 147.09 27.01L147.09 8.63C147.09 7.98 146.74 7.64 146.09 7.64L145.11 7.64C144.46 7.64 144.11 7.98 144.11 8.63L144.11 15.20L143.93 15.20C143.40 14.26 142.38 12.53 139.54 12.53C135.85 12.53 133.13 15.44 133.13 20.39C133.13 25.34 135.81 28.30 139.52 28.30M136.14 20.36C136.14 17.33 137.49 15.05 140.17 15.05C142.77 15.05 144.16 17.17 144.16 20.36C144.16 23.58 142.74 25.76 140.17 25.76C137.52 25.76 136.14 23.43 136.14 20.36M157.90 28.31C160.85 28.31 163.03 27.03 163.97 25.01C164.20 24.50 163.86 24.11 163.18 23.98L162.31 23.82C161.73 23.71 161.39 23.94 161.06 24.44C160.40 25.38 159.30 25.85 157.93 25.85C155.39 25.85 153.68 24.20 153.60 21.26L163.46 21.26C164.11 21.26 164.46 20.91 164.46 20.26L164.46 20.20C164.46 14.69 161.15 12.53 157.69 12.53C153.44 12.53 150.63 15.77 150.63 20.46C150.63 25.21 153.40 28.31 157.90 28.31M153.61 19.03C153.73 16.86 155.30 14.98 157.71 14.98C160.02 14.98 161.53 16.69 161.54 19.03" fill="#0f172a"/></svg>
