<svg xmlns="http://www.w3.org/2000/svg" viewBox="0 0 157 38" height="38"><path d="M3.56 28L6.61 28L6.61 20.58L10.98 20.58C15.25 20.58 18.15 18.26 18.15 14.22C18.15 10.01 14.93 7.76 10.58 7.76L3.56 7.76M6.6 18.13L6.6 10.18L10.79 10.18C13.4 10.18 15.27 11.55 15.27 14.06C15.27 16.52 13.47 18.13 10.9 18.13M26.21 28.28C28.17 28.29 30.02 27.47 30.54 25.2L30.88 28L33.2 28L33.2 13.52L30.22 13.52L30.22 22.95C30.22 24.95 28.92 26 26.94 26C24.76 26 23.68 24.81 23.68 23.07L23.68 13.52L20.67 13.52L20.67 23.39C20.67 26.61 23.3 28.25 26.21 28.28M44.82 28.28C48.88 28.28 50.95 25.27 50.95 20.69C50.95 15.83 48.68 13.24 45.07 13.24C42.5 13.24 40.97 14.71 40.44 15.72L40.44 7.2L37.41 7.2L37.41 28L39.67 28L39.99 25.03C40.4 26.29 41.57 28.28 44.82 28.28M44.23 26.03C41.54 26.03 40.44 24.46 40.44 20.59C40.47 17.32 41.54 15.53 44.19 15.53C46.63 15.53 47.97 17.32 47.97 20.59C47.97 24.42 46.43 26.03 44.23 26.03M58.13 28.2C58.55 28.2 59.07 28.1 59.55 27.94L59.55 26.04L58.79 26.01C57.7 25.93 57.17 25.23 57.17 23.87L57.17 7.2L54.21 7.2L54.21 24.18C54.21 26.24 54.7 28.2 58.13 28.2M62.75 10.72L65.76 10.72L65.76 7.77L62.75 7.77M62.82 28L65.71 28L65.71 13.52L62.82 13.52M75.77 28.28C78.98 28.28 81.32 26.31 81.65 23.38L79.11 23.38C78.88 24.71 77.73 26.05 75.84 26.05C73.27 26.05 71.87 24 71.87 20.79C71.87 17.29 73.48 15.61 75.8 15.61C77.71 15.61 78.84 16.87 79.08 18.3L81.68 18.3C81.32 15.29 79.04 13.24 75.77 13.24C71.53 13.24 69.03 16.31 69.03 20.82C69.03 25.62 71.83 28.28 75.77 28.28M99.17 28.28C103.77 28.28 106.87 25.82 106.87 22.36C106.87 19.8 105.5 17.71 101.81 16.88L97.89 15.92C95.88 15.43 94.87 14.6 94.87 13.05C94.87 11.37 96.26 9.95 99.03 9.95C101.35 9.95 103.3 10.86 103.55 13.44L106.6 13.44C106.57 10.28 103.96 7.5 99.13 7.5C94.9 7.5 91.72 9.79 91.72 13.31C91.72 16.46 93.69 18 96.66 18.69L100.72 19.7C102.79 20.24 103.83 21.07 103.83 22.62C103.83 24.7 101.72 25.84 99.32 25.84C96.72 25.84 94.7 24.68 94.23 22.51L91.1 22.51C91.61 26.33 95.21 28.28 99.17 28.28M114.51 28.28C116.57 28.28 118.26 27.55 119.36 25.34L119.58 28L122.13 28L122.13 17.88C122.13 14.9 120.29 13.24 116.35 13.24C112.8 13.24 110.52 14.77 110.37 17.67L112.96 17.67C113.34 16.06 114.68 15.4 116.21 15.39C118.28 15.37 119.24 16.39 119.24 18.05L119.24 19.1L116.86 19.17C111.87 19.25 109.71 20.82 109.71 24.02C109.71 26.71 111.71 28.28 114.51 28.28M115.45 26.19C113.78 26.19 112.59 25.28 112.59 23.73C112.59 21.69 114.3 20.92 117.28 20.87L119.24 20.83L119.24 23.23C119.23 24.74 117.27 26.19 115.45 26.19M125.96 28L128.96 28L128.96 18.44C128.96 16.63 130.63 15.76 132.42 15.76C134.15 15.76 135.4 16.76 135.4 18.83L135.4 28L138.4 28L138.4 18.51C138.4 14.88 136.04 13.34 133.33 13.34C131.02 13.34 129.59 14.45 128.89 15.61L128.89 13.52L125.96 13.52M147.5 28.28C151.04 28.28 153.21 26.64 153.21 23.91C153.21 22.53 152.49 20.66 149.67 19.94L146.92 19.25C145.33 18.89 144.51 18.4 144.51 17.44C144.51 16.04 145.73 15.37 147.45 15.37C149.12 15.37 150.17 16.18 150.37 17.5L152.96 17.5C152.89 14.74 150.74 13.24 147.48 13.24C143.73 13.24 141.8 15.09 141.81 17.64C141.83 19.87 143.38 21 145.77 21.55L148.66 22.23C149.97 22.53 150.56 23.09 150.56 24.08C150.56 25.47 149.32 26.11 147.48 26.11C145.83 26.11 144.37 25.34 144.01 23.69L141.34 23.69C141.78 26.89 144.46 28.28 147.5 28.28" fill="#0f172a"/></svg>
