<svg xmlns="http://www.w3.org/2000/svg" viewBox="0 0 92 38" height="38"><path d="M2.23 13.16C2.23 15.9 3.88 17.7 7.02 18.45L10.41 19.29C12.56 19.8 13.57 20.97 13.57 22.76C13.57 25.06 11.7 26.49 8.76 26.49C6.01 26.49 4.16 25.12 4.05 23.02L1.98 23.02C2.23 26.29 4.86 28.34 8.76 28.34C12.9 28.34 15.59 26.12 15.59 22.65C15.59 19.94 13.96 18.14 10.83 17.39L7.38 16.55C5.28 16.02 4.25 14.9 4.25 13.13C4.25 10.86 6.1 9.41 8.92 9.41C11.44 9.41 12.98 10.7 13.21 12.96L15.25 12.96C14.94 9.6 12.56 7.59 8.95 7.59C4.92 7.59 2.23 9.8 2.23 13.16M22.67 28.34C24.97 28.34 26.82 27.33 27.66 25.62L27.91 28L29.53 28L29.53 19.24C29.53 15.65 27.24 14.08 24.1 14.08C20.77 14.08 18.53 15.85 18.53 18.59L20.29 18.59C20.29 16.77 21.69 15.71 24.04 15.71C26.03 15.71 27.63 16.55 27.63 19.21L27.63 19.66L23.15 20.02C19.98 20.27 18.08 21.84 18.08 24.33C18.08 26.71 19.79 28.34 22.67 28.34M23.12 26.77C21.27 26.77 20.04 25.93 20.04 24.28C20.04 22.76 21.08 21.64 23.62 21.42L27.63 21.11L27.63 21.84C27.63 24.78 25.98 26.77 23.12 26.77M36.25 28L36.25 16.07L38.97 16.07L38.97 14.45L36.25 14.45L36.25 10.16L34.35 10.16L34.35 14.45L31.63 14.45L31.63 16.07L34.35 16.07L34.35 28M40.4 21.22C40.4 25.34 43.31 28.34 47.28 28.34C51.26 28.34 54.17 25.34 54.17 21.22C54.17 17.08 51.26 14.08 47.28 14.08C43.31 14.08 40.4 17.08 40.4 21.22M42.36 21.2C42.36 18.06 44.37 15.82 47.28 15.82C50.17 15.82 52.21 18.06 52.21 21.2C52.21 24.39 50.17 26.6 47.28 26.6C44.37 26.6 42.36 24.39 42.36 21.2M56.1 24.19C56.1 26.71 58.01 28.34 61.06 28.34C64.14 28.34 66.21 26.74 66.21 24.3C66.21 22.34 65.15 21.25 62.8 20.66L60.47 20.08C58.99 19.71 58.26 18.98 58.26 17.95C58.26 16.49 59.32 15.68 61.23 15.68C63.05 15.68 64.14 16.6 64.2 18.17L66.07 18.17C65.99 15.65 64.14 14.08 61.28 14.08C58.37 14.08 56.38 15.6 56.38 17.98C56.38 19.82 57.53 21.06 59.88 21.64L62.21 22.23C63.8 22.62 64.36 23.27 64.36 24.39C64.36 25.84 63.13 26.74 61.03 26.74C59.13 26.74 57.95 25.76 57.95 24.19M71.34 27.97L71.34 20.61C71.34 18 72.85 15.85 75.76 15.85C77.86 15.85 79.34 16.97 79.34 20.13L79.34 28L81.28 28L81.28 19.71C81.28 16.3 79.68 14.08 76.12 14.08C73.86 14.08 72.2 15.18 71.34 16.8L71.34 7.59L69.4 7.59L69.4 27.97M86.09 10.72C86.88 10.72 87.55 10.08 87.55 9.3C87.55 8.51 86.88 7.84 86.09 7.84C85.31 7.84 84.66 8.51 84.66 9.3C84.66 10.08 85.31 10.72 86.09 10.72M85.14 28L87.07 28L87.07 14.45L85.14 14.45" fill="#0f172a"/></svg>
