<svg xmlns="http://www.w3.org/2000/svg" viewBox="0 0 100 38" height="38"><path d="M2.01 13.30Q2.01 11.42 2.99 9.98Q3.97 8.54 5.69 7.71Q7.41 6.89 9.62 6.89Q11.86 6.89 13.49 7.67Q15.11 8.46 15.99 9.88Q16.88 11.31 16.88 13.27L12.37 13.27Q12.37 12.18 11.61 11.55Q10.86 10.92 9.57 10.92Q8.20 10.92 7.37 11.51Q6.54 12.10 6.54 13.13Q6.54 14.08 7.05 14.59Q7.55 15.09 8.64 15.32L11.75 15.96Q14.52 16.52 15.87 17.91Q17.21 19.29 17.21 21.76Q17.21 23.74 16.23 25.24Q15.25 26.74 13.47 27.55Q11.70 28.36 9.32 28.36Q7.02 28.36 5.30 27.58Q3.58 26.80 2.64 25.35Q1.70 23.91 1.70 21.98L6.21 21.98Q6.21 23.10 7.02 23.72Q7.83 24.33 9.34 24.33Q10.88 24.33 11.78 23.76Q12.68 23.18 12.68 22.20Q12.68 21.34 12.24 20.86Q11.81 20.38 10.77 20.19L7.61 19.54Q4.84 18.98 3.42 17.42Q2.01 15.85 2.01 13.30M23.90 28.36Q21.69 28.36 20.39 27.15Q19.09 25.93 19.09 23.88Q19.09 21.95 20.42 20.80Q21.75 19.66 24.27 19.46L28.19 19.15L28.19 18.93Q28.19 18.23 27.91 17.77Q27.63 17.30 27.11 17.07Q26.59 16.83 25.81 16.83Q24.44 16.83 23.72 17.33Q23.01 17.84 23.01 18.79L19.42 18.79Q19.42 17.19 20.24 16.02Q21.05 14.84 22.55 14.20Q24.04 13.55 26.03 13.55Q28.08 13.55 29.49 14.28Q30.90 15.01 31.65 16.41Q32.39 17.81 32.39 19.82L32.39 28L28.58 28L28.30 26.15Q27.96 27.10 26.72 27.73Q25.47 28.36 23.90 28.36M25.42 25.17Q26.65 25.17 27.43 24.57Q28.22 23.97 28.22 22.76L28.22 22.01L26.03 22.20Q24.63 22.32 24.06 22.67Q23.48 23.02 23.48 23.69Q23.48 24.44 23.96 24.81Q24.44 25.17 25.42 25.17M34.01 17.58L34.01 14L43.64 14L43.64 17.58L34.01 17.58M40.98 9.66L40.98 28L36.67 28L36.67 9.66L40.98 9.66M44.68 20.97Q44.68 18.76 45.67 17.09Q46.67 15.43 48.42 14.50Q50.17 13.58 52.41 13.58Q54.65 13.58 56.38 14.50Q58.12 15.43 59.11 17.09Q60.11 18.76 60.11 20.97Q60.11 23.18 59.11 24.84Q58.12 26.49 56.38 27.41Q54.65 28.34 52.41 28.34Q50.17 28.34 48.42 27.41Q46.67 26.49 45.67 24.84Q44.68 23.18 44.68 20.97M49.02 20.94Q49.02 22.01 49.45 22.81Q49.89 23.60 50.64 24.04Q51.40 24.47 52.41 24.47Q53.42 24.47 54.17 24.04Q54.93 23.60 55.35 22.81Q55.77 22.01 55.77 20.94Q55.77 19.88 55.35 19.10Q54.93 18.31 54.17 17.88Q53.42 17.44 52.41 17.44Q51.40 17.44 50.64 17.88Q49.89 18.31 49.45 19.10Q49.02 19.88 49.02 20.94M61.59 23.58L65.68 23.58Q65.74 24.30 66.27 24.72Q66.80 25.14 67.78 25.14Q68.79 25.14 69.26 24.81Q69.74 24.47 69.74 23.94Q69.74 23.63 69.50 23.32Q69.26 23.02 68.48 22.85L65.90 22.29Q63.97 21.87 63.02 20.93Q62.07 19.99 62.07 18.14Q62.07 16.69 62.84 15.67Q63.61 14.64 64.92 14.10Q66.24 13.55 67.92 13.55Q69.54 13.55 70.79 14.14Q72.04 14.73 72.74 15.79Q73.44 16.86 73.44 18.28L69.35 18.28Q69.35 17.56 68.93 17.12Q68.51 16.69 67.72 16.69Q67 16.69 66.56 17.04Q66.13 17.39 66.13 17.95Q66.13 18.84 67.64 19.18L70.24 19.74Q71.98 20.10 72.89 20.99Q73.80 21.87 73.80 23.55Q73.80 25.03 73.02 26.12Q72.23 27.22 70.83 27.79Q69.43 28.36 67.61 28.36Q64.84 28.36 63.22 27.03Q61.59 25.70 61.59 23.58M80.35 20.33L80.35 28L76.04 28L76.04 6.89L80.38 6.89L80.38 15.46Q81.02 14.56 82.16 14.06Q83.29 13.55 84.66 13.55Q87.16 13.55 88.54 15.08Q89.93 16.60 89.93 19.35L89.93 28L85.62 28L85.62 20.38Q85.62 19.49 85.31 18.84Q85 18.20 84.45 17.84Q83.91 17.47 83.15 17.47Q82.31 17.47 81.68 17.82Q81.05 18.17 80.70 18.82Q80.35 19.46 80.35 20.33M97.32 28L93.01 28L93.01 14L97.32 14L97.32 28M95.14 11.82Q94.10 11.82 93.39 11.10Q92.67 10.39 92.67 9.35Q92.67 8.32 93.39 7.62Q94.10 6.92 95.14 6.92Q96.14 6.92 96.86 7.62Q97.57 8.32 97.57 9.35Q97.57 10.39 96.86 11.10Q96.14 11.82 95.14 11.82" fill="#0f172a"/></svg>
