<svg xmlns="http://www.w3.org/2000/svg" viewBox="0 0 185 38" height="38"><path d="M5.54 28.25L5.54 28.25Q3.86 28.25 3.03 27.83Q2.2 27.41 2.2 26.77L2.2 26.77Q2.2 26.43 2.4 26.25Q2.6 26.07 3.02 26.07L3.02 26.07Q3.32 26.07 3.53 26.11Q3.74 26.15 3.97 26.21Q4.19 26.26 4.51 26.31Q4.84 26.35 5.31 26.35L5.31 26.35Q7.22 26.35 8.71 26.14Q10.21 25.93 11.26 25.54Q12.31 25.14 12.9 24.61L12.9 24.61Q12.76 23.74 11.99 23.11Q11.22 22.48 10.07 21.98Q8.92 21.48 7.68 20.96Q6.43 20.44 5.34 19.84Q4.25 19.24 3.56 18.4Q2.88 17.56 2.88 16.38L2.88 16.38Q2.88 14.92 3.67 13.65Q4.47 12.38 5.76 11.37Q7.05 10.36 8.55 9.63Q10.04 8.9 11.46 8.51Q12.87 8.12 13.91 8.12L13.91 8.12Q14.33 8.12 14.59 8.23Q14.86 8.34 14.99 8.55Q15.11 8.76 15.11 9.04L15.11 9.04Q15.11 9.46 14.83 9.7Q14.55 9.94 13.85 10.08L13.85 10.08Q10.94 10.64 8.91 11.62Q6.88 12.6 5.84 13.8Q4.81 15.01 4.81 16.3L4.81 16.3Q4.81 17.11 5.54 17.71Q6.26 18.31 7.41 18.84Q8.56 19.38 9.85 19.91Q11.14 20.44 12.28 21.07Q13.43 21.7 14.16 22.51Q14.89 23.32 14.89 24.44L14.89 24.44Q14.89 25.4 14.1 26.11Q13.32 26.82 11.99 27.3Q10.66 27.78 8.99 28.01Q7.33 28.25 5.54 28.25M19.76 28.28L19.76 28.28Q19.4 28.28 19.09 27.99Q18.78 27.69 18.6 27.03Q18.42 26.38 18.42 25.34L18.42 25.34Q18.42 22.32 18.79 19.91Q19.17 17.5 19.63 15.53Q20.1 13.55 20.29 11.9L20.29 11.9Q20.4 11.12 20.42 10.39Q20.43 9.66 20.45 8.99Q20.46 8.32 20.52 7.76L20.52 7.76Q20.57 7.36 20.78 7.04Q20.99 6.72 21.41 6.72L21.41 6.72Q21.92 6.72 22.17 7.18Q22.42 7.64 22.46 8.65Q22.5 9.66 22.28 11.37L22.28 11.37Q22.03 13.33 21.55 15.58Q21.08 17.84 20.7 20.23Q20.32 22.62 20.38 25.03L20.38 25.03L19.87 24.98Q21.38 20.92 22.6 18.55Q23.82 16.18 24.94 15.18Q26.06 14.17 27.21 14.17L27.21 14.17Q28.3 14.17 28.87 14.92Q29.45 15.68 29.74 17.09Q30.04 18.51 30.2 20.5L30.2 20.5Q30.4 22.4 30.57 23.55Q30.74 24.7 30.95 25.35Q31.16 26.01 31.44 26.52L31.44 26.52Q31.55 26.71 31.63 26.95Q31.72 27.19 31.72 27.44L31.72 27.44Q31.72 27.78 31.46 28.03Q31.21 28.28 30.88 28.28L30.88 28.28Q30.32 28.28 29.8 27.41Q29.28 26.54 28.92 25.13Q28.55 23.72 28.44 22.12L28.44 22.12Q28.33 20.3 28.16 19.14Q27.99 17.98 27.77 17.23Q27.54 16.49 27.18 15.99L27.18 15.99Q26.56 15.99 25.5 17.33Q24.44 18.68 23.26 21.18Q22.08 23.69 21.05 27.22L21.05 27.22Q20.85 27.83 20.53 28.06Q20.21 28.28 19.76 28.28M39.11 28.28L39.11 28.28Q37.9 28.28 37.02 27.68Q36.14 27.08 35.66 25.98Q35.19 24.89 35.19 23.44L35.19 23.44Q35.19 22.12 35.59 20.79Q36 19.46 36.73 18.27Q37.46 17.08 38.49 16.16Q39.53 15.23 40.79 14.7Q42.05 14.17 43.5 14.17L43.5 14.17Q44.01 14.17 44.34 14.41Q44.68 14.64 44.68 15.12L44.68 15.12Q44.68 15.43 44.48 15.65Q44.29 15.88 43.84 15.93L43.84 15.93Q41.82 16.16 40.33 17.29Q38.83 18.42 38 20.05Q37.18 21.67 37.18 23.44L37.18 23.44Q37.18 24.33 37.33 25.07Q37.48 25.82 38.04 26.99L38.04 26.99L36.76 25.4Q37.37 26.07 37.79 26.28Q38.21 26.49 39 26.49L39 26.49Q40.9 26.49 42.37 24.25Q43.84 22.01 44.54 17.72L44.54 17.72Q44.62 17.25 44.83 16.97Q45.04 16.69 45.46 16.69L45.46 16.69Q46.02 16.69 46.39 17.19Q46.75 17.7 46.81 18.54L46.81 18.54Q46.98 20.24 47.24 21.59Q47.51 22.93 48.07 24.11Q48.63 25.28 49.58 26.57L49.58 26.57Q49.78 26.82 49.8 27.1Q49.83 27.38 49.75 27.64Q49.66 27.89 49.48 28.04Q49.3 28.2 49.05 28.2L49.05 28.2Q48.68 28.2 48.46 28.04Q48.24 27.89 48.01 27.61L48.01 27.61Q47.48 26.88 47 26.11Q46.53 25.34 46.15 24.32Q45.77 23.3 45.52 21.87Q45.27 20.44 45.21 18.42L45.21 18.42L45.94 18.45Q45.63 21.14 44.93 23.03Q44.23 24.92 43.27 26.07Q42.3 27.22 41.22 27.75Q40.14 28.28 39.11 28.28M64.81 28.25L64.81 28.25Q64.08 28.25 63.51 27.52Q62.94 26.8 62.61 25.1Q62.29 23.41 62.29 20.58L62.29 20.58Q62.29 19.01 62.24 18.07Q62.18 17.14 62.04 16.62Q61.9 16.1 61.68 15.79Q61.45 15.48 61.09 15.15L61.09 15.15Q61.62 15.09 61.98 15.27Q62.35 15.46 62.54 15.86Q62.74 16.27 62.77 16.91L62.77 16.91Q62.43 16.35 62.18 16.17Q61.93 15.99 61.54 15.99L61.54 15.99Q60.98 15.99 60.23 16.73Q59.49 17.47 58.69 18.8Q57.9 20.13 57.17 21.97Q56.44 23.8 55.91 25.98L55.91 25.98Q55.63 27.24 55.29 27.75Q54.96 28.25 54.42 28.25L54.42 28.25Q53.47 28.25 52.97 26.99Q52.46 25.73 52.46 23.77L52.46 23.77Q52.46 22.34 52.59 21.27Q52.72 20.19 52.87 19.25Q53.02 18.31 53.15 17.3Q53.28 16.3 53.28 14.98L53.28 14.98Q53.28 14.62 53.47 14.38Q53.67 14.14 54.03 14.14L54.03 14.14Q54.56 14.14 54.86 14.57Q55.15 15.01 55.15 15.99L55.15 15.99Q55.15 16.94 55 17.88Q54.84 18.82 54.66 19.92Q54.48 21.03 54.37 22.44Q54.26 23.86 54.37 25.73L54.37 25.73L54.03 25.96Q54.98 22.09 56.22 19.46Q57.45 16.83 58.82 15.47Q60.19 14.11 61.54 14.11L61.54 14.11Q62.4 14.11 62.99 14.63Q63.58 15.15 63.89 16.11Q64.2 17.08 64.2 18.42L64.2 18.42Q64.2 20.66 64.21 22.3Q64.22 23.94 64.46 25Q64.7 26.07 65.34 26.6L65.34 26.6Q65.6 26.8 65.68 27.01Q65.76 27.22 65.76 27.5L65.76 27.5Q65.76 27.78 65.55 28.01Q65.34 28.25 64.81 28.25M74.61 28.36L74.61 28.36Q72.57 28.36 71.34 27.33Q70.1 26.29 69.56 24.43Q69.01 22.57 69.01 20.1L69.01 20.1Q69.01 18.56 69.18 17.32Q69.35 16.07 69.57 14.97Q69.8 13.86 69.94 12.77L69.94 12.77Q70.1 11.4 70.19 10.54Q70.27 9.69 70.36 8.99L70.36 8.99Q70.41 8.68 70.57 8.46Q70.72 8.23 71.08 8.23L71.08 8.23Q71.87 8.23 72.01 9.3Q72.15 10.36 71.87 12.4L71.87 12.4Q71.7 13.64 71.53 14.53Q71.36 15.43 71.22 16.23Q71.08 17.02 70.99 17.91Q70.89 18.79 70.89 19.99L70.89 19.99Q70.89 22.43 71.29 23.86Q71.7 25.28 72.51 25.9Q73.32 26.52 74.53 26.52L74.53 26.52Q75.23 26.52 75.58 26.38Q75.93 26.24 76.17 26.11Q76.4 25.98 76.77 25.98L76.77 25.98Q77.08 25.98 77.24 26.18Q77.41 26.38 77.41 26.68L77.41 26.68Q77.41 27.3 76.68 27.83Q75.96 28.36 74.61 28.36M71.11 17.16L71.11 17.16Q70.5 17.44 70.17 17.25Q69.85 17.05 69.85 16.66L69.85 16.66Q69.85 16.16 70.15 15.78Q70.44 15.4 71.53 15.01L71.53 15.01Q72.2 14.76 72.96 14.56Q73.72 14.36 74.5 14.25Q75.28 14.14 75.98 14.14L75.98 14.14Q76.35 14.14 76.61 14.25Q76.88 14.36 77.05 14.57Q77.22 14.78 77.22 15.12L77.22 15.12Q77.22 15.51 76.99 15.68Q76.77 15.85 76.24 15.9L76.24 15.9Q75.09 15.99 74.21 16.17Q73.32 16.35 72.58 16.6Q71.84 16.86 71.11 17.16M86.15 28.28L86.15 28.28Q84.66 28.28 83.59 27.83Q82.51 27.38 81.81 26.54Q81.11 25.7 80.77 24.58Q80.44 23.46 80.44 22.12L80.44 22.12Q80.44 20.72 80.94 19.31Q81.44 17.89 82.4 16.73Q83.35 15.57 84.68 14.85Q86.01 14.14 87.66 14.14L87.66 14.14Q88.89 14.14 89.8 14.59Q90.71 15.04 91.22 15.95Q91.72 16.86 91.72 18.23L91.72 18.23Q91.72 19.35 91.2 20.23Q90.68 21.11 89.76 21.73Q88.84 22.34 87.59 22.67Q86.34 22.99 84.89 22.99L84.89 22.99Q83.15 22.99 82.52 22.57Q81.89 22.15 81.89 21.64L81.89 21.64Q81.89 21.34 82.05 21.18Q82.2 21.03 82.59 21.03L82.59 21.03Q82.9 21.03 83.38 21.14Q83.85 21.25 84.78 21.25L84.78 21.25Q86.32 21.25 87.45 20.86Q88.58 20.47 89.21 19.75Q89.84 19.04 89.84 18.12L89.84 18.12Q89.84 17.05 89.33 16.52Q88.81 15.99 87.58 15.99L87.58 15.99Q86.43 15.99 85.46 16.51Q84.5 17.02 83.8 17.92Q83.1 18.82 82.7 19.96Q82.31 21.11 82.31 22.37L82.31 22.37Q82.31 23.49 82.68 24.42Q83.04 25.34 83.87 25.9Q84.69 26.46 86.06 26.46L86.06 26.46Q87.55 26.46 88.54 26.08Q89.54 25.7 90.19 25.23Q90.85 24.75 91.29 24.37Q91.72 24 92.08 24L92.08 24Q92.39 24 92.5 24.19Q92.62 24.39 92.62 24.81L92.62 24.81Q92.62 25.31 92.07 25.91Q91.52 26.52 90.6 27.05Q89.68 27.58 88.53 27.93Q87.38 28.28 86.15 28.28M99.95 28.31L99.95 28.31Q99.28 28.31 98.71 28.13Q98.13 27.94 97.68 27.41Q97.24 26.88 96.91 25.87Q96.59 24.86 96.42 23.21Q96.26 21.56 96.26 19.12L96.26 19.12Q96.26 16.69 96.35 14.88Q96.45 13.08 96.63 11.59Q96.82 10.11 97.04 8.65L97.04 8.65Q97.24 7.56 97.47 7.14Q97.71 6.72 98.08 6.72L98.08 6.72Q98.47 6.72 98.71 7.1Q98.94 7.48 98.94 8.37L98.94 8.37Q98.94 9.13 98.83 10.04Q98.72 10.95 98.55 12.21Q98.38 13.47 98.27 15.27Q98.16 17.08 98.16 19.68L98.16 19.68Q98.16 21.62 98.3 22.93Q98.44 24.25 98.68 25.03Q98.92 25.82 99.25 26.17Q99.59 26.52 99.95 26.52L99.95 26.52Q100.4 26.52 100.64 26.42Q100.88 26.32 101.04 26.24Q101.21 26.15 101.44 26.15L101.44 26.15Q101.83 26.15 101.97 26.36Q102.11 26.57 102.11 26.88L102.11 26.88Q102.11 27.27 101.79 27.61Q101.46 27.94 100.97 28.13Q100.48 28.31 99.95 28.31M107.93 28.31L107.93 28.31Q107.26 28.31 106.69 28.13Q106.11 27.94 105.66 27.41Q105.22 26.88 104.89 25.87Q104.57 24.86 104.4 23.21Q104.24 21.56 104.24 19.12L104.24 19.12Q104.24 16.69 104.33 14.88Q104.43 13.08 104.61 11.59Q104.8 10.11 105.02 8.65L105.02 8.65Q105.22 7.56 105.45 7.14Q105.69 6.72 106.06 6.72L106.06 6.72Q106.45 6.72 106.69 7.1Q106.92 7.48 106.92 8.37L106.92 8.37Q106.92 9.13 106.81 10.04Q106.7 10.95 106.53 12.21Q106.36 13.47 106.25 15.27Q106.14 17.08 106.14 19.68L106.14 19.68Q106.14 21.62 106.28 22.93Q106.42 24.25 106.66 25.03Q106.9 25.82 107.23 26.17Q107.57 26.52 107.93 26.52L107.93 26.52Q108.38 26.52 108.62 26.42Q108.86 26.32 109.02 26.24Q109.19 26.15 109.42 26.15L109.42 26.15Q109.81 26.15 109.95 26.36Q110.09 26.57 110.09 26.88L110.09 26.88Q110.09 27.27 109.77 27.61Q109.44 27.94 108.95 28.13Q108.46 28.31 107.93 28.31M124.28 28.25L124.28 28.25Q122.6 28.25 121.78 27.83Q120.95 27.41 120.95 26.77L120.95 26.77Q120.95 26.43 121.15 26.25Q121.34 26.07 121.76 26.07L121.76 26.07Q122.07 26.07 122.28 26.11Q122.49 26.15 122.72 26.21Q122.94 26.26 123.26 26.31Q123.58 26.35 124.06 26.35L124.06 26.35Q125.96 26.35 127.46 26.14Q128.96 25.93 130.01 25.54Q131.06 25.14 131.65 24.61L131.65 24.61Q131.51 23.74 130.74 23.11Q129.97 22.48 128.82 21.98Q127.67 21.48 126.43 20.96Q125.18 20.44 124.09 19.84Q123 19.24 122.31 18.4Q121.62 17.56 121.62 16.38L121.62 16.38Q121.62 14.92 122.42 13.65Q123.22 12.38 124.51 11.37Q125.8 10.36 127.29 9.63Q128.79 8.9 130.21 8.51Q131.62 8.12 132.66 8.12L132.66 8.12Q133.08 8.12 133.34 8.23Q133.61 8.34 133.73 8.55Q133.86 8.76 133.86 9.04L133.86 9.04Q133.86 9.46 133.58 9.7Q133.3 9.94 132.6 10.08L132.6 10.08Q129.69 10.64 127.66 11.62Q125.63 12.6 124.59 13.8Q123.56 15.01 123.56 16.3L123.56 16.3Q123.56 17.11 124.28 17.71Q125.01 18.31 126.16 18.84Q127.31 19.38 128.6 19.91Q129.88 20.44 131.03 21.07Q132.18 21.7 132.91 22.51Q133.64 23.32 133.64 24.44L133.64 24.44Q133.64 25.4 132.85 26.11Q132.07 26.82 130.74 27.3Q129.41 27.78 127.74 28.01Q126.08 28.25 124.28 28.25M140.75 28.28L140.75 28.28Q139.54 28.28 138.66 27.68Q137.78 27.08 137.3 25.98Q136.83 24.89 136.83 23.44L136.83 23.44Q136.83 22.12 137.23 20.79Q137.64 19.46 138.37 18.27Q139.1 17.08 140.13 16.16Q141.17 15.23 142.43 14.7Q143.69 14.17 145.14 14.17L145.14 14.17Q145.65 14.17 145.98 14.41Q146.32 14.64 146.32 15.12L146.32 15.12Q146.32 15.43 146.12 15.65Q145.93 15.88 145.48 15.93L145.48 15.93Q143.46 16.16 141.97 17.29Q140.47 18.42 139.64 20.05Q138.82 21.67 138.82 23.44L138.82 23.44Q138.82 24.33 138.97 25.07Q139.12 25.82 139.68 26.99L139.68 26.99L138.4 25.4Q139.01 26.07 139.43 26.28Q139.85 26.49 140.64 26.49L140.64 26.49Q142.54 26.49 144.01 24.25Q145.48 22.01 146.18 17.72L146.18 17.72Q146.26 17.25 146.47 16.97Q146.68 16.69 147.1 16.69L147.1 16.69Q147.66 16.69 148.03 17.19Q148.39 17.7 148.45 18.54L148.45 18.54Q148.62 20.24 148.88 21.59Q149.15 22.93 149.71 24.11Q150.27 25.28 151.22 26.57L151.22 26.57Q151.42 26.82 151.44 27.1Q151.47 27.38 151.39 27.64Q151.3 27.89 151.12 28.04Q150.94 28.2 150.69 28.2L150.69 28.2Q150.32 28.2 150.1 28.04Q149.88 27.89 149.65 27.61L149.65 27.61Q149.12 26.88 148.64 26.11Q148.17 25.34 147.79 24.32Q147.41 23.3 147.16 21.87Q146.91 20.44 146.85 18.42L146.85 18.42L147.58 18.45Q147.27 21.14 146.57 23.03Q145.87 24.92 144.91 26.07Q143.94 27.22 142.86 27.75Q141.78 28.28 140.75 28.28M166.45 28.25L166.45 28.25Q165.72 28.25 165.15 27.52Q164.58 26.8 164.25 25.1Q163.93 23.41 163.93 20.58L163.93 20.58Q163.93 19.01 163.88 18.07Q163.82 17.14 163.68 16.62Q163.54 16.1 163.32 15.79Q163.09 15.48 162.73 15.15L162.73 15.15Q163.26 15.09 163.62 15.27Q163.99 15.46 164.18 15.86Q164.38 16.27 164.41 16.91L164.41 16.91Q164.07 16.35 163.82 16.17Q163.57 15.99 163.18 15.99L163.18 15.99Q162.62 15.99 161.87 16.73Q161.13 17.47 160.33 18.8Q159.54 20.13 158.81 21.97Q158.08 23.8 157.55 25.98L157.55 25.98Q157.27 27.24 156.93 27.75Q156.6 28.25 156.06 28.25L156.06 28.25Q155.11 28.25 154.61 26.99Q154.1 25.73 154.1 23.77L154.1 23.77Q154.1 22.34 154.23 21.27Q154.36 20.19 154.51 19.25Q154.66 18.31 154.79 17.3Q154.92 16.3 154.92 14.98L154.92 14.98Q154.92 14.62 155.11 14.38Q155.31 14.14 155.67 14.14L155.67 14.14Q156.2 14.14 156.5 14.57Q156.79 15.01 156.79 15.99L156.79 15.99Q156.79 16.94 156.64 17.88Q156.48 18.82 156.3 19.92Q156.12 21.03 156.01 22.44Q155.9 23.86 156.01 25.73L156.01 25.73L155.67 25.96Q156.62 22.09 157.86 19.46Q159.09 16.83 160.46 15.47Q161.83 14.11 163.18 14.11L163.18 14.11Q164.04 14.11 164.63 14.63Q165.22 15.15 165.53 16.11Q165.84 17.08 165.84 18.42L165.84 18.42Q165.84 20.66 165.85 22.3Q165.86 23.94 166.1 25Q166.34 26.07 166.98 26.6L166.98 26.6Q167.24 26.8 167.32 27.01Q167.4 27.22 167.4 27.5L167.4 27.5Q167.4 27.78 167.19 28.01Q166.98 28.25 166.45 28.25M173.4 28.28L173.4 28.28Q172.33 28.28 171.58 28.03Q170.82 27.78 170.44 27.38Q170.06 26.99 170.06 26.6L170.06 26.6Q170.06 26.26 170.27 26.03Q170.48 25.79 170.88 25.79L170.88 25.79Q171.1 25.79 171.23 25.89Q171.35 25.98 171.55 26.12Q171.74 26.26 172.14 26.36Q172.53 26.46 173.28 26.46L173.28 26.46Q175.19 26.46 176.67 25.97Q178.16 25.48 178.69 24.28L178.69 24.28Q178.52 23.58 177.88 23.16Q177.23 22.74 176.32 22.43Q175.41 22.12 174.42 21.81Q173.42 21.5 172.57 21.1Q171.72 20.69 171.17 20.03Q170.62 19.38 170.62 18.37L170.62 18.37Q170.62 17.5 171.21 16.72Q171.8 15.93 172.78 15.33Q173.76 14.73 174.95 14.39Q176.14 14.06 177.37 14.08L177.37 14.08Q177.96 14.08 178.39 14.28Q178.83 14.48 179.07 14.74Q179.3 15.01 179.3 15.26L179.3 15.26Q179.3 15.57 179.09 15.76Q178.88 15.96 178.46 15.96L178.46 15.96Q178.38 15.96 178.24 15.95Q178.1 15.93 177.9 15.92Q177.71 15.9 177.43 15.9L177.43 15.9Q175.64 15.9 174.28 16.51Q172.92 17.11 172.28 18.31L172.28 18.31Q172.39 18.96 173.03 19.36Q173.68 19.77 174.6 20.06Q175.52 20.36 176.53 20.66Q177.54 20.97 178.42 21.39Q179.3 21.81 179.86 22.48Q180.42 23.16 180.42 24.19L180.42 24.19Q180.42 25.26 179.84 26.03Q179.25 26.8 178.25 27.3Q177.26 27.8 176 28.04Q174.74 28.28 173.4 28.28" fill="#0f172a"/></svg>
