<svg xmlns="http://www.w3.org/2000/svg" viewBox="0 0 86 38" height="38"><path d="M6.40 28.48C10.97 28.87 19 25.84 19 19.60C19 15.82 16.09 15.18 13.63 15.18C12.48 15.18 11.16 15.32 10.60 15.37C8.11 15.62 7.41 15.54 7.05 15.54C5.87 15.48 4.22 15.37 4.22 13.52C4.22 9.97 10.27 7.56 12.98 7.56C13.99 7.56 14.69 7.90 15.08 7.90C15.64 7.90 16.40 7.22 16.40 6.52C16.40 5.82 15.78 5.43 15.03 5.40C14.86 5.40 14.44 5.43 14.24 5.49C13.35 5.68 12.40 5.66 10.91 5.96C7.69 6.64 2.29 8.96 2.29 13.58C2.29 15.99 3.91 17.39 6.88 17.50C8.14 17.56 10.07 17.36 10.52 17.33C10.83 17.30 12.56 17.16 14.13 17.16C15.36 17.16 17.10 17.25 17.10 19.66C17.10 24.44 10.27 26.74 6.52 26.46C6.04 26.43 4.72 26.26 4.28 25.84C4.05 25.65 3.58 25.09 2.90 25.09C2.12 25.09 1.87 25.82 1.87 26.24C1.87 27.86 5.42 28.39 6.40 28.48M23.46 28.73C24.04 28.73 24.58 28.31 24.58 27.50C24.58 26.99 24.49 26.52 24.44 26.07C24.38 25.70 24.32 24.50 24.21 23.38C26.62 24.47 29.14 25.76 31.38 27.13C32.39 27.78 32.86 28.25 33.62 28.25C34.24 28.25 34.66 27.83 34.66 27.24C34.63 26.66 34.21 26.07 33.68 25.82C33.37 25.65 33.03 25.65 32.70 25.48C30.06 24.19 27.40 22.82 24.69 21.67C26.06 20.38 27.49 19.21 28.83 17.89C29.45 17.30 31.27 15.68 31.66 15.09C31.83 14.84 31.97 14.50 31.97 14.17C31.97 13.55 31.52 12.91 30.88 12.91C30.29 12.94 29.87 13.50 29.73 13.94C28.08 16.04 26.03 17.86 24.04 19.74C23.96 17.25 24.02 14.39 23.93 11.51C23.88 10.39 23.79 9.16 23.76 8.04C23.74 7.11 23.85 5.29 22.48 5.29C21.72 5.29 21.38 5.96 21.38 6.72C21.38 7.39 21.55 7.95 21.64 8.60C22.06 10.98 22.17 14.45 22.28 16.91C22.28 17.30 22.34 18.76 22.34 19.96C22.34 20.55 22.34 20.97 22.28 21.28C22.22 21.39 22.14 21.73 22.14 21.95C22.14 22.20 22.25 22.60 22.31 22.68C22.34 22.96 22.34 23.24 22.34 23.55L22.34 26.10C22.34 28.14 22.48 28.73 23.46 28.73M38.80 28.42C39.64 28.42 39.95 27.55 39.95 26.85C39.95 25.34 39.39 23.86 39.39 22.34C39.39 19.24 41.43 16.77 44.18 15.60C45.88 14.87 47.23 15.43 47.23 13.80C47.23 13.13 46.44 12.80 45.88 12.80C45.38 12.80 44.88 13.05 44.43 13.27C42.19 14.39 40.45 15.26 38.97 17.61C38.91 16.66 38.88 15.82 38.88 14.87C38.88 14.08 38.69 13.16 37.68 13.16C36.90 13.16 36.53 13.83 36.53 14.50C36.53 14.78 36.59 15.06 36.67 15.34C36.95 16.30 37.04 17.22 37.12 18.20C37.34 20.86 37.60 23.52 37.74 26.18C37.76 26.71 37.76 27.30 37.93 27.80C38.07 28.20 38.38 28.42 38.80 28.42M51.01 29.09C51.88 29.12 52.21 28.28 52.21 27.41C52.21 27.05 52.04 26.21 52.04 25.82L51.71 15.54C51.68 14.78 51.37 13.80 50.45 13.80C49.78 13.80 49.36 14.36 49.36 15.01C49.36 15.37 49.44 15.74 49.50 16.07C49.78 18.20 50.08 20.27 50.08 22.43L50.08 23.58C50.08 24.58 50.06 25.68 49.92 26.63C49.86 26.94 49.83 27.33 49.83 27.64C49.83 28.39 50.11 29.06 51.01 29.09M48.43 10.36C48.43 11.23 49.10 11.79 49.94 11.79C50.78 11.79 51.68 11.23 51.68 10.28C51.68 9.86 51.54 9.44 51.12 9.27C50.81 8.96 50.42 8.76 NaN 8.76C49.10 8.76 48.43 9.52 48.43 10.36M49.80 10.28C49.80 10.22 49.83 10.16 49.89 10.14C49.97 10.19 50.06 10.28 50.06 10.39L50.06 10.42L49.97 10.50L49.89 10.47L49.83 10.42C49.83 10.36 49.80 10.33 49.80 10.28M61.48 28.20C62.29 28.20 62.38 27.41 62.54 26.85L63.05 25.28C64.06 22.20 65.71 18.09 67.75 15.57C68.09 15.15 68.40 14.70 68.40 14.14C68.40 13.55 67.95 13.08 67.36 13.08C67.22 13.08 67.08 13.10 66.94 13.16C65.88 13.58 65.76 14.73 65.29 15.65C63.80 18.59 62.43 21.50 61.37 24.61C60.50 22.60 59.63 20.61 58.71 18.62C58.29 17.72 57.73 16.80 57.42 15.88C57.17 15.15 56.78 14.11 55.85 14.11C55.12 14.11 54.90 14.67 54.90 15.26C54.90 16.07 55.43 16.49 55.82 17.08C57.06 18.87 59.18 24.08 60.11 26.29C60.33 26.85 60.70 28.20 61.48 28.20M82.26 27.83C82.26 27.36 82.06 27.10 82.06 26.52L81.95 20.36C81.95 20.27 82.17 19.94 82.17 19.66C82.17 19.35 81.95 19.04 81.86 18.96C81.84 18.90 81.78 16.94 81.19 15.48C80.55 13.80 79.60 13.13 77.72 13.13C76.07 13.13 73.80 13.78 72.06 14.95C71.20 15.54 70.10 16.35 70.10 17.28C70.10 17.92 70.61 18.40 71.20 18.40C72.15 18.40 72.15 17.39 72.96 16.69C74.39 15.46 76.49 14.95 77.86 14.95C79.40 14.95 79.68 16.41 79.96 18.20C79.60 18.12 78.90 17.92 77.92 17.92C73.86 17.92 69.35 20.80 69.35 24.70C69.35 27.05 71.17 28.53 73.77 28.53C75.87 28.53 78.34 27.50 80.07 25.98C80.04 26.66 79.96 27.24 79.96 27.66C79.96 28.53 80.24 29.20 81.02 29.20C81.81 29.20 82.26 28.59 82.26 27.83M71.14 24.70C71.14 22.09 74.78 19.71 77.80 19.71C79.04 19.71 79.79 20.41 80.13 20.61C80.16 20.66 80.13 22.71 80.10 22.74C80.10 22.76 79.93 22.82 79.71 23.13C79.20 23.83 79.62 24 78.25 25.06C77.02 26.04 75.40 26.71 73.80 26.71C71.98 26.71 71.14 25.82 71.14 24.70" fill="#0f172a"/></svg>
