<svg xmlns="http://www.w3.org/2000/svg" viewBox="0 0 100 38" height="38"><path d="M5.59 13.66C5.59 12.15 6.85 11.17 9.04 11.17C11.28 11.17 12.76 12.21 13.29 14.56L16.62 14.56C15.95 10.39 12.87 8.6 9.12 8.6C4.78 8.6 2.37 11.06 2.37 13.92C2.37 21.56 13.91 17.56 13.91 22.93C13.91 24.64 12.54 25.79 9.93 25.79C7.38 25.79 5.79 24.61 5.26 22.46L1.98 22.46C2.76 26.43 5.68 28.36 9.9 28.36C14.08 28.36 17.13 26.26 17.13 22.51C17.13 14.73 5.59 18.68 5.59 13.66M32.98 28L36.73 28L41.07 13.08L37.99 13.08L35.24 24.16L34.91 25.76L34.57 24.16L31.41 13.08L28.24 13.08L25.11 24.16L24.72 25.84L24.35 24.16L21.61 13.08L18.39 13.08L22.7 28L26.4 28L29.36 17.39L29.7 15.71L30.01 17.39M43.17 11.23L46.16 11.23L46.16 7.84L43.17 7.84M43.17 28L46.16 28L46.16 13.08L43.17 13.08M50.17 23.55C50.17 26.77 51.54 28.36 54.45 28.36C55.29 28.36 55.99 28.25 56.33 28.08L56.33 25.9L55.74 25.9C53.64 25.9 53.16 25.09 53.16 23.38L53.16 15.4L56.38 15.4L56.38 13.08L53.16 13.08L53.16 9.63L50.17 9.63L50.17 13.08L48.15 13.08L48.15 15.4L50.17 15.4M57.64 28L70.19 28L70.19 25.68L61.2 25.68L69.71 15.4L69.71 13.08L57.98 13.08L57.98 15.4L66.16 15.4L57.64 25.68M85.67 23.13L82.54 23.13C82.03 24.98 80.69 25.87 78.78 25.87C76.35 25.87 74.92 24.16 74.75 21.11L85.56 21.11L85.56 20.38C85.56 15.6 82.96 12.68 78.64 12.68C74.39 12.68 71.7 15.48 71.7 20.55C71.7 25.42 74.39 28.36 78.78 28.36C82.28 28.36 84.86 26.6 85.67 23.13M78.64 15.18C80.77 15.18 82.09 16.55 82.45 19.07L74.84 19.07C75.2 16.55 76.49 15.18 78.64 15.18M88.56 28L91.55 28L91.55 19.85C91.55 17.25 92.78 15.51 95.64 15.51C96.26 15.51 96.79 15.57 97.24 15.71L97.24 13.08C96.96 12.82 96.4 12.68 95.81 12.68C94.07 12.68 92.53 13.5 91.55 15.29L91.55 13.08L88.56 13.08" fill="#0f172a"/></svg>
