<svg xmlns="http://www.w3.org/2000/svg" xmlns:xlink="http://www.w3.org/1999/xlink" version="1.1" viewBox="0 0 522 117">
  <defs/>
  <g>
    <rect fill="#ffffff" stroke="none" x="0" y="0" width="522" height="117"/>
    <g transform="translate(-179.12499999999994,-899.5) scale(1.5,1.5)">
      <path fill="none" stroke="rgb(0,0,0)" paint-order="fill stroke markers" d=" M 221.41666666666663 638.6666666666666 L 362.58333333333337 638.6666666666666" stroke-opacity="1" stroke-linejoin="round" stroke-miterlimit="10"/>
      <path fill="rgb(0,0,0)" stroke="none" paint-order="stroke fill markers" d=" M 355.8833333333334 643.0166666666667 L 364.58333333333337 638.6666666666666 L 355.8833333333334 634.3166666666666 Z" fill-opacity="1"/>
      <rect fill="rgb(255,255,255)" stroke="none" x="276.5" y="630.6666666666666" width="32" height="16" fill-opacity="1"/>
      <text fill="rgb(0,0,0)" stroke="none" font-family="Helvetica, Arial, sans-serif, Apple Color Emoji, Segoe UI Emoji, Segoe UI Symbol" font-size="10px" font-style="normal" font-weight="normal" text-decoration="normal" x="292.5" y="643.6666666666666" text-anchor="middle" dominant-baseline="text-after-edge" fill-opacity="1">to the</text>
      <path fill="rgb(255,255,255)" stroke="rgb(0,0,0)" paint-order="fill stroke markers" d=" M 170.91666666666663 601.1666666666666 L 212.91666666666663 601.1666666666666 L 212.91666666666663 601.1666666666666 A 8 8 0 0 1 220.91666666666663 609.1666666666666 L 220.91666666666663 668.1666666666666 L 220.91666666666663 668.1666666666666 A 8 8 0 0 1 212.91666666666663 676.1666666666666 L 128.91666666666663 676.1666666666666 L 128.91666666666663 676.1666666666666 A 8 8 0 0 1 120.91666666666663 668.1666666666666 L 120.91666666666663 609.1666666666666 L 120.91666666666663 609.1666666666666 A 8 8 0 0 1 128.91666666666663 601.1666666666666 L 170.91666666666663 601.1666666666666 Z" fill-opacity="1" stroke-opacity="1" stroke-miterlimit="10"/>
      <text fill="rgb(0,0,0)" stroke="none" font-family="Helvetica, Arial, sans-serif, Apple Color Emoji, Segoe UI Emoji, Segoe UI Symbol" font-size="10px" font-style="normal" font-weight="normal" text-decoration="normal" x="170.91666666666663" y="643.6666666666666" text-anchor="middle" dominant-baseline="text-after-edge" fill-opacity="1">hello</text>
      <path fill="rgb(255,255,255)" stroke="rgb(0,0,0)" paint-order="fill stroke markers" d=" M 415.08333333333337 601.1666666666666 L 457.08333333333337 601.1666666666666 L 457.08333333333337 601.1666666666666 A 8 8 0 0 1 465.08333333333337 609.1666666666666 L 465.08333333333337 668.1666666666666 L 465.08333333333337 668.1666666666666 A 8 8 0 0 1 457.08333333333337 676.1666666666666 L 373.08333333333337 676.1666666666666 L 373.08333333333337 676.1666666666666 A 8 8 0 0 1 365.08333333333337 668.1666666666666 L 365.08333333333337 609.1666666666666 L 365.08333333333337 609.1666666666666 A 8 8 0 0 1 373.08333333333337 601.1666666666666 L 415.08333333333337 601.1666666666666 Z" fill-opacity="1" stroke-opacity="1" stroke-miterlimit="10"/>
      <text fill="rgb(0,0,0)" stroke="none" font-family="Helvetica, Arial, sans-serif, Apple Color Emoji, Segoe UI Emoji, Segoe UI Symbol" font-size="10px" font-style="normal" font-weight="normal" text-decoration="normal" x="415.08333333333337" y="643.6666666666666" text-anchor="middle" dominant-baseline="text-after-edge" fill-opacity="1">world</text>
      <g transform="scale(0.6666666666666666,0.6666666666666666) translate(179.12499999999994,899.5)"/>
    </g>
  </g>
<!--Original Flowchart Text (flowchart.fun):

~~~
layout:
  name: breadthfirst
~~~
hello
  to the: world-->
</svg>
