<?xml version="1.0" encoding="UTF-8"?><svg id="Layer_1" xmlns="http://www.w3.org/2000/svg" viewBox="0 0 104 104"><defs><style>.cls-1{stroke:#000;}.cls-1,.cls-2{stroke-linecap:round;}.cls-1,.cls-2,.cls-3{fill:none;stroke-linejoin:round;stroke-width:2px;}.cls-2,.cls-3{stroke:#fff;}.cls-3{stroke-linecap:square;}</style></defs><path d="m66.801,24.836c-.443-.965-1.172-2.107-2.403-3.052-2.452-1.881-6.607-2.619-8.842-.482-1.182,1.142-1.536,2.757-1.575,3.584v52.925c-.256,5.386,6.962,6.952,10.94,5.859,3.801-1.044,5.425-4.854,5.642-5.416,2.668,0,5.071-1.447,6.213-3.722,1.27-2.58.256-5.12.128-5.514,3.102-1.26,5.248-4.195,5.514-7.562.158-2.028-.778-4.795-1.979-6.627.876-1.27,1.369-2.737,1.369-4.224,0-3.062-2.147-5.16-2.668-5.642.128-.256,1.654-4.244-.876-7.739-2.097-2.934-4.585-4.131-5.067-4.17.61-4.372-1.61-7.968-6.394-8.217Z"/><path class="cls-1" d="m42.408,29.001c-3.674-6.298-8.354-3.455-9.229-2.493-.919,1.006-2.099,3.062-1.487,7.435-.481.044-3.849.35-5.948,3.28-2.537,3.499-1.006,7.479-.875,7.742-.525.481-2.668,2.581-2.668,5.642,0,3.543,2.755,6.911,6.867,8.048"/><path class="cls-1" d="m37.116,25.02c.437-1.006,1.181-2.231,2.493-3.237,2.449-1.881,6.604-2.624,8.835-.481,1.181,1.137,1.531,2.755,1.575,3.587v52.923c.262,5.38-6.954,6.954-10.935,5.861-3.805-1.05-5.424-4.855-5.642-5.424-2.668,0-5.074-1.443-6.211-3.718-1.268-2.581-.262-5.117-.131-5.511-3.105-1.268-5.249-4.199-5.511-7.567-.175-2.318.612-4.592,2.056-6.342"/><path class="cls-1" d="m30.599,42.209c-.437,2.887.831,5.686,3.149,7.086,2.887,1.706,6.867.962,9.185-1.968"/><path class="cls-1" d="m32.305,67.053c2.493-1.225,5.467-1.05,7.742.525,2.318,1.575,3.587,4.286,3.28,7.086"/><path class="cls-1" d="m36.941,66.353c.044-1.575.481-3.893,2.449-5.598,2.012-1.706,4.33-1.706,4.986-1.706"/><path class="cls-1" d="m35.454,36.261c1.662-.919,3.718-.831,5.292.175,1.793,1.137,2.668,3.324,2.274,5.467"/><path class="cls-1" d="m66.801,24.836c-.443-.965-1.172-2.107-2.403-3.052-2.452-1.881-6.607-2.619-8.842-.482-1.182,1.142-1.536,2.757-1.575,3.584v52.925c-.256,5.386,6.962,6.952,10.94,5.859,3.801-1.044,5.425-4.854,5.642-5.416,2.668,0,5.071-1.447,6.213-3.722,1.27-2.58.256-5.12.128-5.514,3.102-1.26,5.248-4.195,5.514-7.562.158-2.028-.778-4.795-1.979-6.627.876-1.27,1.369-2.737,1.369-4.224,0-3.062-2.147-5.16-2.668-5.642.128-.256,1.654-4.244-.876-7.739-2.097-2.934-4.585-4.131-5.067-4.17.61-4.372-1.61-7.968-6.394-8.217Z"/><g><polyline class="cls-3" points="53.969 49.174 53.979 49.174 68.207 49.174"/><circle class="cls-2" cx="71.159" cy="49.176" r="2.954"/></g><g><polyline class="cls-3" points="53.969 59.046 53.979 59.046 68.207 59.046"/><circle class="cls-2" cx="71.159" cy="59.049" r="2.954"/></g><g><polyline class="cls-3" points="53.969 42.212 53.979 42.212 61.394 42.212 65.007 38.609"/><circle class="cls-2" cx="67.137" cy="36.561" r="2.954"/></g><g><polyline class="cls-3" points="53.969 65.588 53.979 65.588 61.394 65.588 65.106 69.3"/><circle class="cls-2" cx="67.137" cy="71.441" r="2.954"/></g></svg>