<?xml version="1.0" encoding="UTF-8"?><svg id="Layer_1" xmlns="http://www.w3.org/2000/svg" viewBox="0 0 104 104"><defs><style>.cls-1,.cls-2{fill:none;}.cls-1,.cls-2,.cls-3{stroke-linecap:round;stroke-linejoin:round;stroke-width:2px;}.cls-1,.cls-3{stroke:#000;}.cls-2{stroke:#fff;}</style></defs><g><g><polyline class="cls-1" points="28.231 79.189 35.931 67.479 35.931 59.229"/><circle class="cls-3" cx="28.234" cy="79.184" r="3.177"/></g><g><polyline class="cls-1" points="75.504 79.189 67.804 67.479 67.804 59.229"/><circle class="cls-3" cx="75.501" cy="79.184" r="3.177"/></g><g><polyline class="cls-1" points="45.41 79.189 45.41 76.009 45.41 59.229"/><circle class="cls-3" cx="45.41" cy="79.184" r="3.177"/></g><g><polyline class="cls-1" points="58.325 79.189 58.325 76.009 58.325 59.229"/><circle class="cls-3" cx="58.325" cy="79.184" r="3.177"/></g></g><g><path class="cls-1" d="m31.057,59.229h-.01c-6.75-.01-12.21-5.47-12.21-12.21s5.47-12.2,12.22-12.2c.63,0,1.26.04,1.87.14-.13-.63-.18-1.28-.18-1.95,0-6.28,5.08-11.37,11.36-11.37,5.25,0,9.68,3.57,10.97,8.42,1.83-1.38,4.13-2.2,6.6-2.2,5.7,0,10.4,4.34,10.96,9.9.48-.07.97-.1,1.47-.1,5.95,0,10.79,4.83,10.79,10.79s-4.84,10.78-10.79,10.78H31.047h.01Z"/><path class="cls-1" d="m32.927,34.959c6.12.76,10.72,5.95,10.72,12.28"/></g><g><circle cx="74.512" cy="34.648" r="10.651"/><polyline class="cls-2" points="69.996 34.826 72.888 37.718 79.027 31.579"/></g></svg>