<svg width="104" height="104" viewBox="0 0 104 104" fill="none" xmlns="http://www.w3.org/2000/svg">
<path d="M59.3 60.1C56.7 61.7 53.8 62.7 50.7 63C50.2 63 49.7 63.1 49.2 63.1C48.6 63.1 48 63.1 47.4 63C45 62.8 42.6 62 40.5 60.9C39.3 60.3 38.2 59.5 37.1 58.7C32.4 55 28.9 49.1 27.7 42.2C27.4 40.4 27.2 38.5 27.2 36.5C27.2 21.9 37.1 10 49.4 10C60.3 10 69.4 19.5 71.2 31.9" stroke="black" stroke-width="2" stroke-miterlimit="10" stroke-linecap="round" stroke-linejoin="round"/>
<path d="M46.8 63.5L42.1 70.1H56.3L51.1 63.5C50 62 47.9 62 46.8 63.5Z" fill="black"/>
<path d="M74 70.9C83.0575 70.9 90.4 62.1248 90.4 51.3C90.4 40.4752 83.0575 31.7 74 31.7C64.9425 31.7 57.6 40.4752 57.6 51.3C57.6 62.1248 64.9425 70.9 74 70.9Z" stroke="black" stroke-width="2" stroke-miterlimit="10" stroke-linecap="round" stroke-linejoin="round"/>
<path d="M72.2 71.3001L68.7 76.2001H79.2L75.3 71.3001C74.6 70.2001 73 70.2001 72.2 71.3001Z" fill="black"/>
<path d="M27.6 42.2C21 42.6 15.8 49.2 15.8 57.2C15.8 65.1 20.8 71.5 27.3 72.1C27.6 72.1 28 72.2 28.4 72.2C28.7 72.2 29 72.2 29.2 72.2C34.7 71.8 39.2 67.0999 40.5 60.9999" stroke="black" stroke-width="2" stroke-miterlimit="10" stroke-linecap="round" stroke-linejoin="round"/>
<path d="M26.9 72.4L24.2 76.1H32.2L29.3 72.3C28.8 71.6 27.5 71.6 26.9 72.4Z" fill="black"/>
<path d="M48 94V88.2C48 87 49 86.1 50.1 86.1H53.8C55.2 86.1 56.3 85 56.3 83.6C56.3 82.2 55.2 81.1 53.8 81.1H44.6C43.2 81.1 42.1 80 42.1 78.6V78.5C42.1 77.1 43.2 76 44.6 76H46.8C48.3 76 49.6 74.7 49.6 73.2V67.4" stroke="black" stroke-width="2" stroke-miterlimit="10" stroke-linecap="round" stroke-linejoin="round"/>
<path d="M28.3 74.7V85.3" stroke="black" stroke-width="2" stroke-miterlimit="10" stroke-linecap="round" stroke-linejoin="round"/>
<path d="M74 74.7V85.3" stroke="black" stroke-width="2" stroke-miterlimit="10" stroke-linecap="round" stroke-linejoin="round"/>
<path d="M90.4 51.3C90.4 62.1 83.1 70.9 74 70.9C68.8 70.9 64.2 68 61.2 63.5C63.5 65 66.2 65.9 69 65.9C78.1 65.9 85.4 57.1 85.4 46.2C85.4 41.5 84 37.3 81.8 33.9C86.9 37.3 90.4 43.8 90.4 51.3Z" fill="black"/>
<path d="M34.6 30.1C34.9 28.4 35.7 24.6 39.3 20.9C43 17 46.3 16.3 49.1 16" stroke="black" stroke-width="2" stroke-miterlimit="10" stroke-linecap="round" stroke-linejoin="round"/>
<path d="M58.6 28.6C60.6434 28.6 62.3 26.9434 62.3 24.9C62.3 22.8565 60.6434 21.2 58.6 21.2C56.5565 21.2 54.9 22.8565 54.9 24.9C54.9 26.9434 56.5565 28.6 58.6 28.6Z" fill="black"/>
<path d="M40.4 60.9001C39.1 67.1001 34.6 71.7001 29.1 72.1001C28.8 72.1001 28.5 72.1001 28.3 72.1001C27.9 72.1001 27.6 72.1001 27.2 72.0001C24.4 71.7001 21.8 70.3001 19.9 68.2001C22.3 69.5001 24.9 70.0001 27.5 69.6001C27.8 69.5001 28.2 69.5001 28.5 69.4001C28.8 69.3001 29 69.2001 29.3 69.1001C33.5 67.5001 36.3 63.5001 37 58.6001C38.1 59.5001 39.3 60.3001 40.4 60.9001Z" fill="black"/>
<path d="M17.5 31.2C18.8 32.2 19.1 34 18.1 35.3C17.1 36.6 15.3 36.9 14 35.9" stroke="black" stroke-width="2" stroke-miterlimit="10" stroke-linecap="round" stroke-linejoin="round"/>
<path d="M75.8 24.9L77.1 20.6L81.9 21.7L83.2 17.3" stroke="black" stroke-width="2" stroke-miterlimit="10" stroke-linecap="round" stroke-linejoin="round"/>
</svg>
