<?xml version="1.0" encoding="UTF-8"?><svg id="Layer_1" xmlns="http://www.w3.org/2000/svg" viewBox="0 0 104 104"><defs><style>.cls-1{fill:none;stroke:#000;stroke-linecap:round;stroke-linejoin:round;stroke-width:2px;}</style></defs><g><rect class="cls-1" x="45.961" y="46.468" width="34.381" height="38.216"/><g><path d="m70.091,63.323l.806,5.179h-15.491l.806-5.179c.195-1.42,1.408-2.475,2.839-2.475h8.199c1.434,0,2.647,1.055,2.842,2.475Z"/><path d="m65.53,52.949c.774.667,1.263,1.655,1.263,2.756,0,.159-.011.319-.032.473-.23,1.787-1.759,3.168-3.609,3.168-2.012,0-3.641-1.632-3.641-3.641,0-.191.014-.378.041-.56.271-1.746,1.78-3.082,3.6-3.082.141,0,.28.009.416.023.746.086,1.422.396,1.962.863Z"/></g><line class="cls-1" x1="45.961" y1="73.622" x2="80.342" y2="73.622"/><line class="cls-1" x1="50.662" y1="79.141" x2="62.37" y2="79.141"/><line class="cls-1" x1="66.475" y1="79.141" x2="72.078" y2="79.141"/></g><polyline class="cls-1" points="58.043 46.467 58.043 19.316 23.659 19.316 23.659 46.467 23.659 57.534 45.961 57.534"/><line class="cls-1" x1="23.658" y1="46.468" x2="40.067" y2="46.468"/><line class="cls-1" x1="30.359" y1="51.987" x2="40.067" y2="51.987"/><g><path class="cls-1" d="m47.791,36.24l.806,5.179h-15.491l.806-5.179c.195-1.42,1.408-2.475,2.839-2.475h8.199c1.434,0,2.647,1.055,2.842,2.475Z"/><circle class="cls-1" cx="40.851" cy="27.111" r="3.66"/></g><path class="cls-1" d="m26.208,74.184l5.43,5.43,5.43-5.43c.749-.749,1.124-1.732,1.124-2.715.003-.98-.372-1.963-1.124-2.715s-1.732-1.124-2.715-1.124-1.966.375-2.715,1.124c-.749-.749-1.732-1.124-2.715-1.124s-1.966.375-2.715,1.124-1.124,1.732-1.124,2.715.375,1.966,1.124,2.715Z"/><g><line class="cls-1" x1="65.921" y1="25.248" x2="65.921" y2="30.861"/><line class="cls-1" x1="78.342" y1="37.53" x2="72.729" y2="37.53"/><line class="cls-1" x1="74.676" y1="28.817" x2="70.706" y2="32.786"/></g></svg>