<?xml version="1.0" encoding="UTF-8"?><svg id="Layer_1" xmlns="http://www.w3.org/2000/svg" viewBox="0 0 104 104"><defs><style>.cls-1{stroke:#000;}.cls-1,.cls-2{fill:none;stroke-linecap:round;stroke-linejoin:round;stroke-width:2px;}.cls-2{stroke:#FDF9C9;}</style></defs><g><g><circle class="cls-1" cx="49.786" cy="54.214" r="32.284"/><polyline class="cls-1" points="49.786 35.941 49.786 54.214 61.104 62.233"/><circle cx="49.786" cy="54.214" r="4.036"/></g><line class="cls-1" x1="49.786" y1="24.949" x2="49.786" y2="28.286"/><line class="cls-1" x1="35.153" y1="28.87" x2="36.822" y2="31.76"/><line class="cls-1" x1="24.442" y1="39.582" x2="27.332" y2="41.25"/><line class="cls-1" x1="20.521" y1="54.214" x2="23.858" y2="54.214"/><line class="cls-1" x1="24.442" y1="68.847" x2="27.332" y2="67.178"/><line class="cls-1" x1="35.153" y1="79.558" x2="36.822" y2="76.668"/><line class="cls-1" x1="49.786" y1="83.479" x2="49.786" y2="80.142"/><line class="cls-1" x1="64.418" y1="79.558" x2="62.75" y2="76.668"/><line class="cls-1" x1="75.13" y1="68.847" x2="72.24" y2="67.178"/><line class="cls-1" x1="79.051" y1="54.214" x2="75.714" y2="54.214"/><line class="cls-1" x1="75.13" y1="39.582" x2="72.24" y2="41.25"/><line class="cls-1" x1="64.418" y1="28.87" x2="62.75" y2="31.76"/></g><g><circle cx="72.499" cy="31.501" r="14"/><g><path class="cls-2" d="m68.06,36.673h6.234c1.457,0,2.644-1.161,2.644-2.586s-1.187-2.586-2.644-2.586h-3.561c-1.457,0-2.644-1.161-2.644-2.586s1.187-2.586,2.644-2.586h5.234"/><line class="cls-2" x1="72.513" y1="23.05" x2="72.513" y2="26.33"/><line class="cls-2" x1="72.513" y1="36.673" x2="72.513" y2="39.953"/></g></g></svg>