<svg width="104" height="104" viewBox="0 0 104 104" fill="none" xmlns="http://www.w3.org/2000/svg">
<path d="M65 69.2H41L42.7 19C42.9 13.4 47.5 9 53 9C58.6 9 63.1 13.4 63.3 19L65 69.2Z" stroke="black" stroke-width="2" stroke-miterlimit="10" stroke-linecap="round" stroke-linejoin="round"/>
<path d="M41 69.2H28.7L30.4 46.9C30.8 42.6 34.2 39.1 38.4 39.1H40.9" stroke="black" stroke-width="2" stroke-miterlimit="10" stroke-linecap="round" stroke-linejoin="round"/>
<path d="M65 69.2H77.2L75.5 46.9C75.1 42.6 71.7 39.1 67.5 39.1H65" stroke="black" stroke-width="2" stroke-miterlimit="10" stroke-linecap="round" stroke-linejoin="round"/>
<path d="M53 35.7C55.8167 35.7 58.1 33.4166 58.1 30.6C58.1 27.7833 55.8167 25.5 53 25.5C50.1833 25.5 47.9 27.7833 47.9 30.6C47.9 33.4166 50.1833 35.7 53 35.7Z" stroke="black" stroke-width="2" stroke-miterlimit="10" stroke-linecap="round" stroke-linejoin="round"/>
<path d="M65 62.1H41V68.3H65V62.1Z" fill="black"/>
<path d="M55.9 53.2L55.1 72C55.1 73.2 54.1 74.1 52.9 74.1C51.7 74.1 50.8 73.2 50.7 72L49.9 53.2C49.8 51.5 51.2 50.1 52.8 50.1C54.6 50.2 56 51.6 55.9 53.2Z" fill="black"/>
<path d="M45.8 70.6C45.8 75.3 48.8 79.2 53 80.6" stroke="black" stroke-width="2" stroke-miterlimit="10" stroke-linecap="round" stroke-linejoin="round"/>
<path d="M53 80.6C57.2 79.2 60.2 75.2 60.2 70.6" stroke="black" stroke-width="2" stroke-miterlimit="10" stroke-linecap="round" stroke-linejoin="round"/>
<path d="M19 94.7C19 86.4 25.7 79.7 34 79.7C34.9 79.7 35.9 79.8 36.8 79.9" stroke="black" stroke-width="2" stroke-miterlimit="10" stroke-linecap="round" stroke-linejoin="round"/>
<path d="M34 87.6C34 81 39.4 75.6 46 75.6" stroke="black" stroke-width="2" stroke-miterlimit="10" stroke-linecap="round" stroke-linejoin="round"/>
<path d="M59.3 86.5C59.3 80.5 64.2 75.6 70.2 75.6C75 75.6 79 78.7 80.5 83" stroke="black" stroke-width="2" stroke-miterlimit="10" stroke-linecap="round" stroke-linejoin="round"/>
<path d="M73.7 92.3C73.7 86.9 78 82.6 83.4 82.6C88.8 82.6 93.1 86.9 93.1 92.3" stroke="black" stroke-width="2" stroke-miterlimit="10" stroke-linecap="round" stroke-linejoin="round"/>
<path d="M63.3 19C63.1 13.4 58.5 9 53 9C47.4 9 42.9 13.4 42.7 19H63.3Z" fill="black"/>
<path d="M25.3 24.5L30.4 29.5" stroke="black" stroke-width="2" stroke-miterlimit="10" stroke-linecap="round" stroke-linejoin="round"/>
<path d="M25.3 29.5L30.4 24.5" stroke="black" stroke-width="2" stroke-miterlimit="10" stroke-linecap="round" stroke-linejoin="round"/>
<path d="M83.7 33.8C82.5 35 80.6 35 79.4 33.8C78.2 32.6 78.2 30.7 79.4 29.5" stroke="black" stroke-width="2" stroke-miterlimit="10" stroke-linecap="round" stroke-linejoin="round"/>
</svg>
