<svg width="104" height="104" viewBox="0 0 104 104" fill="none" xmlns="http://www.w3.org/2000/svg">
<g clip-path="url(#clip0_2_2)">
<path d="M80.5 51.6L79.7 65.4H76.6H73.4L72.6 51.6C73.8 52.3 75.2 52.7 76.6 52.7C77.9 52.7 79.3 52.3 80.5 51.6Z" fill="black"/>
<path d="M46 81.3H18.6C15.5 81.3 13 78.8 13 75.7C13 74.2 13.6 72.8 14.6 71.7C15.5 70.8 16.8 70.2 18.2 70.1C18.3 70.1 18.4 70.1 18.6 70.1H41.6H46" stroke="black" stroke-width="2" stroke-miterlimit="10" stroke-linecap="round" stroke-linejoin="round"/>
<path d="M46 81.3C42.9 81.3 40.4 78.8 40.4 75.7C40.4 74.2 41 72.8 42 71.7C43 70.7 44.4 70.1 45.9 70.1" stroke="black" stroke-width="2" stroke-miterlimit="10" stroke-linecap="round" stroke-linejoin="round"/>
<path d="M18.6 59H41.8C40.3 59 39 59.7 38 60.6C37 61.6 36.4 63 36.4 64.6C36.4 67.6 38.7 70 41.6 70.2H18.6C18.5 70.2 18.3 70.2 18.2 70.2H14.6C11.5 70.2 9 67.7 9 64.6C9 63.1 9.6 61.7 10.6 60.6C11.6 59.6 13 59 14.5 59H18.3C18.4 59 18.5 59 18.6 59Z" fill="black"/>
<path d="M42 70.1H18.2H14.6C11.5 70.1 9 67.6 9 64.5C9 63 9.6 61.6 10.6 60.5C11.6 59.5 13 58.9 14.5 58.9H18.3H42" stroke="black" stroke-width="2" stroke-miterlimit="10" stroke-linecap="round" stroke-linejoin="round"/>
<path d="M42 70.1C41.9 70.1 41.7 70.1 41.6 70.1C38.7 69.9 36.4 67.5 36.4 64.5C36.4 63 37 61.6 38 60.5C39 59.5 40.3 58.9 41.8 58.9C41.9 58.9 41.9 58.9 42 58.9" stroke="black" stroke-width="2" stroke-miterlimit="10" stroke-linecap="round" stroke-linejoin="round"/>
<path d="M46 59H41.8H18.6C18.5 59 18.5 59 18.4 59C15.4 58.9 13 56.5 13 53.4C13 51.9 13.6 50.5 14.6 49.4C15.6 48.4 17 47.8 18.5 47.8H46" stroke="black" stroke-width="2" stroke-miterlimit="10" stroke-linecap="round" stroke-linejoin="round"/>
<path d="M46 59C42.9 59 40.4 56.5 40.4 53.4C40.4 51.9 41 50.5 42 49.4C43 48.4 44.4 47.8 46 47.8" stroke="black" stroke-width="2" stroke-miterlimit="10" stroke-linecap="round" stroke-linejoin="round"/>
<path d="M76.3 27.5V22" stroke="black" stroke-width="2" stroke-miterlimit="10" stroke-linecap="round" stroke-linejoin="round"/>
<path d="M67.6 31.3L63.7 27.4" stroke="black" stroke-width="2" stroke-miterlimit="10" stroke-linecap="round" stroke-linejoin="round"/>
<path d="M64.2 40.1H58.7" stroke="black" stroke-width="2" stroke-miterlimit="10" stroke-linecap="round" stroke-linejoin="round"/>
<path d="M68 48.8L64.1 52.7" stroke="black" stroke-width="2" stroke-miterlimit="10" stroke-linecap="round" stroke-linejoin="round"/>
<path d="M89.4 52.3L85.5 48.5" stroke="black" stroke-width="2" stroke-miterlimit="10" stroke-linecap="round" stroke-linejoin="round"/>
<path d="M94.4 39.6H88.9" stroke="black" stroke-width="2" stroke-miterlimit="10" stroke-linecap="round" stroke-linejoin="round"/>
<path d="M89 27.1L85.1 30.9" stroke="black" stroke-width="2" stroke-miterlimit="10" stroke-linecap="round" stroke-linejoin="round"/>
<path d="M80.5 51.6L79.7 65.4H76.6H73.4L72.6 51.6" stroke="black" stroke-width="2" stroke-miterlimit="10" stroke-linecap="round" stroke-linejoin="round"/>
<path d="M85.1 30.9C87.4 33.2 88.9 36.3 88.9 39.8C88.9 45.2 85.4 49.9 80.5 51.5C79.3 51.9 77.9 52.1 76.5 52.1C75.1 52.1 73.8 51.9 72.5 51.5C70.8 51 69.3 50 68 48.8C65.7 46.6 64.2 43.4 64.2 39.9C64.2 36.6 65.5 33.5 67.7 31.3C69.9 29 73.1 27.5 76.6 27.5C79.9 27.5 82.9 28.8 85.1 30.9Z" stroke="black" stroke-width="2" stroke-miterlimit="10" stroke-linecap="round" stroke-linejoin="round"/>
<path d="M78.4 34.9L74.7 39.9H78.4L74.8 44.8" stroke="black" stroke-width="2" stroke-miterlimit="10" stroke-linecap="round" stroke-linejoin="round"/>
<path d="M30.4 47V39.4C30.4 33 35.6 27.7 42 27.7C45.2 27.7 48.2 29 50.3 31.1C52.4 33.2 53.7 36.1 53.7 39.4V71.1C53.7 77.4 58.8 82.5 65.1 82.5C68.2 82.5 71.1 81.2 73.2 79.2C75.3 77.1 76.5 74.3 76.5 71.1V65.4V59.8" stroke="black" stroke-width="2" stroke-miterlimit="10" stroke-linecap="round" stroke-linejoin="round"/>
</g>
<defs>
<clipPath id="clip0_2_2">
<rect width="87.4" height="62.5" fill="white" transform="translate(8 21)"/>
</clipPath>
</defs>
</svg>
