<?xml version="1.0" encoding="UTF-8"?><svg id="Layer_1" xmlns="http://www.w3.org/2000/svg" viewBox="0 0 104 104"><defs><style>.cls-1{fill:none;}.cls-1,.cls-2{stroke:#000;stroke-linecap:round;stroke-linejoin:round;stroke-width:2px;}</style></defs><polygon class="cls-1" points="12.948 34.506 21.454 20.999 29.961 34.506 12.948 34.506"/><circle class="cls-1" cx="21.454" cy="51.347" r="8.212"/><path class="cls-1" d="m23.009,67.789l.888,2.732c.219.673.846,1.129,1.554,1.129h2.873c1.583,0,2.241,2.026.961,2.956l-2.324,1.689c-.573.416-.812,1.154-.594,1.827l.888,2.732c.489,1.506-1.234,2.758-2.515,1.827l-2.324-1.689c-.573-.416-1.348-.416-1.921,0l-2.324,1.689c-1.281.931-3.004-.321-2.515-1.827l.888-2.732c.219-.673-.021-1.411-.594-1.827l-2.324-1.689c-1.281-.931-.623-2.956.961-2.956h2.873c.708,0,1.335-.456,1.554-1.129l.888-2.732c.489-1.506,2.619-1.506,3.108,0Z"/><rect class="cls-1" x="39.953" y="21.999" width="39.366" height="12.506"/><rect class="cls-2" x="39.953" y="69.342" width="28.991" height="12.506"/><g><rect class="cls-1" x="39.953" y="45.093" width="51.095" height="12.506"/><line class="cls-1" x1="48.792" y1="45.093" x2="39.952" y2="53.213"/><line class="cls-1" x1="58.002" y1="45.093" x2="44.392" y2="57.603"/><line class="cls-1" x1="67.222" y1="45.093" x2="53.612" y2="57.603"/><line class="cls-1" x1="76.442" y1="45.093" x2="62.822" y2="57.603"/><line class="cls-1" x1="85.662" y1="45.093" x2="72.042" y2="57.603"/><line class="cls-1" x1="91.052" y1="48.613" x2="81.262" y2="57.603"/></g></svg>