<?xml version="1.0" encoding="UTF-8"?><svg id="Layer_1" xmlns="http://www.w3.org/2000/svg" viewBox="0 0 104 104"><defs><style>.cls-1{fill:none;stroke:#000;stroke-linecap:round;stroke-linejoin:round;stroke-width:2px;}</style></defs><path class="cls-1" d="m83.107,52c0,18.384-14.903,33.287-33.287,33.287s-33.287-14.903-33.287-33.287S31.436,18.713,49.82,18.713c2.93,0,5.771.379,8.478,1.089"/><g><path d="m87.467,42.687c0,3.687-6.468,6.79-14.121,6.79s-14.121-3.102-14.121-6.79c0-.995.468-1.946,1.302-2.795,2.78,2.151,7.448,3.526,12.818,3.526s10.038-1.375,12.818-3.526c.834.849,1.302,1.8,1.302,2.795Z"/><path d="m79.814,34.151c2.59-.585,4.77-1.551,6.351-2.78.834.849,1.302,1.8,1.302,2.78,0,.995-.468,1.946-1.302,2.795-.202.202-.323.313-.541.497-.176.161-.38.322-.585.483-2.575,1.8-6.892,3.029-11.692,3.029s-9.116-1.229-11.692-3.029c-.205-.161-.41-.322-.585-.483-.205-.161-.38-.322-.541-.497-.834-.849-1.302-1.8-1.302-2.795,0-.98.468-1.932,1.302-2.78,1.58,1.229,3.761,2.195,6.351,2.78.6.161,1.185.278,1.829.38h.029c1.449.234,3,.351,4.609.351s3.161-.117,4.609-.351l1.858-.38Z"/><path d="m87.467,25.63c0,.98-.468,1.931-1.288,2.78-.161.176-.351.351-.556.512-.176.161-.38.322-.585.483-2.575,1.8-6.892,3.014-11.692,3.014s-9.116-1.214-11.692-3.014c-.205-.161-.41-.322-.585-.483-.205-.161-.395-.337-.556-.512-.819-.849-1.288-1.8-1.288-2.78,0-3.687,6.468-6.79,14.121-6.79s14.121,3.102,14.121,6.79Z"/></g><circle cx="43.857" cy="58.799" r="2.62"/><circle cx="42.831" cy="33.749" r="1.975"/><circle cx="76.398" cy="58.154" r="1.975"/><circle cx="30.286" cy="38" r="3.611"/><path class="cls-1" d="m31.426,24.253c2.809,2.92,8.024,2.812,11.482,1.7,2.687.65,4.148,4.392,7.733,3.157,5.578,3.984-1.618,7.273-5.739,9.461-1.019.541-1.741,1.485-2.06,2.594-.911,3.166-2.173,2.397-3.902,5.53-.831,6.951,9.958,5.438,14.228,9.081,4.034,4.159-3.957,9.99-5.616,13.834-1.029,1.413-.061,7.105-2.681,7.116-3.395.497-3.49-10.932-5.426-12.269-5.474-2.216-3.959-9.202-6.896-13.476-4.706-2.366-10.894-8.104-12.675-13.531"/><path class="cls-1" d="m64.821,53.215c-4.924,6.66.064,5.382,4.034,7.2,1.565.716,2.476,2.415,2.248,4.121-.581,4.343-2.892,9.735,4.156,8.931"/></svg>