<svg width="761" height="452" viewBox="0 0 761 452" fill="none" xmlns="http://www.w3.org/2000/svg">
<g clip-path="url(#clip0_111_232)">
<path d="M60.3751 240.264C60.3134 240.357 60.19 240.542 60.3751 240.264Z" fill="#929BFF"/>
<g opacity="0.5">
<path d="M364.752 25.3478L355.508 1.34589C354.499 -1.27501 350.964 -0.0295229 351.974 2.59138L361.218 26.5933C362.227 29.2142 365.762 27.9687 364.752 25.3478Z" fill="#6518CE"/>
<path d="M740.547 234.909L731.232 215.405L729.743 218.17L743.814 216.832C744.948 216.774 745.737 215.862 745.532 214.637C745.327 213.412 744.301 212.302 743.167 212.36L729.096 213.698C727.835 213.799 726.779 215.125 727.538 216.648L736.853 236.152C737.44 237.248 738.606 237.987 739.625 237.645C740.517 237.345 741.134 236.005 740.547 234.909Z" fill="#6518CE"/>
<path d="M281.635 117.699C274.59 97.4246 266.502 77.523 257.604 57.9109C256.38 55.3822 252.906 56.6232 254.13 59.1519C263.144 78.7226 271.116 98.6656 278.161 118.94C279.09 121.73 282.564 120.489 281.635 117.699Z" fill="#6518CE"/>
<path d="M256.857 79.4678C255.215 69.2626 255.478 59.0701 257.375 49.3066L253.309 49.3679C257.415 59.8865 267.328 66.337 276.262 71.8122C278.804 73.4033 280.23 69.3393 277.745 67.8918C269.931 63.0184 260.81 57.4428 257.168 48.0722C256.24 45.7762 253.493 46.2095 253.102 48.1335C251.064 58.2703 250.789 68.7931 252.605 79.4288C253.122 82.5147 257.316 82.4102 256.857 79.4678Z" fill="#6518CE"/>
<path d="M343.157 122.282C356.368 108.911 369.077 95.037 381.224 80.5121C382.932 78.4223 379.405 75.2417 377.697 77.3314C365.55 91.8563 352.841 105.73 339.63 119.101C337.671 120.939 341.33 124.075 343.157 122.282Z" fill="#6518CE"/>
<path d="M364.115 84.2414C370.944 81.7842 377.891 79.617 385.261 78.1309L382.223 75.3641C381.532 81.6871 381.927 88.1396 383.349 94.5767C383.688 95.7799 384.547 96.8087 385.762 96.8945C386.789 96.879 387.855 95.8629 387.587 94.4711C386.282 88.324 385.933 82.35 386.481 76.4041C386.616 74.5479 384.991 73.4474 383.444 73.6373C376.263 75.2248 369.258 77.247 362.298 79.7478C359.888 80.7217 361.646 85.0703 364.115 84.2414Z" fill="#6518CE"/>
<path d="M347.311 164.016C365.771 163.864 384.43 165.339 403.098 168.338C405.83 168.768 406.265 164.213 403.532 163.783C384.48 160.576 365.495 159.041 346.637 159.328C343.76 159.286 344.433 163.974 347.311 164.016Z" fill="#6518CE"/>
<path d="M390.397 156.521L407.29 164.35L406.734 160.421C400.503 163.994 394.578 167.958 388.829 172.358C386.841 174.013 389.581 177.868 391.569 176.213C397.129 171.712 403.184 167.704 409.474 164.275C410.786 163.506 410.368 161.012 408.918 160.346L392.025 152.517C389.314 151.287 387.874 155.392 390.397 156.521Z" fill="#6518CE"/>
<path d="M237.296 196.604C229.86 208.158 223.237 220.263 217.297 232.962L221.427 234.046C220.142 229.043 218.526 224.315 216.591 219.53C215.477 216.775 211.577 218.084 212.691 220.839C214.45 225.189 215.949 229.627 217.188 234.152C217.807 236.414 220.343 237.21 221.317 235.236C226.984 222.958 233.535 211.042 240.829 199.865C242.205 197.426 238.731 194.311 237.296 196.604Z" fill="#6518CE"/>
<path d="M220.895 236.844L233.687 227.098C234.627 226.441 234.752 224.876 233.876 223.818C233.001 222.76 231.643 222.374 230.702 223.031L217.91 232.777C216.97 233.434 216.845 235 217.721 236.057C218.596 237.115 220.087 237.456 220.895 236.844Z" fill="#6518CE"/>
<path d="M226.226 156.464C208.287 150.821 190.092 146.767 171.847 144.065C169.974 143.861 168.8 145.758 169.964 147.536L178.6 160.816C180.251 163.431 183.586 160.973 181.935 158.358L173.299 145.078L171.417 148.549C189.662 151.251 207.856 155.305 225.796 160.947C228.49 161.709 228.92 157.225 226.226 156.464Z" fill="#6518CE"/>
<path d="M173.507 150.043L190.47 144.156C193.027 143.268 191.206 138.611 188.648 139.498L171.686 145.386C169.128 146.273 170.949 150.931 173.507 150.043Z" fill="#6518CE"/>
<path d="M181.022 19.3382C141.12 33.0697 101.464 47.4583 62.0531 62.5041C51.0761 66.6735 39.9629 70.8923 28.9112 75.2754C26.3219 76.2149 28.1656 81.1435 30.7549 80.2041C70.0426 64.8297 109.576 50.1125 149.355 36.0524C160.455 32.2116 171.63 28.1571 182.866 24.2668C185.455 23.3274 183.612 18.3987 181.022 19.3382Z" fill="#6518CE"/>
<path d="M39.8748 62.7876C31.3714 65.1568 23.8379 70.2868 18.9982 77.761C18.2619 78.8206 18.5709 80.6662 20.0007 81.3231L51.6871 96.3466C54.2325 97.6034 55.8383 93.6524 53.1647 92.4387L21.4783 77.4152L22.4809 80.9773C26.9814 74.1044 33.8037 69.3758 41.6663 67.2219C44.1013 66.4039 42.3675 62.1127 39.8748 62.7876Z" fill="#6518CE"/>
<path d="M84.7163 132.93L40.977 124.093C38.2075 123.521 37.7768 128.013 40.5463 128.584L84.2856 137.422C87.055 137.994 87.4857 133.502 84.7163 132.93Z" fill="#6518CE"/>
<path d="M48.8223 142.81C47.0712 135.213 42.6769 128.34 36.6682 123.645L36.7873 127.206L57.244 116.085C58.2197 115.594 58.1538 113.979 57.4873 113.057C56.7042 111.847 55.4954 111.761 54.3904 112.296L33.9337 123.417C32.8288 123.952 32.9986 126.186 34.0528 126.978C39.1948 130.982 43.0645 136.558 44.4786 142.958C44.8156 144.154 45.6696 145.177 46.8785 145.263C48.1 145.016 49.1593 144.006 48.8223 142.81Z" fill="#6518CE"/>
<path d="M445.757 10.4494C446.747 3.03028 451.466 -2.83907 455.157 -8.69293L468.011 -29.1596C469.447 -31.4547 465.97 -34.5725 464.534 -32.2775C460.024 -25.1599 455.443 -17.8535 450.803 -10.6922C446.91 -4.60583 442.439 1.51007 441.436 9.2631C441.191 12.3119 445.453 13.3531 445.757 10.4494Z" fill="#6518CE"/>
<path d="M454.75 36.9884L503.556 54.1197L502.953 49.6986L480.928 53.7922C478.335 54.3328 480.098 58.6947 482.691 58.154L504.716 54.0604C506.918 53.6511 505.886 50.3648 504.113 49.6393L455.176 32.5517C452.575 31.6087 452.149 36.0454 454.75 36.9884Z" fill="#6518CE"/>
<path d="M507.696 47.8397L500.176 31.827C499.619 30.7577 498.513 30.0363 497.546 30.3707C496.579 30.7051 495.994 32.0117 496.55 33.081L504.07 49.0938C504.627 50.1631 505.733 50.8845 506.7 50.5501C507.546 50.2575 508.132 48.9508 507.696 47.8397Z" fill="#6518CE"/>
<path d="M542.624 -82.8316L572.069 -8.19375L574.632 -10.8151L550.004 -22.7433C547.584 -23.9668 546.058 -20.1206 548.599 -18.939L573.228 -7.0108C574.885 -6.3159 576.56 -7.68268 575.791 -9.63218L546.345 -84.2701C545.235 -86.7346 541.58 -85.4774 542.624 -82.8316Z" fill="#6518CE"/>
<path d="M296.766 193.642C304.809 214.909 313.291 235.868 322.513 256.575L325.113 253.939C316.304 249.788 307.231 247.794 298.154 247.55C295.595 247.469 296.223 251.866 298.781 251.948C307.13 252.122 315.652 254.144 323.688 257.764C325.246 258.505 327.068 257.089 326.288 255.128C317.189 234.38 308.528 213.323 300.541 192.195C299.538 189.675 295.831 190.939 296.766 193.642Z" fill="#6518CE"/>
<path d="M326.797 255.306C332.949 246.9 339.409 238.89 346.12 231.129C347.818 229.057 344.369 226.05 342.611 227.975C335.901 235.736 329.5 243.892 323.289 252.152C321.78 254.327 325.288 257.481 326.797 255.306Z" fill="#6518CE"/>
<path d="M148.327 104.223C160.503 83.4996 177.482 66.5262 197.406 54.2661C199.073 53.2 197.706 49.801 195.682 49.9804L172.599 52.9001C169.916 53.3018 170.585 57.9433 173.269 57.5416L196.351 54.6219L194.627 50.3362C174.44 62.6853 157.124 79.9399 144.803 101.048C143.348 103.386 146.871 106.561 148.327 104.223Z" fill="#6518CE"/>
<path d="M193.789 51.1798L188.017 71.4757C187.723 72.5491 188.115 73.8795 189.231 74.4794C190.161 74.9794 191.628 74.6489 191.922 73.5754L197.694 53.2796C197.988 52.2061 197.596 50.8757 196.48 50.2758C195.493 49.6328 194.083 50.1064 193.789 51.1798Z" fill="#6518CE"/>
<path d="M283.592 13.8172C308.715 6.68532 335.691 17.5503 360.656 28.2548L361.147 23.895C352.453 24.982 343.713 25.5815 334.926 25.6933C332.124 25.7995 332.866 30.2467 335.595 30.3328C344.382 30.2209 353.123 29.6215 361.817 28.5344C363.649 28.2519 364.484 25.1183 362.308 24.1747C348.928 18.4539 335.358 12.6298 321.552 9.56938C307.746 6.50891 294.496 5.94527 281.868 9.53344C279.245 10.0827 281.028 14.5142 283.592 13.8172Z" fill="#6518CE"/>
<path d="M465.417 123.294C469.45 112.404 471.676 99.7581 468.697 87.3125C465.938 75.4249 458.729 64.5884 448.56 58.5694C446.195 57.1621 444.784 60.9734 447.148 62.3806C456.252 67.8145 462.885 77.898 465.024 88.5721C467.371 100.125 465.383 111.264 461.686 121.246C460.69 123.647 464.421 125.695 465.417 123.294Z" fill="#6518CE"/>
<path d="M452.994 111.143L459.556 127.006C460.083 128.307 461.906 129.174 462.839 128.204C467.421 123.874 472.366 120.079 477.558 116.53C479.788 115.125 477.055 111.279 474.825 112.685C469.574 116.089 464.688 120.029 460.106 124.358L463.388 125.556L456.826 109.693C455.644 107.134 451.754 108.439 452.994 111.143Z" fill="#6518CE"/>
<path d="M440.108 203.558C430.419 223.246 423.513 244.765 419.613 267.228L423.671 267.167L415.713 239.9C414.87 237.091 411.017 238.385 411.861 241.193L419.819 268.461C420.489 270.839 423.487 270.321 423.878 268.4C427.637 246.309 434.589 225.262 444.078 205.804C445.251 203.295 441.281 201.048 440.108 203.558Z" fill="#6518CE"/>
<path d="M421.701 271.498C427.454 263.858 433.959 256.97 441.025 250.731C443.04 249.046 440.263 245.12 438.248 246.805C430.978 253.281 424.197 260.597 418.18 268.326C416.534 270.558 420.056 273.73 421.701 271.498Z" fill="#6518CE"/>
<path d="M215.681 288.768C237.853 299.548 260.309 309.576 282.921 318.895L283.851 314.643C271.39 312.587 259.008 311.818 246.705 312.336C243.95 312.44 244.608 316.98 247.363 316.876C259.219 316.344 271.283 317.055 283.426 319.054C285.65 319.456 286.873 315.927 284.357 314.802C261.745 305.482 239.289 295.455 217.117 284.675C214.601 283.549 213.107 287.498 215.681 288.768Z" fill="#6518CE"/>
<path d="M284.585 314.036L274.725 288.392C273.718 285.773 270.192 287.017 271.199 289.637L281.058 315.281C282.065 317.901 285.592 316.656 284.585 314.036Z" fill="#6518CE"/>
<path d="M455.619 74.9738L447.436 54.7325L444.857 57.3917L468.719 67.9675C469.781 68.426 470.997 68.1807 471.421 67.0602C471.774 66.1264 471.265 64.504 470.202 64.0455L446.34 53.4698C444.589 52.7534 442.82 54.1624 443.633 56.1722L451.816 76.4135C452.732 79.0407 456.593 77.7445 455.619 74.9738Z" fill="#6518CE"/>
<path d="M142.51 88.1133C143.411 94.7207 143.358 101.155 142.407 107.561C142.239 108.605 142.968 109.676 143.722 110.081C144.664 110.588 145.573 110.283 146.177 109.586C150.921 104.539 156.843 100.577 163.044 97.6728C164.025 97.1791 164.641 96.1496 164.114 94.8459C163.645 93.687 162.267 92.8333 161.287 93.3269C154.306 96.4928 147.982 100.919 142.705 106.474L146.533 108.644C147.555 102.049 147.634 94.9485 146.615 88.0515C146.411 84.9939 142.176 85.0994 142.51 88.1133Z" fill="#6518CE"/>
<path d="M298.644 22.8809C292.588 16.6733 284.908 12.6594 277.008 11.0265L278.071 15.1193C285.341 9.71199 293.165 4.94291 301.281 0.899412C302.263 0.404893 302.881 -0.626413 302.353 -1.93245C301.942 -2.94826 300.503 -3.94858 299.521 -3.45406C291.014 0.720462 282.99 5.722 275.329 11.2603C273.944 12.2198 274.61 14.9629 276.393 15.3532C283.655 16.8705 290.45 20.5224 296.011 26.2369C298.179 28.3108 300.682 24.9985 298.644 22.8809Z" fill="#6518CE"/>
<path d="M7.35106 68.9652C29.4653 49.5266 52.6586 31.6996 76.8698 15.3246C101.278 -0.938742 126.433 -15.654 152.592 -28.5501C178.887 -41.4941 205.929 -52.8901 233.644 -62.5303C261.222 -72.1225 289.535 -79.7993 318.323 -85.832C347.111 -91.8647 376.497 -95.934 406.285 -98.1514C410.04 -98.3947 413.66 -98.5899 417.416 -98.8332C419.965 -99.0114 419.704 -102.907 417.392 -103.719C408.217 -107.175 398.906 -110.583 390.489 -116.482C387.945 -118.3 386.308 -113.732 388.926 -112.121C397.676 -106.158 407.38 -102.528 417.084 -98.8968L417.06 -103.783C387.225 -102.092 357.852 -98.3902 328.88 -92.8363C299.909 -87.2825 271.006 -79.9404 243.108 -70.779C215.211 -61.6176 187.714 -50.6044 161.1 -38.0911C134.547 -25.4183 108.803 -11.0377 84.0012 5.00252C59.471 20.9467 35.8232 38.3909 13.3156 57.6063C10.5513 60.0362 7.72591 62.3064 5.09719 64.6882C2.42063 66.5431 5.27785 70.7875 7.35106 68.9652Z" fill="#6518CE"/>
<path d="M603.119 73.3772C612.158 96.8509 621.262 120.144 630.781 143.451L634.17 141.645C628.84 134.992 622.207 129.894 614.86 126.462C612.407 125.424 611.022 129.212 613.475 130.25C620.124 133.295 626.246 137.783 631.064 143.825C632.598 145.655 635.428 144.514 634.452 142.019C625.053 118.67 615.829 95.4187 606.79 71.945C605.641 69.3524 602.036 70.6042 603.119 73.3772Z" fill="#6518CE"/>
<path d="M634.807 142.147C635.607 132.881 639.303 124.606 644.963 118.289C645.635 117.41 645.31 115.883 644.386 115.048C643.462 114.213 642.183 114.315 641.511 115.195C635.509 122.117 631.401 131.184 630.575 141.113C630.344 143.808 634.635 144.986 634.807 142.147Z" fill="#6518CE"/>
<path d="M291.945 459.772C293.38 433.622 298.298 408.237 306.293 384.399C306.794 382.778 305.185 380.575 303.406 381.174C296.462 383.996 289.691 387.245 283.091 390.919C280.849 392.158 283.527 395.938 285.769 394.699C291.988 391.152 298.436 388.175 305.125 385.438L302.237 382.213C294.103 406.421 289.045 432.176 287.597 458.652C287.612 461.553 291.833 462.715 291.945 459.772Z" fill="#6518CE"/>
<path d="M305.887 383.781L314.823 406.962C315.834 409.583 319.372 408.338 318.361 405.716L309.425 382.535C308.415 379.914 304.876 381.159 305.887 383.781Z" fill="#6518CE"/>
<path d="M516.004 349.277C498.12 334.278 478.065 322.938 457.114 315.156C454.549 314.226 454.129 318.601 456.694 319.531C476.957 327.055 496.323 338.138 513.532 352.55C515.873 354.369 518.345 351.097 516.004 349.277Z" fill="#6518CE"/>
<path d="M464.39 334.801C462.169 327.858 458.986 321.075 455.144 314.84L454.314 318.226C460.746 316.722 467.353 315.649 474.006 315.052C475.156 314.994 475.956 314.071 475.748 312.832C475.599 311.737 474.5 310.47 473.35 310.529C466.31 311.256 459.445 312.415 452.566 313.906C451.217 314.195 451.082 316.039 451.736 317.292C455.461 323.239 458.34 329.634 460.386 336.144C460.723 337.34 462.164 338.001 463.197 337.654C464.489 337.221 464.727 335.996 464.39 334.801Z" fill="#6518CE"/>
<path d="M168.122 300.902C154.097 322.075 142.134 344.697 132.174 368.621L136.302 369.705C135.321 361.802 134.282 353.754 133.3 345.851C132.837 342.878 128.657 343.129 129.062 345.956C130.043 353.859 131.083 361.908 132.064 369.811C132.423 372.16 135.479 372.781 136.193 370.895C145.952 347.202 157.772 324.958 171.655 304.162C173.161 301.68 169.687 298.565 168.122 300.902Z" fill="#6518CE"/>
<path d="M134.194 370.819C144.292 366.388 154.816 363.057 165.706 360.67C168.395 360.086 166.567 355.367 163.878 355.952C152.988 358.339 142.464 361.669 132.366 366.1C129.725 367.204 131.553 371.923 134.194 370.819Z" fill="#6518CE"/>
<path d="M484.907 177.927C506.224 178.599 527.937 182.476 549.067 189.723C555.09 191.703 560.968 194.066 566.773 196.62L567.263 192.28C556.7 191.996 546.362 192.639 536.116 194.252C533.441 194.652 534.108 199.27 536.783 198.87C547.029 197.257 557.368 196.615 567.93 196.899C570.067 197.015 570.458 193.542 568.42 192.559C547.235 183.326 525.277 177.359 503.322 174.732C497.058 174.003 490.721 173.465 484.371 173.265C481.459 173.076 482.127 177.695 484.907 177.927Z" fill="#6518CE"/>
<path d="M570.223 190.492L560.364 164.848C559.357 162.229 555.83 163.473 556.837 166.093L566.697 191.737C567.704 194.357 571.23 193.112 570.223 190.492Z" fill="#6518CE"/>
<path d="M456.949 280.699L546.81 248.244C549.397 247.31 547.555 242.409 544.968 243.343L455.107 275.797C452.384 276.781 454.226 281.682 456.949 280.699Z" fill="#6518CE"/>
<path d="M526.816 245.204C534.302 241.87 542.841 241.139 551.324 243.546L550.264 239.468C542.223 247.257 535.792 256.476 531.099 267.081C530.044 269.57 533.994 271.692 535.049 269.204C539.328 259.394 545.487 250.595 552.996 243.313C554.26 242.068 553.772 239.769 551.936 239.235C542.76 236.569 533.326 237.272 525.25 240.967C522.716 241.982 524.47 246.319 526.816 245.204Z" fill="#6518CE"/>
<path d="M240.851 363.036C211.787 370.81 184.067 382.104 158.026 396.98C155.633 398.375 158.491 402.629 160.885 401.234C186.58 386.662 214.028 375.465 242.686 367.835C245.324 367.08 243.489 362.281 240.851 363.036Z" fill="#6518CE"/>
<path d="M166.187 380.294C160.634 384.423 156.392 390.373 154.675 397.571C154.383 398.638 154.772 399.96 155.878 400.556C165.297 405.298 174.785 409.854 184.204 414.595C186.729 415.845 188.194 411.96 185.669 410.711C176.251 405.97 166.763 401.414 157.344 396.672L158.548 399.658C160.113 393.157 163.891 387.848 168.866 384.074C170.937 382.408 168.315 378.77 166.187 380.294Z" fill="#6518CE"/>
<path d="M657.104 323.029C672.196 320.595 687.202 315.393 697.215 303.314C705.346 293.511 709.232 279.047 706.441 264.851C704.941 257.129 701.394 247.628 694.045 243.679C691.407 242.262 689.968 246.363 692.548 247.636C698.201 250.673 700.915 258.481 702.102 264.333C703.523 270.765 703.339 277.242 701.954 283.3C698.885 296.502 690.059 306.045 678.886 311.605C671.893 315.103 664.256 317.009 656.515 318.291C655.418 318.495 654.555 319.278 654.763 320.524C654.771 322.002 656.006 323.233 657.104 323.029Z" fill="#6518CE"/>
<path d="M699.766 261.506C697.724 255.71 696.468 249.649 696.175 243.763L694.408 246.019L721.186 247.487C723.898 247.573 723.292 243.122 720.52 242.89L693.743 241.422C692.518 241.335 691.824 242.566 691.976 243.679C692.315 250.048 693.689 256.402 695.908 262.638C696.828 265.653 700.758 264.332 699.766 261.506Z" fill="#6518CE"/>
<path d="M715.03 327.155C740.604 309.196 755.253 276.287 754.327 241.271C753.223 198.076 730.281 156.983 702.446 123.905C685.951 104.368 667.749 86.8425 649.18 69.4429C647.66 68.0627 645.187 69.5445 646.193 71.7347C649.609 78.9608 652.169 86.4809 653.816 94.1553L657.71 93.4537C655.158 87.3572 653.04 80.9533 651.89 74.5344L650.294 76.8248L673.658 77.5278C676.194 77.6091 675.572 73.2274 673.036 73.1461L649.672 72.4431C648.704 72.458 647.756 73.5754 648.075 74.7335C649.391 81.5709 651.496 88.2958 654.214 94.8109C655.098 97.0431 658.558 96.6489 658.109 94.1093C656.419 85.9743 653.871 78.1332 650.166 70.5305L647.179 72.8223C678.539 102.156 710.739 133.262 731.328 172.627C741.196 191.584 748.169 212.01 750.113 232.733C751.712 249.773 749.508 266.69 744.05 281.713C737.663 298.955 727.024 313.536 712.749 323.501C710.399 324.941 712.98 328.65 715.03 327.155Z" fill="#6518CE"/>
<path d="M719.933 335.429C740.678 324.478 754.779 303.98 762.417 280.346C770.744 254.263 771.165 225.226 766.434 196.389C761.009 163.686 749.693 131.755 736.966 100.784C723.736 68.8816 708.984 37.6623 692.039 7.51597C675.149 -22.4913 656.241 -51.3286 634.862 -78.0496C632.174 -81.3845 629.541 -84.5804 626.854 -87.9153C625.022 -90.1246 621.944 -87.7992 623.776 -85.5899C645.191 -59.8284 664.377 -32.0345 681.6 -2.9314C698.823 26.1717 714.071 56.9037 727.393 87.9853C740.714 119.067 752.573 149.232 759.64 181.21C766.099 210.24 768.151 240.318 761.692 267.65C756.079 291.533 744.428 313.711 725.636 326.829C723.243 328.444 720.917 329.879 718.415 331.217C716.1 332.331 717.74 336.502 719.933 335.429Z" fill="#6518CE"/>
<path d="M646.168 355.097C660.396 359.348 674.36 365.493 687.482 373.561L687.965 369.296C679.548 370.316 671.189 371.48 662.642 372.543C660.004 372.936 660.662 377.474 663.3 377.082C671.717 376.062 680.076 374.897 688.623 373.834C690.742 373.615 691.103 370.869 689.106 369.569C675.607 361.3 661.326 355.098 646.78 350.789C643.876 349.795 643.322 354.247 646.168 355.097Z" fill="#6518CE"/>
<path d="M689.549 369.071L685.884 355.594C685.564 354.436 684.076 353.838 683.219 354.132C682.117 354.509 681.892 355.696 682.211 356.854L685.876 370.331C686.195 371.489 687.684 372.088 688.541 371.794C689.642 371.416 689.868 370.229 689.549 369.071Z" fill="#6518CE"/>
<path d="M585.017 374.254C586.379 388.036 586.989 401.747 586.904 415.53L589.791 414.074C583.699 410.459 577.549 406.702 571.584 403.045C569.121 401.607 567.651 405.5 570.114 406.937C576.206 410.552 582.356 414.309 588.321 417.966C589.489 418.706 591.159 417.821 591.209 416.51C591.364 402.541 590.709 388.36 589.302 374.108C588.847 371.186 584.747 371.432 585.017 374.254Z" fill="#6518CE"/>
<path d="M593.465 417.987L605.217 400.468C605.895 399.578 605.757 398.135 604.692 397.334C603.758 396.49 602.275 396.491 601.787 397.483L590.035 415.002C589.356 415.892 589.494 417.335 590.559 418.136C591.363 419.024 592.845 419.023 593.465 417.987Z" fill="#6518CE"/>
<path d="M377.374 408.813C380.994 400.139 383.785 391.248 385.948 381.904L382.988 383.396C390.547 388.147 397.426 393.789 403.888 400.234C405.936 402.363 408.449 399.033 406.402 396.904C399.822 390.167 392.433 384.365 384.625 379.366C383.239 378.506 382.038 379.573 381.666 380.858C379.647 389.821 376.869 398.377 373.392 406.671C372.27 409.037 376.31 411.324 377.374 408.813Z" fill="#6518CE"/>
<path d="M385.058 383.913L412.879 457.954C413.858 460.559 417.285 459.321 416.306 456.716L388.486 382.675C387.507 380.07 384.08 381.308 385.058 383.913Z" fill="#6518CE"/>
<path d="M477.539 478.412C493.544 468.19 506.866 453.535 515.513 435.786C517.971 430.791 519.917 425.634 521.613 420.228C522.215 418.025 520.015 416.265 518.164 417.221C512.743 420.046 508.118 424.103 504.491 429.159C502.851 431.378 506.3 434.385 507.999 432.313C512.486 426.802 517.59 422.082 523.134 417.715L519.752 416.353L526.359 436.804C527.221 439.682 531.16 438.356 530.297 435.479L523.69 415.027C523.23 413.515 521.371 412.974 520.308 413.665C514.501 418.12 509.122 423.265 504.432 429.012L507.94 432.166C511.363 427.346 515.713 423.714 520.872 420.978L517.423 417.971C510.154 442.092 494.504 461.698 474.522 474.259C472.514 475.935 475.281 479.839 477.539 478.412Z" fill="#6518CE"/>
<path d="M784.44 358.476C790.312 337.038 793.629 313.642 789.727 290.059C786.256 269.325 776.553 249.167 761.341 234.226C752.869 225.951 743.007 219.734 732.511 216.102C729.975 215.243 729.579 219.483 732.115 220.342C749.801 226.538 764.928 240.561 774.726 258.162C785.421 277.346 788.372 299.206 787.074 319.695C786.248 332.288 783.885 344.467 780.699 356.298C780.065 358.884 783.807 361.062 784.44 358.476Z" fill="#6518CE"/>
<path d="M83.4046 183.199C68.9791 198.162 56.2213 216.148 50.5496 238.137C45.5859 257.46 46.9314 279.581 55.9295 300C60.9012 311.353 68.1435 321.799 76.9978 330.416C79.1057 332.483 81.2259 329.19 79.1179 327.123C64.2398 312.692 54.8694 292.719 52.3344 272.775C49.6401 251.097 55.5302 230.983 65.0955 214.37C71.0336 204.142 78.2981 195.102 86.2215 186.981C87.956 185.113 85.1391 181.331 83.4046 183.199Z" fill="#6518CE"/>
<path d="M70.3616 311.833L71.453 333.045L74.116 331.514L59.9834 325.498C58.9207 325.015 57.6571 325.426 57.3906 326.509C57.124 327.591 57.7329 329.052 58.7955 329.535L72.9281 335.551C74.178 336.139 75.6336 335.5 75.5911 334.02L74.4996 312.808C74.3916 311.516 73.6518 310.43 72.3973 310.175C71.5219 309.796 70.4409 310.646 70.3616 311.833Z" fill="#6518CE"/>
<path d="M653.537 439.502L687.542 427.475C690.117 426.564 688.284 421.788 685.71 422.699L651.704 434.725C649.13 435.636 650.963 440.412 653.537 439.502Z" fill="#6518CE"/>
<path d="M673.818 425.114C679.18 424.291 684.889 424.329 690.432 425.4L688.655 422.087L679.102 439.629C678.62 440.605 679.386 442.139 680.319 442.64C681.438 443.242 682.537 442.71 683.019 441.734L692.573 424.192C693.253 422.986 692.056 421.108 690.795 420.88C684.809 419.795 678.855 419.514 672.979 420.509C671.893 420.711 671.038 421.487 671.245 422.721C671.638 424.054 672.732 425.316 673.818 425.114Z" fill="#6518CE"/>
<path d="M107.548 96.5677C89.2778 100.221 70.4462 113.512 69.1157 134.847C68.4953 144.339 71.5172 154.762 78.1915 162.466C85.3631 170.666 95.4926 174.058 105.012 174.838C116.075 175.762 127.004 173.415 136.585 169.2C146.166 164.986 155.373 158.742 161.832 150.106C167.266 142.975 171.247 133.348 169.245 123.246C167.243 113.143 159.587 104.111 150.686 98.9798C140.836 93.3382 129.655 92.1222 119.418 93.2418C107.435 94.4505 96.429 98.8125 85.8483 103.86C83.0903 105.119 80.3913 106.523 77.6334 107.782C75.2676 108.908 77.0361 113.287 79.4019 112.16C97.6157 103.221 118.267 92.9654 140.284 99.3256C149.027 101.858 157.773 107.705 162.532 116.55C167.292 125.394 165.651 134.566 161.689 142.031C157.178 150.344 149.906 156.601 142.116 161.208C133.399 166.458 123.334 169.841 112.789 170.566C104.12 171.159 94.4238 169.941 86.4371 164.502C78.8887 159.414 74.4494 150.627 73.3705 141.706C70.9537 118.812 90.8438 104.834 109.245 101.137C111.918 100.404 110.15 96.025 107.548 96.5677Z" fill="#6518CE"/>
<path d="M230.72 -31.489C212.237 -24.7939 197.845 -7.98521 196.631 13.754C196.369 18.9287 196.814 24.0303 198.081 29.348C199.349 34.6657 201.369 40.3874 205.169 44.6909C212.336 52.9515 224.403 55.137 233.709 55.952C253.474 57.5231 273.665 49.5978 281.861 30.9305C285.426 23.0065 286.371 13.3362 283.454 4.30556C280.538 -4.72512 273.171 -12.7543 264.983 -17.7185C245.365 -29.8408 222.882 -27.2178 203.699 -22.2564C201.049 -21.5312 198.529 -20.8495 195.879 -20.1243C193.229 -19.3991 195.112 -15.1082 197.632 -15.7899C215.545 -20.9813 236.128 -25.7561 255.581 -17.6806C263.514 -14.4361 271.243 -9.15351 276.186 -1.2955C280.767 6.02808 281.778 14.7137 280.073 22.5058C275.856 40.8224 259.177 50.5221 241.805 51.5938C232.896 52.1226 222.637 51.135 214.048 46.6337C209.407 44.2533 206.17 40.2527 204.183 35.3404C202.314 30.7171 201.28 25.9773 201.011 21.3091C199.263 -1.56919 213.589 -19.9966 232.46 -26.8222C234.934 -27.9808 233.181 -32.3152 230.72 -31.489Z" fill="#6518CE"/>
<path d="M410.165 -1.13424C390.561 1.01104 375.67 18.8194 374.045 39.5664C373.57 45.3102 374.365 51.2843 377.295 56.7065C379.568 60.8708 383.15 64.2671 387.089 66.7227C395.648 72.2264 405.948 74.025 415.204 74.6961C427.073 75.6396 439.428 75.5989 449.983 70.7425C458.71 66.8282 465.832 59.6748 469.639 50.5136C473.575 41.309 473.489 30.1696 469.077 19.9891C464.432 9.23023 455.845 1.10806 445.718 -3.54062C435.59 -8.18931 423.843 -10.652 412.985 -11.2782C402.128 -11.9044 390.617 -10.5046 380.255 -7.35543C377.661 -6.48496 375.198 -5.65802 372.662 -4.64293C370.127 -3.62784 372.011 0.667021 374.417 -0.304546C392.623 -7.72889 413.674 -9.21007 433.998 -3.38481C443.625 -0.703135 453.493 4.03258 460.264 12.7641C466.542 21.0042 469.41 31.3742 467.887 41.0829C466.461 49.938 461.362 57.726 454.705 62.7523C446.467 68.9664 435.897 70.8716 425.273 70.8239C415.863 70.8618 406.101 70.032 396.746 66.9305C388.663 64.0593 380.552 58.5696 378.67 49.1825C376.405 38.1175 380.748 26.6412 386.553 18.7801C392.358 10.9191 400.843 4.95071 410.811 3.74048C413.392 3.20275 412.733 -1.33922 410.165 -1.13424Z" fill="#6518CE"/>
<path d="M440.763 133.182C421.96 139.82 408.726 158.048 409.793 180.338C410.235 190.529 413.777 203.291 422.739 209.802C427.285 213.036 432.399 214.765 437.657 216.119C442.726 217.372 447.503 217.902 452.422 218.057C471.781 218.617 491.529 210.676 499.772 192.482C503.325 184.889 504.575 175.607 502.164 166.734C499.59 157.094 493.032 149.612 484.784 144.502C475.538 138.743 465.036 135.703 455.086 133.298C443.489 130.461 432.179 130.154 421.728 134.154C419.195 135.168 416.85 136.283 414.621 137.688C412.393 139.092 415.066 142.79 417.353 141.531C426.053 136.477 436.428 134.472 446.98 136.183C452.004 136.958 457.073 138.211 462.071 139.652C466.693 140.891 471.302 142.462 475.769 144.41C483.633 147.843 491.868 153.285 495.964 161.593C499.651 168.89 499.968 177.318 497.9 184.577C493.001 202.304 476.779 211.687 459.638 213.337C450.844 214.155 441.666 213.297 432.765 210.211C428.156 208.64 423.455 206.115 420.361 201.737C417.383 197.649 415.726 192.461 414.822 187.677C410.202 164.609 423.194 144.33 442.516 137.517C444.978 136.69 443.225 132.355 440.763 133.182Z" fill="#6518CE"/>
<path d="M168.362 246.355C159.616 249.95 151.738 256.058 147.104 264.705C142.684 272.785 141.318 283.302 144.86 293.161C147.979 302.337 155.287 309.448 163.609 313.579C172.875 318.218 182.861 319.153 192.168 317.677C202.126 315.983 211.418 311.544 219.296 305.436C226.38 299.924 232.63 292.714 235.93 283.691C239.229 274.668 239.104 264.487 234.508 255.311C229.913 246.136 221.218 239.986 212.006 237.308C201.907 234.267 191.128 233.929 181.078 234.665C170.449 235.43 160.017 237.778 150.302 241.535C147.888 242.51 145.473 243.486 143.248 244.563C141.023 245.64 142.653 250.039 145.009 248.919C161.959 240.754 181.686 237.264 201.443 239.7C209.88 240.825 219.365 243.081 226.036 250.076C232.342 256.533 234.679 265.972 233.722 274.209C232.74 283.113 228.085 290.612 222.465 296.457C216.182 302.854 208.284 307.814 199.883 310.8C191.482 313.785 182.318 314.883 173.223 312.495C165.462 310.484 157.602 306.032 152.539 298.992C146.381 290.342 146.093 279.39 149.51 270.658C153.343 261.126 161.436 254.451 170.311 250.812C172.537 249.735 170.776 245.379 168.362 246.355Z" fill="#6518CE"/>
<path d="M260.681 413.813C274.659 442.327 290.169 470.151 306.826 497.078L307.679 493.566C282.889 501.629 258.1 509.692 233.49 518.204C208.88 526.715 184.269 535.227 159.779 544.037C145.972 549.056 132.298 554.031 118.491 559.05C115.971 559.904 117.765 564.385 120.285 563.531C144.656 554.422 169.146 545.612 193.697 536.951C218.247 528.29 242.917 519.928 267.647 511.715C281.573 506.995 295.427 502.469 309.473 498.047C310.799 497.597 310.997 495.834 310.326 494.534C293.789 467.906 278.458 440.53 264.66 412.464C263.258 409.716 259.279 411.065 260.681 413.813Z" fill="#6518CE"/>
<path d="M282.468 97.2954C266.834 100.182 252.375 106.591 239.806 115.781C228.659 124.167 217.74 134.857 212.045 148.6C209.527 154.855 208.089 161.946 208.829 169.346C209.627 177.237 213.119 185.269 218.171 191.774C229.223 206.004 245.002 211.9 260.13 213.424C292.245 216.715 323.191 205.953 345.279 185.171C355.154 175.84 365.961 163.828 364.889 147.196C363.817 130.564 352.454 115.587 339.279 106.804C325.211 97.6327 308.82 94.4829 293.749 93.4498C277.332 92.3462 261.253 94.868 246.865 100.745C243.38 102.22 239.958 103.844 236.726 105.576C234.464 106.823 237.301 110.823 239.564 109.577C252.427 102.499 267.047 98.5841 282.268 97.87C296.653 97.2583 312.293 98.955 326.787 104.931C340.579 110.626 353.274 121.772 358.662 137.168C361.265 144.471 361.365 151.74 359.229 158.21C357.093 164.68 352.916 170.116 348.681 175.062C329.408 196.625 301.907 208.982 271.927 209.41C257.933 209.555 242.102 207.751 229.269 197.328C223.235 192.332 218.054 185.869 215.198 178.309C212.715 171.646 212.486 164.419 213.978 158.159C217.041 144.425 226.417 133.898 235.768 125.417C246.674 115.751 259.604 108.481 273.779 104.202C277.322 103.217 280.736 102.275 284.403 101.589C286.91 101.282 285.042 96.7964 282.468 97.2954Z" fill="#6518CE"/>
<path d="M143.273 561.494L118.37 509.186L112.157 496.322L109.114 490.042C108.672 488.974 108.1 487.948 107.658 486.88C107.279 485.965 107.545 485.531 108.266 485.121C109.513 484.192 111.018 483.525 112.392 482.901C114.225 481.953 116.189 480.962 118.086 480.167C121.554 478.509 125.153 476.808 128.622 475.15C157.154 461.63 186.512 449.746 216.564 439.54C233.484 433.815 250.463 428.591 267.825 423.935C270.37 423.273 268.476 418.696 265.931 419.357C234.077 428.075 202.786 438.515 172.253 450.785C157.216 456.758 142.499 463.146 128.035 470.144C124.305 471.888 120.575 473.631 116.908 475.528C113.44 477.185 109.647 478.776 106.368 480.892C103.548 482.684 102.409 485.31 104.117 489.082C106.142 493.616 108.364 497.912 110.519 502.404L139.48 563.085C140.684 565.636 144.603 564.35 143.273 561.494Z" fill="#6518CE"/>
<path d="M518.643 412.782L494.606 358.769L488.692 345.497C487.741 343.186 486.658 340.919 485.706 338.608C484.945 336.76 485.538 336.389 486.919 335.759C490.469 334.24 494.467 333.447 498.207 332.389L509.822 329.087C541.451 320.063 573.08 311.04 604.709 302.017L657.929 286.754C660.487 286.086 658.584 281.465 656.025 282.133C623.346 291.502 590.797 300.828 558.054 310.043L508.838 324.162L496.829 327.595C492.958 328.696 488.828 329.532 485.083 330.941C482.126 332.09 479.808 334.428 481.001 338.409C481.694 340.455 482.65 342.414 483.606 344.374L486.593 351.262L514.377 414.012C516.04 416.963 519.979 415.665 518.643 412.782Z" fill="#6518CE"/>
<path d="M652.901 277.981L692.827 353.443L693.923 350.507C668.113 358.947 642.363 367.538 616.674 376.28C590.984 385.022 565.088 394.004 539.458 402.897C525.009 407.984 510.561 413.072 496.112 418.159C493.583 419.02 495.384 423.534 497.913 422.674C523.482 413.631 549.052 404.589 574.682 395.696C600.312 386.804 626.268 377.972 652.018 369.381C666.526 364.444 681.095 359.657 695.664 354.871C696.596 354.554 697.374 353.093 696.76 351.934L656.834 276.472C655.414 274.049 651.361 275.258 652.901 277.981Z" fill="#6518CE"/>
<path d="M277.84 356.399C290.517 331.913 304.529 308.146 319.792 285.63C321.65 282.831 323.64 279.989 325.63 277.147C327.417 274.54 329.025 271.492 331.561 269.636C334.229 267.735 337.82 268.864 341.042 269.45C344.586 270.094 348.321 270.841 351.865 271.485C366.293 274.312 380.72 277.138 395.134 280.304C411.35 283.864 427.553 287.764 443.683 291.854L441.866 288.456C435.419 300.987 428.282 312.914 420.381 324.43C412.96 335.284 405.039 345.638 397.236 356.285C394.983 359.216 392.921 362.25 390.668 365.181C388.415 368.112 386.518 371.925 383.384 374.15C380.118 376.42 375.62 375.262 371.753 374.559C367.887 373.856 363.83 373.051 359.904 372.201C345.168 368.977 330.542 364.547 316.002 359.586C299.35 353.833 282.712 347.741 265.844 342.562C263.088 341.652 262.658 346.142 265.413 347.051C295.749 356.382 325.575 368.893 356.192 375.957C360.177 376.954 364.175 377.613 368.101 378.462C372.027 379.312 376.334 380.368 380.107 380.099C383.881 379.831 387.016 377.605 389.531 374.586C392.047 371.567 394.254 368.15 396.651 364.837C404.729 353.762 413.058 342.937 420.946 331.759C430.068 318.829 438.309 305.193 445.668 290.852C446.364 289.615 445.199 287.835 443.851 287.454C414.226 279.888 384.563 273.338 354.874 267.465C351.139 266.718 347.404 265.971 343.728 265.371C340.374 264.829 336.784 263.7 333.464 263.982C330.144 264.265 327.798 266.225 325.952 268.684C323.903 271.379 321.973 274.369 319.983 277.211C311.951 288.772 304.359 300.685 297.018 312.848C288.909 326.44 281.049 340.281 273.762 354.431C272.442 356.714 276.579 358.829 277.84 356.399Z" fill="#6518CE"/>
<path d="M-141.876 92.4707C-109.162 77.5993 -75.5579 64.9375 -40.9917 54.2938C-31.2678 51.3519 -21.4847 48.5572 -11.6421 45.9099L-14.5059 44.3653C-1.6606 70.3196 9.59283 97.145 19.1486 124.208C20.1445 127.051 24.0918 125.721 23.096 122.878C13.6124 95.6233 2.28674 68.9895 -10.5585 43.0352C-11.1648 41.901 -12.238 41.0915 -13.4222 41.4905C-48.3909 50.764 -82.6012 62.2916 -115.849 75.8372C-125.217 79.6631 -134.466 83.7835 -143.715 87.904C-146.037 89.1883 -144.389 93.6521 -141.876 92.4707Z" fill="#6518CE"/>
<path d="M28.3298 116.765C-8.55843 129.537 -45.3873 142.456 -82.0379 155.817C-92.4549 159.664 -102.931 163.364 -113.217 167.166L-110.35 168.713C-122.05 139.651 -134.804 110.944 -148.743 82.6371C-150.135 79.9229 -154.086 81.2549 -152.694 83.969C-138.814 112.129 -126.001 140.983 -114.301 170.045C-113.826 171.225 -112.488 171.947 -111.435 171.592C-74.8437 158.083 -38.1336 144.869 -1.30479 131.95C9.17162 128.251 19.648 124.551 30.1838 120.999C32.7455 120.303 30.9637 115.877 28.3298 116.765Z" fill="#6518CE"/>
<path d="M606.94 417.269C589.8 422.201 569.698 429.275 563.03 448.091C560.23 456.089 560.827 465.573 564.923 473.882C568.89 482.235 575.675 488.822 583.845 492.645C600.937 500.697 619.958 496.775 632.116 484.98C638.36 478.945 643.008 471.148 644.893 461.98C647.005 451.915 643.303 441.668 638.68 432.058C636.259 426.797 632.774 422.55 627.756 419.967C623.113 417.586 618.101 416.477 613.136 415.846C601.675 414.44 590.313 415.463 579.757 418.841C577.294 419.668 579.048 424.004 581.51 423.177C589.993 420.494 599.118 419.401 608.44 419.884C615.842 420.354 626.104 421.342 631.722 428.32C634.713 432.076 636.441 437.077 638.195 441.412C639.948 445.748 641.488 450.648 641.239 455.492C640.98 463.95 637.097 471.819 632.324 477.852C622.461 489.862 606.19 495.487 590.066 490.557C582.668 488.28 575.619 483.588 571.024 476.595C566.43 469.601 564.499 461.55 566.003 453.987C567.688 445.051 573.899 438.206 580.539 433.515C588.89 427.594 598.857 424.578 608.564 421.648C611.215 420.922 609.461 416.587 606.94 417.269Z" fill="#6518CE"/>
<path d="M29.854 371.18C30.5013 362.407 32.9536 353.9 36.9017 346.083C38.1602 343.602 34.2337 341.789 32.9752 344.27C28.8545 352.461 26.3663 361.292 25.683 370.389C25.6255 371.497 26.2152 372.676 27.3729 372.87C28.3941 373.115 29.7964 372.288 29.854 371.18Z" fill="#6518CE"/>
<path d="M556.72 107.741L519.947 20.9557L518.865 23.8242C553.676 10.6004 589.625 -0.168806 626.378 -8.20357C636.778 -10.5369 647.166 -12.5321 657.744 -14.4245C658.854 -14.6314 659.728 -15.4263 659.457 -16.8378C659.305 -17.9552 658.187 -19.2482 657.017 -19.1883C619.481 -12.7262 582.749 -3.52976 547.142 8.45963C537.025 11.8662 526.967 15.4198 517.028 19.2673C515.977 19.6213 515.472 20.9599 515.946 22.1359L552.719 108.921C553.904 111.861 557.845 110.534 556.72 107.741Z" fill="#6518CE"/>
<path d="M650.647 -23.3279C663.172 3.72949 673.19 31.6338 680.58 60.0889L681.905 57.7911C642.668 68.3482 603.656 79.8385 565.002 92.2175C554.249 95.68 543.364 99.1871 532.671 102.798C530.163 103.645 531.949 108.088 534.457 107.241C572.933 94.4175 611.766 82.4829 650.824 71.4815C661.756 68.4633 672.819 65.4005 683.75 62.3823C684.543 62.1149 685.169 61.0623 685.076 60.0845C677.639 31.1406 667.575 2.74742 654.799 -24.5616C653.344 -27.4346 649.324 -26.2454 650.647 -23.3279Z" fill="#6518CE"/>
<path d="M623.013 153.95C595.532 160.533 575.899 188.021 574.745 218.251C574.366 226.503 575.647 235.191 579.864 243.058C583.17 249.407 588.071 254.557 593.665 258.48C606.356 267.479 621.664 270.458 635.583 269.262C652.672 267.829 668.222 261.111 682.894 253.693C696.841 246.685 711.135 239.063 720.978 226.305C729.058 215.797 734.159 200.488 728.786 185.714C723.119 170.21 707.439 160.061 693.73 154.058C665.424 141.686 634.669 142.738 607.685 149.817C604.357 150.769 601.03 151.722 597.762 152.82C595.278 153.655 597.047 158.034 599.531 157.2C624.5 148.808 652.815 145.758 680.255 153.778C686.827 155.714 693.184 158.22 699.254 161.486C706.083 165.159 712.755 169.548 718.069 175.721C723.016 181.353 726.048 188.126 726.669 195.544C727.243 202.48 725.313 209.097 722.636 214.971C716.246 228.558 703.529 237.142 691.197 244.105C677.616 251.654 663.408 258.75 648.163 262.547C634.678 265.918 619.751 266.458 605.592 260.441C599.627 257.803 593.89 254.26 589.238 249.358C584.147 244.105 580.984 237.376 579.769 230.324C577.044 215.489 581.243 200.151 587.57 188.243C593.896 176.336 603.624 166.6 615.631 161.405C618.65 160.058 621.657 159.048 624.913 158.285C627.325 157.64 625.556 153.261 623.013 153.95Z" fill="#6518CE"/>
<path d="M59.2094 357.658C44.6591 363.543 30.201 370.392 18.0731 380.437C6.94493 389.648 -2.35038 401.56 -6.02657 416.723C-9.04393 429.841 -7.81619 445.014 -0.300218 457.742C8.31546 472.09 23.6732 478.866 38.0927 481.481C70.659 487.117 103.192 475.023 125.741 454.014C136.646 443.883 146.136 430.248 146.326 413.438C146.431 405.61 144.483 397.477 140.169 390.471C135.855 383.464 129.09 378.111 121.999 374.525C114.909 370.939 106.805 368.523 99.1278 366.792C90.8093 364.945 82.5242 363.916 74.2724 363.705C57.579 363.18 41.2214 365.693 26.2327 371.228C22.4413 372.502 18.7679 374.069 15.1533 375.781C12.7872 376.907 14.556 381.287 16.9221 380.16C43.9951 367.414 76.5744 364.258 107.646 373.546C121.681 377.782 136.667 385.844 140.884 402.168C145.101 418.492 138.566 432.46 129.832 443.188C120.36 454.662 107.571 463.437 94.1125 469.452C80.6542 475.468 65.8731 478.943 50.5333 478.461C36.4162 478.066 19.8972 474.664 8.66162 463.02C-0.774422 453.259 -4.0478 439.271 -3.12225 426.856C-0.635319 395.512 26.2506 377.523 50.6115 366.517C54.0235 365.038 57.4355 363.56 60.7757 362.272C63.534 361.013 61.7652 356.633 59.2094 357.658Z" fill="#6518CE"/>
<path d="M396.851 445.621C373.543 451.967 354.527 474.743 356.412 502.307C357.199 515.158 363.029 528.119 371.582 538.363C380.628 549.098 392.552 556.408 405.146 559.558C418.058 562.766 431.322 561.757 442.985 557.515C455.425 553.012 465.595 544.353 472.74 532.939C479.814 521.712 485.908 507.7 485.385 492.957C484.863 478.214 474.629 463.452 463.053 453.731C439.537 433.754 408.194 429.682 383.335 439.829C380.028 441.102 377.025 442.766 373.893 444.473C371.667 445.876 374.337 449.57 376.622 448.311C398.455 435.41 427.976 435.339 452.362 450.925C463.71 458.264 474.906 469.589 479.312 483.028C483.718 496.467 478.951 510.854 473.476 522.036C467.788 533.781 459.613 543.738 448.579 549.9C438.465 555.425 426.36 557.848 414.324 556.806C402.289 555.763 390.651 550.98 380.882 542.455C371.113 533.931 364.559 523.179 361.631 511.211C355.636 485.846 369.938 462.685 389.975 453.338C392.706 452.094 395.495 450.993 398.272 450.226C401.249 449.226 399.368 444.939 396.851 445.621Z" fill="#6518CE"/>
<path d="M726.707 365.534C709.448 370.496 694.475 386.719 694.777 405.229C694.914 414.024 698.818 422.517 704.866 428.824C711.676 435.936 721.133 439.281 730.755 440.546C741.348 441.92 753.069 442.567 762.864 437.562C771.753 433.046 778.922 425.129 783.201 416.104C787.049 408.013 788.602 398.751 786.351 390.114C784.1 381.477 777.765 374.811 770.034 370.676C751.38 360.479 728.929 364.405 709.318 369.302C706.622 369.985 703.925 370.668 701.091 371.402C698.258 372.135 699.905 376.184 702.602 375.501C721.155 370.683 741.485 365.21 760.333 371.302C767.92 373.783 775.154 378.256 779.426 385.217C783.698 392.178 783.633 400.427 781.562 407.862C779.332 416.132 774.176 423.618 767.668 429.12C763.9 432.37 759.556 434.901 754.709 436.066C749.862 437.231 744.663 437.44 739.586 437.138C730.403 436.641 720.644 435.426 712.971 430.184C706.333 425.646 701.515 418.886 699.703 411.019C695.381 392.127 710.684 374.695 727.944 369.734C730.863 368.813 729.353 364.714 726.707 365.534Z" fill="#6518CE"/>
<path d="M152.887 233.367C152.974 233.18 152.974 233.18 152.887 233.367Z" fill="#6518CE"/>
<path d="M152.887 233.367C152.613 233.467 152.152 233.482 152.887 233.367Z" fill="#6518CE"/>
</g>
</g>
<defs>
<clipPath id="clip0_111_232">
<rect width="761" height="452" fill="white"/>
</clipPath>
</defs>
</svg>
