<?xml version="1.0" encoding="utf-8"?>
<!-- Generator: Adobe Illustrator 26.2.1, SVG Export Plug-In . SVG Version: 6.00 Build 0)  -->
<svg version="1.1" xmlns="http://www.w3.org/2000/svg" xmlns:xlink="http://www.w3.org/1999/xlink" x="0px" y="0px"
	 viewBox="0 0 792 612" style="enable-background:new 0 0 792 612;" xml:space="preserve">
<style type="text/css">
	.st0{fill:none;}
	.st1{fill:#1D1D1B;}
	.st2{fill:#FFFFFF;}
	.st3{fill:#929BFF;}
	.st4{fill:#F70808;}
	.st5{opacity:0.7;fill:url(#SVGID_1_);enable-background:new    ;}
	.st6{fill:#ACE5F9;}
	.st7{fill:#FFCF0D;}
	.st8{fill:#D4D4D3;}
	.st9{fill:#C98F5F;}
	.st10{fill:#D8D6D6;}
	.st11{fill:#FF825C;}
	.st12{fill:#FFCC00;}
</style>
<pattern  y="612" width="28.8" height="28.8" patternUnits="userSpaceOnUse" id="_0___10_ppp" viewBox="2.2 -31 28.8 28.8" style="overflow:visible;">
	<g>
		<rect x="2.2" y="-31" class="st0" width="28.8" height="28.8"/>
		<g>
			<rect x="2.2" y="-31" class="st0" width="28.8" height="28.8"/>
			<g>
				<path class="st1" d="M31-33.1c1.2,0,2.2,1,2.2,2.2c0,1.2-1,2.2-2.2,2.2c-1.2,0-2.2-1-2.2-2.2C28.8-32.2,29.8-33.1,31-33.1z"/>
				<path class="st1" d="M16.6-33.1c1.2,0,2.2,1,2.2,2.2c0,1.2-1,2.2-2.2,2.2s-2.2-1-2.2-2.2C14.4-32.2,15.4-33.1,16.6-33.1z"/>
				<path class="st1" d="M31-18.7c1.2,0,2.2,1,2.2,2.2s-1,2.2-2.2,2.2c-1.2,0-2.2-1-2.2-2.2S29.8-18.7,31-18.7z"/>
				<path class="st1" d="M16.6-18.7c1.2,0,2.2,1,2.2,2.2s-1,2.2-2.2,2.2s-2.2-1-2.2-2.2S15.4-18.7,16.6-18.7z"/>
				<path class="st1" d="M9.4-25.9c1.2,0,2.2,1,2.2,2.2s-1,2.2-2.2,2.2s-2.2-1-2.2-2.2S8.2-25.9,9.4-25.9z"/>
				<path class="st1" d="M23.8-25.9c1.2,0,2.2,1,2.2,2.2s-1,2.2-2.2,2.2s-2.2-1-2.2-2.2S22.6-25.9,23.8-25.9z"/>
				<path class="st1" d="M9.4-11.5c1.2,0,2.2,1,2.2,2.2s-1,2.2-2.2,2.2s-2.2-1-2.2-2.2S8.2-11.5,9.4-11.5z"/>
				<path class="st1" d="M23.8-11.5c1.2,0,2.2,1,2.2,2.2s-1,2.2-2.2,2.2s-2.2-1-2.2-2.2S22.6-11.5,23.8-11.5z"/>
			</g>
			<g>
				<path class="st1" d="M2.2-33.1c1.2,0,2.2,1,2.2,2.2c0,1.2-1,2.2-2.2,2.2S0-29.8,0-31C0-32.2,1-33.1,2.2-33.1z"/>
				<path class="st1" d="M2.2-18.7c1.2,0,2.2,1,2.2,2.2s-1,2.2-2.2,2.2S0-15.4,0-16.6S1-18.7,2.2-18.7z"/>
			</g>
			<g>
				<path class="st1" d="M31-4.3c1.2,0,2.2,1,2.2,2.2S32.2,0,31,0c-1.2,0-2.2-1-2.2-2.2S29.8-4.3,31-4.3z"/>
				<path class="st1" d="M16.6-4.3c1.2,0,2.2,1,2.2,2.2S17.8,0,16.6,0s-2.2-1-2.2-2.2S15.4-4.3,16.6-4.3z"/>
			</g>
			<path class="st1" d="M2.2-4.3c1.2,0,2.2,1,2.2,2.2S3.4,0,2.2,0S0-1,0-2.2S1-4.3,2.2-4.3z"/>
		</g>
	</g>
</pattern>
<g id="Arrows">
</g>
<g id="Layer_1">
	<polygon class="st2" points="55.2,120.3 55.2,502.5 599.5,502.5 662.3,502.5 769,502.5 769,386.7 769,339.2 769,21.4 350.2,21.4 
		93.3,21.4 55.2,21.4 55.2,83.2 	"/>
	<g>
		<path class="st3" d="M509.9,128.5v-17.4c0-1.9-3-1.9-3,0v17.4C506.9,130.4,509.9,130.4,509.9,128.5L509.9,128.5z"/>
		<path class="st3" d="M701.8,352.6l-1-14L699,340l10.1,2.1c0.8,0.2,1.6-0.2,1.8-1c0.2-0.8-0.2-1.7-1-1.9l-10.1-2.1
			c-0.9-0.2-2,0.4-1.9,1.5l1,14c0.1,0.8,0.7,1.5,1.5,1.5C701.1,354.1,701.9,353.4,701.8,352.6L701.8,352.6L701.8,352.6z"/>
		<path class="st3" d="M434.4,168.2c0.5-14.6,0.1-29.2-1-43.8c-0.2-1.9-3.2-1.9-3,0c1.2,14.6,1.5,29.2,1,43.8
			C431.3,170.2,434.3,170.2,434.4,168.2L434.4,168.2z"/>
		<path class="st3" d="M426.6,137.5c1.7-6.6,4.7-12.8,8.7-18.4l-2.8-0.8c-0.1,7.3,4.9,13.3,9.5,18.5c1.3,1.5,3.4-0.7,2.1-2.1
			c-4-4.6-8.7-9.9-8.6-16.4c0-1.6-2-1.9-2.8-0.8c-4.2,5.8-7.3,12.2-9,19.1C423.2,138.6,426.1,139.4,426.6,137.5L426.6,137.5
			L426.6,137.5z"/>
		<path class="st3" d="M471.8,185.5c12.4-5.3,24.6-11,36.6-17.2c1.7-0.9,0.2-3.5-1.5-2.6c-12,6.2-24.2,11.9-36.6,17.2
			C468.5,183.6,470.1,186.2,471.8,185.5L471.8,185.5z"/>
		<path class="st3" d="M495.1,167c5.3-0.1,10.6,0,16,0.6l-1.3-2.3c-2.2,3.7-3.7,7.7-4.5,11.9c-0.1,0.8,0.2,1.6,1,1.9
			c0.7,0.2,1.7-0.2,1.9-1.1c0.8-4,2.2-7.7,4.2-11.2c0.6-1.1-0.2-2.1-1.3-2.3c-5.3-0.5-10.6-0.7-16-0.6
			C493.2,164,493.2,167,495.1,167L495.1,167L495.1,167z"/>
		<path class="st3" d="M465.1,214.9c12.3,3.6,24.3,8.2,35.9,13.7c1.7,0.8,3.2-1.8,1.5-2.6c-11.8-5.7-24-10.4-36.6-14
			C464,211.4,463.2,214.3,465.1,214.9L465.1,214.9z"/>
		<path class="st3" d="M495.2,219.7l9.3,8.2l0.7-2.5c-5.2,0.9-10.3,2.1-15.4,3.6c-1.8,0.6-1,3.5,0.8,2.9c5-1.6,10.2-2.8,15.4-3.6
			c1.1-0.2,1.5-1.8,0.7-2.5l-9.3-8.2C495.9,216.3,493.8,218.5,495.2,219.7L495.2,219.7L495.2,219.7z"/>
		<path class="st3" d="M388,209.2c-8.2,5.5-16,11.5-23.5,18l2.5,1.5c0.5-3.3,0.7-6.5,0.7-9.8c0-1.9-3-1.9-3,0c0,3-0.2,6-0.6,9
			c-0.2,1.5,1.3,2.5,2.5,1.5c7.2-6.3,14.9-12.2,22.9-17.5C391.1,210.7,389.6,208.1,388,209.2L388,209.2L388,209.2z"/>
		<path class="st3" d="M366.6,230.6l11.1-3.2c0.8-0.2,1.3-1.1,1-1.9s-1.1-1.3-1.9-1.1l-11.1,3.2c-0.8,0.2-1.3,1.1-1,1.9
			S365.9,230.8,366.6,230.6L366.6,230.6z"/>
		<path class="st3" d="M390,179.1c-10.5-7-21.6-13.1-33.1-18.4c-1.2-0.5-2.5,0.4-2.2,1.7l2.2,9.7c0.4,1.9,3.3,1.1,2.9-0.8l-2.2-9.7
			l-2.2,1.7c11.5,5.3,22.6,11.4,33.1,18.4C390.1,182.7,391.6,180.1,390,179.1L390,179.1L390,179.1z"/>
		<path class="st3" d="M356.8,163.5h12.6c1.9,0,1.9-3,0-3h-12.6C354.9,160.5,354.9,163.5,356.8,163.5L356.8,163.5z"/>
		<path class="st3" d="M470,86.7c29.9-2.2,59.9-4,89.9-5.3c8.5-0.4,16.9-0.7,25.3-1c1.9-0.1,1.9-3.1,0-3c-30,1.1-60,2.6-89.9,4.6
			c-8.4,0.6-16.9,1.1-25.3,1.8C468.1,83.9,468,86.9,470,86.7L470,86.7L470,86.7z"/>
		<path class="st3" d="M569.8,73.4c7.4,0.1,14.7,1.3,21.7,3.7l-0.4-2.7c-7.2,4.6-14.7,8.9-22.4,12.8c-1.7,0.9-0.2,3.5,1.5,2.6
			c7.7-3.9,15.1-8.1,22.4-12.8c1.1-0.7,0.9-2.3-0.4-2.7c-7.3-2.4-14.9-3.7-22.5-3.8C567.9,70.4,567.9,73.4,569.8,73.4L569.8,73.4
			L569.8,73.4z"/>
		<path class="st3" d="M393.1,81.2c-29.1-0.4-58.2-0.4-87.3,0c-8.1,0.1-16.3,0.2-24.5,0.4c-1.9,0-1.9,3,0,3
			c29.1-0.6,58.2-0.8,87.3-0.6c8.1,0.1,16.3,0.1,24.5,0.2C395,84.2,395,81.2,393.1,81.2L393.1,81.2L393.1,81.2z"/>
		<path class="st3" d="M292.6,76.1c-6.5-0.3-13.1,1.3-18.5,4.9c-0.8,0.5-1.1,1.7-0.3,2.4l17.6,15.8c1.4,1.3,3.6-0.8,2.1-2.1
			l-17.6-15.8l-0.3,2.4c5-3.3,11-4.8,17-4.5C294.5,79.2,294.5,76.2,292.6,76.1L292.6,76.1L292.6,76.1z"/>
		<path class="st3" d="M304.3,130.6l-26.9-14.1c-1.7-0.9-3.2,1.7-1.5,2.6l26.9,14.1C304.5,134.1,306,131.5,304.3,130.6L304.3,130.6z
			"/>
		<path class="st3" d="M277.8,128.9c0.9-5-0.2-10.1-3-14.2l-0.9,2.2l17-2.6c0.8-0.1,1.2-1.1,1-1.8c-0.2-0.9-1-1.2-1.9-1.1l-17,2.6
			c-0.9,0.1-1.4,1.5-0.9,2.2c2.4,3.5,3.5,7.7,2.7,11.9c-0.1,0.8,0.2,1.6,1,1.9C276.7,130.1,277.7,129.7,277.8,128.9L277.8,128.9
			L277.8,128.9z"/>
		<path class="st3" d="M564.5,137.8c2.7-4.3,7.5-6.9,11.6-9.7l14.3-9.8c1.6-1.1,0.1-3.7-1.5-2.6c-5,3.4-10.1,6.9-15.2,10.3
			c-4.3,2.9-9,5.7-11.8,10.2C560.9,138,563.5,139.5,564.5,137.8L564.5,137.8L564.5,137.8z"/>
		<path class="st3" d="M578.2,117.5l11.2,0.1l-1.5-1.9c-1.5,4.5-2.5,9.2-2.9,14c-0.1,0.8,0.7,1.5,1.5,1.5c0.9,0,1.4-0.7,1.5-1.5
			c0.4-4.5,1.4-8.9,2.8-13.2c0.3-0.9-0.5-1.9-1.5-1.9l-11.2-0.1C576.3,114.5,576.3,117.5,578.2,117.5L578.2,117.5L578.2,117.5z"/>
		<path class="st3" d="M564.5,158.6l28.3,20.3l0.8-2.8l-16-2c-1.9-0.2-1.9,2.8,0,3l16,2c1.6,0.2,1.8-2,0.8-2.8L566,156
			C564.5,154.9,563,157.5,564.5,158.6L564.5,158.6L564.5,158.6z"/>
		<path class="st3" d="M596.7,176.9l-0.9-11.8c-0.1-0.8-0.7-1.5-1.5-1.5c-0.8,0-1.6,0.7-1.5,1.5l0.9,11.8c0.1,0.8,0.7,1.5,1.5,1.5
			C595.9,178.4,596.7,177.7,596.7,176.9L596.7,176.9z"/>
		<path class="st3" d="M651.4,101.8l0,53.6l2.6-1.1l-14.4-12.9c-1.4-1.3-3.6,0.8-2.1,2.1l14.4,12.9c1,0.8,2.6,0.3,2.6-1.1l0-53.6
			C654.4,99.9,651.4,99.9,651.4,101.8C651.4,101.8,651.4,101.8,651.4,101.8z"/>
		<path class="st3" d="M654.5,156.3c4.2-5.8,9.8-10.5,16-14c1.7-0.9,0.2-3.5-1.5-2.6c-6.7,3.8-12.6,8.9-17.1,15.1
			c-0.5,0.7-0.1,1.7,0.5,2.1C653.2,157.3,654,157,654.5,156.3L654.5,156.3L654.5,156.3z"/>
		<path class="st3" d="M427.3,221.6c-0.3,15.1-0.2,30.1,0.5,45.1l2.6-1.1c-5.1-4.5-11-7.7-17.4-9.8c-1.8-0.6-2.6,2.3-0.8,2.9
			c5.9,1.9,11.4,5,16.1,9c0.9,0.8,2.6,0.3,2.6-1.1c-0.6-15-0.8-30.1-0.5-45.1C430.4,219.7,427.4,219.7,427.3,221.6L427.3,221.6
			L427.3,221.6z"/>
		<path class="st3" d="M430.1,267.5c6.4-3.8,12.9-7.3,19.5-10.6c1.7-0.9,0.2-3.4-1.5-2.6c-6.6,3.3-13.1,6.9-19.5,10.6
			C427,265.9,428.5,268.5,430.1,267.5L430.1,267.5z"/>
		<path class="st3" d="M350.2,127.5c13.7-9.9,29.6-16.6,46.2-19.9c1.4-0.3,1.4-2.6,0-2.9l-16.2-2.9c-1.9-0.3-2.7,2.6-0.8,2.9
			l16.2,2.9v-2.9c-16.8,3.3-33,10.1-46.9,20.2C347.1,126,348.6,128.6,350.2,127.5L350.2,127.5L350.2,127.5z"/>
		<path class="st3" d="M394,105l-9.6,11.3c-0.5,0.6-0.6,1.5,0,2.1c0.5,0.5,1.6,0.6,2.1,0l9.6-11.3c0.5-0.6,0.6-1.5,0-2.1
			C395.6,104.4,394.5,104.4,394,105L394,105z"/>
		<path class="st3" d="M459.5,103.6c18.7,0.8,33.8,12.7,47.6,24.1l1.5-2.5c-6.1-1.1-12.1-2.5-18-4.2c-1.9-0.5-2.6,2.3-0.8,2.9
			c5.9,1.7,11.9,3.1,18,4.2c1.3,0.2,2.7-1.5,1.5-2.5c-7.4-6.1-14.9-12.3-23.3-16.9s-17.1-7.6-26.5-8
			C457.6,100.5,457.6,103.5,459.5,103.6L459.5,103.6L459.5,103.6z"/>
		<path class="st3" d="M550.3,215.1c6-6,11.2-13.5,12.6-22c1.4-8.1-0.7-16.5-6.3-22.5c-1.3-1.4-3.4,0.7-2.1,2.1
			c5,5.4,6.9,13.2,5.4,20.4c-1.6,7.8-6.2,14.4-11.7,19.9C546.8,214.3,548.9,216.4,550.3,215.1L550.3,215.1L550.3,215.1z"/>
		<path class="st3" d="M546,205.5l0.1,11c0,0.9,1,1.8,1.9,1.4c4.3-1.7,8.7-3,13.2-4.1c1.9-0.4,1.1-3.3-0.8-2.9
			c-4.5,1-8.9,2.4-13.2,4.1l1.9,1.4l-0.1-11C548.9,203.6,545.9,203.6,546,205.5L546,205.5L546,205.5z"/>
		<path class="st3" d="M517.7,262.1c-12.1,10.1-22.8,21.9-31.7,34.9l2.8,0.8l2.1-18.4c0.2-1.9-2.8-1.9-3,0l-2.1,18.4
			c-0.2,1.6,2,1.9,2.8,0.8c8.7-12.8,19.3-24.3,31.2-34.3C521.3,263,519.2,260.8,517.7,262.1L517.7,262.1L517.7,262.1z"/>
		<path class="st3" d="M487.5,300.5c5.9-3.4,12.1-6.2,18.5-8.5c1.8-0.6,1-3.5-0.8-2.9c-6.6,2.4-13.1,5.4-19.2,8.8
			C484.3,298.9,485.8,301.5,487.5,300.5L487.5,300.5L487.5,300.5z"/>
		<path class="st3" d="M350.5,264.6c12.1,11.1,24.6,21.8,37.4,32.1l1.8-2.4c-7.9-3.8-16.1-6.8-24.6-9c-1.9-0.5-2.7,2.4-0.8,2.9
			c8.2,2.1,16.2,5,23.9,8.7c1.4,0.7,3.2-1.2,1.8-2.4c-12.8-10.3-25.3-21-37.4-32.1C351.2,261.2,349.1,263.3,350.5,264.6L350.5,264.6
			L350.5,264.6z"/>
		<path class="st3" d="M389.7,295.5v-18.6c0-1.9-3-1.9-3,0v18.6C386.7,297.4,389.7,297.4,389.7,295.5L389.7,295.5z"/>
		<path class="st3" d="M556,181.9v-14.1l-2.5,1.1l13.4,11.4c0.6,0.5,1.5,0.6,2.1,0c0.5-0.5,0.6-1.6,0-2.1l-13.4-11.4
			c-1-0.8-2.6-0.3-2.6,1.1v14.1C552.9,183.8,555.9,183.8,556,181.9L556,181.9z"/>
		<path class="st3" d="M351.7,116.9c-1.2,4.2-3,8.1-5.4,11.8c-0.4,0.6-0.2,1.4,0.2,1.8c0.5,0.5,1.2,0.5,1.8,0.2
			c4.6-2.1,9.7-3.3,14.7-3.8c0.8-0.1,1.5-0.6,1.5-1.5c0-0.8-0.7-1.6-1.5-1.5c-5.6,0.5-11.1,1.9-16.2,4.2l2,2.1
			c2.5-3.8,4.5-8.1,5.7-12.5C355.2,115.8,352.3,115,351.7,116.9L351.7,116.9L351.7,116.9z"/>
		<path class="st3" d="M467.7,110.8c-2.4-5-6.5-9-11.4-11.6l-0.4,2.7c6.4-1.8,13-3.1,19.6-3.9c0.8-0.1,1.5-0.6,1.5-1.5
			c0-0.7-0.7-1.6-1.5-1.5c-6.9,0.8-13.7,2.2-20.4,4c-1.2,0.3-1.5,2.1-0.4,2.7c4.5,2.4,8.1,6,10.3,10.6
			C465.9,114,468.5,112.5,467.7,110.8L467.7,110.8L467.7,110.8z"/>
		<path class="st3" d="M267,71.1c19.2-6.4,38.7-11.7,58.5-16c19.9-4.2,39.9-7.4,60.1-9.4c20.3-2,40.7-3,61.1-2.9
			c20.3,0.1,40.6,1.4,60.8,3.7s40.3,5.8,60.2,10.4c2.5,0.6,4.9,1.2,7.4,1.8c1.7,0.4,2.5-1.8,1.2-2.7c-5.1-3.7-10.3-7.4-14.3-12.3
			c-1.2-1.5-3.4,0.7-2.1,2.1c4.2,5,9.6,8.9,15,12.8l1.2-2.7c-19.8-4.9-39.8-8.6-60-11.2s-40.8-4.2-61.2-4.6s-41,0.3-61.4,2
			c-20.4,1.8-40.7,4.7-60.8,8.7c-19.9,4-39.6,9-59,15.2c-2.4,0.8-4.8,1.5-7.1,2.3C264.4,68.8,265.2,71.7,267,71.1L267,71.1L267,71.1
			z"/>
		<path class="st3" d="M574,55.6c-11-0.8-22.2,0.9-32.5,5.1c-1.8,0.7-1,3.6,0.8,2.9c10-4,20.9-5.7,31.7-5
			C575.9,58.7,575.9,55.7,574,55.6L574,55.6z"/>
		<path class="st3" d="M652.9,216.7c-0.1,16.9-0.1,33.7,0.2,50.6l3-0.4c-2-5.4-5.4-10.1-9.8-13.9c-1.5-1.2-3.6,0.9-2.1,2.1
			c4,3.4,7.2,7.6,9,12.5c0.6,1.5,3,1.4,3-0.4c-0.2-16.9-0.3-33.7-0.2-50.6C655.9,214.7,652.9,214.7,652.9,216.7L652.9,216.7
			L652.9,216.7z"/>
		<path class="st3" d="M655.5,267.7c3.1-5.5,7.9-9.8,13.5-12.5c0.7-0.4,0.9-1.4,0.5-2.1c-0.4-0.7-1.3-0.9-2-0.5
			c-6,3-11.3,7.7-14.6,13.6C652,267.8,654.6,269.4,655.5,267.7L655.5,267.7L655.5,267.7z"/>
		<path class="st3" d="M357.9,390.5c8.3-15.9,18.8-30.6,31-43.7c0.8-0.9,0.3-2.6-1.1-2.6c-5.6,0.3-11.2,0.9-16.8,1.8
			c-1.9,0.3-1.1,3.2,0.8,2.9c5.3-0.9,10.6-1.4,16-1.7l-1.1-2.6c-12.4,13.3-23.1,28.2-31.5,44.3C354.4,390.7,357,392.3,357.9,390.5
			L357.9,390.5L357.9,390.5z"/>
		<path class="st3" d="M386.7,345.8v16.8c0,1.9,3,1.9,3,0v-16.8C389.7,343.9,386.7,343.9,386.7,345.8L386.7,345.8z"/>
		<path class="st3" d="M531,371.9c-8.1-12.9-18.7-24-30.9-33.1c-1.5-1.1-3,1.5-1.5,2.6c11.8,8.8,22,19.6,29.8,32
			C529.5,375,532.1,373.5,531,371.9L531,371.9L531,371.9z"/>
		<path class="st3" d="M500,351.4c0.4-4.7,0.1-9.5-0.8-14.1l-1.5,1.9c4.8,0.4,9.6,1.1,14.3,2.1c0.8,0.2,1.6-0.2,1.8-1
			c0.2-0.7-0.2-1.7-1-1.9c-5-1-10-1.7-15.1-2.2c-1-0.1-1.6,1-1.5,1.9c0.9,4.4,1.1,8.9,0.7,13.3c-0.1,0.8,0.7,1.5,1.5,1.5
			C499.4,352.9,499.9,352.2,500,351.4L500,351.4L500,351.4z"/>
		<path class="st3" d="M319.5,260.3c-15.3,10-29.6,21.3-42.9,33.8l2.5,1.5c1.5-5,3-10.1,4.5-15.1c0.5-1.9-2.4-2.6-2.9-0.8
			c-1.5,5-3,10.1-4.5,15.1c-0.4,1.5,1.5,2.5,2.5,1.5c13.1-12.4,27.2-23.5,42.3-33.3C322.7,261.8,321.2,259.2,319.5,260.3
			L319.5,260.3L319.5,260.3z"/>
		<path class="st3" d="M279,296.5c7.7-0.5,15.4-0.3,23.1,0.5c1.9,0.2,1.9-2.8,0-3c-7.7-0.8-15.4-1-23.1-0.5
			C277,293.6,277,296.6,279,296.5L279,296.5z"/>
		<path class="st3" d="M550.2,257.3c14.1,4.7,27.6,11.4,39.8,20c3.5,2.4,6.8,5,10,7.7l1.5-2.5c-7-2.3-14.1-4-21.4-5.1
			c-1.9-0.3-2.7,2.6-0.8,2.9c7.3,1.1,14.4,2.8,21.4,5.1c1.4,0.5,2.6-1.5,1.5-2.5c-11.7-9.8-24.8-17.8-38.8-23.8
			c-4-1.7-8.1-3.3-12.3-4.7C549.2,253.7,548.4,256.6,550.2,257.3L550.2,257.3L550.2,257.3z"/>
		<path class="st3" d="M603.1,283.7v-18.6c0-1.9-3-1.9-3,0v18.6C600.1,285.6,603.1,285.6,603.1,283.7L603.1,283.7z"/>
		<path class="st3" d="M508.4,315h66c1.9,0,1.9-3,0-3h-66C506.4,312,506.4,315,508.4,315L508.4,315z"/>
		<path class="st3" d="M561.8,309.5c6-0.5,12,0.8,17.1,4l0.4-2.7c-7.6,3.1-14.5,7.4-20.6,12.9c-1.4,1.3,0.7,3.4,2.1,2.1
			c5.6-5.1,12.2-9.2,19.3-12.1c1.2-0.5,1.5-2,0.4-2.7c-5.5-3.5-12.1-5-18.6-4.4C559.9,306.7,559.9,309.7,561.8,309.5L561.8,309.5
			L561.8,309.5z"/>
		<path class="st3" d="M350.2,316.9c-20.8-1.4-41.6-0.6-62.2,2.5c-1.9,0.3-1.1,3.2,0.8,2.9c20.3-3,40.9-3.8,61.4-2.4
			C352.1,320,352.1,317,350.2,316.9L350.2,316.9L350.2,316.9z"/>
		<path class="st3" d="M298.3,310.8c-5,1.4-9.6,4.2-12.8,8.3c-0.5,0.6-0.6,1.5,0,2.1c5.2,4.9,10.5,9.7,15.7,14.6
			c1.4,1.3,3.5-0.8,2.1-2.1c-5.2-4.9-10.5-9.7-15.7-14.6v2.1c2.9-3.7,7-6.2,11.5-7.5C301,313.1,300.2,310.3,298.3,310.8L298.3,310.8
			L298.3,310.8z"/>
		<path class="st3" d="M625.4,389.1c10.9,1.6,22.5,1.5,32.6-3.8c8.2-4.3,14.8-12.3,16.8-21.5c1.1-5,1.3-11.5-2.6-15.4
			c-1.4-1.4-3.5,0.8-2.1,2.1c3,3,2.7,8.3,1.9,12.1c-0.8,4.2-2.7,8.1-5.3,11.5c-5.7,7.4-14.3,11.4-23.4,12.5
			c-5.7,0.7-11.4,0.3-17-0.5c-0.8-0.1-1.6,0.2-1.8,1C624.1,388,624.6,389,625.4,389.1L625.4,389.1z"/>
		<path class="st3" d="M669,360.1c0.2-3.9,1-7.8,2.4-11.4l-1.8,1l17.6,6.3c1.8,0.6,2.6-2.2,0.8-2.9l-17.6-6.3
			c-0.8-0.3-1.6,0.3-1.8,1c-1.5,3.9-2.3,8-2.5,12.2C665.9,362,668.9,362,669,360.1L669,360.1L669,360.1z"/>
		<path class="st3" d="M658.5,404.2c23.5-5.8,43.4-23.4,52.7-45.7c11.5-27.5,6.7-58.4-3.9-85.3c-6.3-15.9-14.4-30.9-22.8-45.9
			c-0.7-1.2-2.9-0.8-2.8,0.8c0.4,5.3,0.1,10.6-0.9,15.8l3,0.4c-0.1-4.4,0.2-8.9,1.2-13.2l-1.8,1.1l16.6,5.5c1.8,0.6,2.6-2.3,0.8-2.9
			l-16.6-5.5c-0.7-0.2-1.7,0.3-1.8,1.1c-1,4.6-1.4,9.3-1.3,14c0,1.6,2.6,2.1,3,0.4c1.1-5.5,1.5-11,1-16.6l-2.8,0.8
			c14.2,25.3,28.5,51.9,32.1,81.2c1.7,14.1,0.9,28.5-3.6,42c-3.7,11.1-10.1,21.3-18.3,29.6c-9.5,9.5-21.3,16.4-34.4,19.6
			C655.8,401.8,656.6,404.7,658.5,404.2L658.5,404.2L658.5,404.2z"/>
		<path class="st3" d="M657.2,409.8c18.2-2.4,34.3-12.3,46.6-25.6c13.5-14.7,22.1-33,26.9-52.3c5.4-21.9,6.3-44.6,5.9-67
			c-0.5-23.1-2.3-46.1-6-68.9c-3.7-22.7-9.2-45.1-17.1-66.7c-1-2.7-2-5.3-3-8c-0.7-1.8-3.6-1-2.9,0.8c8.2,21,14.2,42.8,18.4,65
			s6.5,45,7.3,67.6s0.8,44.3-3.2,66.1c-3.6,19.8-10.7,39.3-23.2,55.2c-10.9,13.9-25.7,25.4-43.1,29.6c-2.2,0.5-4.3,0.9-6.5,1.2
			C655.3,407,655.3,410,657.2,409.8L657.2,409.8L657.2,409.8z"/>
		<path class="st3" d="M704.8,134.7c-0.3-6.2-0.2-12.4,0.4-18.6l-2.3,1.3l18.4,11.1c1.7,1,3.2-1.6,1.5-2.6l-18.4-11.1
			c-1-0.6-2.2,0.2-2.3,1.3c-0.6,6.2-0.7,12.4-0.4,18.6C701.9,136.6,704.9,136.6,704.8,134.7L704.8,134.7L704.8,134.7z"/>
		<path class="st3" d="M612.4,408.9c8.5,5.5,16.3,12.1,23,19.7l1.5-2.5c-6-1.1-12-2.1-18.1-3.2c-1.9-0.3-2.7,2.6-0.8,2.9
			c6,1.1,12,2.1,18.1,3.2c1.5,0.3,2.5-1.3,1.5-2.5c-6.9-7.8-14.9-14.5-23.6-20.1C612.3,405.2,610.7,407.8,612.4,408.9L612.4,408.9
			L612.4,408.9z"/>
		<path class="st3" d="M637.5,427.1l1.2-9.3c0.1-0.8-0.8-1.5-1.5-1.5c-0.9,0-1.4,0.7-1.5,1.5l-1.2,9.3c-0.1,0.8,0.8,1.5,1.5,1.5
			C636.9,428.6,637.4,427.9,637.5,427.1L637.5,427.1z"/>
		<path class="st3" d="M570,406.3c-2.9,8.8-6.3,17.4-10.2,25.9l2.4-0.3c-3.2-3.5-6.4-7.1-9.5-10.6c-1.3-1.4-3.4,0.7-2.1,2.1
			c3.2,3.5,6.4,7.1,9.5,10.6c0.6,0.7,2,0.5,2.4-0.3c4-8.6,7.5-17.5,10.5-26.6C573.5,405.2,570.6,404.5,570,406.3L570,406.3
			L570,406.3z"/>
		<path class="st3" d="M563.5,435.7l12.7-8.2c0.7-0.4,1-1.3,0.5-2c-0.4-0.7-1.4-1-2-0.5l-12.7,8.2c-0.7,0.4-1,1.3-0.5,2
			C561.8,435.9,562.8,436.2,563.5,435.7L563.5,435.7z"/>
		<path class="st3" d="M426.1,378.4c4.8-4.5,9.1-9.3,13.1-14.5l-2.4,0.3c3.8,4.4,6.9,9.2,9.5,14.4c0.8,1.7,3.4,0.2,2.6-1.5
			c-2.6-5.4-6-10.4-9.9-15c-0.7-0.8-1.8-0.4-2.4,0.3c-3.8,5-8,9.6-12.6,13.9C422.6,377.5,424.7,379.7,426.1,378.4L426.1,378.4
			L426.1,378.4z"/>
		<path class="st3" d="M437.7,364.7v54c0,1.9,3,1.9,3,0v-54C440.7,362.8,437.7,362.8,437.7,364.7L437.7,364.7z"/>
		<path class="st3" d="M395.6,437.8c-19.1-4.9-38-11-56.4-18.1c-1.8-0.7-2.6,2.2-0.8,2.9c18.4,7.1,37.2,13.2,56.4,18.1
			C396.7,441.2,397.5,438.3,395.6,437.8L395.6,437.8z"/>
		<path class="st3" d="M340.7,432.4c-1.9-5.7-5-10.8-9.2-15.1l-1.1,2.6c5.9-0.7,11.8-0.9,17.6-0.5c1.9,0.1,1.9-2.9,0-3
			c-5.9-0.4-11.8-0.2-17.6,0.5c-1.2,0.1-2,1.5-1.1,2.6c3.8,3.9,6.7,8.6,8.4,13.8C338.4,435.1,341.3,434.3,340.7,432.4L340.7,432.4
			L340.7,432.4z"/>
		<path class="st3" d="M473.3,446.7c13.5-2.9,26.4-9,37-17.9c3-2.5,5.7-5.2,8.3-8.1c1-1.2,0-2.7-1.5-2.5c-4.4,0.6-8.6,2.1-12.4,4.4
			c-1.7,1-0.2,3.5,1.5,2.6c4.5-2.4,9.2-4.2,14.1-5.7l-1.9-1.5l-1.1,13.6c-0.2,1.9,2.8,1.9,3,0l1.1-13.6c0.1-1-1-1.7-1.9-1.5
			c-5.1,1.5-10.1,3.5-14.8,6l1.5,2.6c3.6-2.2,7.5-3.5,11.7-4.1l-1.5-2.5c-11.4,13-27.2,21.6-44,25.1
			C470.6,444.2,471.4,447.1,473.3,446.7L473.3,446.7L473.3,446.7z"/>
		<path class="st3" d="M299.5,410.4c-1,9.8,0.8,19.6,4.8,28.5l2-2l-15.1-11c-1.6-1.1-3.1,1.5-1.5,2.6l15.1,11c1.4,1,2.6-0.9,2-2
			c-3.8-8.5-5.3-17.8-4.4-27C302.7,408.4,299.7,408.5,299.5,410.4L299.5,410.4L299.5,410.4z"/>
		<path class="st3" d="M306.2,440.5c0.9-4.8,2.9-9.3,5.8-13.4c0.5-0.7,0.1-1.7-0.5-2c-0.8-0.4-1.6-0.1-2,0.5c-3,4.2-5.1,9-6.1,14.1
			c-0.1,0.8,0.2,1.6,1,1.9C305.1,441.8,306.1,441.3,306.2,440.5L306.2,440.5L306.2,440.5z"/>
		<path class="st3" d="M698.7,441.9c10.4-12.3,19.5-26.4,23.4-42.2c3.4-13.9,2.1-28.8-4.7-41.6c-3.8-7.1-9.2-13.2-15.8-17.8
			c-1.6-1.1-3.1,1.5-1.5,2.6c11.1,7.8,18.1,20,20.2,33.3c2.3,14.5-1.8,29-8.6,41.7c-4.2,7.8-9.4,15-15.1,21.8
			C695.4,441.2,697.5,443.4,698.7,441.9L698.7,441.9L698.7,441.9z"/>
		<g>
			<path class="st3" d="M295.9,165.5c-14.8,6.3-29.3,14.8-39.9,27.2c-9.3,10.9-14.9,24.8-14.5,39.2c0.2,8,2.3,15.9,6.1,23
				c0.9,1.7,3.4,0.1,2.5-1.6c-6.4-11.9-7.2-26.1-3.1-38.9c4.5-13.9,14.7-25.1,26.5-33.4c7.3-5.1,15.2-9.2,23.3-12.6
				C298.6,167.6,297.7,164.7,295.9,165.5L295.9,165.5L295.9,165.5z"/>
			<path class="st3" d="M252.9,243.8l-5.4,13l2.3-0.4l-8.1-6.4c-0.6-0.5-1.6-0.5-2.1,0.1c-0.5,0.6-0.5,1.6,0.1,2.1l8.1,6.4
				c0.7,0.6,1.9,0.5,2.3-0.4l5.4-13c0.3-0.8,0.1-1.6-0.7-2C254.3,242.8,253.3,243.1,252.9,243.8L252.9,243.8L252.9,243.8z"/>
		</g>
		<path class="st3" d="M597.4,464h25.1c1.9,0,1.9-3,0-3h-25.1C595.5,461,595.5,464,597.4,464L597.4,464z"/>
		<path class="st3" d="M613.8,460.1c3.9,0.6,7.8,1.8,11.3,3.6l-0.3-2.4l-11.4,8.8c-0.6,0.5-0.5,1.6,0,2.1c0.6,0.6,1.5,0.5,2.1,0
			l11.4-8.8c0.8-0.6,0.5-2-0.3-2.4c-3.8-1.9-7.8-3.3-12.1-3.9c-0.8-0.1-1.6,0.2-1.8,1C612.6,459,613,460,613.8,460.1L613.8,460.1
			L613.8,460.1z"/>
		<path class="st3" d="M471.4,464.4c15.4,2.4,30.8,4.3,46.3,5.6c1.9,0.2,1.9-2.8,0-3c-15.2-1.3-30.4-3.1-45.5-5.5
			C470.3,461.2,469.5,464.1,471.4,464.4L471.4,464.4L471.4,464.4z"/>
		<path class="st3" d="M506.3,461.8c5.6,0.5,11.2,2.6,15.5,6.3l0.3-2.4c-6.4,3.1-12.5,7-18,11.5c-0.6,0.5-0.5,1.6,0,2.1
			c0.6,0.6,1.5,0.5,2.1,0c5.4-4.3,11.2-8,17.4-11c0.8-0.4,1-1.8,0.3-2.4c-5-4.2-11.2-6.6-17.7-7.2
			C504.4,458.6,504.4,461.7,506.3,461.8L506.3,461.8L506.3,461.8z"/>
		<path class="st3" d="M396.3,460.2c-16.2-1.1-32.6,0.2-48.5,4c-1.9,0.5-1.1,3.4,0.8,2.9c15.6-3.8,31.7-5.1,47.7-3.9
			C398.2,463.3,398.2,460.3,396.3,460.2L396.3,460.2L396.3,460.2z"/>
		<path class="st3" d="M361.2,456.9c-5.8,1.1-11.3,3.3-16.2,6.5c-1,0.6-0.9,1.9,0,2.6c6.2,4.5,12.6,8.7,19.4,12.5
			c1.7,1,3.2-1.6,1.5-2.6c-6.7-3.8-13.2-7.9-19.4-12.5v2.6c4.8-3,10-5.1,15.5-6.2C363.9,459.4,363.1,456.5,361.2,456.9L361.2,456.9
			L361.2,456.9z"/>
	</g>
	<g>
		<path class="st3" d="M328.1,115.4c-13.3-1.5-29.6,2.7-36.3,15.3c-3,5.6-3.8,12.5-1.4,18.5c2.6,6.4,8.5,10.5,14.7,12.9
			c7.2,2.8,15.2,3.6,22.8,3s15.5-2.5,22.2-6.4c5.6-3.2,10.9-8.2,12.3-14.7s-1.3-13.5-5.9-18.4c-5.1-5.4-12.3-8.4-19.5-9.8
			c-8.4-1.7-17-1.3-25.5-0.4c-2.2,0.2-4.4,0.5-6.6,0.7c-1.9,0.2-1.9,3.2,0,3c14.7-1.7,31.4-3.7,44.5,4.6c5.2,3.3,9.5,8.6,10.3,14.9
			s-2.8,11.5-7.5,15.2c-5.3,4.1-11.9,6.4-18.4,7.6c-7.3,1.4-15,1.4-22.3-0.3c-6-1.4-12.2-4.1-16.1-9c-3.7-4.6-4.3-10.8-2.6-16.4
			c4.6-14.3,21.8-18.7,35.2-17.2C330,118.6,330,115.6,328.1,115.4L328.1,115.4L328.1,115.4z"/>
		<path class="st3" d="M438.3,62c-14.4,0.3-28.8,7.6-35.6,20.6c-1.6,3.1-2.7,6.3-3.3,9.8s-0.8,7.4,0.6,10.8
			c2.6,6.5,10.2,10.3,16.3,12.7c13,5,28.9,4.3,39.6-5.4c4.6-4.1,7.9-9.8,8.4-15.9s-2.3-12.5-6.5-17.2c-10-11.4-26-14.4-40.4-15.3
			c-2-0.1-3.9-0.2-5.9-0.3s-1.9,2.9,0,3c13.6,0.5,28.9,1.8,39.9,10.7c4.5,3.6,8.3,8.4,9.5,14.2c1.1,5.4-0.6,10.9-3.9,15.3
			c-7.9,10.3-21.9,12.8-34,9.9c-6.2-1.5-12.9-4.2-17.5-8.7c-2.5-2.4-3.6-5.5-3.6-8.9c0-3.2,0.6-6.3,1.7-9.2
			c5.1-14.3,19.9-22.6,34.6-22.9C440.2,65,440.2,62,438.3,62L438.3,62L438.3,62z"/>
		<path class="st3" d="M546.2,123.8c-13.9-2.7-28.9,5.1-35.7,17.4c-1.9,3.4-3,7.2-2.5,11.1c0.4,3,1.9,5.8,3.9,8.1
			c4.3,5.1,10.8,8.3,16.9,10.6c7.8,3,16.2,5.5,24.7,4.7c7-0.6,13.8-3.5,18.9-8.3c5.2-4.8,8.2-11.6,8-18.7
			c-0.2-7.5-3.8-14.2-9.4-19.1s-12.9-8.8-20.1-11.4s-15.4-4.1-23.3-4.3c-2,0-3.9,0-5.9,0.1s-1.9,3.1,0,3
			c14.4-0.8,29.1,2.6,41.3,10.3c5.8,3.6,11.2,8.5,13.4,15.2c2,6.3,1.1,13.2-2.6,18.8c-3.4,5.1-9,8.8-14.9,10.5
			c-7.3,2.1-15,1.1-22.2-1.1c-6.4-1.9-12.8-4.4-18.3-8.2c-4.7-3.4-8.7-8.4-7.4-14.5c1.5-7.2,7.6-13.3,13.7-16.9s13.5-5.5,20.6-4.2
			C547.2,127.1,548,124.2,546.2,123.8L546.2,123.8L546.2,123.8z"/>
		<path class="st3" d="M534.2,218c-14.6,0.2-28.6,8.6-34,22.4c-2.5,6.3-3.6,14.8,0.7,20.6c2.2,2.9,5.2,5,8.4,6.9
			c3.1,1.8,6.2,3.1,9.5,4.2c13,4.3,28.6,3.5,39.2-5.9c4.5-3.9,7.9-9.3,8.7-15.2c0.9-6.4-1.5-12.3-5.7-17.1
			c-4.7-5.4-11-9.4-17.1-12.9c-7.1-4.1-14.7-6.6-22.9-6.3c-2,0.1-3.9,0.3-5.8,0.7s-1.1,3.2,0.8,2.9c7.3-1.3,14.9-0.4,21.6,2.8
			c3.2,1.5,6.3,3.3,9.3,5.2c2.8,1.7,5.5,3.6,8,5.7c4.4,3.7,8.5,8.7,9,14.6c0.5,5.2-1.6,10.4-5,14.4c-8.2,9.8-21.8,12.2-33.9,9.7
			c-6.2-1.3-12.2-3.7-17.4-7.4c-2.7-1.9-5.2-4.4-6.1-7.7c-0.9-3.1-0.6-6.6,0.1-9.7c3.2-15,17.6-24.7,32.6-24.9
			C536.1,221,536.1,218,534.2,218L534.2,218L534.2,218z"/>
		<path class="st3" d="M331.1,226.2c-6.9,0.4-13.9,2.5-19.4,6.8c-5.2,4-9,10.1-9.3,16.8c-0.4,6.2,2.6,12,7.1,16.2
			c5,4.7,11.5,7.3,18.2,8.3c7.2,1,14.7,0.2,21.7-1.9c6.3-1.9,12.5-5,17.2-9.8s7.4-11,6.8-17.5s-4.8-12-10.3-15.5
			c-6-3.9-13.2-6.3-20.2-7.9c-7.4-1.7-15.1-2.4-22.7-2.1c-1.9,0.1-3.8,0.2-5.6,0.4s-1.9,3.2,0,3c13.7-1.5,28,0.4,40.7,5.9
			c5.4,2.4,11.2,5.7,13.8,11.3c2.5,5.2,1.5,11.4-1.4,16.2c-3.1,5.2-8.3,8.8-13.7,11.2c-6,2.6-12.7,4-19.2,4.1s-13-1.1-18.5-4.4
			c-4.7-2.8-8.8-7.1-10.3-12.4c-1.8-6.5,1-13.2,5.7-17.8c5.2-5,12.5-7.4,19.5-7.8C333,229.1,333,226.1,331.1,226.2L331.1,226.2
			L331.1,226.2z"/>
	</g>
	<g>
		<path class="st3" d="M353.8,355.8c1.7,19.6,4.6,39.1,8.5,58.3l1.5-1.9c-18.6-0.2-37.2-0.4-55.8-0.3s-37.2,0.2-55.8,0.5
			c-10.5,0.2-20.9,0.4-31.4,0.6c-1.9,0-1.9,3,0,3c18.6-0.5,37.2-0.8,55.8-1c18.6-0.2,37.2-0.2,55.8-0.1c10.5,0,20.9,0.1,31.4,0.3
			c1,0,1.6-1,1.5-1.9c-3.9-19-6.8-38.2-8.5-57.5C356.6,353.9,353.6,353.9,353.8,355.8L353.8,355.8z"/>
		<g>
			<path class="st3" d="M442.2,158.6c-11.5-1.3-23.2-0.3-34.4,2.7c-10,2.8-20.5,7-28.3,14c-3.5,3.2-6.5,7.1-8.1,11.6
				c-1.7,4.8-1.6,10.2,0,15c3.5,10.5,12.6,17,22.5,20.8c21,8.1,45.2,7.7,66.2-0.3c9.4-3.6,20.2-8.6,24.2-18.6s0.5-21-6-28.7
				C471.3,167,461,162,451,158.5c-10.9-3.8-22.6-5.4-34.1-4.7c-2.8,0.2-5.6,0.5-8.3,0.9c-1.9,0.3-1.1,3.2,0.8,2.9
				c10.8-1.7,21.9-1.2,32.5,1.3c10,2.4,20.2,6.4,28.4,12.7c7.8,6,13.3,15,12.6,25.1c-0.3,4.8-2.3,9.1-5.6,12.5s-7.7,5.8-12,7.9
				c-19.3,9-41.6,11-62.2,5.5c-9.6-2.6-19.9-6.7-25.7-15.3c-2.7-4.1-4.4-8.9-4.2-13.9c0.2-4.4,2.1-8.7,4.9-12.1
				c6-7.5,15.4-11.9,24.2-15.1c10.2-3.6,21.1-5.4,32-5.2c2.7,0.1,5.3,0.2,8,0.5C444.1,161.8,444.1,158.8,442.2,158.6L442.2,158.6
				L442.2,158.6z"/>
			<path class="st3" d="M235.2,419.7l-2.2-34.9l-0.6-8.6l-0.3-4.2c0-0.7-0.1-1.4-0.1-2.1c0-0.6,0.3-0.8,0.9-0.9
				c1.1-0.3,2.3-0.4,3.4-0.5c1.5-0.2,3.1-0.4,4.6-0.5c2.8-0.3,5.7-0.6,8.5-0.9c23-2.4,46.1-3.7,69.2-3.9c13-0.1,25.9,0.1,38.9,0.7
				c1.9,0.1,1.9-2.9,0-3c-23.9-1-47.9-0.9-71.9,0.4c-11.8,0.6-23.5,1.5-35.2,2.8c-3,0.3-6,0.6-9,1c-2.8,0.3-5.8,0.5-8.6,1.1
				c-2.4,0.5-3.9,1.8-3.8,4.3c0.1,3,0.4,5.9,0.6,8.9l2.6,40.5C232.3,421.6,235.3,421.6,235.2,419.7L235.2,419.7L235.2,419.7z"/>
			<path class="st3" d="M512.7,413.2l-1.2-35.4l-0.3-8.7c0-1.5-0.1-3-0.1-4.5c0-1.2,0.5-1.3,1.6-1.4c2.8-0.2,5.7,0.1,8.5,0.2
				l8.7,0.3c23.7,0.8,47.4,1.6,71.1,2.4l39.9,1.3c1.9,0.1,1.9-2.9,0-3c-24.5-0.8-48.9-1.6-73.4-2.5l-36.9-1.2l-9-0.3
				c-2.9-0.1-5.9-0.4-8.8-0.3c-2.3,0.1-4.5,1-4.8,3.5c-0.1,1.3,0,2.6,0.1,3.9l0.1,4.5l1.3,41.1C509.8,415.1,512.8,415.1,512.7,413.2
				L512.7,413.2L512.7,413.2z"/>
		</g>
		<path class="st3" d="M638.6,361.2l6.5,52.1l1.5-1.5c-19.3-0.2-38.6-0.3-57.9-0.3s-38.8,0.1-58.1,0.2c-10.9,0.1-21.8,0.2-32.7,0.3
			c-1.9,0-1.9,3,0,3c19.3-0.2,38.6-0.4,57.9-0.5s38.8-0.1,58.1,0c10.9,0,21.8,0.1,32.7,0.2c0.7,0,1.6-0.7,1.5-1.5l-6.5-52.1
			C641.3,359.4,638.3,359.3,638.6,361.2L638.6,361.2L638.6,361.2z"/>
	</g>
	<g>
		<path class="st3" d="M597,47.2c-0.1,17.1,0.3,34.1,1.4,51.2c0.3,4.9,0.7,9.7,1,14.6c0,0.5,0.2,1.1,0.7,1.3
			c5.9,2.7,12.2,1.2,18.2-0.2c6.8-1.5,13.7-2.8,20.7-3.9c13.7-2.1,27.6-3.2,41.5-3.4c7.9-0.1,15.8,0.1,23.7,0.5c1.9,0.1,1.9-2.9,0-3
			c-27.3-1.6-54.9,0.3-81.7,5.8c-3.6,0.7-7.2,1.7-10.8,2.3c-3.3,0.6-6.9,0.7-10.1-0.7l0.7,1.3c-1.4-17-2.2-34.1-2.4-51.1
			c-0.1-4.9-0.1-9.7,0-14.6C600,45.3,597,45.3,597,47.2L597,47.2L597,47.2z"/>
		<path class="st3" d="M595.4,54c21.3-1.7,42.7-3.3,64.1-3.8c10.6-0.2,21.3-0.2,31.9,0.3c2.7,0.1,5.4,0.3,8.2,0.5
			c1,0.1,2.5-0.1,3.5,0.3s0.5,2.2,0.5,3l-0.4,16.1c-0.3,12.1-0.5,24.2-0.8,36.2c0,1.9,3,1.9,3,0c0.2-11.1,0.5-22.2,0.8-33.3
			l0.4-16.9c0-1.3,0.1-2.7,0.1-4c0-1-0.1-2-0.7-2.9c-1.4-1.9-4.5-1.6-6.5-1.7c-22.2-1.5-44.4-0.9-66.6,0.4
			c-12.5,0.7-24.9,1.7-37.3,2.7C593.5,51.2,593.4,54.2,595.4,54L595.4,54L595.4,54z"/>
		<path class="st3" d="M372.1,322.6c15.1-12.1,30.9-23.5,47.2-33.9c2-1.3,4.1-2.6,6.2-3.9c1.9-1.2,3.8-2.7,6-3.3
			c2.3-0.6,4.4,0.8,6.4,1.8c2.2,1.1,4.5,2.3,6.7,3.4c8.9,4.6,17.8,9.2,26.6,14c9.9,5.4,19.7,11,29.4,16.7l-0.3-2.4
			c-7.7,6.2-15.7,11.9-24.1,17.2c-7.9,5-16,9.6-24.1,14.4c-2.3,1.3-4.5,2.7-6.8,4s-4.6,3.2-7.3,3.9c-2.8,0.7-5.5-0.9-7.9-2.1
			s-4.9-2.5-7.3-3.8c-9-4.9-17.6-10.5-26-16.4c-9.6-6.8-19.1-13.8-29-20.3c-1.6-1.1-3.1,1.5-1.5,2.6c17.8,11.7,34.4,25.2,53,35.6
			c2.4,1.4,4.9,2.6,7.3,3.9s5,2.8,7.6,3.4s5.3-0.1,7.8-1.4s4.9-2.9,7.4-4.4c8.4-5,16.9-9.8,25.2-14.9c9.6-5.9,18.8-12.4,27.6-19.5
			c0.8-0.6,0.5-1.9-0.3-2.4c-17.8-10.5-35.9-20.4-54.2-29.9c-2.3-1.2-4.6-2.4-6.9-3.5c-2.1-1-4.2-2.4-6.5-2.9s-4.4,0.2-6.3,1.3
			c-2.1,1.2-4.2,2.6-6.3,3.9c-8.5,5.3-16.8,10.9-25,16.7c-9.1,6.5-18.1,13.2-26.8,20.2C368.4,321.7,370.6,323.8,372.1,322.6
			L372.1,322.6L372.1,322.6z"/>
		<path class="st3" d="M165.8,55.1c25.9-2.3,51.8-3.1,77.8-2.5c7.3,0.2,14.6,0.5,21.9,0.9l-1.5-1.5c1.6,18.1,1.9,36.4,1,54.5
			c-0.1,1.9,2.9,1.9,3,0c1-18.2,0.6-36.4-1-54.5c-0.1-0.8-0.6-1.5-1.5-1.5c-25.9-1.5-51.9-1.5-77.8-0.1c-7.3,0.4-14.6,1-21.9,1.6
			C163.9,52.3,163.8,55.3,165.8,55.1L165.8,55.1L165.8,55.1z"/>
		<path class="st3" d="M273,103.8c-28.1,0.2-56.2,0.5-84.3,1.1c-8,0.2-16,0.3-23.9,0.5l1.5,1.5c0-19.7-0.8-39.4-2.5-59.1
			c-0.2-1.9-3.2-1.9-3,0c1.7,19.6,2.5,39.4,2.5,59.1c0,0.8,0.7,1.5,1.5,1.5c28.1-0.7,56.2-1.2,84.3-1.5c8-0.1,16-0.2,24-0.2
			C275,106.8,275,103.8,273,103.8L273,103.8L273,103.8z"/>
		<path class="st3" d="M312.1,438.2c-12.7-0.1-27,6.4-30.6,19.6c-1.7,6.1-0.5,12.8,3.4,17.9s10.2,8.6,16.4,10.9
			c11.5,4.2,26.7,4.7,35.7-5c4.4-4.7,6.5-10.9,7.1-17.2c0.3-3.3,0.4-7-1-10.1s-4.3-5.5-7.1-7.4c-11.2-7.9-25.6-11.4-39.2-10.3
			c-1.7,0.1-3.4,0.4-5.1,0.6c-1.9,0.3-1.1,3.2,0.8,2.9c12.4-2,25.6,0.1,36.7,6.1c2.6,1.4,5.1,3,7.4,4.9c2.7,2.2,4.3,4.7,4.5,8.2
			c0.4,5.6-0.8,11.7-3.7,16.6c-6.2,10.5-19.4,11.9-30.3,9.3c-10.8-2.6-23.8-9.5-23.4-22.2c0.4-14.4,15.6-21.8,28.3-21.7
			C314,441.2,314,438.2,312.1,438.2L312.1,438.2L312.1,438.2z"/>
		<path class="st3" d="M574.4,439.9c-13-0.5-28.6-0.3-38.3,9.8c-4.1,4.3-6.3,10.2-5.8,16.1c0.4,5.9,3.2,11.3,7.7,15.3
			c9.4,8.4,23.4,9.9,34.9,5.2c5.9-2.4,11.2-6.2,15-11.4c4.2-5.7,4.5-12.7,4-19.5c-0.2-3.7-1.4-7-4.1-9.6c-2.5-2.4-5.6-4.1-8.8-5.5
			c-7.4-3.2-15.4-4.9-23.5-5c-1.9,0-1.9,3,0,3c6.5,0.1,13,1.3,19.2,3.5c4.9,1.8,11.6,4.5,13.5,9.9c1,2.9,0.8,6.3,0.8,9.3
			s-0.3,6.3-1.8,9.2c-2.5,5.1-7.3,9.1-12.2,11.8c-10,5.3-22.6,5.4-32.2-0.9c-4.4-2.9-7.9-7.2-9.1-12.4s-0.3-10.5,2.8-14.8
			c3.6-5.1,9.7-8,15.5-9.5c7.3-1.9,14.9-1.7,22.3-1.5C576.3,443,576.3,440,574.4,439.9L574.4,439.9L574.4,439.9z"/>
	</g>
	<path class="st4" d="M211.2,100.6c-1.6,18.7-3.6,37.4-5.9,56.1l2.6-1.1l-9.3-9.5c-1.4-1.4-3.5,0.8-2.1,2.1l9.3,9.5
		c1,1,2.4,0.2,2.6-1.1c2.4-18.7,4.3-37.4,5.9-56.1C214.4,98.7,211.4,98.7,211.2,100.6L211.2,100.6z"/>
	<path class="st4" d="M209.1,158c1.5-6.6,6.3-12.1,12.2-15.2c1.7-0.9,0.2-3.5-1.5-2.6c-6.6,3.5-11.9,9.6-13.6,17
		C205.8,159.1,208.7,159.9,209.1,158L209.1,158L209.1,158z"/>
	<path class="st4" d="M207.3,221.6c-0.7,16.7,0.4,33.4,3.1,49.8l2.5-1.5c-3.5-4.1-7.8-7.4-12.6-9.9c-1.7-0.9-3.2,1.7-1.5,2.6
		c4.6,2.4,8.6,5.5,12,9.4c1.1,1.2,2.7-0.1,2.5-1.5c-2.7-16.2-3.7-32.6-3-49C210.4,219.7,207.4,219.7,207.3,221.6L207.3,221.6
		L207.3,221.6z"/>
	<path class="st4" d="M211.9,272c2.5-5.5,6.1-10.4,10.5-14.5c1.4-1.3-0.7-3.4-2.1-2.1c-4.6,4.3-8.3,9.4-10.9,15.1
		c-0.3,0.7-0.2,1.6,0.5,2C210.5,272.9,211.6,272.7,211.9,272L211.9,272L211.9,272z"/>
	<path class="st4" d="M239.1,386.9c-14.6-0.7-29.6-11.1-31.9-26.2c-0.2-1.6-2.5-1.3-2.9,0c-1.5,4.6-3,9.2-4.6,13.8
		c-0.6,1.8,2.3,2.6,2.9,0.8c1.5-4.6,3-9.2,4.6-13.8h-2.9c1.9,12.5,12.2,22.2,23.8,26.2c3.6,1.2,7.3,2,11,2.1
		C241,390,241,387,239.1,386.9L239.1,386.9L239.1,386.9z"/>
	<path class="st4" d="M205.2,362.4c5.1,1.3,10,3.7,14,7.1c0.6,0.5,1.5,0.6,2.1,0c0.5-0.5,0.6-1.6,0-2.1c-4.5-3.7-9.7-6.4-15.4-7.9
		C204.2,359,203.4,361.9,205.2,362.4L205.2,362.4L205.2,362.4z"/>
	<path class="st4" d="M230.3,430.9l0.1,12.1c0,0.9,1,1.8,1.9,1.5l18.6-6.9c1.8-0.7,1-3.6-0.8-2.9l-18.6,6.9l1.9,1.5l-0.1-12.1
		C233.2,428.9,230.2,428.9,230.3,430.9L230.3,430.9L230.3,430.9z"/>
	<g>
		<path class="st3" d="M610.6,226l-1.2-59.4l-1.5,1.5c26.9-0.9,53.9-0.1,80.7,2.5c7.6,0.7,15.1,1.6,22.7,2.6
			c0.8,0.1,1.6-0.2,1.8-1.1c0.2-0.7-0.2-1.7-1-1.9c-26.9-3.7-54-5.6-81.1-5.6c-7.7,0-15.4,0.1-23.1,0.4c-0.8,0-1.5,0.7-1.5,1.5
			l1.2,59.4C607.6,227.9,610.6,227.9,610.6,226L610.6,226L610.6,226z"/>
		<path class="st3" d="M708.9,166.4c1.1,18.6,0.3,37.2-2.4,55.6l1.5-1.1c-29-1.6-58.1-2.6-87.2-3c-8.1-0.1-16.3-0.2-24.4-0.2
			c-1.9,0-1.9,3,0,3c29.1,0.1,58.2,0.8,87.2,2.1c8.1,0.4,16.3,0.8,24.4,1.2c0.6,0,1.3-0.5,1.5-1.1c2.8-18.7,3.7-37.6,2.5-56.4
			C711.8,164.5,708.8,164.4,708.9,166.4L708.9,166.4L708.9,166.4z"/>
		<path class="st3" d="M646.6,275.7c-20.3-1.6-41,11-50,29c-2.5,4.9-4,10.4-3.3,16c0.5,4.5,2.4,8.6,5.1,12.1
			c6.1,8,15.6,12.9,25.3,15c11.9,2.6,24.2,1.7,36.1,0.2c11.3-1.4,23-3.1,33.1-8.8c8.3-4.7,15.9-12.9,16.3-22.9
			c0.4-10.5-7.4-19.8-15-26.2c-15.7-13.2-36.7-18.8-56.8-20c-2.5-0.1-5-0.2-7.5-0.2c-1.9,0-1.9,3,0,3c19.1,0,39,3.9,55.3,14.3
			c3.9,2.5,7.5,5.3,10.7,8.5c3.6,3.6,6.9,7.6,8.8,12.4c1.8,4.4,2,9.1,0.4,13.7c-1.5,4.3-4.6,7.9-8,10.9c-8,6.9-18.9,9.5-29.1,11.2
			c-11.2,1.8-22.7,3.2-34,2.4c-10-0.7-20.2-3.4-28.1-9.9c-3.3-2.8-6.2-6.1-8-10c-2-4.2-2.3-8.9-1.2-13.4c2.2-9.5,9.2-17.9,16.7-23.8
			s16.7-9.8,26.2-10.5c2.4-0.2,4.7-0.2,7.1,0C648.5,278.8,648.5,275.8,646.6,275.7L646.6,275.7L646.6,275.7z"/>
		<path class="st3" d="M235.9,273.1c-11.4,0.6-23,1.8-33.9,5.4c-10,3.3-19.5,8.6-26.1,17c-5.6,7.3-8.9,16.7-7.3,25.9
			c1.9,10.4,10.4,17.6,19.4,22.1c20.4,10,45.6,9.3,66.5,1.2c10.1-3.9,20.2-10.2,24.9-20.3c2.2-4.7,3.1-10,2.1-15.1
			s-4.1-9.7-7.9-13.3s-8.6-6.7-13.3-9.3c-5.1-2.8-10.4-5.1-15.9-6.9c-11.1-3.7-22.8-5.5-34.4-5.2c-2.9,0-5.8,0.2-8.7,0.5
			c-1.9,0.2-1.9,3.2,0,3c21.7-2.2,44.5,2.5,62.9,14.4c8.3,5.4,16.2,13.3,14.6,24s-9.8,17.8-18.6,22.5c-9.5,5-20.5,7.7-31.2,8.6
			s-21.6,0-31.8-3.4c-9.4-3.1-19.6-8.5-24-17.8c-3.7-7.8-2.1-16.9,1.9-24.2c10.2-18.4,33.2-23.8,52.6-25.5c2.7-0.2,5.4-0.4,8-0.5
			C237.9,276,237.9,273,235.9,273.1L235.9,273.1L235.9,273.1z"/>
		<path class="st3" d="M431.8,409.6c-17.6-0.9-36.8,9.1-43.1,26.3c-3,8-2.6,17.1,0.4,25.1c3.2,8.4,9.3,15.3,17,19.8
			c7.9,4.6,17.2,6.7,26.3,6.5c9.7-0.2,19-3.4,27-8.9c7.9-5.4,15.9-12.7,19.6-21.8s0.8-20.2-4.4-28.5c-10.5-17-30.7-25.9-50.4-24.8
			c-2.6,0.1-5.1,0.5-7.7,0.9c-1.9,0.4-1.1,3.2,0.8,2.9c18.4-3.4,38.5,2.6,50.8,17.1c5.7,6.8,10.2,16,9.5,25.1s-7.9,16.9-14.7,22.6
			c-7.1,6-15.4,10.4-24.6,11.9c-8.4,1.3-17.3,0.3-25.2-2.8s-14.5-8.4-18.8-15.6s-5.8-15.1-4.5-23c2.9-16.7,19-27.9,35.2-29.5
			c2.2-0.2,4.4-0.3,6.5-0.2C433.8,412.7,433.7,409.7,431.8,409.6L431.8,409.6L431.8,409.6z"/>
	</g>
	<path class="st3" d="M662.3,433.8c-12.3-0.9-25.8,6-30,18c-2,5.7-1.5,12.1,0.9,17.6c2.7,6.2,8,10.6,13.9,13.7
		c6.5,3.4,13.9,6.6,21.4,5.7c6.8-0.8,13.3-4.2,18.2-9c4.4-4.3,7.6-9.9,8.2-16s-1.9-11.9-5.9-16.4c-9.6-11-25-13.8-38.8-15.3
		c-1.9-0.2-3.8-0.4-5.8-0.6s-1.9,2.8,0,3c13.1,1.3,27.5,2.6,38.2,11c4.3,3.4,7.9,8,9,13.5s-0.9,10.8-4,15.1
		c-3.4,4.8-8.5,8.4-14,10.4c-3.2,1.2-6.6,1.8-10,1.4s-6.8-1.5-10-2.9c-5.8-2.5-11.8-5.6-15.5-10.8c-3.2-4.5-4.7-10-4-15.5
		c1.7-13.2,15.7-20.8,28-19.9C664.2,436.9,664.2,433.9,662.3,433.8L662.3,433.8L662.3,433.8z"/>
	<path class="st4" d="M188.4,357.1c-6.8,8.4-11.2,18.5-12.3,29.3s1.3,20.8,6.1,30c2.8,5.3,6.6,10.2,10.9,14.4
		c1.4,1.4,3.5-0.8,2.1-2.1c-7.1-6.9-12.4-15.6-14.9-25.2s-1.9-19.8,1.5-29.1c2-5.5,4.9-10.6,8.6-15.1
		C191.8,357.8,189.6,355.6,188.4,357.1L188.4,357.1L188.4,357.1z"/>
	<path class="st4" d="M177.1,361.8l15.8-8l-2.3-1.3c0.1,7.4,0.1,14.8,0.1,22.1c0,1.9,3,1.9,3,0c-0.1-7.4-0.1-14.8-0.1-22.1
		c0-1.2-1.2-1.8-2.3-1.3l-15.8,8C173.9,360.1,175.4,362.7,177.1,361.8L177.1,361.8L177.1,361.8z"/>
	
		<pattern  id="SVGID_1_" xlink:href="#_0___10_ppp" patternTransform="matrix(0.35 -3.665191e-04 3.054332e-04 -0.35 -10120.3184 -6011.5186)">
	</pattern>
	<path class="st5" d="M365.9,214.2c-1.1-1.6-3.3-2.6-5.2-3c-2.2-0.6-4.5-0.6-6.7-0.6c-0.9,0-1.7,0-2.5-0.3c-1.6-0.5-1.4-1.5-0.8-2.7
		c2.1-4.6,5.2-8.7,8.1-12.8c1.2-1.7,3-3.6,3.5-5.7c0.3-1.4-0.2-3.2-1.7-3.8c-3.3-1.4-5,2.9-6.1,5c-1.4,2.6-2.8,5.2-4.3,7.8
		c0.7-2.4,1.4-4.7,2.1-7.1c0.6-2.1,2.2-5.8,0-7.6c-1-0.8-2.5-0.6-3.4,0.2c-1.2,1.1-1.5,2.8-1.8,4.3c-0.7,3.5-1.5,6.9-2.5,10.4
		c0.2-2.7,0.4-5.4,0.5-8.1c0.1-2.1,0.9-5.8-1-7.3c-1.1-0.9-2.8-0.7-3.5,0.6c-0.9,1.5-0.7,3.6-0.8,5.3c-0.2,3-0.3,6-0.5,9
		c-0.5-2.5-1-5-1.4-7.4c-0.2-1.4-0.4-3.5-2.1-4c-1.8-0.5-2.5,1.2-2.5,2.5c0,0,0,0.1,0,0.1c0,0,0,0.1,0,0.1c0.1,3.9,1.2,7.9,2.1,11.7
		c0.5,2,1,4,1.5,6c-3.6-0.2-7.3-0.4-10.9-0.6c0-0.3-0.1-0.5-0.1-0.7c-0.3-1.4-1-2.1-2.4-2.4c-11.4-2.9-22.8-5.8-34.2-8.6
		c-18.2-4.6-36.5-9.2-54.7-13.8c-7.7-1.9-15.3-3.9-23-5.8c-0.5,0.2-0.9,0.4-1.4,0.5c0.5-0.1,1-0.3,1.4-0.5c2-0.9,3.7-2.5,4.4-4.7
		c0.3-0.8,0.4-1.6,0.4-2.3l1.3,0.3c2,1.4,10.8,7.5,13.3,7.6c-0.4-1.9-7.2-9-7.7-10.9c2.8,1.4,5.8,2.4,8.9,2.9
		c-1.9-2.9-3.7-5.8-5.6-8.8c5.6,2.4,16.9,14.6,21.8,18c-2.8-6.2-13.2-21.2-18.8-25.6c3.2,0.5,14.4,2,17.6,2.5
		c-3.2-2.9-14.5-6.9-17.6-9.9c4.6-0.8,9.2-1.1,13.8-0.9c-4.5-3.2-9.3-6.2-14.3-8.8c3.4-1.4,16.9-3.2,20.3-4.6
		c-3.2-0.7-16.6-0.7-19.9-0.9c2.5-2.1,11.3-17.1,11.3-17.1s-17,7.5-20.7,8.5c1.1-3.4,9.1-14.6,9.7-18.1
		c-4.4,1.8-13.9,10.2-18.7,14.8l0,0c-4.4-6.5-11.2-11.7-19.6-14.1c-0.7-0.2-1.5-0.4-2.2-0.6c0.2-0.7-0.1-1.6-1.1-1.8
		c-5.3-1.4-11-1.6-16.4-0.6c-4.1-6.5-11.5-14.9-14.4-16.4c0.4,1.8,5.9,11.4,5.3,13.1c-3.4-2.2-18.3-8.8-22.3-9.6
		c2,3.4,9.3,8.8,10.4,12.6c-4.4-1-11.4-5-15.7-6c1.6,3,11,12.3,12.6,15.3c-6.4-1.5-19.8-11.9-25.5-14.8c1.6,5.8,11.2,19.5,14.4,24.7
		c-3-0.1-5.9-0.8-8.6-1.8c1.4,3,2.9,5.9,4.3,8.9c-3.1-0.5-13.6-4.7-16.7-5.2c2,2.7,11.4,9.1,13.4,11.8c-3.3,0.4-6.5,1.2-9.5,2.5
		c1.7,1.1,3.3,2.1,5,3.2c-2.5,1-5,2.1-7.5,3.1c-1.3-5.4-3.8-10.4-8.1-14.2c-3.2-2.8-7.2-4.2-11.5-2.9c-2.9,0.9-5.1,2.7-7.1,4.8
		c0.1-2.4,0.3-4.8,0.4-7.2c0.1-0.9-0.7-1.5-1.4-1.6L91,96.7c0,0,0.9-9.9-5.7-12.6l0.7-9.8l-0.9-0.1c0.1-1.4,0.2-2.9,0.2-4.3
		c0-1.5-1.5-2.8-3.1-2.7c-1.7,0.1-2.9,1.3-2.9,2.9c0,1.3-0.1,2.5-0.2,3.8l-1.1-0.1l-0.7,9.3c-3.3,0.8-5.9,3.3-7.2,6.4
		c-1.9,4.5-1.6,9.7-1.9,14.4c-0.6,10.2-1,20.5-1.4,30.7c-7.1-0.5-13.7,4.6-15.5,10.9c-3.8-0.9-8.1-0.7-11.7,1
		c-4.1,1.9-6.6,5.6-7.8,9.5c-3.6-0.6-7.3-0.4-10.1,2.2c-2.6,2.4-3.8,6-4,9.4c-0.4,7.6,2.8,14.8,7.3,21c-5.8,6.9-10.7,14.4-14.6,22.3
		S3.6,227.4,2.1,236c-1.1,6.6-0.6,14.9,6.4,18.5c8.1,4.2,17.8-0.5,23.8-5.9c7.4-6.7,12.4-15.2,18.4-22.9c0.1-0.1,0.1-0.2,0.2-0.3
		c0.5-0.8,0.9-1.7,1.2-2.6c0.1-0.4,0.1-0.8,0-1.1c1.1-2.6,1.2-5.4,0.5-8.3l-2.1,1.4l0,0l2.1-1.4l5.4-3.6c1.5,0.1,3.1,0.2,4.7,0.3
		c-1-0.2-2-0.5-3-0.7c1,0.3,2,0.5,3,0.7c3.3,0.7,6.7,1.1,10.1,1.4c2.2,0.1,4.4,0.2,6.6,0.2c-5.9,19.4-12.2,38.6-19,57.7
		c-0.6,1.6,1.8,2.7,2.7,1.5c-0.3,1-0.7,1.9-1,2.9c-0.8-0.1-1.7-0.3-2.5-0.4c-1.6-0.3-3.3-0.5-4.9-0.8c-0.7-0.1-1.5,0.4-1.7,1
		c-8.3,23.1-16.1,46.3-24.1,69.4C21,365.6,13,388.2,4,410.5c-1.1,2.8-2.2,5.5-3.4,8.2c-0.5,1.2-1.7,2.9-1.5,4.3c0.2,1,1.3,1.9,2,2.5
		c2.9,2.5,6.2,4.7,9.4,6.9c10.2,6.9,20.7,13.4,31.2,20c4.8,3,9.7,6,14.5,9c-5.3,23-10.7,46.8-15.9,69.6c0.7,0.2,1.2,0.7,1.1,1.5v0
		c0.1-0.9-0.4-1.4-1.1-1.5c-0.9-0.2-1.9,0.2-2.1,1.4c-3.2,17-6.6,34-10.5,50.9c-2,8.4-4.1,16.8-6.5,25.2c-1.5,5.5-3.1,10.8-4.2,16.4
		c-0.6,2.8-1.1,5.7-1.3,8.5c-0.1,1.2-0.3,3.2,0.4,4.4c-0.8,3.6-1.6,6.8-2.2,9.5c-1.8,7.7,62.9,11,62.9,11l18.5-96.4
		c0.6-0.1,1.2-0.5,1.3-1.2c0.3-1.8,0.7-3.5,1-5.3c0.9-4.8,1.9-9.6,2.8-14.4c1.4-7.1,2.8-14.2,4.2-21.3c1.7-8.6,3.4-17.3,5-25.9
		c1.8-9.5,3.7-18.9,5.5-28.4c1.5-7.7,3-15.4,4.5-23.1c8.4,1.1,16.8,2.3,25.1,3.6c4.5,0.7,9,1.5,13.4,2.2l0.5,205.4l71.7,4.5
		c-2.5-15.8-11.6-103.3-19.6-183.6c10.2-1.1,20.4-3,30.2-5.8c3.9-1.1,7.8-2.4,11.4-4.2c2.5-1.2,5.8-2.8,7-5.4
		c1.1-2.4,0.8-5.4,0.6-7.9c-0.4-4.6-1.4-9.1-2.3-13.6c-2.4-11.5-5.1-23-7.5-34.6c-3.6-17.3-6.9-34.6-9.6-52
		c-2.8-17.4-5.3-35-5.7-52.5c0-1.8-0.1-3.5,0-5.3c0-0.8-0.5-1.6-1.4-1.6c-9.3,0.1-18.6,0.1-27.9,0.2c-1,0-2,0-3,0l25.8-0.3l-0.7-4.6
		c0.6-0.2,1.2-0.8,1-1.6c-1.4-7.8-2.7-15.7-4-23.5c-1-5.9-1.9-11.7-2.8-17.6c-0.4-2.4-0.7-4.9-1.1-7.3c-1.3-9.2-2.7-18.5-3.4-27.8
		h0.1c13.7,0.4,27.4,1.2,41,2.6c0.7,0.1,1.4-0.4,1.7-1c0.3-0.6,0.5-1.3,0.7-1.9c1,0,1.6,0.1,1.8,0.1c-1.8-0.1-2.3,2-1.1,2.8
		c0.2,0.1,0.5,0.2,0.8,0.2c14.4,1.1,28.8,2.1,43.2,3.2c3.6,0.3,7.2,0.5,10.8,0.8c1.4,0.1,2.8,0.3,4.2,0.3c2.4,0,3.9-1.8,4.7-4
		c8.6,1.1,17.3,0.6,25.8,2.2c2.6,0.5,5.2,1.2,7.7,2.3c1.8,0.8,3.7,2.1,5.7,1.3C366.3,217.2,366.8,215.5,365.9,214.2L365.9,214.2z
		 M21.5,172.3c-0.1-0.6-0.2-1.3-0.2-2.1C21.3,171,21.4,171.7,21.5,172.3c0.2,1.5,0.6,3,1.1,4.4C22.1,175.3,21.7,173.8,21.5,172.3z
		 M28.2,187.1c-0.6-0.8-1.1-1.6-1.7-2.4C27,185.5,27.6,186.3,28.2,187.1c0.3,0.1,0.5,0.3,0.7,0.5C28.7,187.4,28.4,187.2,28.2,187.1z
		 M29.5,169.8c0.1,0.7,0.2,1.4,0.4,2.1C29.7,171.1,29.6,170.5,29.5,169.8c0-0.2-0.1-0.4-0.2-0.6C29.4,169.3,29.5,169.5,29.5,169.8z
		 M30.8,190.4c-0.6-0.6-1.1-1.3-1.7-2C29.7,189.1,30.2,189.7,30.8,190.4c0.1,0.1,0.2,0.2,0.2,0.3C31,190.6,30.9,190.5,30.8,190.4z
		 M33.2,194.9c-0.1-0.1-0.2-0.2-0.3-0.2C33,194.7,33.1,194.8,33.2,194.9c0.6,0.5,1.2,1,1.9,1.4C34.4,195.9,33.8,195.4,33.2,194.9z
		 M33.6,180.2c-0.5-0.8-1-1.6-1.5-2.4C32.5,178.6,33,179.4,33.6,180.2c0.4,0.6,1,1.3,1.5,2C34.5,181.6,34,180.9,33.6,180.2z
		 M46.9,180.8c0,0.2,0,0.3,0,0.5C46.8,181.1,46.9,180.9,46.9,180.8c0-0.4,0-0.9,0-1.3C46.9,179.9,46.9,180.3,46.9,180.8z
		 M49.1,185.4c-0.2,0.5-0.5,0.9-0.8,1.3C48.6,186.4,48.9,185.9,49.1,185.4c0.2-0.4,0.4-0.9,0.5-1.4C49.5,184.6,49.3,185,49.1,185.4z
		 M51.5,203.4c0.2-0.1,0.4-0.1,0.6-0.1C51.9,203.3,51.7,203.4,51.5,203.4z M20.3,629.2c-0.2,0.2-0.5,0.4-0.7,0.5
		c0.1-1,0.3-1.9,0.5-2.8c0,0.1,0,0.2,0.1,0.4C20.7,627.7,20.7,628.7,20.3,629.2z M84.3,191.8l-0.3,0L84.3,191.8L84.3,191.8z
		 M84.2,189c0.2,0.1,0.5,0.1,0.7,0.1C84.7,189.1,84.4,189.1,84.2,189z M90,133.8c0,0,0.1-0.1,0.1-0.1
		C90.1,133.7,90.1,133.8,90,133.8c-0.2,3.4-0.5,6.8-0.7,10.1C89.6,140.6,89.8,137.2,90,133.8z M91.5,159.3c-0.5-0.9-1-1.8-1.5-2.7
		s-1-1.7-1.6-2.6l0,0c0.5,0.9,1.1,1.7,1.6,2.6S91.1,158.4,91.5,159.3c0.2,0.4,0.4,0.8,0.6,1.2C92,160.1,91.8,159.7,91.5,159.3z
		 M98.4,151.7c-0.6-3.9-1.2-7.8-1.8-11.6C97.2,144,97.8,147.8,98.4,151.7c0.1,0.9,0.3,1.8,0.4,2.7C98.7,153.5,98.6,152.6,98.4,151.7
		z M110.9,208.7c-0.4,0.6-0.8,1.1-1.3,1.6l0,0C110,209.8,110.4,209.2,110.9,208.7c0.1-0.2,0.2-0.3,0.3-0.5
		C111.1,208.3,111,208.5,110.9,208.7z M111.7,207.3c0,0-0.1,0.1-0.1,0.2C111.7,207.4,111.7,207.3,111.7,207.3c0-0.1,0.1-0.1,0.1-0.2
		C111.8,207.2,111.8,207.3,111.7,207.3z M110.8,166.1c0.5-0.4,1-0.8,1.5-1.3C111.8,165.2,111.3,165.7,110.8,166.1z M115.8,201.6
		c-0.2-0.1-0.4-0.1-0.6-0.1C115.4,201.5,115.6,201.6,115.8,201.6c0.2,0.1,0.3,0.1,0.4,0.2C116.1,201.8,116,201.7,115.8,201.6z
		 M124.5,221.3c-0.7-0.3-1.4-0.7-2-1.1C123.2,220.6,123.8,221,124.5,221.3c0.7,0.3,1.3,0.6,2,0.9
		C125.8,221.9,125.2,221.6,124.5,221.3z M136.9,199.1c-0.4-0.6-0.8-1.3-1.2-1.9C136.1,197.8,136.5,198.5,136.9,199.1
		c0.4,0.6,0.9,1.2,1.4,1.8C137.8,200.3,137.3,199.7,136.9,199.1z M156.4,203.1c-0.2,0.2-0.3,0.5-0.3,0.7
		C156.1,203.6,156.2,203.3,156.4,203.1z M155.5,208c0.1,0.1,0.1,0.2,0.1,0.2s0.1,0.2,0.1,0.3s0,0.2,0,0.3c0-0.1,0-0.2,0-0.3
		c0-0.1,0-0.2-0.1-0.3C155.6,208.2,155.6,208.1,155.5,208c-0.1-0.1-0.2-0.3-0.3-0.4C155.3,207.8,155.4,207.9,155.5,208z M151,155.5
		C151,155.5,151.1,155.5,151,155.5L151,155.5c-0.1,0-0.1,0-0.2,0.1C150.9,155.5,151,155.5,151,155.5z M153.3,203.2
		c0.1,0.2,0.2,0.3,0.2,0.5C153.5,203.5,153.4,203.4,153.3,203.2c-0.1-0.2-0.2-0.3-0.4-0.4C153.1,202.9,153.2,203,153.3,203.2z
		 M143.7,201.5c0.9-0.7,1.8-1.4,2.6-2.1c0.1-0.1,0.2-0.1,0.3-0.2c-0.1,0.1-0.2,0.1-0.3,0.2C145.4,200.1,144.6,200.8,143.7,201.5
		c-0.1,0.1-0.2,0.2-0.3,0.3C143.4,201.7,143.6,201.6,143.7,201.5z M143.5,205.7c-0.7-0.5-1.3-1-1.9-1.5
		C142.1,204.8,142.8,205.3,143.5,205.7C143.5,205.7,143.5,205.7,143.5,205.7c0.5-0.6,1-1.1,1.5-1.6l0,0
		C144.5,204.7,144,205.2,143.5,205.7C143.5,205.7,143.5,205.7,143.5,205.7z M144.6,223.5c0.6-0.5,1.1-1,1.5-1.6
		C145.6,222.4,145.1,223,144.6,223.5z M146.6,207.7c-0.2-0.1-0.4-0.2-0.5-0.3c0.5-0.5,1-1,1.5-1.6c-0.5,0.5-1,1-1.5,1.6
		C146.3,207.5,146.4,207.6,146.6,207.7z M147.9,204.8c0-0.1,0-0.2-0.1-0.3c0-0.1-0.1-0.2-0.1-0.2c-0.1-0.1-0.1-0.2-0.2-0.2
		c0.1,0.1,0.1,0.1,0.2,0.2c0.1,0.1,0.1,0.2,0.1,0.2S147.9,204.7,147.9,204.8s0,0.2,0,0.3C147.9,205,147.9,204.9,147.9,204.8z
		 M147.5,199.1c0.2,0,0.4,0.1,0.6,0.2C147.9,199.2,147.7,199.1,147.5,199.1z M148.6,199.6c0.2,0.2,0.3,0.5,0.4,0.8
		C148.9,200.2,148.8,199.9,148.6,199.6z M146.1,156.6c-0.1-0.1-0.1-0.2-0.2-0.2C145.9,156.5,146,156.6,146.1,156.6
		c0.1,0.1,0.3,0.3,0.5,0.4C146.4,156.9,146.2,156.8,146.1,156.6z M148.3,156.8c-0.1,0.1-0.3,0.2-0.4,0.2
		C148.1,157,148.2,156.9,148.3,156.8c0.3-0.2,0.5-0.4,0.8-0.5C148.9,156.5,148.6,156.6,148.3,156.8z M153.9,207.3
		c-0.2,0-0.4,0.1-0.6,0.2c-0.2,0.1-0.3,0.2-0.5,0.4c-0.2,0.2-0.3,0.4-0.4,0.6c0.1-0.2,0.3-0.4,0.4-0.6c0.1-0.2,0.3-0.3,0.5-0.4
		S153.7,207.4,153.9,207.3c0.1,0,0.2,0,0.3,0C154.1,207.3,154,207.3,153.9,207.3z M157.5,210.4c-0.1,0.4-0.2,0.8-0.3,1.2
		c-0.4-0.1-0.7-0.2-1.1-0.2c-0.5-0.1-0.9-0.2-1.4-0.4l0,0c0.5,0.1,0.9,0.3,1.4,0.4c0.4,0.1,0.7,0.2,1.1,0.2
		C157.3,211.2,157.4,210.8,157.5,210.4c0-0.1,0.1-0.3,0.1-0.4C157.6,210.1,157.5,210.3,157.5,210.4z M158.1,209.4l-0.3,0.3
		C157.9,209.6,158,209.5,158.1,209.4c0.1-0.1,0.2-0.1,0.3-0.2C158.3,209.3,158.2,209.3,158.1,209.4z M157.8,202.5
		c-0.2,0-0.4,0-0.6,0.1C157.4,202.5,157.6,202.5,157.8,202.5c0.2,0,0.4,0.1,0.6,0.2C158.2,202.5,158,202.5,157.8,202.5z M158.9,203
		c-0.1-0.1-0.1-0.1-0.2-0.2C158.8,202.9,158.8,202.9,158.9,203c0.1,0.1,0.1,0.1,0.2,0.2C159,203.1,159,203.1,158.9,203z
		 M160.4,209.6c-0.1-0.1-0.1-0.1-0.2-0.2C160.2,209.5,160.3,209.5,160.4,209.6c0.1,0.1,0.1,0.1,0.2,0.2
		C160.5,209.7,160.4,209.7,160.4,209.6z M160.5,208.8c0,0.1,0,0.2,0,0.3C160.5,209,160.5,208.9,160.5,208.8c0.3-1.1,0.5-2.1,0.8-3.2
		C161,206.7,160.8,207.8,160.5,208.8z M161.6,204.9c-0.1,0.1-0.1,0.2-0.2,0.4C161.4,205.1,161.5,205,161.6,204.9
		c0.1-0.1,0.2-0.2,0.3-0.3L161.6,204.9z M163.1,204.3c-0.1,0-0.2,0-0.3,0C162.9,204.3,163,204.3,163.1,204.3c0.3,0,0.6,0.1,0.9,0.3
		C163.7,204.4,163.4,204.3,163.1,204.3z M161.3,159.6c0.4,0.1,0.7,0.3,1.1,0.4c0.5,0.2,0.9,0.4,1.2,0.6c-0.4-0.2-0.8-0.4-1.2-0.6
		C162,159.9,161.7,159.7,161.3,159.6z M166.5,212.1L166.5,212.1c0-0.1,0-0.2,0-0.3c0-0.1,0-0.2-0.1-0.3c0-0.2-0.1-0.4-0.3-0.5
		c0.1,0.1,0.2,0.3,0.3,0.5c0,0.1,0.1,0.2,0.1,0.3C166.5,211.9,166.5,212,166.5,212.1z M166.3,206.2l-0.2,3.1c0,0.1,0,0.2,0,0.3
		c0-0.1,0-0.2,0-0.3L166.3,206.2c0-0.1,0.1-0.3,0.1-0.4C166.4,205.9,166.4,206,166.3,206.2z M166.9,205.2c-0.1,0.1-0.1,0.1-0.2,0.2
		C166.8,205.3,166.9,205.2,166.9,205.2c0.1-0.1,0.2-0.1,0.3-0.2C167.1,205,167,205.1,166.9,205.2z M167.3,163.5
		c-0.1-0.1-0.2-0.2-0.2-0.3C167.1,163.4,167.2,163.4,167.3,163.5c0.2,0.3,0.4,0.5,0.6,0.8C167.7,164,167.5,163.8,167.3,163.5z
		 M168.5,127.3L168.5,127.3c-0.4-0.2-0.9-0.3-1.3-0.4C167.7,127,168.1,127.1,168.5,127.3L168.5,127.3z M170.7,160.1
		c-0.1-0.2-0.2-0.5-0.2-0.8C170.4,159.6,170.5,159.9,170.7,160.1z M173.5,210.7c-0.1-0.1-0.1-0.2-0.1-0.2
		C173.4,210.5,173.4,210.6,173.5,210.7c0.1,0.1,0.1,0.2,0.2,0.2C173.6,210.9,173.5,210.8,173.5,210.7z M174.8,205.4
		c-0.1-0.1-0.3-0.1-0.4-0.2C174.5,205.2,174.6,205.3,174.8,205.4c0,0,0.1,0.1,0.1,0.1C174.8,205.4,174.8,205.4,174.8,205.4z
		 M176.8,208.7c0,0.1-0.1,0.2-0.1,0.3C176.7,208.9,176.7,208.8,176.8,208.7s0.1-0.2,0.1-0.3C176.9,208.5,176.8,208.6,176.8,208.7z
		 M177.4,158.9L177.4,158.9L177.4,158.9L177.4,158.9L177.4,158.9z M179.3,191.5c0-0.2-0.1-0.4-0.2-0.6
		C179.2,191.2,179.2,191.4,179.3,191.5z M177,159.3c0,0-0.1,0-0.1,0.1C176.9,159.3,177,159.3,177,159.3z M176.9,159.4L176.9,159.4
		L176.9,159.4C176.9,159.4,176.9,159.4,176.9,159.4z M175.9,158.9L175.9,158.9L175.9,158.9z M175.9,159L175.9,159L175.9,159z
		 M175.9,159.2L175.9,159.2C175.9,159.1,175.9,159.2,175.9,159.2S175.9,159.3,175.9,159.2C175.9,159.3,175.9,159.2,175.9,159.2z
		 M176.1,159.5c0,0-0.1-0.1-0.1-0.1C176,159.4,176,159.4,176.1,159.5L176.1,159.5z M176.1,159.5L176.1,159.5L176.1,159.5
		C176.1,159.5,176.2,159.5,176.1,159.5C176.2,159.5,176.1,159.5,176.1,159.5z M176.3,157.5c0.1,0.1,0.1,0.3,0.1,0.4
		C176.4,157.7,176.3,157.6,176.3,157.5c0-0.1-0.1-0.2-0.1-0.3C176.2,157.3,176.3,157.4,176.3,157.5z M178.9,205.7c0,0.1,0,0.3,0,0.4
		C178.9,205.9,178.8,205.8,178.9,205.7l0-0.1L178.9,205.7z M179.9,208.1c0,0.1,0.1,0.2,0.1,0.2C180,208.2,179.9,208.2,179.9,208.1
		c-0.3-0.5-0.6-1.1-0.9-1.6C179.3,207,179.6,207.5,179.9,208.1z M179.9,208.9l-0.1-0.2L179.9,208.9c0.2-0.1,0.3-0.2,0.5-0.3
		C180.2,208.7,180,208.8,179.9,208.9z M179.8,204.4c0.2-0.1,0.4-0.1,0.6-0.1C180.2,204.3,180,204.3,179.8,204.4z M177.6,158.6
		c-0.1,0.1-0.1,0.2-0.2,0.4l0,0C177.5,158.8,177.5,158.7,177.6,158.6c0.1-0.2,0.2-0.3,0.4-0.4C177.8,158.3,177.7,158.4,177.6,158.6z
		 M181.1,204.4c0.2,0.1,0.4,0.2,0.5,0.3C181.4,204.6,181.3,204.5,181.1,204.4z M182.9,158.4c0-0.1-0.1-0.2-0.1-0.3
		C182.9,158.2,182.9,158.3,182.9,158.4c0,0.2,0.1,0.4,0.1,0.6C183,158.8,183,158.6,182.9,158.4z M326.1,209c-0.1,0.5-0.1,1-0.3,1.6
		C325.9,210.1,326,209.5,326.1,209L326.1,209z"/>
	<path class="st2" d="M143.9,352.7c-0.5,2.2-1,4.3-1.6,6.5c-1.2,5.3-2.5,10.7-3.8,16c-1.8,7.4-3.5,14.9-5.2,22.3
		c-2.1,8.8-4.1,17.5-6.2,26.3c-0.2,0.9-0.4,1.7-0.6,2.6c9.4,1.9,18.8,4,28.2,6.2c2.2,0.5,4.4,1.1,6.7,1.6l3.8-77.3
		c-5.4-1.1-10.8-2.1-16.2-3.2C147.3,353.4,145.6,353.1,143.9,352.7L143.9,352.7z"/>
	<path d="M161.5,434.3c-2.2-0.5-4.4-1.1-6.7-1.6c-9.4-2.2-18.8-4.3-28.2-6.2c-0.2,1-0.5,1.9-0.7,2.9c7.7,1.6,15.4,3.2,23.1,5
		c4.1,1,8.2,1.9,12.4,3L161.5,434.3L161.5,434.3z"/>
	<path class="st3" d="M196.4,198.8c-1.8,1-2.5,0.8-2.6,0.7c-0.1,0.1-1,0.1-0.8,0.7c-1.2-0.7-1.4-1.3-2.3,0.9
		c-0.2,0.1-0.5,0.2-0.7,0.2c-0.1,0.1-0.3,0.1-0.4,0.2c-0.2,0.3-0.9,0.1-1.2,0.1c-0.3,0.1-0.6,0.7-0.9,0.5c-1.4,0.4-2.4,1-3.8,1.2
		c0.6,2.5,1.3,5.1,1.9,7.6c0.5,1.9,0.9,3.8,1.4,5.6c0.2,0.9,0.5,1.8,0.7,2.7c0.1,0.3,0.1,0.6,0.2,0.8c0.2-0.2,0.5-0.3,0.7-0.5
		c0.7-0.5,1.4-1,2-1.4c1.4-1,2.7-2,4-3.1c2.4-1.9,4.7-4,6.9-6.1c0-2.7,0-5.4,0.1-8.1c0-2,0-4.1,0-6.1
		C200,196.2,198.3,197.6,196.4,198.8L196.4,198.8z"/>
	<path class="st6" d="M187,220.6C186.8,220.8,186.8,220.8,187,220.6L187,220.6z"/>
	<path class="st3" d="M143.4,311.4c-0.5-1.1-0.3-1.9,0-3c3.9-14.9,7.9-29.7,11.9-44.5c2.1-7.5,4.1-15.1,6.2-22.6
		c0.8-2.8,1.6-5.5,2.4-8.3c1.2-3.9,2.6-8,5.5-10.9c-0.4-0.5-0.8-1-1-1.6c-0.7-1.7-1.1-3.4-1.6-5.2c-1.1,2-2.3,4-3.5,6
		c-0.6,1-2.3,1.2-2.8-0.1c-0.7-1.9-1.6-3.8-2.5-5.6c-4.1,1.2-8.3,0.7-12.2-0.6c-1.3,4.3-2.7,8.6-4,12.9c-3.7,11.7-7.4,23.4-11.1,35
		c-4,12.5-8,25.1-11.9,37.6c-1.6,4.9-3.1,9.8-4.7,14.7l32.7,3.4c-0.5-1.1-1-2.1-1.5-3.2C144.7,314.2,144.1,312.8,143.4,311.4
		L143.4,311.4z"/>
	<path class="st3" d="M171.3,201.6c-0.4-0.1-0.9-0.5-1.3-0.7c0,0.1-2.1-1-2.8-0.9c-1.9-0.9-3.4-2.3-4.9-3.3c0,0-1.9-1.4-2.5-1.4
		c-2.4-2.1-4.3-4.4-5.8-7c-0.8,2.7-1.6,5.3-2.4,8c1.4,0.9,2.8,1.8,4.1,2.7c3.4,2.3,6.9,5.4,6.8,9.2c-0.1,1.9-1.1,3.6-2.6,4.8
		c0.8,1.4,1.6,2.9,2.3,4.4C165.2,212.1,168.3,206.8,171.3,201.6L171.3,201.6z"/>
	<path class="st3" d="M191.7,221.1c-0.8,0.6-1.6,1.1-2.4,1.7c-0.7,0.4-1.3,1-2.2,0.9c-1.9-0.2-2-2.8-2.4-4.3l-0.3-1.3l-0.8,1.4
		c-0.6,1.1-1.2,2.2-2,3.1c-0.4,0.5-0.9,0.9-1.4,1.2c3.3,7.2,3.7,15.8,3.6,23.9c-0.3,18.9,3.7,66.7,3.4,67.9c-0.1,0.4-3.1,3-7,6.6
		l16.3,1.7l4.4,0.4l0.1-21.8c0.1-13.9,0.2-27.9,0.3-41.8c0.1-11.8,0.2-23.5,0.2-35.2c0-4.2,0.1-8.4,0.1-12.6
		c-1.8,1.6-3.6,3.2-5.4,4.7C194.7,218.8,193.2,220,191.7,221.1L191.7,221.1z"/>
	<path class="st7" d="M174.5,202.1c-1.2,2-4.4,7.6-5.6,9.7l0,0c0.7,2.3,1.4,4.6,2.1,6.8c0.2,0.8,0.4,1.5,1.2,1.9
		c0.1,0,0.1,0,0.2,0.1c0.4-0.3,0.8-0.6,1.2-0.9l3.8-0.6c0.5,0.7,0.9,1.4,1.4,2.1c0.5-0.2,0.8-0.8,1.1-1.3c1.2-1.9,2.4-3.9,3.6-5.8
		l-0.3-1c-0.8-3-1.5-6.1-2.3-9.1c-0.8-2.7-2.9-2.1-2.9-0.8c-0.9-0.1-1.8-0.3-2.7-0.5C175,202.1,174.6,202.2,174.5,202.1L174.5,202.1
		z"/>
	<path class="st8" d="M199.9,465.5c0-0.2,0-0.4,0-0.5c-0.1-4.3,0.1-8.5,0.1-12.8c0.1-8.9,0.1-17.8,0.2-26.8
		c0.1-12.2,0.2-24.3,0.2-36.5c0.1-14.1,0.2-28.2,0.3-42.2c0.1-7.4,0.1-14.9,0.1-22.3l-4.4-0.5l-16.3-1.7
		c-5.4,4.9-12.7,11.7-17.4,17.3c-0.5,0.6-1.1,1.2-1.8,1c-0.5-0.1-0.8-0.6-1-1c-2.3-4-4.6-8-6.9-11.9c-0.7,0.4-1.8,0.3-2.3-0.6
		c-1.4-2.7-2.7-5.5-4-8.2l-32.7-3.4c-2.5,7.8-4.9,15.6-7.4,23.4c-3.8,12-7.5,24-11.2,36c-3.2,10.6-6.5,21.1-9.6,31.8
		c-2.5,8.4-4.9,16.9-7.2,25.4c-1.5,5.5-3,11.1-4,16.7c-0.2,1.2-1.5,1.6-2.4,0.9c-0.1-0.1-0.2-0.1-0.3-0.2c-2-1.4-4-2.9-5.9-4.3
		c-6.1,22.6-12.4,46-18.3,68.4c0.6,0.2,1.1,0.7,0.9,1.6c-1.9,8.3-4,16.6-6.1,24.9c-3.8,14.8-7.9,29.5-12.7,44
		c-1.6,4.8-3.2,9.5-4.5,14.4c-0.6,2.2-1.1,4.5-1.4,6.8c-0.1,0.8-0.2,1.8-0.2,2.4c0,0.2,0,0.4,0.1,0.6c0.5,0.5,0.5,1.5,0.1,2
		c-0.5,0.6-1.3,0.6-2,0.3c-1.9,7-3.4,12.8-4.6,17.2c-2.1,7.5,57.8,14.4,57.8,14.4l22.1-94.9c-0.9,0.2-2-0.5-1.7-1.6
		c0-0.1,0.1-0.2,0.1-0.3c0.5-2.5,1.2-5.1,1.8-7.6l3.8-16c1.8-7.4,3.5-14.9,5.2-22.3c2.1-8.8,4.1-17.5,6.2-26.3
		c2.2-9.4,4.4-18.9,6.7-28.3c2.2-9.3,4.4-18.6,6.6-27.9c2-8.5,4-17,6-25.5l4.9-21c1.1-4.7,2.2-9.4,3.3-14.1c0.3-1.3,0.6-2.6,0.9-3.9
		l-6.6-1.3c-1.9-0.4-1.4-3.3,0.5-3l5.4,1.1c7.8,1.5,15.6,3.1,23.5,4.6l14.7,2.9c1.9,0.4,1.4,3.3-0.5,3c-1.8-0.4-3.6-0.7-5.4-1.1
		l-7.2-1.4l-3.8,77.3l-0.1,3l-10.1,204.6l66.2,8.5c-1.5-15.8-5.4-103.5-8.8-183.9c-2.4,0.1-4.7,0.3-7.1,0.3
		C200.8,466.8,199.9,466.3,199.9,465.5L199.9,465.5z"/>
	<path d="M163.4,221.4c1.1-2,2.3-4,3.5-6c-0.2-0.8-0.5-1.7-0.7-2.5c-0.6-1.8,2.2-2.9,2.8-1.1c1.2-2,4.2-7.3,5.4-9.4
		c-0.2-0.1-0.6-0.6-2-0.5c-0.3-0.1-0.7-0.2-1-0.3c-3,5.3-6.1,10.5-9.1,15.8c-0.7-1.5-1.5-2.9-2.3-4.4c-0.2,0.2-0.5,0.4-0.7,0.5
		c0.4,0.7,0.3,1.8-0.7,2.1c-0.2,0.1-0.3,0.1-0.5,0.1c1,1.8,1.9,3.6,2.5,5.6C161.1,222.7,162.8,222.4,163.4,221.4L163.4,221.4z"/>
	<path d="M190.8,218c-0.7,0.5-1.4,1-2,1.4c-0.2,0.2-0.5,0.3-0.7,0.5c-0.1-0.3-0.1-0.6-0.2-0.8c-0.2-0.9-0.5-1.8-0.7-2.7
		c-0.5-1.9-0.9-3.8-1.4-5.6c-0.6-2.5-1.3-5.1-1.9-7.6c-0.9,0.1-1.9,0.1-2.8,0.1c0,0.2-0.4-1.1-0.4-0.9c0.8,3,1.9,7.6,2.7,10.6l0.3,1
		c0.1-0.1,0.1-0.2,0.2-0.3c0.4-0.7,1.6-0.7,2.1-0.2c0.7,0.6,0.6,1.4,0.2,2.1c-0.5,0.8-1,1.6-1.5,2.4l0.3,1.3
		c0.4,1.4,0.5,4.1,2.4,4.3c0.9,0.1,1.5-0.4,2.2-0.9c0.8-0.5,1.6-1.1,2.4-1.7c1.5-1.1,3.1-2.2,4.5-3.4c1.9-1.5,3.7-3.1,5.4-4.7l0-4.1
		c-2.2,2.1-4.5,4.2-6.9,6.1C193.5,216,192.1,217,190.8,218L190.8,218z M187,220.6L187,220.6C186.8,220.8,186.8,220.8,187,220.6z"/>
	<path class="st9" d="M365.6,215.9c-0.9-1.7-2.9-2.7-4.6-3.3c-2-0.7-4.1-0.9-6.2-1c-0.8,0-1.6-0.1-2.3-0.4c-1.5-0.6-1.2-1.5-0.6-2.8
		c2.2-4.4,5.2-8.4,8.2-12.3c1.2-1.6,3-3.4,3.5-5.5c0.4-1.4,0-3.2-1.4-3.9c-3-1.5-4.8,2.6-5.9,4.6c-1.4,2.6-2.9,5.1-4.4,7.6
		c0.8-2.3,1.6-4.6,2.3-6.9c0.7-2.1,2.4-5.7,0.4-7.6c-0.9-0.9-2.3-0.8-3.2,0c-1.2,1-1.5,2.8-1.9,4.2c-0.8,3.4-1.8,6.8-2.9,10.2
		c0.3-2.7,0.6-5.3,0.9-8c0.2-2.1,1.1-5.7-0.5-7.3c-1-1-2.5-0.8-3.3,0.4c-0.9,1.4-0.8,3.6-1,5.2c-0.3,3-0.6,5.9-0.9,8.9
		c-0.3-2.5-0.6-5-0.9-7.5c-0.1-1.4-0.2-3.5-1.8-4.1c-1.6-0.6-2.4,1.1-2.5,2.4c0,0,0,0.1,0,0.1c0,0,0,0.1,0,0.1
		c-0.1,3.9,0.7,7.9,1.3,11.7c0.4,2.3,0.8,4.5,1.2,6.8c-3.4-0.5-6.8-1.2-10.2-1.9c0,0.5,0,1,0,1.5c-0.1,0.9-0.2,2-0.5,3
		c-0.1,0.5-0.3,0.9-0.5,1.4c7.9,1.6,16,1.5,23.8,3.6c2.4,0.6,4.8,1.5,7,2.7c1.6,0.9,3.3,2.3,5.2,1.6
		C365.8,219,366.4,217.4,365.6,215.9L365.6,215.9z"/>
	<path class="st2" d="M217,184.5c1-0.9,2.1-1.8,3.2-2.7c0.5-0.4,1.1-0.9,1.6-1.3c-0.1,0,0.5-0.4,0.7-0.5c-0.1-0.1-0.1-0.2-0.2-0.4
		c-1.7-2.5-3.4-4.9-5.1-7.3c-2.4,5-5.2,9.8-8.4,14.2c1.1,0.9,2.2,1.8,3.3,2.8C213.6,187.6,215.3,186,217,184.5L217,184.5z"/>
	<path class="st2" d="M323.9,212.4L323.9,212.4C323.9,212.4,324,212.4,323.9,212.4C324,212.3,324,212.3,323.9,212.4L323.9,212.4
		C323.9,212.3,323.9,212.4,323.9,212.4L323.9,212.4z"/>
	<path class="st2" d="M323.9,212.4L323.9,212.4z"/>
	<path class="st2" d="M229.6,258.8c-0.3-2.9-0.6-5.7-0.9-8.6c-1.3-13.6-2.6-27.1-3.2-40.7c-0.2-4.5-0.4-8.9-0.3-13.4
		c0.1-2.7,0-5.5,0.8-8.1c0.5-1.8,3.5-1.4,3,0.5c-0.8,2.9-0.7,6.1-0.8,9c0,0.7,0,1.4,0,2.1c1.7,0.2,3.5,0.3,5.2,0.5l34.7-4.9
		c0,0,0,0,0,0c-0.1-1.9,2.8-2.3,3-0.3c0.2,2.4-0.7,4.9-1.5,7.2c-0.5,1.5-1.1,3.1-1.8,4.6c-0.3,0.6-1,1-1.6,0.9
		c-12.6-2.2-26.3-4-39-5.2l0.4,13.9l2.9,21.6c0.5,5.9,1.1,11.8,1.7,17.6"/>
	<path class="st2" d="M234.1,285.1c-0.3,0-24.5-1.2-24.8-1.2c-1.9-0.1-2.4,2.9-0.5,3c8.6,0.5,17.3,0.9,25.9,1.4
		c0.8,0,1.6,0.1,2.3,0.1c-0.9,16.1,0.2,32.4,1.6,48.4c1.5,17.9,3.6,35.7,6,53.5c1.4,10.6,3,21.2,4.6,31.8c0.8,5,1.6,10.1,2.2,15.1
		c0.5,3.8,1,7.7,0.8,11.6c0,1-0.2,2.5-0.4,3.2c-0.4,1.1-0.6,1.2-1.6,2c-2.7,1.9-5.9,3.1-9,4.1c-7.6,2.4-15.5,3.6-23.4,4.5
		c-5,0.6-10.1,1-15.1,1.2c0-2.5,0-5,0.1-7.4c0.1-7.9,0.1-15.7,0.2-23.5c0.1-11.5,0.2-23,0.2-34.5c0.1-13.7,0.2-27.4,0.3-41
		c0.1-14.6,0.2-29.3,0.3-43.9c0.1-13.6,0.2-27.3,0.3-40.9c0.2-0.2,0.3-0.5,0.4-0.8c5.2-17.7,8.9-35.8,14.9-53.3
		c1.6-4.9,3.5-9.7,5.5-14.4c0.2-0.5,0.2-1.1-0.2-1.5c-3-3.6-6.2-7.1-9.6-10.3c-0.3-0.3-0.7-0.6-1-0.9c1.7-1.8,3.5-3.5,5.3-5.1
		c1.1-1,2.2-1.9,3.4-2.8c0.9-0.7,2.3-1.5,2.5-2.7c0.3-1.3-0.6-2.4-1.3-3.3c-0.9-1.3-1.8-2.5-2.7-3.8c-0.9-1.3-1.8-2.5-2.7-3.8
		c-0.1-0.2-0.2-0.3-0.3-0.5l0,0l19.5,6.5c16.1,5.4,32.1,10.8,48.2,16.1c12.2,4.1,24.5,8.2,36.7,12.3c1,0.4,2.1,0.8,3.2,1.1
		c0,0,0,0.1,0,0c0,0.4,0.1,0.8,0.1,1.2c-0.1,1.6-0.4,3.6-1.3,5c-0.2,0.3-0.4,0.5-0.7,0.8c-0.4,0.4,0.1-0.1-0.2,0.1c0,0,0,0,0,0
		c-0.5-0.1-1-0.1-1.5-0.2c-2.6-0.4-5.3-0.7-8-1.1c-14.4-2-28.7-4-43.1-6.1c-0.3-0.1-0.7-0.1-1-0.1c-1.6-0.2-44.4-4-43.4-3.2
		L234.1,285.1"/>
	<path class="st2" d="M323.9,212.4L323.9,212.4C323.9,212.4,323.8,212.4,323.9,212.4z"/>
	<path class="st2" d="M323.9,212.4L323.9,212.4C323.9,212.4,323.9,212.4,323.9,212.4z"/>
	<path class="st2" d="M221.9,203.5c-2.8-3.3-5.7-6.4-8.8-9.3c-0.7-0.6-1.3-1.2-2-1.8c0,0,0,0,0,0c-1.4-1.2-2.8-2.4-4.1-3.5
		c-0.7,0.9-1.4,1.7-2.2,2.6c0,4.7-0.1,9.4-0.1,14l-0.2,27.9c-0.1,9.4-0.1,18.9-0.2,28.3c0.5-1.9,1-3.8,1.5-5.7
		C210.4,238.3,214.7,220.4,221.9,203.5L221.9,203.5z"/>
	<path class="st2" d="M323.9,212.4C323.4,212.3,323.7,212.4,323.9,212.4L323.9,212.4z"/>
	<polygon class="st2" points="326,205 326,205 326,205 	"/>
	<path d="M328.7,210.2c0.3-1,0.4-2,0.5-3c0-0.6,0-1.1,0-1.5c0-0.3,0-0.5-0.1-0.7c-0.2-1.4-0.9-2.1-2.1-2.5
		c-10.4-3.5-20.9-7-31.3-10.5l-50-16.8c-7-2.4-14-4.7-21-7.1c-1.7,0.7-3.7,0.8-5.6,0.1c-0.2,0.4-0.3,0.7-0.5,1.1l19.5,6.5
		c16.1,5.4,32.1,10.8,48.1,16.1c12.2,4.1,24.5,8.2,36.7,12.3c1,0.4,2.1,0.8,3.2,1.1c0,0,0,0.1,0,0c0,0.4,0.1,0.8,0.1,1.2
		c-0.1,1.6-0.4,3.6-1.3,5c-0.2,0.3-0.4,0.5-0.7,0.8c-0.4,0.4,0.1-0.1-0.2,0.1c0,0,0,0,0,0c0,0,0,0,0,0l0,0c0,0,0,0,0,0c0,0,0,0,0,0
		c-0.2,0-0.5-0.1,0,0h0c-0.5-0.1-1-0.1-1.5-0.2c-2.6-0.4-5.3-0.7-8-1.1c-14.4-2-28.7-4-43.1-6.1c-0.3-0.1-0.7-0.1-1-0.1
		c-1.6-0.2-2.2,1.9-1.2,2.7c0.2,0.1,0.4,0.2,0.7,0.3c13.3,1.9,26.6,3.7,39.9,5.6c3.3,0.5,6.6,0.9,10,1.4c1.3,0.2,2.6,0.5,3.9,0.5
		c2.2,0.1,3.7-1.6,4.6-3.8C328.4,211.2,328.5,210.7,328.7,210.2L328.7,210.2z M326,205L326,205z"/>
	<path d="M208.9,286.9c8.6,0.5,17.3,0.9,25.9,1.4c0.8,0,1.6,0.1,2.3,0.1c-0.9,16.1,0.2,32.4,1.6,48.4c1.5,17.9,3.6,35.7,6,53.5
		c1.4,10.6,3,21.2,4.6,31.8c0.8,5,1.6,10.1,2.2,15.1c0.5,3.8,1,7.7,0.8,11.6c0,1-0.2,2.5-0.4,3.2c-0.4,1.1-0.6,1.2-1.6,2
		c-2.7,1.9-5.9,3.1-9,4.1c-7.6,2.4-15.5,3.6-23.4,4.5c-5,0.6-10.1,1-15.1,1.2c0-2.5,0-5,0.1-7.4c0.1-7.9,0.1-15.7,0.2-23.5
		c0.1-11.5,0.2-23,0.2-34.5c0.1-13.7,0.2-27.4,0.3-41c0.1-14.6,0.2-29.3,0.3-43.9c0.1-13.6,0.2-27.3,0.3-40.9
		c-0.3,0.4-0.8,0.6-1.3,0.5c-0.7-0.1-1.5-0.9-1.2-1.7c0.9-3.1,1.8-6.3,2.6-9.4c0.1-9.4,0.1-18.9,0.2-28.3l0.2-27.9
		c0-4.7,0.1-9.4,0.1-14c-1,1.1-2,2.1-3.1,3.1c0,2,0,4.1,0,6.1c0,2.7,0,5.4-0.1,8.1l0,4.1c0,4.2-0.1,8.4-0.1,12.6
		c-0.1,11.8-0.2,23.5-0.2,35.2c-0.1,13.9-0.2,27.9-0.3,41.8l-0.1,21.8v0c-0.1,7.4-0.1,14.9-0.1,22.3c-0.1,14.1-0.2,28.2-0.3,42.2
		c-0.1,12.2-0.2,24.3-0.2,36.5c-0.1,8.9-0.1,17.8-0.2,26.8c0,4.3-0.2,8.5-0.1,12.8c0,0.2,0,0.4,0,0.5c0,0.9,0.9,1.3,1.7,1.3
		c2.4-0.1,4.7-0.2,7.1-0.3c9.5-0.6,19.1-1.8,28.2-4.1c3.7-0.9,7.3-2,10.8-3.5c2.4-1.1,5.6-2.5,6.8-4.9c1.1-2.4,1.1-5.3,1-7.8
		c-0.1-4.6-0.8-9.2-1.4-13.7c-1.6-11.6-3.6-23.2-5.2-34.9c-2.4-17.4-4.6-34.9-6.2-52.4c-1.7-17.5-3.1-35.1-2.6-52.6
		c0.1-1.8,0.1-3.5,0.2-5.3c0.1-0.7-0.4-1.7-1.2-1.7c-8.6-0.5-17.3-0.9-25.9-1.4l-2.8-0.1l-0.9,0C207.5,283.9,207,286.8,208.9,286.9
		L208.9,286.9z"/>
	<path d="M323.9,212.4L323.9,212.4C323.9,212.4,323.9,212.4,323.9,212.4L323.9,212.4C323.9,212.4,323.9,212.4,323.9,212.4z"/>
	<path d="M323.9,212.4L323.9,212.4z"/>
	<path d="M230,230.4c-0.8-9.3-1.5-18.6-1.7-27.9c-0.5-0.1-1-0.1-1.5-0.1c-1.9-0.2-1.4-3.1,0.5-3c0.3,0,0.7,0.1,1,0.1
		c0-0.7,0-1.4,0-2.1c0-2.9-0.1-6.1,0.8-9c0.5-1.9-2.4-2.3-3-0.5c-0.7,2.6-0.7,5.4-0.8,8.1c-0.1,4.5,0.1,8.9,0.3,13.4
		c0.7,13.6,1.9,27.2,3.2,40.7c0.3,2.9,0.6,5.7,0.9,8.6c0.7,6.8,1.4,13.7,2.1,20.5c0.2,1.9,3.2,1.6,3-0.3c-0.9-7.9-1.7-15.7-2.5-23.6
		c-0.6-5.9-1.1-11.8-1.7-17.6C230.4,235.3,230.2,232.9,230,230.4L230,230.4z"/>
	<path d="M222.2,179.6c0.1,0.1,0.2,0.2,0.2,0.4c-0.2,0.1-0.8,0.5-0.7,0.5c-0.6,0.4-1.1,0.9-1.6,1.3c-1.1,0.9-2.1,1.8-3.2,2.7
		c-1.7,1.5-3.3,3.1-4.9,4.8c0.8,0.6,1.5,1.3,2.2,2c1.7-1.8,3.5-3.5,5.3-5.1c1.1-1,2.2-1.9,3.4-2.8c0.9-0.7,2.3-1.5,2.5-2.7
		c0.3-1.3-0.6-2.4-1.3-3.3c-0.9-1.3-1.8-2.5-2.7-3.8c-0.9-1.3-1.8-2.5-2.7-3.8c-0.1-0.2-0.2-0.3-0.3-0.5c-0.5,1-1,2.1-1.5,3.1
		C218.8,174.7,220.6,177.1,222.2,179.6L222.2,179.6z"/>
	<path d="M211.1,192.4C211.1,192.4,211.1,192.4,211.1,192.4L211.1,192.4z"/>
	<path d="M208.7,186.5c-0.6,0.8-1.2,1.6-1.8,2.4c1.4,1.1,2.8,2.3,4.1,3.5l0,0c0.7,0.6,1.3,1.2,2,1.8c3.2,2.9,6.1,6.1,8.8,9.3
		c-7.2,16.8-11.5,34.8-16.1,52.4c-0.5,1.9-1,3.8-1.5,5.7c-0.9,3.1-1.7,6.3-2.6,9.4c-0.2,0.8,0.5,1.6,1.2,1.7c0.6,0.1,1-0.1,1.3-0.5
		c0.2-0.2,0.3-0.5,0.4-0.8c5.2-17.7,8.9-35.8,14.9-53.3c1.6-4.9,3.5-9.7,5.5-14.4c0.2-0.5,0.2-1.1-0.2-1.5c-3-3.6-6.2-7.1-9.6-10.3
		c-0.3-0.3-0.7-0.6-1-0.9c-0.7-0.7-1.5-1.3-2.2-2C210.9,188.3,209.8,187.4,208.7,186.5L208.7,186.5z"/>
	<path class="st10" d="M144.7,135.1l1.6,0.5c0-1.2,0.2-2.5,0.6-3.7c1.9-5.1,7.6-7.7,12.7-5.7c0.4,0.2,0.8,0.4,1.2,0.6
		c1.6-3.9,3-7.3,4-10c4.8-12.8,15.8-21.3,28-23.2c-3.1-6.8-10.7-17.6-13.7-19.5c0.3,1.8,4.9,11.7,4.3,13.4
		c-3-2.3-16.5-9.8-20.2-10.7c1.7,3.5,8.2,9.3,9,13.1c-4-1.2-10.3-5.6-14.3-6.9c1.3,3.1,7.7,11.7,9,14.7c-5.9-1.9-15.8-11.7-21-14.9
		c1.2,5.8,9.4,20,12.1,25.4c-2.7-0.3-5.4-1.1-7.9-2.3c1.2,3,2.4,6.1,3.6,9.1c-2.8-0.7-12.3-5.5-15.2-6.1c1.7,2.8,10.1,9.7,11.8,12.4
		c-3.1,0.2-6.1,0.9-9,1.9c1.5,1.2,3,2.3,4.5,3.5c-2.4,0.9-4.7,1.8-7.1,2.7c0.1,0.4,0.1,0.9,0.2,1.3
		C140.8,132.1,142.8,133.6,144.7,135.1L144.7,135.1z"/>
	<path class="st10" d="M229.4,141.2c-1.2,3.3-2.7,7.7-4.6,12.6c3.1,1.3,4.9,4.4,4.7,7.6l1.2,0.4c1.7,1.5,9.6,8.1,12,8.3
		c-0.3-1.9-6.2-9.4-6.6-11.3c2.5,1.5,5.3,2.7,8.1,3.4c-1.6-3-3.2-6-4.7-9c5.1,2.6,14.9,15.5,19.2,19.2c-2.2-6.3-11.1-21.8-16.1-26.6
		c2.9,0.6,13.3,2.8,16.2,3.4c-2.8-3.1-13-7.7-15.8-10.8c4.2-0.5,8.6-0.5,12.9-0.1c-4-3.5-8.3-6.6-12.8-9.5
		c3.2-1.2,15.9-2.2,19.1-3.4c-2.9-0.9-15.4-1.6-18.4-1.9c2.4-1.9,11.4-16.4,11.4-16.4s-16.1,6.6-19.6,7.3c1.2-3.4,9.2-14,10-17.5
		c-4.2,1.6-13.4,9.4-18.1,13.7C232.3,119.3,233.4,130.6,229.4,141.2L229.4,141.2z"/>
	<path class="st2" d="M152.2,184.3c-1.3-3.4-1.9-7-2.2-10.7c-9,1.9-18.4,1.4-27.3-1.3c0.6,2.3,1.2,4.5,1.8,6.8
		c7.6,5.8,16.2,10.5,24.4,15.6c0.4-1.4,0.8-2.7,1.3-4.1C150.9,188.5,151.6,186.4,152.2,184.3L152.2,184.3z"/>
	<path class="st2" d="M132.8,206.7c-1-1.1-1.9-2.2-2.9-3.2c2.2,12.7,3.7,25.6,4.4,38.5c2.4-7.5,4.8-15.1,7.1-22.6
		c0.6-1.8,1.1-3.6,1.7-5.4c-1.2-0.6-2.4-1.2-3.5-1.9C137.2,210.6,134.9,208.8,132.8,206.7L132.8,206.7z"/>
	<path class="st2" d="M17.9,403.8C17.6,404.4,17.8,404,17.9,403.8L17.9,403.8z"/>
	<path class="st2" d="M139.6,159.7c0,0-0.3,0.2-0.5,0.3c0,0.1,0.1,0.2,0.1,0.2c0.1,0.3,0.3,0.6,0.5,0.9c0.7,1.2,1.3,2.5,2,3.7
		c1.1,2.2,2.3,4.3,3.4,6.5c1.6-0.2,3.2-0.5,4.8-0.8c0-6.4,1.1-13.2,2.8-19.9c-4,2.8-8.1,5.6-12.1,8.4L139.6,159.7L139.6,159.7z"/>
	<path class="st2" d="M112.5,264.7c0.1-0.1,0.2-0.1,0.3-0.1C112.7,264.6,112.6,264.6,112.5,264.7z"/>
	<path class="st2" d="M121.2,168.6c6.7,2.4,13.7,3.4,20.8,3c-1.2-2.3-2.4-4.5-3.6-6.8c-1.1-2.1-3.7-5.1-1.2-7s5.2-3.6,7.8-5.4l5-3.5
		c-1.4-0.2-2.8-0.4-4.3-0.4c-2.5-0.1-5,0.1-7.5,0.4c-0.6,2.3-1.6,4.5-3.3,6.2c-2.2,2.2-5.3,3.5-8.4,2.6c-2.8-0.8-4.9-2.9-6.2-5.4
		c-0.5,0.1-1.1,0.3-1.6,0.4c-0.5,1.3-0.9,2.7-1.4,4c0.1,3.6,0.2,7.1,0.1,10.2c0,3.9,1.5,6.8,3.1,8.6c-0.5-1.7-0.9-3.4-1.4-5.1
		C118.8,169.2,119.9,168.1,121.2,168.6L121.2,168.6z"/>
	<path class="st2" d="M112.5,264.6c0.1,0,0.2,0,0.3,0c1.5-0.6,3,1.6,1.5,2.6c-1.7,1.1-4.6,0.4-6.5,0.1c-11.1-1.6-22.2-4.4-33.1-7.1
		c-0.9,2.4-1.9,4.7-2.8,7.1c-8.7,22.2-16.9,44.6-25.4,66.8c-8.3,21.7-16.8,43.3-26.3,64.6c-0.6,1.3-1.2,2.7-1.8,4
		c-0.1,0.2-0.2,0.5-0.3,0.7c0,0,0,0.1,0.1,0.1c0.6,0.8,1.5,1.5,2.5,2.5c3.3,3,6.8,5.8,10.2,8.5c9.2,7.3,18.6,14.4,28,21.4
		c4.5,3.3,8.9,6.6,13.4,9.9c0.1-0.3,0.1-0.5,0.2-0.8c1.4-6.4,3.1-12.7,4.8-19c2.5-9.1,5.2-18.2,7.9-27.3c3.3-11,6.7-22,10.1-33
		c3.8-12.2,7.6-24.5,11.5-36.7c4-12.7,8-25.4,12.1-38.1c4-12.5,7.9-24.9,11.9-37.4c0.3-1,0.7-2.1,1-3.1c-0.2-5.9-0.5-11.9-1-17.8
		c-0.9-10.8-2.4-21.6-4.4-32.3c-0.5-0.3-1-0.6-1.5-0.8c-0.2-0.1-0.3-0.1-0.6-0.1c0,0-0.1,0-0.2,0l0,0c0,0-0.1,0-0.1,0l0.1,0
		c-0.6-0.1-1.1-0.2-1.6-0.4c-1.8-0.6-3.6-0.7-5.4-0.8c-4.6-0.2-9.1-0.2-13.7-0.4C96.6,217,88,240.4,80.6,259.4l28.2,5
		c0.9,0.1,1.9,0.2,2.9,0.3C112.2,264.7,111.9,264.6,112.5,264.6L112.5,264.6z"/>
	<path d="M152.2,184.3c-0.6,2.1-1.3,4.2-1.9,6.3c-0.4,1.4-0.8,2.7-1.3,4.1c0.9,0.5,1.8,1.1,2.6,1.6c0.8-2.7,1.6-5.3,2.4-8
		C153.4,187,152.8,185.7,152.2,184.3L152.2,184.3z"/>
	<path d="M72.3,449.6c0.9,0.7,2.2,0.2,2.4-0.9c1-5.6,2.5-11.2,4-16.7c2.3-8.5,4.7-17,7.2-25.4c3.1-10.6,6.3-21.2,9.6-31.8
		c3.7-12,7.4-24,11.2-36c2.4-7.8,4.9-15.6,7.4-23.4c1.6-4.9,3.1-9.8,4.7-14.7c4-12.5,8-25.1,11.9-37.6c3.7-11.7,7.4-23.4,11.1-35
		c1.4-4.3,2.7-8.6,4-12.9c-0.9-0.3-1.9-0.7-2.8-1.1c-0.6,1.8-1.1,3.6-1.7,5.4c-2.4,7.5-4.8,15.1-7.1,22.6c0.1,2.7,0.2,5.5,0.3,8.2
		c0.1,1.9-2.9,2.3-3,0.3c0,0,0-0.1,0-0.1c-0.3,1-0.7,2.1-1,3.1c-3.9,12.5-7.9,24.9-11.9,37.4c-4,12.7-8.1,25.4-12.1,38.1
		c-3.8,12.2-7.7,24.4-11.5,36.7c-3.4,11-6.8,22-10.1,33c-2.7,9.1-5.4,18.1-7.9,27.3c-1.7,6.3-3.5,12.6-4.8,19
		c-0.1,0.3-0.1,0.5-0.2,0.8c-4.5-3.3-9-6.6-13.4-9.9c-9.4-7-18.8-14.1-28-21.4c-3.5-2.8-6.9-5.5-10.2-8.5c-1-0.9-1.9-1.7-2.5-2.5
		c0,0,0-0.1-0.1-0.1c0.1-0.2,0.2-0.5,0.3-0.7c0.6-1.3,1.2-2.7,1.8-4c9.4-21.2,18-42.9,26.3-64.6c8.5-22.3,16.8-44.6,25.4-66.8
		c0.9-2.4,1.8-4.7,2.8-7.1c10.9,2.7,21.9,5.5,33.1,7.1c1.9,0.3,4.8,1,6.5-0.1c1.5-1,0-3.2-1.5-2.6c-0.1,0-0.2,0-0.3,0
		c-0.6,0-0.3,0-0.8,0c-1-0.1-1.9-0.2-2.9-0.3c-0.2,0-0.3,0-0.5-0.1c-3.2-0.5-6.4-1.1-9.6-1.8c-6.7-1.4-13.4-2.9-20.1-4.5
		c-1.5-0.4-3-0.7-4.5-1.1c-0.6-0.1-1.4,0.3-1.6,0.9c-8.9,22.5-17.3,45.2-25.9,67.8c-8.4,22.1-17,44.2-26.5,65.9
		c-1.2,2.7-2.4,5.4-3.5,8c-0.5,1.2-1.8,2.8-1.6,4.2c0.1,1,1.1,1.9,1.8,2.6c2.6,2.7,5.5,5,8.4,7.4c9.1,7.4,18.5,14.5,27.9,21.6
		c4.3,3.2,8.7,6.5,13,9.8c2,1.5,3.9,2.9,5.9,4.3C72.1,449.4,72.2,449.5,72.3,449.6L72.3,449.6z M17.9,403.8
		C17.8,404.1,17.7,404.4,17.9,403.8L17.9,403.8z M112.8,264.6c-0.1,0-0.2,0.1-0.3,0.1C112.6,264.6,112.7,264.6,112.8,264.6z"/>
	<path d="M120.3,152.3c-0.2-0.4-0.4-0.7-0.5-1.1c-0.2-0.6-0.4-1.1-0.6-1.7l0,0c-0.6,0.1-1.4,0.2-2,0.5c0,2.2,0.1,4.5,0.1,6.7
		c0.5-1.3,0.9-2.7,1.4-4C119.2,152.6,119.8,152.5,120.3,152.3L120.3,152.3z"/>
	<path d="M100.1,197.6c-6.5,19-13.3,37.8-20.6,56.4c-0.7,1.8,2,3,2.7,1.2c0,0,0-0.1,0.1-0.1c7.4-19,14.3-38.1,20.9-57.4
		C102.2,197.7,101.2,197.6,100.1,197.6L100.1,197.6z"/>
	<path d="M149.9,148.9l2.6-1.8c0.4-0.3,0.8-0.3,1.2-0.2c0-0.1,0.1-0.2,0.1-0.3c-0.6-0.1-1.1-0.2-1.6-0.3c-4.4-0.9-8.9-0.9-13.4-0.5
		c-0.1,1-0.3,2.1-0.6,3.1c2.5-0.3,5-0.4,7.5-0.4C147.1,148.5,148.5,148.7,149.9,148.9L149.9,148.9z"/>
	<path d="M150,173.5c-0.1-1-0.1-2-0.1-3c-1.6,0.3-3.2,0.6-4.8,0.8c0.2,0.3,0.4,0.7,0.5,1c0.9,1.7-1.9,2.8-2.8,1.1
		c-0.3-0.6-0.6-1.2-0.9-1.8c-7,0.4-14.1-0.6-20.8-3c-1.3-0.5-2.4,0.6-2,1.9c0.5,1.7,0.9,3.4,1.4,5.1c0.6,0.7,1.2,1.3,1.7,1.7
		c0.8,0.6,1.5,1.2,2.3,1.8c-0.6-2.3-1.2-4.6-1.8-6.8C131.6,174.9,141,175.4,150,173.5L150,173.5z"/>
	<path d="M126.7,200.6c-0.1-0.1-0.3-0.2-0.4-0.3c2,10.7,3.5,21.5,4.4,32.3c0.5,5.9,0.8,11.9,1,17.8c0,0,0,0.1,0,0.1
		c0.1,1.9,3,1.6,3-0.3c-0.1-2.7-0.2-5.5-0.3-8.2c-0.7-12.9-2.1-25.8-4.4-38.5C128.9,202.4,127.9,201.4,126.7,200.6L126.7,200.6z"/>
	<path d="M152.6,147.1l-2.6,1.8l-5,3.5c-2.6,1.8-5.3,3.4-7.8,5.4c-2.4,1.9,0.1,5,1.2,7c1.2,2.3,2.4,4.5,3.6,6.8
		c0.3,0.6,0.6,1.2,0.9,1.8c0.9,1.7,3.7,0.6,2.8-1.1c-0.2-0.3-0.4-0.7-0.5-1c-1.1-2.2-2.3-4.3-3.4-6.5c-0.7-1.2-1.3-2.5-2-3.7
		c-0.2-0.3-0.3-0.6-0.5-0.9c0-0.1-0.1-0.2-0.1-0.2c0.2-0.1,0.4-0.2,0.5-0.3l1-0.7c4-2.8,8.1-5.6,12.1-8.4c0.3-1.3,0.7-2.5,1-3.8
		C153.4,146.8,153,146.9,152.6,147.1L152.6,147.1z"/>
	<polygon class="st11" points="192.6,151.1 192.6,151.1 192.6,151.1 	"/>
	<path class="st11" d="M192.6,151.1C192.6,151.1,192.6,151.2,192.6,151.1L192.6,151.1L192.6,151.1z"/>
	<path class="st11" d="M192.3,150.5L192.3,150.5C192.3,150.5,192.3,150.6,192.3,150.5C192.3,150.6,192.3,150.5,192.3,150.5
		L192.3,150.5z"/>
	<path class="st11" d="M167.6,146.4C167.6,146.4,167.6,146.4,167.6,146.4L167.6,146.4z"/>
	<path class="st11" d="M191.8,150.7C191.8,150.7,191.8,150.7,191.8,150.7C191.8,150.7,191.8,150.7,191.8,150.7z"/>
	<path class="st11" d="M195.8,151.3C195.8,151.3,195.8,151.3,195.8,151.3L195.8,151.3z"/>
	<path class="st2" d="M69.4,211.9l-13.9,17.2c0,0-12.6,11.3-20.2,7.6c-7.6-3.7-7.7-14.1-7.7-14.1s6-23.3,9-27.9s16-22.4,16-22.4
		l6.8,8.7l14.4,18.9L69.4,211.9L69.4,211.9z"/>
	<path d="M174.6,67.3c-1.5-1.3-3.3,0.6-2.1,2.1c3.1,3.9,5.6,8.2,7.4,12.8c-5.4-3.3-11.2-6.2-17.7-6.5c-1.5-0.1-2,2-0.8,2.8
		c2.9,1.8,5.4,4.1,7.4,6.9c-3.6-1.3-7.2-2.6-10.8-3.9c-1.5-0.5-2.4,1.5-1.5,2.5c3.1,3.3,5.6,7.2,7.4,11.3
		c-5.5-5.9-12.2-10.7-19.6-14c-1.4-0.6-2.8,0.6-2.1,2.1c3.7,7.3,7.7,14.5,11.8,21.5c-1.5-0.5-3-1-4.5-1.3c-1.1-0.2-2.2,0.7-1.9,1.8
		c0.8,2.5,1.6,5,2.4,7.5c-4.2-2.4-8.9-4-13.8-4.7c-1.3-0.2-2.7,1.4-1.5,2.5c3.8,3.3,7.6,6.5,11.4,9.8c-1.8,0.7-3.6,1.6-5.4,2.6
		c-0.9,0.5-1,2.1,0,2.6c0.6,0.3,1.2,0.6,1.9,0.9c-2.7,1.1-5.4,2.4-7.9,3.9c-1.1,0.6-0.9,2.4,0.4,2.7c3.7,0.8,7.3,2.1,10.7,3.7
		c1.7,0.9,3.2-1.7,1.5-2.6c-2.5-1.2-5.1-2.3-7.8-3.1c2.4-1.2,4.8-2.2,7.4-3c1.1-0.4,1.6-2.1,0.4-2.7c-0.8-0.4-1.6-0.8-2.4-1.2
		c1.5-0.7,3-1.3,4.6-1.9c1-0.3,1.6-1.7,0.7-2.5c-2.9-2.5-5.9-5.1-8.8-7.6c3.8,1.2,7.4,2.9,10.7,5.3c1.1,0.8,2.6-0.5,2.2-1.7
		c-1-3-1.9-5.9-2.9-8.9c1.9,0.6,3.8,1.3,5.5,2.2c1.3,0.7,2.9-0.7,2.1-2.1c-4.2-7-8.2-14.2-12-21.4c6.8,3.7,12.8,8.7,17.6,14.7
		c1.2,1.4,3.1-0.5,2.2-1.9c0.7-0.2,1.2-0.9,0.9-1.7c-1.3-3.9-3.2-7.5-5.6-10.9c3.2,1.2,6.5,2.3,9.8,3.5c1.3,0.5,2.2-1.1,1.7-2.2
		c-1.5-2.9-3.5-5.6-5.9-7.8c5.1,1.5,9.8,4.5,14.2,7.4c1.1,0.7,2.6-0.5,2.2-1.7c-0.9-2.9-2.1-5.8-3.5-8.5c4.5,4.4,8.5,9.2,11.2,14.9
		c0.8,1.8,3.4,0.2,2.6-1.5C190.2,81,182.3,74,174.6,67.3L174.6,67.3z"/>
	<path d="M264.8,123.8c-6.1-1.5-12.4-2.1-18.7-1.9c3.3-4.5,7-8.7,11-12.5c0.9-0.9,0.2-2.7-1.1-2.6c-5.6,0.4-11,1.8-16,4.2
		c3.3-6.2,7.4-11.8,12.2-16.9c1.2-1.3-0.3-3.1-1.8-2.4c-10.2,4.9-19.5,11.7-27.3,19.9c-1.3,1.4,0.8,3.5,2.1,2.1
		c5.8-6.1,12.3-11.3,19.5-15.6c-3.8,4.9-7,10.1-9.6,15.8c-0.6,1.3,0.7,2.9,2.1,2.1c4.4-2.8,9.4-4.8,14.5-5.7
		c-3.7,3.8-7.1,8-10.1,12.5c-0.6,0.9,0.2,2.3,1.3,2.3c3.4-0.3,6.7-0.3,10.1-0.1c-3,0.6-6,1.4-9,2.4c-0.8,0.3-1.1,1.1-1,1.8
		c0,0.1,0,0.1,0,0.1v0c0.1,0.2,0.1,0.3,0.2,0.5v0c0.1,0.1,0.1,0.1,0.2,0.2c0.1,0.1,0.1,0.1,0.2,0.2c0,0,0,0,0,0
		c3.2,2.2,6.3,4.6,9.2,7.1c-3-0.6-6.1-0.9-9.1-0.8c-1.4,0-2.1,2.1-0.8,2.8c3.6,2,7,4.3,10.1,6.9c-3.3-1.1-6.6-2-9.9-2.7
		c-1.5-0.3-2.5,1.4-1.5,2.5c5.2,5.8,9.1,12.6,11.5,20c-3.6-5.5-7.9-10.6-13.4-14.3c-1.5-1-2.9,1.1-1.8,2.4c1.6,1.8,2.8,3.7,3.8,5.9
		c-1.6-0.9-3.4-1.7-5.2-2.3c-1.5-0.4-2.4,1.4-1.5,2.5c2,2.4,3.7,5,4.9,7.8c-4.3-3-8.6-6-12.8-9.1c-1.6-1.2-3,1.4-1.5,2.6
		c5.4,4.1,11,8,16.6,11.8c1.1,0.7,2.6-0.5,2.2-1.7c-0.9-3.1-2.3-6.1-4-8.8c1,0.6,2,1.3,2.9,2.1c1.1,1,2.8,0,2.5-1.5
		c-0.2-1-0.5-2-0.8-3c4.2,4.7,7.6,10.3,10.4,15.9c0.6,1.3,3,0.7,2.8-0.8c-1.4-10.2-5.4-19.9-11.6-28c4.2,1.1,8.3,2.5,12.3,4.2
		c1.5,0.6,2.4-1.5,1.5-2.5c-3.3-3.5-7-6.6-11-9.2c2.8,0.4,5.5,1,8.2,1.9c1.5,0.5,2.5-1.5,1.5-2.5c-3.6-3.6-7.4-6.9-11.6-9.9
		c5.4-1.6,11-2.5,16.6-2.6C266.1,126.7,266.5,124.2,264.8,123.8L264.8,123.8z"/>
	<path class="st10" d="M206.4,95.2c3.4-8.3,5-17.3,4.8-26.3c-0.1-1.9-3.1-1.9-3,0c0.2,8.8-1.4,17.4-4.7,25.5
		C202.8,96.2,205.7,97,206.4,95.2L206.4,95.2z"/>
	<path class="st10" d="M202,94c1.1-9.4,2-19.3-2.4-28.1c-0.9-1.7-3.5-0.2-2.6,1.5c4.2,8.2,3.1,17.8,2,26.6
		C198.8,95.9,201.8,95.9,202,94L202,94L202,94z"/>
	<path class="st9" d="M224.8,153.8c1.8-4.9,3.3-9.4,4.6-12.6c4-10.6,2.9-21.8-2.1-30.8c-3.8-6.8-9.8-12.2-17.4-15.1
		c-5.6-2.1-11.4-2.6-17-1.8c-12.2,1.9-23.2,10.4-28,23.2c-1,2.7-2.4,6.1-4,10c-0.4-0.2-0.8-0.4-1.2-0.6c-5.1-1.9-10.8,0.6-12.7,5.7
		c-0.5,1.2-0.7,2.5-0.6,3.7c0.1,3.9,2.5,7.5,6.4,9c0.6,0.2,1.1,0.4,1.7,0.5c-0.1,0.5-0.3,1-0.5,1.5c0,0.1-0.1,0.2-0.1,0.3
		c-0.4,1.2-0.7,2.5-1,3.8c-1.7,6.6-2.8,13.4-2.8,19.9c0,1,0,2,0.1,3c0.2,3.8,0.9,7.4,2.2,10.7c0.5,1.4,1.1,2.8,1.9,4.1
		c1.5,2.6,3.4,4.9,5.8,7c0,0,0,0,0,0c1.1,1,2.4,1.8,2.3,1.8c1.5,1.1,5,2.9,5,2.9s3.6,1.5,4,1.6c0.3,0.1,1,0.3,1,0.3s1.5,0.5,2.9,0.8
		c0.9,0.2,1.8,0.4,2.7,0.5c0.8,0.1,2.4,0.2,3,0.2c1,0,1.9,0,2.8-0.1c1.5-0.1,2.9-0.4,4.3-0.7c-0.1,0,2.7-0.9,2.7-0.9l2.8-1.2
		c0,0,0.3-0.1,0.5-0.2c1.1-0.6,2.4-1.5,2.4-1.4c1.9-1.2,3.6-2.6,5.3-4.2c1.1-1,2.1-2,3.1-3.1c0.7-0.8,1.5-1.7,2.2-2.6
		c0.6-0.8,1.2-1.6,1.8-2.4c3.2-4.4,5.9-9.2,8.4-14.2c0.5-1,1-2.1,1.5-3.1l0,0c0.2-0.4,0.3-0.7,0.5-1.1c1.9,0.7,3.9,0.6,5.6-0.1
		c1.9-0.8,3.6-2.3,4.4-4.4c0.3-0.8,0.4-1.5,0.5-2.3C229.7,158.2,227.9,155.1,224.8,153.8L224.8,153.8z M195.4,106.5
		c0.4-0.8,1.2-1,2-0.8c4,1.2,8.2,1.7,12.4,1.5c0.8-0.1,1.6,0.5,1.7,1.3c0.1,0.8-0.5,1.6-1.3,1.7c-4.8,0.3-9.4-0.3-14-1.8
		C195.4,108.2,195.1,107.1,195.4,106.5L195.4,106.5z M192.7,110.8c0.1-0.7,0.9-1.5,1.7-1.2c6.5,1.9,13.3,3.1,20.1,3.6
		c1.9,0.1,1.4,3.1-0.5,3c-6.8-0.5-13.5-1.7-20.1-3.6C193.1,112.3,192.5,111.7,192.7,110.8z M191.6,147.9c0.6,0,1.1,0.6,1.2,1.1
		c0.1,0.6-0.1,1.1-0.4,1.4l0,0l0,0v0c0,0,0,0,0,0l0,0c0,0,0,0.1,0,0.1v0c0,0,0,0.1,0,0.1c0,0,0,0.1,0,0.1s0,0.1,0,0.1
		c0,0,0.1,0.1,0.1,0.1l0,0l0,0c0,0,0,0,0.1,0l0,0c0,0,0,0,0.1,0c0,0,0.1,0,0.1,0c0.1,0,0.1,0,0.2,0c0,0,0,0,0,0s0,0,0,0
		c0.1,0,0.5-0.3,0.2-0.1c0.1-0.1,0.2-0.1,0.3-0.2c0,0,0,0,0,0c0,0,0,0,0-0.1c0-0.1,0.1-0.1,0.1-0.2l0,0l0,0v0h0
		c0.1-0.1,0.1-0.2,0.2-0.3c0.4-0.6,1.4-0.7,1.9-0.3c0.1,0,0.1,0.1,0.1,0.1c0.2-0.5,0.7-0.9,1.2-1c0.8-0.1,1.6,0.5,1.7,1.3
		c0.2,1.7-0.8,3.7-2.6,3.9c-0.6,0.1-1.2-0.2-1.7-0.5c-1.2,0.6-2.6,0.7-3.8-0.1c-0.4-0.3-0.7-0.6-0.9-1c-0.4,0.1-0.8,0.1-1.3,0
		c-1.4-0.5-1.5-2-1.1-3.2c0.3-1,0.8-2,1.2-3c0.3-0.8,1.3-1,2-0.8c0.8,0.3,1,1.3,0.8,2c-0.1,0.2-0.1,0.4-0.2,0.5
		C191.3,148,191.4,147.9,191.6,147.9L191.6,147.9z"/>
	<path d="M192.2,123.4c-1.9-3.9-5.6-6.8-9.9-7.4c-3.9-0.6-8.1,0.6-10.8,3.5c-1.3,1.4,0.8,3.5,2.1,2.1c2.1-2.2,5.1-3.2,8.1-2.7
		c3.5,0.5,6.3,2.8,7.9,6C190.5,126.6,193.1,125.1,192.2,123.4C192.2,123.4,192.2,123.4,192.2,123.4z"/>
	<path d="M225.9,136.2c-0.5-3.7-2.1-7.1-5.2-9.3c-3.4-2.4-7.9-2.3-11.8-1c-0.8,0.3-1.3,1-1.1,1.8c0.2,0.7,1.1,1.3,1.9,1.1
		c3.2-1.1,6.6-1.3,9.3,0.6c2.1,1.5,3.5,4.2,3.8,6.8c0.1,0.8,0.6,1.5,1.5,1.5C225.1,137.7,226,137,225.9,136.2L225.9,136.2
		L225.9,136.2z"/>
	<path d="M180.6,129c-1.7-0.6-3.6,0.2-4.3,1.9s0.2,3.6,1.9,4.3c1.7,0.6,3.6-0.2,4.3-1.9S182.3,129.7,180.6,129z"/>
	<path d="M187.4,149.2c-0.4,1.2-0.2,2.7,1.1,3.2c0.5,0.2,0.9,0.2,1.3,0c0.2,0.4,0.5,0.8,0.9,1c1.2,0.9,2.6,0.8,3.8,0.1
		c0.5,0.4,1.1,0.6,1.7,0.5c1.9-0.2,2.8-2.2,2.6-3.9c-0.1-0.8-0.8-1.4-1.7-1.3c-0.6,0.1-1.1,0.5-1.2,1c0,0-0.1-0.1-0.1-0.1
		c-0.6-0.4-1.5-0.3-1.9,0.3c-0.1,0.1-0.1,0.2-0.2,0.3l0,0l0,0l0,0c0,0.1-0.1,0.1-0.1,0.2c0,0,0,0,0,0.1c0,0,0,0,0,0
		c-0.1,0.1-0.2,0.1-0.3,0.2c0.3-0.2-0.1,0-0.2,0.1c0,0,0,0,0,0s0,0,0,0c-0.1,0-0.1,0-0.2,0c0,0,0,0-0.1,0c0,0,0,0-0.1,0l0,0
		c0,0-0.1,0-0.1,0l0,0l0,0c0,0-0.1-0.1-0.1-0.1c0,0,0-0.1,0-0.1s0-0.1,0-0.1c0,0,0-0.1,0-0.1v0c0,0,0-0.1,0-0.1l0,0c0,0,0-0.1,0,0
		l0,0l0,0c0.4-0.4,0.6-0.9,0.4-1.5c-0.1-0.5-0.6-1.1-1.2-1.1c-0.2,0-0.3,0-0.5,0c0.1-0.2,0.1-0.4,0.2-0.5c0.3-0.7,0-1.7-0.8-2
		c-0.7-0.3-1.7,0-2,0.8C188.2,147.2,187.7,148.2,187.4,149.2L187.4,149.2z M195.8,151.3C195.8,151.3,195.8,151.3,195.8,151.3
		L195.8,151.3z M191.7,150.7L191.7,150.7C191.8,150.7,191.8,150.7,191.7,150.7z M192.6,151.1L192.6,151.1z M192.6,151.1L192.6,151.1
		L192.6,151.1C192.6,151.2,192.6,151.1,192.6,151.1z M192.3,150.5C192.3,150.5,192.3,150.6,192.3,150.5
		C192.3,150.6,192.3,150.5,192.3,150.5L192.3,150.5L192.3,150.5z"/>
	<path d="M214,116.1c1.9,0.1,2.4-2.8,0.5-3c-6.8-0.5-13.5-1.7-20.1-3.6c-0.8-0.2-1.6,0.5-1.7,1.2c-0.1,0.9,0.5,1.5,1.2,1.7
		C200.4,114.4,207.2,115.6,214,116.1z"/>
	<path d="M209.8,107.2c-4.2,0.2-8.4-0.3-12.4-1.5c-0.8-0.2-1.6-0.1-2,0.8c-0.3,0.7,0,1.7,0.8,2c4.5,1.4,9.2,2,14,1.8
		c0.8-0.1,1.4-0.9,1.3-1.7C211.3,107.7,210.6,107.2,209.8,107.2L209.8,107.2z"/>
	<path d="M193.8,171.4c-4.5-0.2-8.8-1.5-12.8-3.8c-0.7-0.4-1.7,0.1-2,0.8c-0.4,0.8,0,1.6,0.8,2c4.1,2.4,8.8,3.8,13.5,4
		c0.8,0,1.6-0.4,1.7-1.2C195.2,172.3,194.6,171.4,193.8,171.4L193.8,171.4z"/>
	<path class="st10" d="M48.2,194.6c2.3-3.8,4.7-7.5,7.2-11.1c-3.1-0.2-6.2,1.3-8.1,3.8c-2.3,3.1-2.7,7.4-1.5,11.1
		c0.1,0.4,0.3,0.8,0.4,1.2l2.3-3.2C48.1,195.9,47.9,195.2,48.2,194.6L48.2,194.6z"/>
	<path class="st10" d="M63.8,211.6c3.4-0.2,6.7-2.2,7.7-5.6c0.2-0.8,1.3-1.1,2-0.8c0.4,0.2,0.7,0.5,0.8,0.9c1.1-2.5,1.4-5.4,0.9-8.2
		l-19,11.9C58.6,211,61.2,211.8,63.8,211.6L63.8,211.6z"/>
	<path class="st9" d="M103.4,156.2c1.9,2,4.5,4.9,7.6,4.1c3-0.8,2.9-4.4,2.5-6.8c-0.6-3.2-2.1-6.3-3.5-9.2c-1.5-3.1-3.2-6-4.9-8.9
		c-3-4.8-6.7-11.5-13-12.1c-5.1-0.5-10.2,3.4-11.5,8.2c4,2.1,7,5.5,9.2,9.4c0.1,0.1,0.3,0.2,0.4,0.3
		C94.6,146,98.8,151.3,103.4,156.2L103.4,156.2z"/>
	<path class="st9" d="M71.3,142.7c2.7,4.4,4.6,9.2,7.2,13.6c2.1,3.6,4.7,8.7,9.6,8.5c3.6-0.1,4.4-4.1,4-7c-0.4-3.5-1.4-7.2-2.7-10.5
		c-2.2-6.1-6.4-12.4-13-14.4c-2.9-0.8-6.1-0.7-8.8,0.6c-2.9,1.4-4.6,4.1-5.6,7c2.7,1,5.3,2.4,7.2,4.6c-0.1-0.2-0.2-0.4-0.3-0.6
		C67.9,142.9,70.3,141.1,71.3,142.7L71.3,142.7z"/>
	<path class="st9" d="M155.8,199c-1.4-0.9-2.7-1.8-4.1-2.7c-0.9-0.6-1.7-1.1-2.6-1.6c-8.2-5.1-16.8-9.8-24.4-15.6
		c-0.8-0.6-1.6-1.2-2.3-1.8c-0.5-0.4-1.1-1-1.7-1.7c-1.6-1.8-3.1-4.7-3.1-8.6c0-3,0.1-10.9,0.1-13.1c-0.1-5.1,0-9.8,0.4-13.1
		c-0.3-3.1-0.9-10-1.2-13.1c-0.2-1.9,2.8-2.3,3-0.3c0.4,3.9,0.7,7.8,1.1,11.7c0.3,3.5,0.3,7.3,1.6,10.7c0.9,2.5,2.8,5,5.6,5.3
		c2.6,0.2,4.9-1.7,6.1-3.8c1.5-2.7,1.8-6,2-9.1c0.2-3.3,0.3-6.7,0-10c-0.6-5.7-2.5-11.8-6.8-15.8c-2.3-2.2-4.9-3.1-8-1.9
		c-3,1.2-5.1,3.8-7.2,6.1c0,0.1-0.1,0.1-0.1,0.1c-0.8,6.7-1.6,13.4-2.4,20.1c0.9,1.8,1.8,3.6,2.6,5.4c1.4,3.3,2.8,6.8,2.5,10.5
		c-0.2,3.3-2.4,6.3-5.9,6.7c-0.7,0.1-1.4,0.1-2-0.1c-0.4,3.6-0.3,7.3-0.8,10.9c-0.2,1.2-1.3,1.4-2.2,1.1l-0.3,2.8l0.3,0l-0.3,2.9
		l-19.5-2.3l0.3-2.9l0.3,0l1-8c-5.5,0-8.8-5-11.3-9.3c-1.3-2.3-2.5-4.7-3.7-7c0.8,2.3,1.2,4.7,1.6,7.1c0.6,3.6,1,7.9-0.7,11.3
		c-1.7,3.4-5.4,4.7-8.9,3.3c-3.7-1.4-6.2-5-8-8.3c-1.9-3.5-3.1-7.4-3.4-11.4c-0.2-1.9,2.8-2.3,3-0.3c0.3,3.7,1.4,7.4,3.3,10.6
		c1.6,2.8,4.3,6.7,7.8,7c3.2,0.2,4.2-3.2,4.4-5.7c0.3-3.5-0.4-7.3-1.3-10.6c-0.8-3.1-1.9-6.4-4.4-8.5c-2.5-2.1-6.4-3.6-9.7-3.8
		c-7-0.6-8.2,8-7.7,13.2c0.5,5.4,2.6,10.5,5.4,15.1c0.5,0.3,0.8,0.8,0.8,1.3c0.5,0.7,1,1.4,1.5,2.1c0.6,0.9,0.2,1.8-0.6,2.2
		c0.4,0.6,0.8,1.2,1.3,1.8c0.5,0,1,0.2,1.3,0.6c0.5,0.6,1.1,1,1.7,1.5c0.2,0.1,0.3,0.3,0.4,0.5c1.3,1,2.7,1.9,4.2,2.6
		c1.6,0.7,0.8,3-0.7,2.9c-0.2,0-0.3-0.1-0.5-0.1c-1.4-0.6-2.8-1.4-4-2.3c-0.1,0.1-0.3,0.3-0.4,0.4c-2.7,3.9-5.4,7.9-7.9,12
		c-0.4,0.7-1.2,1.1-2,0.8c-0.1-0.1-0.3-0.2-0.4-0.3l-2.3,3.2c1.3,3.2,3.6,5.8,6.3,7.9c1.1,0.9,2.3,1.6,3.6,2.3l19-11.9l5.2-3.3
		c1.4,0.2,2.8,0.4,4.4,0.5c-3.8-1.1-7.4-2.6-10.7-4.7c-1.6-1,0.3-3.3,1.9-2.3c6.6,4.2,14.6,5.7,22.3,6.4c3.7,0.3,7.4,0.4,11.2,0.4
		c3.7,0.1,7.5-0.1,11.2,0.5c0.9,0.1,1.8,0.3,2.6,0.6c0.2,0.1,0.9,0.3,0.8,0.3c0.2,0,0.5,0,0.8,0c1.3,0.2,2.4,0.8,3.5,1.5
		c0.4-0.5,0.9-1,1.3-1.5c0.2-0.3,0.4-0.6,0.7-0.9c0,0,0.2-0.3,0.2-0.4c0.1-0.1,0.2-0.3,0.2-0.4c0.8-1.4,1.4-2.8,1.8-4.3
		c0.2-0.8,1.3-1,2-0.8c0.8,0.3,1,1.2,0.8,2c-0.9,3-2.5,5.8-4.7,8.2c1.5,1.4,2.8,3,4.2,4.6c2,2.1,4.3,3.9,6.8,5.4
		c4.7,2.8,10.6,4.8,15.9,3.1c0.8-0.3,1.5,0.1,1.8,0.7c0.2-0.2,0.5-0.3,0.7-0.5c1.5-1.2,2.5-2.9,2.6-4.8
		C162.8,204.4,159.2,201.3,155.8,199L155.8,199z"/>
	<path class="st10" d="M105,173.8c0.5-3.8,0.4-7.7,0.9-11.5c-1.6-0.9-3.1-2.3-4.3-3.6c-2.9-3.1-5.6-6.3-8.4-9.6
		c1.1,3.6,2.3,7.6,2,11.3c-0.3,3.6-2.6,6.9-6.4,7.4c-0.4,0.1-0.8,0.1-1.2,0.1l-1,8l18.9,2.2l0.3-2.8
		C105.3,175.1,104.9,174.6,105,173.8L105,173.8z"/>
	<polygon class="st3" points="86.3,175.8 85.9,178.7 105.4,181 105.7,178.1 105.5,178.1 86.6,175.9 	"/>
	<path d="M114,120.7c0,0,0.1-0.1,0.1-0.1c2-2.4,4.2-5,7.2-6.1c3.1-1.2,5.7-0.2,8,1.9c4.3,4.1,6.2,10.1,6.8,15.8
		c0.3,3.3,0.2,6.7,0,10c-0.2,3.1-0.4,6.3-2,9.1c-1.2,2.1-3.5,4-6.1,3.8c-2.8-0.3-4.7-2.8-5.6-5.3c-1.2-3.4-1.2-7.2-1.6-10.7
		c-0.4-3.9-0.7-7.8-1.1-11.7c-0.2-1.9-3.2-1.6-3,0.3c0.3,3.1,0.6,6.2,0.9,9.3c0.1,1.1,0.2,2.1,0.3,3.1c0.3,3.1,0.4,6.4,1.3,9.4
		c0.2,0.6,0.3,1.1,0.6,1.7c0.2,0.4,0.3,0.8,0.5,1.1c1.3,2.5,3.4,4.6,6.2,5.4c3.1,0.9,6.2-0.4,8.4-2.6c1.7-1.7,2.7-3.9,3.3-6.2
		c0.3-1,0.4-2.1,0.6-3.1c0,0,0-0.1,0-0.1c0.5-3.8,0.6-7.8,0.4-11.6c-0.1-1.1-0.2-2.3-0.3-3.5c-0.1-0.4-0.1-0.9-0.2-1.3
		c-0.9-5.4-2.9-10.6-6.8-14.6c-2.8-2.9-6.4-4.6-10.5-3.5c-2.7,0.7-4.9,2.4-6.8,4.4C114.4,117.3,114.2,119,114,120.7L114,120.7z"/>
	<path class="st3" d="M113.1,56.9c0.1-1.5-1.2-2.9-2.7-2.9c-1.6,0-2.8,1.2-2.9,2.7c-0.1,1.2-0.2,2.5-0.4,3.8l5.5,0.7
		C112.8,59.8,113,58.4,113.1,56.9z"/>
	<path class="st10" d="M106.9,72.4c-4.1-0.3-6.4,4-7.1,7.4c-0.9,4.4-1.2,8.9-1.6,13.4c-1,9.3-1.8,18.5-2.6,27.8
		c6.1,2.4,9.8,9.1,12.9,14.4c0.2,0.3,0.3,0.6,0.5,0.9c1.2-9.4,2.3-18.9,3.3-28.3c0.1-1,0.9-1.3,1.7-1.2l2.8-23c0,0,1.4-9.8-4.6-12.8
		l1.2-9.7l-0.8-0.1l-5.5-0.7l-1-0.1l-1.1,9.2c0.8-0.2,1.5-0.2,2.3-0.2C109.3,69.6,108.8,72.5,106.9,72.4L106.9,72.4z"/>
	<path d="M53.9,170.4c-2.8-4.6-4.9-9.7-5.4-15.1c-0.5-5.2,0.7-13.7,7.7-13.2c3.3,0.3,7.1,1.7,9.7,3.8c2.5,2.1,3.7,5.4,4.4,8.5
		c0.8,3.4,1.6,7.1,1.3,10.6c-0.2,2.6-1.2,5.9-4.4,5.7c-3.6-0.3-6.2-4.2-7.8-7c-1.9-3.3-2.9-6.9-3.3-10.6c-0.2-1.9-3.2-1.6-3,0.3
		c0.3,4,1.5,7.9,3.4,11.4c1.8,3.3,4.4,6.9,8,8.3c3.5,1.4,7.2,0.1,8.9-3.3c1.7-3.4,1.3-7.7,0.7-11.3c-0.3-2.3-0.8-4.8-1.6-7.1
		c-1.1-2.2-2.2-4.3-3.4-6.4c-1.9-2.2-4.5-3.6-7.2-4.6c-0.1,0.3-0.2,0.5-0.3,0.8c-0.6,1.8-3.3,0.6-2.7-1.2c0-0.1,0.1-0.3,0.2-0.4
		c-3.3-0.8-6.8-0.8-9.5,1.6c-2.6,2.3-3.8,5.8-4.1,9.1c-0.7,7.5,1.8,14.9,5.7,21.3c0.3-0.3,0.6-0.7,0.9-1
		C52.6,170.1,53.4,170.1,53.9,170.4L53.9,170.4z"/>
	<path d="M54.4,172.6c-0.5,0.6-1,1.1-1.5,1.7c0.3,0.4,0.6,0.9,0.9,1.3c0.5,0.7,1.2,0.7,1.8,0.4c0.8-0.4,1.2-1.3,0.6-2.2
		c-0.5-0.7-1-1.4-1.5-2.1C54.8,172,54.7,172.3,54.4,172.6L54.4,172.6z"/>
	<path d="M61.7,141.3c0.1-0.3,0.2-0.5,0.3-0.8c1.1-2.9,2.8-5.6,5.6-7c2.7-1.3,5.9-1.4,8.8-0.6c6.6,1.9,10.8,8.2,13,14.4
		c1.2,3.4,2.2,7,2.7,10.5c0.3,2.9-0.5,6.9-4,7c-4.8,0.2-7.5-4.9-9.6-8.5c-2.6-4.4-4.5-9.2-7.2-13.6c-1-1.6-3.4,0.1-2.4,1.8
		c0.1,0.2,0.2,0.4,0.3,0.6c1.2,2.1,2.3,4.2,3.4,6.4c1.2,2.4,2.3,4.8,3.7,7c2.5,4.3,5.8,9.3,11.3,9.3c0.4,0,0.8,0,1.2-0.1
		c3.7-0.4,6.1-3.8,6.4-7.4c0.3-3.7-0.8-7.7-2-11.3c-1.8-2.1-3.6-4.2-5.5-6.2c-1.2-1.3,0.7-2.8,2-2.1c-2.2-3.9-5.2-7.3-9.2-9.4
		c0,0.1-0.1,0.3-0.1,0.4c-0.4,1.9-3.4,1.4-3-0.5c0.1-0.4,0.2-0.8,0.3-1.1c-3.5-1.1-7.5-1.1-10.9,0.3c-3.9,1.7-6.4,5.2-7.8,9.1
		c0,0.1-0.1,0.3-0.2,0.4C58.4,141.9,61.1,143.1,61.7,141.3L61.7,141.3z"/>
	<path d="M80.3,131.8c0-0.1,0.1-0.3,0.1-0.4c1.4-4.8,6.4-8.7,11.5-8.2c6.3,0.6,10,7.3,13,12.1c1.8,2.9,3.5,5.9,4.9,8.9
		c1.4,2.9,2.9,6.1,3.5,9.2c0.4,2.4,0.5,6.1-2.5,6.8c-3.1,0.8-5.7-2-7.6-4.1c-4.6-4.9-8.7-10.2-13.3-15.1c-0.1-0.1-0.3-0.2-0.4-0.3
		c-1.3-0.8-3.2,0.8-2,2.1c1.9,2,3.7,4.1,5.5,6.2c2.8,3.2,5.5,6.5,8.4,9.6c1.3,1.4,2.7,2.7,4.3,3.6c0-0.1,0-0.3,0.1-0.4
		c0.3-1.9,3.2-1.4,3,0.5c0,0.3-0.1,0.7-0.1,1c0.7,0.1,1.3,0.1,2,0.1c3.5-0.4,5.7-3.4,5.9-6.7c0.2-3.7-1.1-7.2-2.5-10.5
		c-0.8-1.8-1.6-3.6-2.6-5.4c0,0.1,0,0.3-0.1,0.4c-0.2,1.9-3.2,1.4-3-0.5c0.2-1.4,0.4-2.9,0.6-4.4c-0.2-0.3-0.3-0.6-0.5-0.9
		c-3.2-5.3-6.9-12.1-12.9-14.4c0,0.1,0,0.2,0,0.3c-0.2,1.9-3.1,1.4-3-0.5c0-0.2,0-0.4,0.1-0.6c-6.6-0.8-13,3.8-15,10
		c-0.1,0.4-0.2,0.8-0.3,1.1C77,133.3,80,133.7,80.3,131.8L80.3,131.8z"/>
	<path d="M134.4,189.7c-0.7-0.3-1.7-0.1-2,0.8c-0.4,1.5-1.1,2.9-1.8,4.3c-0.1,0.1-0.2,0.3-0.2,0.4c0,0-0.2,0.3-0.2,0.4
		c-0.2,0.3-0.4,0.6-0.7,0.9c-0.4,0.5-0.8,1.1-1.3,1.5c0.2,0.1,0.4,0.3,0.6,0.4c0.6,0.4,1.2,0.9,1.7,1.4c2.1-2.3,3.7-5.1,4.7-8.2
		C135.4,190.9,135.3,190,134.4,189.7L134.4,189.7z"/>
	<path d="M103.2,197.7c4.6,0.1,9.1,0.1,13.7,0.4c1.8,0.1,3.7,0.3,5.4,0.8c0.6,0.2,1.1,0.3,1.6,0.4l-0.1,0c0.1,0,0.1,0,0.1,0l0,0
		c0.1,0,0.2,0,0.2,0c0.3,0,0.4,0.1,0.6,0.1c0.5,0.2,1.1,0.5,1.5,0.8c0.2,0.1,0.3,0.2,0.4,0.3c1.2,0.8,2.2,1.9,3.2,2.9
		c1,1.1,1.9,2.2,2.9,3.2c2,2.1,4.3,3.9,6.8,5.4c1.1,0.7,2.3,1.3,3.5,1.9c0.9,0.4,1.8,0.8,2.8,1.1c3.9,1.4,8.1,1.8,12.2,0.6
		c0.2-0.1,0.3-0.1,0.5-0.1c1-0.3,1.1-1.4,0.7-2.1c-0.3-0.6-1-1-1.8-0.7c-5.4,1.8-11.3-0.3-15.9-3.1c-2.5-1.5-4.8-3.3-6.8-5.4
		c-1.4-1.5-2.7-3.1-4.2-4.6c-0.5-0.5-1.1-1-1.7-1.4c-0.2-0.1-0.4-0.3-0.6-0.4c-1.1-0.7-2.2-1.3-3.5-1.5c-0.2,0-0.5,0-0.8,0
		c0.1,0-0.5-0.2-0.8-0.3c-0.9-0.3-1.7-0.5-2.6-0.6c-3.7-0.6-7.5-0.4-11.2-0.5c-3.7-0.1-7.4-0.1-11.2-0.4c-7.7-0.6-15.7-2.2-22.3-6.4
		c-1.6-1-3.5,1.3-1.9,2.3c3.3,2.1,7,3.6,10.7,4.7c3,0.9,6.1,1.5,9.3,1.9c2,0.3,4.1,0.4,6.1,0.5C101.2,197.7,102.2,197.7,103.2,197.7
		L103.2,197.7z"/>
	<path d="M73.5,205.2c-0.7-0.3-1.8,0-2,0.8c-1,3.4-4.2,5.4-7.7,5.6c-2.6,0.2-5.2-0.6-7.6-1.8c-1.3-0.7-2.5-1.5-3.6-2.3
		c-2.7-2.1-5-4.7-6.3-7.9c-0.2-0.4-0.3-0.8-0.4-1.2c-1.1-3.6-0.8-8,1.5-11.1c1.9-2.5,5-4,8.1-3.8c0.5-0.7,1-1.4,1.5-2.1
		c-0.2-0.2-0.5-0.5-0.7-0.8c-3.4-0.4-6.8,0.7-9.4,3c-3.6,3.2-5,8.2-4.4,12.9c0.6,4.7,3.3,8.9,6.8,12c3.7,3.3,8.5,5.9,13.5,6.1
		c1,0,2.1-0.1,3.1-0.3c1.6-2.1,3.1-4.1,4.8-6.2c1.1-1.4,3.2,0.2,2.5,1.6c0.5-0.8,0.9-1.6,1.2-2.6c0.1-0.4,0.1-0.7,0-1.1
		C74.2,205.7,73.9,205.4,73.5,205.2L73.5,205.2z"/>
	<path d="M58.8,183.8c0.2-0.1,0.3-0.2,0.4-0.4c0,0-0.1-0.1-0.1-0.1C59.1,183.5,59,183.7,58.8,183.8L58.8,183.8z"/>
	<path d="M55.8,180.2c0.1,0.1,0.2,0.3,0.4,0.4c0.2,0.3,0.5,0.5,0.7,0.8c-0.5,0.7-1,1.4-1.5,2.1c-2.5,3.6-4.9,7.4-7.2,11.1
		c-0.3,0.5-0.1,1.3,0.3,1.7c0.1,0.1,0.2,0.2,0.4,0.3c0.8,0.4,1.6-0.1,2-0.8c2.5-4.1,5.2-8.1,7.9-12c0.1-0.1,0.2-0.3,0.3-0.5
		c0,0,0.1,0.1,0.1,0.1c1.2,0.9,2.6,1.7,4,2.3c0.2,0.1,0.3,0.1,0.5,0.1c1.5,0.1,2.3-2.2,0.7-2.9c-1.5-0.7-2.9-1.5-4.2-2.6
		c-0.1-0.2-0.2-0.4-0.4-0.5c-0.6-0.4-1.2-0.9-1.7-1.5c-0.3-0.4-0.8-0.6-1.3-0.6c-0.3,0-0.5,0.1-0.8,0.3
		C55.5,178.5,55.2,179.6,55.8,180.2L55.8,180.2z"/>
	<path d="M70.5,208.1c-1.6,2-3.2,4.1-4.8,6.2c-3.2,4.2-6.3,8.4-9.9,12.2c-4.8,5.1-12.4,10.7-19.9,8.3c-6.9-2.2-7-10.4-5.8-16.3
		c1.5-7.9,4.7-15.6,8.3-22.7c3.9-7.8,8.8-15,14.4-21.6c0.5-0.6,1-1.1,1.5-1.7c0.3-0.3,0.4-0.6,0.4-0.9c0-0.6-0.3-1.1-0.8-1.3
		c-0.6-0.3-1.3-0.3-1.9,0.3c-0.3,0.3-0.6,0.7-0.9,1c-5.7,6.5-10.6,13.7-14.6,21.4c-4,7.7-7.5,16-9.3,24.5c-1.4,6.5-1.3,14.8,5,18.8
		c7.3,4.6,16.5,0.5,22.4-4.6c7.2-6.3,12.2-14.4,18.2-21.8c0.1-0.1,0.1-0.2,0.2-0.3C73.7,208.3,71.6,206.7,70.5,208.1L70.5,208.1z"/>
	<path d="M95.6,121.3c0-0.1,0-0.2,0-0.3c0.8-9.3,1.6-18.6,2.6-27.8c0.5-4.4,0.7-9,1.6-13.4c0.7-3.4,3-7.7,7.1-7.4
		c1.9,0.2,2.4-2.8,0.5-3c-0.8-0.1-1.6,0-2.3,0.2c-3.1,0.6-5.6,3-7,5.9c-2,4.3-2,9.6-2.5,14.2c-1.1,10.2-2,20.3-2.8,30.5
		c0,0.2,0,0.4-0.1,0.6C92.5,122.8,95.4,123.3,95.6,121.3L95.6,121.3z"/>
	<path d="M105.9,161.9c0,0.1,0,0.3-0.1,0.4c-0.5,3.8-0.3,7.7-0.9,11.5c-0.1,0.7,0.3,1.3,0.8,1.5c0.8,0.4,2,0.1,2.2-1.1
		c0.5-3.6,0.4-7.3,0.8-10.9c0-0.3,0.1-0.7,0.1-1C109.1,160.4,106.1,160,105.9,161.9L105.9,161.9z"/>
	<path d="M112.4,108c-0.9,9.5-2.1,18.9-3.3,28.3c-0.2,1.4-0.4,2.9-0.6,4.4c-0.2,1.9,2.7,2.4,3,0.5c0-0.1,0-0.3,0.1-0.4
		c0.9-6.7,1.7-13.4,2.4-20.1c0.2-1.7,0.4-3.4,0.6-5.1c0.3-2.4,0.5-4.8,0.8-7.2c0.1-0.9-0.5-1.5-1.2-1.7
		C113.3,106.7,112.5,107,112.4,108L112.4,108z"/>
	<path class="st2" d="M265.6,204.3c0.4-1,0.8-2,1.1-3c0.7-1.9,1.6-4.1,1.4-6.1l-34.7,4.9C244.2,201.1,255,202.4,265.6,204.3z"/>
	<path d="M227.2,199.4c-1.9-0.2-2.4,2.8-0.5,3c0.5,0,1,0.1,1.5,0.1h0.1c12.7,1.2,25.4,2.7,37.9,4.9c0.6,0.1,1.3-0.3,1.6-0.9
		c0.7-1.5,1.2-3,1.8-4.6c0.8-2.3,1.7-4.8,1.5-7.2c-0.1-1.9-3.1-1.6-3,0.3c0,0,0,0,0,0c0.1,2-0.7,4.3-1.4,6.1c-0.4,1-0.7,2-1.1,3
		c-10.7-1.9-21.4-3.2-32.1-4.2c-1.7-0.2-3.5-0.3-5.2-0.5C227.9,199.5,227.6,199.5,227.2,199.4L227.2,199.4z"/>
	<path class="st7" d="M183.8,247.7c0.1-8.1-0.3-16.7-3.6-23.9c-0.5,0.3-1.1,0.4-1.8,0.4c-1.3,0-2.7-0.2-4-0.4
		c-0.7-0.1-1.4-0.1-2-0.2c-3.6,2.8-4.8,7.7-6.1,11.9c-1,3.2-1.9,6.5-2.8,9.8c-4.4,15.6-8.6,31.3-12.7,46.9
		c-0.9,3.4-1.8,6.8-2.7,10.1c-0.4,1.5-0.8,2.9-1.2,4.4c-0.2,0.7-0.4,1.4-0.5,2c-0.1,0.2-0.1,0.5-0.2,0.8c0,0.1,0,0.2-0.1,0.3
		c0,0.1,0,0.1,0,0.2c0.7,1.2,2.6,5.6,2.7,6c1.6,3.3,3.1,6.7,4.8,10c0.4,0.8,0.1,1.4-0.5,1.7c2.3,4,4.6,8,6.9,11.9
		c0.2,0.4,0.5,0.9,1,1c0.7,0.2,1.3-0.4,1.8-1c4.6-5.7,11.9-12.5,17.4-17.3c4-3.6,6.9-6.2,7-6.6C187.5,314.4,183.5,266.7,183.8,247.7
		L183.8,247.7z"/>
	<path class="st12" d="M145.9,309.6c0,0,0.1,0.1,0.2,0.3c0,0,0-0.1,0.1-0.2C146.1,309.7,146.1,309.6,145.9,309.6z"/>
	<path class="st12" d="M146.1,310C145.9,310.3,146,310.2,146.1,310L146.1,310L146.1,310L146.1,310z"/>
	<path class="st7" d="M174.9,220.9c1.1,0.1,2.2,0.3,3.4,0.4c0.2,0,0.3,0,0.5-0.1c-0.4-0.7-0.9-1.4-1.4-2.1l-3.8,0.6
		c-0.4,0.3-0.9,0.6-1.2,0.9C173.1,220.8,174.1,220.8,174.9,220.9L174.9,220.9z"/>
	<path d="M178.7,221.1c-0.1,0.1-0.3,0.1-0.5,0.1c-1.1,0-2.3-0.2-3.4-0.4c-0.8-0.1-1.7-0.1-2.5-0.4c-0.1,0-0.1,0-0.2-0.1
		c-0.8-0.3-1-1.1-1.2-1.9c-0.7-2.3-1.4-4.5-2.1-6.8l0,0c-0.6-1.9-3.4-0.8-2.8,1.1c0.2,0.8,0.5,1.7,0.7,2.5c0.5,1.7,1,3.5,1.6,5.2
		c0.2,0.6,0.6,1.2,1,1.6c0.5-0.5,1.1-1,1.7-1.4c1.6-1.1,3.4,1.3,1.8,2.4c-0.2,0.1-0.4,0.3-0.6,0.4c0.7,0.1,1.4,0.2,2,0.2
		c1.3,0.1,2.6,0.4,4,0.4c0.6,0,1.2-0.2,1.8-0.4c0.6-0.3,1-0.7,1.4-1.2c0.8-1,1.4-2.1,2-3.1l0.8-1.4c0.5-0.8,1-1.6,1.5-2.4
		c0.4-0.7,0.5-1.6-0.2-2.1c-0.6-0.5-1.7-0.5-2.1,0.2c-0.1,0.1-0.1,0.2-0.2,0.3c-1.2,1.9-2.4,3.9-3.6,5.8
		C179.5,220.3,179.2,220.9,178.7,221.1L178.7,221.1z"/>
	<path d="M146.1,310c0-0.1,0-0.1,0-0.2C146.1,309.8,146.1,309.9,146.1,310L146.1,310L146.1,310z"/>
	<path d="M153.6,325.9c-1.6-3.3-3.2-6.6-4.8-10c-0.1-0.3-2.1-4.7-2.7-6c-0.1,0.2-0.2,0.4,0,0l0,0c-0.1-0.2-0.2-0.3-0.2-0.3
		c0.2-0.1,0.3,0,0.3,0.1c0-0.1,0-0.2,0.1-0.3c0.1-0.2,0.1-0.5,0.2-0.8c0.2-0.7,0.4-1.4,0.5-2c0.4-1.5,0.8-2.9,1.2-4.4
		c0.9-3.4,1.8-6.8,2.7-10.1c4.2-15.7,8.4-31.3,12.7-46.9c0.9-3.3,1.8-6.5,2.8-9.8c1.2-4.2,2.5-9,6.1-11.9c0.2-0.1,0.4-0.3,0.6-0.4
		c1.6-1.1-0.2-3.5-1.8-2.4c-0.6,0.4-1.2,0.9-1.7,1.4c-2.9,2.9-4.4,7-5.5,10.9c-0.8,2.8-1.6,5.5-2.4,8.3c-2.1,7.5-4.2,15-6.2,22.5
		c-4,14.8-8,29.6-11.9,44.5c-0.3,1.1-0.5,1.9,0,3c0.6,1.4,1.3,2.8,1.9,4.2c0.5,1.1,1,2.1,1.5,3.2c1.3,2.8,2.6,5.5,4,8.2
		c0.5,1,1.6,1,2.3,0.6C153.6,327.3,154,326.7,153.6,325.9L153.6,325.9z"/>
	<path d="M144.2,351.3c0,0.1-0.1,0.2-0.1,0.3c-0.1,0.4-0.2,0.8-0.2,1.1c1.7,0.3,3.4,0.7,5.1,1c5.4,1.1,10.8,2.1,16.2,3.2l7.2,1.4
		c1.8,0.4,3.6,0.7,5.4,1.1c1.9,0.4,2.4-2.6,0.5-3l-14.7-2.9c-7.8-1.5-15.6-3.1-23.5-4.6l-5.4-1.1c-1.9-0.4-2.4,2.6-0.5,3l6.6,1.3
		l0.3-1.3C141.7,348.9,144.7,349.4,144.2,351.3L144.2,351.3z"/>
	<path d="M126.6,426.4c0.2-0.9,0.4-1.7,0.6-2.6c2.1-8.8,4.1-17.5,6.2-26.3c1.8-7.4,3.5-14.9,5.2-22.3c1.2-5.3,2.5-10.7,3.8-16
		c0.5-2.1,1.1-4.3,1.6-6.5c0.1-0.4,0.2-0.8,0.2-1.1c0-0.1,0.1-0.2,0.1-0.3c0.4-1.9-2.5-2.3-3-0.5l-0.3,1.3c-0.3,1.3-0.6,2.6-0.9,3.9
		c-1.1,4.7-2.2,9.4-3.3,14.1l-4.9,21c-2,8.5-4,17-6,25.5c-2.2,9.3-4.4,18.6-6.6,27.9c-2.2,9.4-4.4,18.9-6.7,28.3
		c-2.1,8.8-4.1,17.5-6.2,26.3c-1.8,7.4-3.5,14.9-5.2,22.3l-3.8,16c-0.6,2.5-1.3,5.1-1.8,7.6c0,0.1-0.1,0.2-0.1,0.3
		c-0.3,1.2,0.8,1.8,1.7,1.6c0.6-0.1,1.1-0.5,1.3-1.2c0.4-1.7,0.8-3.5,1.2-5.2c1.1-4.7,2.2-9.4,3.3-14.1c1.7-7,3.3-14,4.9-21l6-25.5
		c2.2-9.3,4.4-18.6,6.6-27.9c1.8-7.6,3.6-15.2,5.4-22.8C126.1,428.4,126.3,427.4,126.6,426.4L126.6,426.4z"/>
	<path d="M22.6,618.8c0.4-0.6,0.5-1.6,0-2.2c0-0.2,0-0.4,0-0.7c0-0.6,0.1-1.8,0.3-2.6c0.4-2.5,0.9-5,1.5-7.4
		c1.3-5.3,3-10.5,4.6-15.7c5-15.8,9.3-31.9,13.3-48c2.2-9,4.4-18.1,6.4-27.2c0.2-0.9-0.3-1.5-0.9-1.7c-0.8-0.2-1.8,0.1-2.1,1.2
		c-3.8,16.8-7.8,33.5-12.4,50.1c-2.3,8.3-4.7,16.5-7.3,24.7c-1.7,5.3-3.4,10.6-4.8,16.1c-0.7,2.8-1.3,5.6-1.6,8.4
		c-0.2,1.5-0.6,4.2,0.8,5.1c0,0,0.1,0,0.1,0.1C21.2,619.6,22,619.5,22.6,618.8L22.6,618.8z"/>
	<path d="M160.3,135.1c2.4-9.5,4.9-19.3,10.5-27.4c5-7.3,12.4-12.2,21.2-13.5c4.7-0.7,9.5-0.2,14,1.4c1.8,0.6,2.8-2.2,0.9-2.8
		c-8.5-3-18.2-2.2-26.2,2c-8.6,4.5-14.3,12.7-17.9,21.5c-2.4,5.8-3.9,11.9-5.5,18C156.9,136,159.8,136.9,160.3,135.1L160.3,135.1
		L160.3,135.1z"/>
	<path d="M219.9,160.2c-6,13.7-12.4,28.1-25,37c-1.6,1.1,0.5,3.3,2,2.2c13-9.2,19.7-24.2,25.8-38.3
		C223.5,159.4,220.6,158.5,219.9,160.2L219.9,160.2L219.9,160.2z"/>
	<path class="st10" d="M212.2,98.4c2.2-9.1,9.1-16.9,17.9-20.1c1.8-0.7,1-3.6-0.8-2.9c-9.8,3.6-17.5,12-20,22.2
		C208.8,99.5,211.7,100.3,212.2,98.4L212.2,98.4L212.2,98.4z"/>
	<path class="st10" d="M214.9,100.7c2.2-4.8,5.8-8.6,10.5-11c0.7-0.4,0.9-1.4,0.5-2.1c-0.4-0.7-1.3-0.9-2.1-0.5
		c-5,2.6-9.2,6.9-11.5,12.1c-0.3,0.7-0.2,1.6,0.5,2.1C213.5,101.6,214.6,101.4,214.9,100.7L214.9,100.7L214.9,100.7z"/>
	<path d="M171.7,152c7.8,11.1,21.8,17.7,35.2,13.7c1.9-0.5,1.1-3.4-0.8-2.9c-12.1,3.5-24.8-2.3-31.9-12.4
		C173.2,149,170.6,150.5,171.7,152L171.7,152L171.7,152z"/>
	<path d="M209.8,138.3c-1.7-0.6-3.6,0.2-4.3,1.9s0.2,3.6,1.9,4.3c1.7,0.6,3.6-0.2,4.3-1.9S211.5,139,209.8,138.3z"/>
</g>
<g id="Layer_2">
</g>
</svg>
