<svg width="340" height="792" viewBox="0 0 340 792" fill="none" xmlns="http://www.w3.org/2000/svg">
<g clip-path="url(#clip0_25_3)">
<path d="M25.0625 25.0625V88.0625H88.0625V25.0625H25.0625Z" fill="black" stroke="black" stroke-width="1.125" stroke-miterlimit="10"/>
<path d="M169.562 25.0625H189.062C192.245 25.0625 195.297 26.3268 197.548 28.5772C199.798 30.8277 201.062 33.8799 201.062 37.0625V76.0625C201.062 79.2451 199.798 82.2974 197.548 84.5478C195.297 86.7982 192.245 88.0625 189.062 88.0625H150.062C146.88 88.0625 143.828 86.7982 141.577 84.5478C139.327 82.2974 138.062 79.2451 138.062 76.0625V37.0625C138.062 33.8799 139.327 30.8277 141.577 28.5772C143.828 26.3268 146.88 25.0625 150.062 25.0625H169.562Z" fill="black" stroke="black" stroke-width="1.125" stroke-miterlimit="10"/>
<path d="M314.062 56.5625L313.965 59.034L313.675 61.4902L313.192 63.916L312.521 66.2965L311.665 68.617L310.629 70.8632L309.421 73.0212L308.047 75.0777L306.515 77.0201L304.836 78.8364L303.02 80.5153L301.078 82.0465L299.021 83.4207L296.863 84.6292L294.617 85.6647L292.297 86.5208L289.916 87.1922L287.49 87.6747L285.034 87.9654L282.562 88.0625L280.091 87.9654L277.635 87.6747L275.209 87.1922L272.828 86.5208L270.508 85.6647L268.262 84.6292L266.104 83.4207L264.047 82.0465L262.105 80.5153L260.289 78.8364L258.61 77.0201L257.078 75.0777L255.704 73.0212L254.496 70.8632L253.46 68.617L252.604 66.2965L251.933 63.916L251.45 61.4902L251.16 59.034L251.062 56.5625L251.16 54.091L251.45 51.6348L251.933 49.209L252.604 46.8285L253.46 44.508L254.496 42.2618L255.704 40.1038L257.078 38.0473L258.61 36.1049L260.289 34.2886L262.105 32.6097L264.047 31.0785L266.104 29.7043L268.262 28.4958L270.508 27.4603L272.828 26.6042L275.209 25.9328L277.635 25.4503L280.091 25.1596L282.562 25.0625L285.034 25.1596L287.49 25.4503L289.916 25.9328L292.297 26.6042L294.617 27.4603L296.863 28.4958L299.021 29.7043L301.078 31.0785L303.02 32.6097L304.836 34.2886L306.515 36.1049L308.047 38.0473L309.421 40.1038L310.629 42.2618L311.665 44.508L312.521 46.8285L313.192 49.209L313.675 51.6348L313.965 54.091L314.062 56.5625Z" fill="black" stroke="black" stroke-width="1.125" stroke-miterlimit="10"/>
<path d="M56.5625 138.062L25.0625 201.062H88.0625L56.5625 138.062Z" fill="black" stroke="black" stroke-width="1.125" stroke-miterlimit="10"/>
<path d="M169.562 138.062L138.062 162.126L150.094 201.062H189.031L201.062 162.126L169.562 138.062Z" fill="black" stroke="black" stroke-width="1.125" stroke-miterlimit="10"/>
<path d="M266.812 138.062L251.062 169.562L266.812 201.062H298.312L314.062 169.562L298.312 138.062H266.812Z" fill="black" stroke="black" stroke-width="1.125" stroke-miterlimit="10"/>
<path d="M56.5625 251.062L31.3015 263.54L25.0625 291.578L42.5437 314.062H70.5813L88.0625 291.578L81.8235 263.54L56.5625 251.062Z" fill="black" stroke="black" stroke-width="1.125" stroke-miterlimit="10"/>
<path d="M156.515 251.062L138.062 269.515V295.61L156.515 314.062H182.61L201.062 295.61V269.515L182.61 251.062H156.515Z" fill="black" stroke="black" stroke-width="1.125" stroke-miterlimit="10"/>
<path d="M282.562 251.062L270.888 268.992L251.062 275.126L263.672 292.342L263.094 314.062L282.562 306.772L302.031 314.062L301.453 292.342L314.062 275.126L294.237 268.992L282.562 251.062Z" fill="black" stroke="black" stroke-width="1.125" stroke-miterlimit="10"/>
<path d="M25.0625 367.212V423.913C25.5875 426.013 30.8375 427.062 40.8125 427.062H72.3125C82.2875 427.062 87.5375 426.013 88.0625 423.913V367.212C87.5375 365.112 82.2875 364.062 72.3125 364.062H40.8125C30.8375 364.062 25.5875 365.112 25.0625 367.212Z" fill="black" stroke="black" stroke-width="1.125" stroke-miterlimit="10"/>
<path d="M169.562 427.062L201.062 395.562L169.562 364.062L138.062 395.562L169.562 427.062Z" fill="black" stroke="black" stroke-width="1.125" stroke-miterlimit="10"/>
<path d="M251.062 364.062L282.562 385.073L314.062 364.062L282.562 427.062L251.062 364.062Z" fill="black" stroke="black" stroke-width="1.125" stroke-miterlimit="10"/>
<path d="M25.0625 477.062H67.052L88.0625 540.062H46.073L25.0625 477.062Z" fill="black" stroke="black" stroke-width="1.125" stroke-miterlimit="10"/>
<path d="M201.062 477.062H159.073L138.062 540.062H180.052L201.062 477.062Z" fill="black" stroke="black" stroke-width="1.125" stroke-miterlimit="10"/>
<path d="M251.062 477.062H314.062V540.062H251.062V477.062Z" fill="black" stroke="black" stroke-width="1.125" stroke-miterlimit="10"/>
<path d="M25.0625 590.062H64.4375L88.0625 621.562L64.4375 653.062H25.0625V590.062Z" fill="black" stroke="black" stroke-width="1.125" stroke-miterlimit="10"/>
<path d="M169.562 590.062H189.062C192.245 590.062 195.297 591.327 197.548 593.577C199.798 595.828 201.062 598.88 201.062 602.062V641.062C201.062 644.245 199.798 647.297 197.548 649.548C195.297 651.798 192.245 653.062 189.062 653.062H150.062C146.88 653.062 143.828 651.798 141.577 649.548C139.327 647.297 138.062 644.245 138.062 641.062V602.062C138.062 598.88 139.327 595.828 141.577 593.577C143.828 591.327 146.88 590.062 150.062 590.062H169.562Z" fill="black" stroke="black" stroke-width="1.125" stroke-miterlimit="10"/>
<path d="M263.062 590.062H302.062L314.062 602.062V641.062L302.062 653.062H263.062L251.062 641.062V602.062L263.062 590.062Z" fill="black" stroke="black" stroke-width="1.125" stroke-miterlimit="10"/>
<path d="M56.5625 703.062H88.0625V734.562V754.062C88.0625 757.245 86.7982 760.297 84.5478 762.548C82.2974 764.798 79.2451 766.062 76.0625 766.062H37.0625C33.8799 766.062 30.8276 764.798 28.5772 762.548C26.3268 760.297 25.0625 757.245 25.0625 754.062V703.062H56.5625Z" fill="black" stroke="black" stroke-width="1.125" stroke-miterlimit="10"/>
<path d="M138.062 704.637L145.938 734.563L138.062 764.487H201.062L193.188 734.563L201.062 704.637H138.062Z" fill="black" stroke="black" stroke-width="1.125" stroke-miterlimit="10"/>
</g>
<defs>
<clipPath id="clip0_25_3">
<rect width="340" height="792" fill="white"/>
</clipPath>
</defs>
</svg>
