<svg xmlns="http://www.w3.org/2000/svg" xmlns:xlink="http://www.w3.org/1999/xlink" version="1.1" viewBox="0 0 655 1512">
  <g transform="translate(30, 30)">
    <defs/>
    <g>
      <g transform="translate(-173.67750000000004,-235.65750000000003) scale(1.5,1.5)">
        <path fill="rgb(0,0,0)" stroke="rgb(0,0,0)" paint-order="fill stroke markers" d=" M 117.16000000000003 158.48000000000002 L 117.16000000000003 200.48000000000002 L 159.16000000000003 200.48000000000002 L 159.16000000000003 158.48000000000002 Z" fill-opacity="1" stroke-opacity="1" stroke-miterlimit="10" stroke-width="0.75"/>
        <path fill="rgb(0,0,0)" stroke="rgb(0,0,0)" paint-order="fill stroke markers" d=" M 314 158.48000000000002 L 327 158.48000000000002 L 327 158.48000000000002 A 8 8 0 0 1 335 166.48000000000002 L 335 192.48000000000002 L 335 192.48000000000002 A 8 8 0 0 1 327 200.48000000000002 L 301 200.48000000000002 L 301 200.48000000000002 A 8 8 0 0 1 293 192.48000000000002 L 293 166.48000000000002 L 293 166.48000000000002 A 8 8 0 0 1 301 158.48000000000002 L 314 158.48000000000002 Z" fill-opacity="1" stroke-opacity="1" stroke-miterlimit="10" stroke-width="0.75"/>
        <path fill="rgb(0,0,0)" stroke="rgb(0,0,0)" paint-order="fill stroke markers" d=" M 510.84000000000003 179.48000000000002 L 510.7752640083957 181.12764101028478 L 510.58145515249794 182.76512376584486 L 510.25976832835124 184.38235264097403 L 509.81218684219823 185.96935688187392 L 509.24147018273703 187.51635207966692 L 508.55113700795573 189.0138004945305 L 507.74544345143596 190.45246985903495 L 506.82935688187393 191.82349029814196 L 505.80852527760067 193.1184090149339 L 504.68924240491754 194.32924240491752 L 503.4784090149339 195.44852527760068 L 502.183490298142 196.46935688187392 L 500.81246985903493 197.38544345143595 L 499.37380049453054 198.19113700795575 L 497.8763520796669 198.88147018273705 L 496.32935688187393 199.45218684219824 L 494.74235264097405 199.89976832835123 L 493.1251237658449 200.22145515249792 L 491.4876410102848 200.4152640083957 L 489.84000000000003 200.48000000000002 L 488.1923589897153 200.4152640083957 L 486.5548762341552 200.22145515249792 L 484.937647359026 199.89976832835123 L 483.35064311812613 199.45218684219824 L 481.80364792033316 198.88147018273705 L 480.3061995054695 198.19113700795575 L 478.86753014096513 197.38544345143595 L 477.4965097018581 196.46935688187392 L 476.20159098506616 195.44852527760068 L 474.9907575950825 194.32924240491752 L 473.8714747223994 193.1184090149339 L 472.85064311812613 191.82349029814196 L 471.9345565485641 190.45246985903495 L 471.12886299204433 189.0138004945305 L 470.43852981726303 187.51635207966692 L 469.86781315780183 185.96935688187392 L 469.4202316716488 184.38235264097403 L 469.0985448475021 182.76512376584486 L 468.90473599160435 181.12764101028478 L 468.84000000000003 179.48000000000002 L 468.90473599160435 177.8323589897153 L 469.0985448475021 176.19487623415517 L 469.4202316716488 174.577647359026 L 469.86781315780183 172.99064311812612 L 470.43852981726303 171.44364792033315 L 471.12886299204433 169.94619950546954 L 471.9345565485641 168.5075301409651 L 472.85064311812613 167.13650970185807 L 473.8714747223994 165.84159098506618 L 474.9907575950825 164.6307575950825 L 476.20159098506616 163.51147472239938 L 477.4965097018581 162.49064311812612 L 478.86753014096513 161.5745565485641 L 480.3061995054696 160.7688629920443 L 481.80364792033316 160.078529817263 L 483.3506431181262 159.5078131578018 L 484.9376473590261 159.0602316716488 L 486.55487623415524 158.7385448475021 L 488.19235898971533 158.54473599160434 L 489.8400000000001 158.48000000000002 L 491.48764101028485 158.54473599160434 L 493.125123765845 158.73854484750214 L 494.74235264097416 159.06023167164884 L 496.32935688187405 159.50781315780182 L 497.876352079667 160.07852981726305 L 499.37380049453066 160.76886299204435 L 500.81246985903505 161.57455654856415 L 502.1834902981421 162.4906431181262 L 503.478409014934 163.51147472239947 L 504.68924240491765 164.63075759508263 L 505.8085252776008 165.8415909850663 L 506.82935688187405 167.13650970185822 L 507.7454434514361 168.50753014096526 L 508.55113700795584 169.9461995054697 L 509.24147018273715 171.44364792033332 L 509.81218684219834 172.99064311812634 L 510.2597683283513 174.57764735902623 L 510.58145515249794 176.1948762341554 L 510.77526400839577 177.83235898971552 Z" fill-opacity="1" stroke-opacity="1" stroke-miterlimit="10" stroke-width="0.75"/>
        <path fill="rgb(0,0,0)" stroke="rgb(0,0,0)" paint-order="fill stroke markers" d=" M 138.16000000000003 312.32 L 117.16000000000003 354.32 L 159.16000000000003 354.32 Z" fill-opacity="1" stroke-opacity="1" stroke-miterlimit="10" stroke-width="0.75"/>
        <path fill="rgb(0,0,0)" stroke="rgb(0,0,0)" paint-order="fill stroke markers" d=" M 314 312.32 L 293 328.3625724725044 L 301.0212862362522 354.32 L 326.9787137637478 354.32 L 335 328.36257247250444 Z" fill-opacity="1" stroke-opacity="1" stroke-miterlimit="10" stroke-width="0.75"/>
        <path fill="rgb(0,0,0)" stroke="rgb(0,0,0)" paint-order="fill stroke markers" d=" M 479.34000000000003 312.32 L 468.84000000000003 333.32 L 479.34000000000003 354.32 L 500.34000000000003 354.32 L 510.84000000000003 333.32 L 500.34000000000003 312.32 Z" fill-opacity="1" stroke-opacity="1" stroke-miterlimit="10" stroke-width="0.75"/>
        <path fill="rgb(0,0,0)" stroke="rgb(0,0,0)" paint-order="fill stroke markers" d=" M 138.16000000000003 466.15999999999997 L 121.31930754809842 474.47861509619673 L 117.16000000000003 493.17037354852715 L 128.81412077383482 508.15999999999997 L 147.50587922616523 508.15999999999997 L 159.16000000000003 493.17037354852715 L 155.00069245190164 474.4786150961968 Z" fill-opacity="1" stroke-opacity="1" stroke-miterlimit="10" stroke-width="0.75"/>
        <path fill="rgb(0,0,0)" stroke="rgb(0,0,0)" paint-order="fill stroke markers" d=" M 305.301515190165 466.15999999999997 L 293 478.46151519016496 L 293 495.858484809835 L 305.301515190165 508.15999999999997 L 322.698484809835 508.15999999999997 L 335 495.858484809835 L 335 478.46151519016496 L 322.698484809835 466.15999999999997 Z" fill-opacity="1" stroke-opacity="1" stroke-miterlimit="10" stroke-width="0.75"/>
        <path fill="rgb(0,0,0)" stroke="rgb(0,0,0)" paint-order="fill stroke markers" d=" M 489.84000000000003 466.15999999999997 L 482.05683878183197 478.1131322581009 L 468.84000000000003 482.20257247250436 L 477.24658060908405 493.679454694437 L 476.8612862362522 508.15999999999997 L 489.84000000000003 503.2999710399328 L 502.81871376374784 508.15999999999997 L 502.433419390916 493.679454694437 L 510.84000000000003 482.2025724725044 L 497.6231612181681 478.1131322581009 Z" fill-opacity="1" stroke-opacity="1" stroke-miterlimit="10" stroke-width="0.75"/>
        <path fill="rgb(0,0,0)" stroke="rgb(0,0,0)" paint-order="fill stroke markers" d=" M 117.16000000000003 622.1 L 117.16000000000003 659.9 Q 117.68500000000003 662 127.66000000000003 662 L 148.66000000000003 662 Q 158.63500000000002 662 159.16000000000003 659.9 L 159.16000000000003 622.1 Q 158.63500000000002 620 148.66000000000003 620 L 127.66000000000003 620 Q 117.68500000000003 620 117.16000000000003 622.1 Z" fill-opacity="1" stroke-opacity="1" stroke-miterlimit="10" stroke-width="0.75"/>
        <path fill="rgb(0,0,0)" stroke="rgb(0,0,0)" paint-order="fill stroke markers" d=" M 314 662 L 335 641 L 314 620 L 293 641 Z" fill-opacity="1" stroke-opacity="1" stroke-miterlimit="10" stroke-width="0.75"/>
        <path fill="rgb(0,0,0)" stroke="rgb(0,0,0)" paint-order="fill stroke markers" d=" M 468.84000000000003 620 L 489.84000000000003 634.007 L 510.84000000000003 620 L 489.84000000000003 662 Z" fill-opacity="1" stroke-opacity="1" stroke-miterlimit="10" stroke-width="0.75"/>
        <path fill="rgb(0,0,0)" stroke="rgb(0,0,0)" paint-order="fill stroke markers" d=" M 117.16000000000003 773.8399999999999 L 145.15300000000002 773.8399999999999 L 159.16000000000003 815.8399999999999 L 131.16700000000003 815.8399999999999 Z" fill-opacity="1" stroke-opacity="1" stroke-miterlimit="10" stroke-width="0.75"/>
        <path fill="rgb(0,0,0)" stroke="rgb(0,0,0)" paint-order="fill stroke markers" d=" M 293 773.8399999999999 L 335 773.8399999999999 L 335 815.8399999999999 L 293 815.8399999999999 Z" fill-opacity="1" stroke-opacity="1" stroke-miterlimit="10" stroke-width="0.75"/>
        <path fill="rgb(0,0,0)" stroke="rgb(0,0,0)" paint-order="fill stroke markers" d=" M 468.84000000000003 773.8399999999999 L 495.09000000000003 773.8399999999999 L 510.84000000000003 794.8399999999999 L 495.09000000000003 815.8399999999999 L 468.84000000000003 815.8399999999999 Z" fill-opacity="1" stroke-opacity="1" stroke-miterlimit="10" stroke-width="0.75"/>
        <path fill="rgb(0,0,0)" stroke="rgb(0,0,0)" paint-order="fill stroke markers" d=" M 138.16000000000003 927.68 L 151.16000000000003 927.68 L 151.16000000000003 927.68 A 8 8 0 0 1 159.16000000000003 935.68 L 159.16000000000003 961.68 L 159.16000000000003 961.68 A 8 8 0 0 1 151.16000000000003 969.68 L 125.16000000000003 969.68 L 125.16000000000003 969.68 A 8 8 0 0 1 117.16000000000003 961.68 L 117.16000000000003 935.68 L 117.16000000000003 935.68 A 8 8 0 0 1 125.16000000000003 927.68 L 138.16000000000003 927.68 Z" fill-opacity="1" stroke-opacity="1" stroke-miterlimit="10" stroke-width="0.75"/>
        <path fill="rgb(0,0,0)" stroke="rgb(0,0,0)" paint-order="fill stroke markers" d=" M 301 927.68 L 327 927.68 L 335 935.68 L 335 961.68 L 327 969.68 L 301 969.68 L 293 961.68 L 293 935.68 Z" fill-opacity="1" stroke-opacity="1" stroke-miterlimit="10" stroke-width="0.75"/>
        <path fill="rgb(0,0,0)" stroke="rgb(0,0,0)" paint-order="fill stroke markers" d=" M 489.84000000000003 927.68 L 510.84000000000003 927.68 L 510.84000000000003 948.68 L 510.84000000000003 961.68 L 510.84000000000003 961.68 A 8 8 0 0 1 502.84000000000003 969.68 L 476.84000000000003 969.68 L 476.84000000000003 969.68 A 8 8 0 0 1 468.84000000000003 961.68 L 468.84000000000003 927.68 L 489.84000000000003 927.68 Z" fill-opacity="1" stroke-opacity="1" stroke-miterlimit="10" stroke-width="0.75"/>
        <path fill="rgb(0,0,0)" stroke="rgb(0,0,0)" paint-order="fill stroke markers" d=" M 117.16000000000003 1082.57 L 122.41000000000003 1102.52 L 117.16000000000003 1122.47 L 159.16000000000003 1122.47 L 153.91000000000003 1102.52 L 159.16000000000003 1082.57 Z" fill-opacity="1" stroke-opacity="1" stroke-miterlimit="10" stroke-width="0.75"/>
        <g transform="scale(0.6666666666666666,0.6666666666666666) translate(173.67750000000004,235.65750000000003)"/>
      </g>
    </g>
  </g>
</svg>
