<svg width="250" height="162" viewBox="0 0 250 162" fill="none" xmlns="http://www.w3.org/2000/svg">
<rect width="250" height="162" fill="#E9E9E9"/>
<rect x="24" y="46" width="46" height="25" rx="3" fill="#464646"/>
<rect x="181" y="46" width="46" height="25" rx="12.5" fill="#464646"/>
<rect x="103" y="102" width="46" height="25" rx="12.5" fill="#464646"/>
<path d="M99.3536 58.3536C99.5488 58.1583 99.5488 57.8417 99.3536 57.6464L96.1716 54.4645C95.9763 54.2692 95.6597 54.2692 95.4645 54.4645C95.2692 54.6597 95.2692 54.9763 95.4645 55.1716L98.2929 58L95.4645 60.8284C95.2692 61.0237 95.2692 61.3403 95.4645 61.5355C95.6597 61.7308 95.9763 61.7308 96.1716 61.5355L99.3536 58.3536ZM76 58.5H99V57.5H76V58.5Z" fill="#464646"/>
<path d="M174.354 58.3536C174.549 58.1583 174.549 57.8417 174.354 57.6464L171.172 54.4645C170.976 54.2692 170.66 54.2692 170.464 54.4645C170.269 54.6597 170.269 54.9763 170.464 55.1716L173.293 58L170.464 60.8284C170.269 61.0237 170.269 61.3403 170.464 61.5355C170.66 61.7308 170.976 61.7308 171.172 61.5355L174.354 58.3536ZM151 58.5H174V57.5H151V58.5Z" fill="#464646"/>
<path d="M125.646 98.3536C125.842 98.5488 126.158 98.5488 126.354 98.3536L129.536 95.1716C129.731 94.9763 129.731 94.6597 129.536 94.4645C129.34 94.2692 129.024 94.2692 128.828 94.4645L126 97.2929L123.172 94.4645C122.976 94.2692 122.66 94.2692 122.464 94.4645C122.269 94.6597 122.269 94.9763 122.464 95.1716L125.646 98.3536ZM125.5 75L125.5 98L126.5 98L126.5 75L125.5 75Z" fill="#464646"/>
<path d="M125.5 71L96.4882 44.75L154.512 44.75L125.5 71Z" fill="#464646"/>
</svg>
