<svg width="250" height="162" viewBox="0 0 250 162" fill="none" xmlns="http://www.w3.org/2000/svg">
<rect width="250" height="162" fill="#E9E9E9"/>
<rect x="63" y="72" width="46" height="25" rx="12.5" fill="#464646"/>
<rect x="97" y="121" width="46" height="25" rx="12.5" fill="#464646"/>
<rect x="172" y="121" width="46" height="25" rx="12.5" fill="#464646"/>
<rect x="33" y="121" width="46" height="25" rx="12.5" fill="#464646"/>
<rect x="147" y="72" width="46" height="25" rx="12.5" fill="#464646"/>
<rect x="105" y="17" width="46" height="25" rx="12.5" fill="#464646"/>
<path d="M96.5 65.2635C96.5 65.5396 96.7238 65.7635 97 65.7635H101.5C101.776 65.7635 102 65.5396 102 65.2635C102 64.9873 101.776 64.7635 101.5 64.7635H97.5V60.7635C97.5 60.4873 97.2761 60.2635 97 60.2635C96.7238 60.2635 96.5 60.4873 96.5 60.7635V65.2635ZM112.91 48.6464L96.6464 64.9099L97.3535 65.617L113.617 49.3536L112.91 48.6464Z" fill="#464646"/>
<path d="M54.5 117.263C54.5 117.54 54.7238 117.763 55 117.763H59.5C59.7761 117.763 60 117.54 60 117.263C60 116.987 59.7761 116.763 59.5 116.763H55.5V112.763C55.5 112.487 55.2761 112.263 55 112.263C54.7238 112.263 54.5 112.487 54.5 112.763V117.263ZM70.9099 100.646L54.6464 116.91L55.3535 117.617L71.617 101.354L70.9099 100.646Z" fill="#464646"/>
<path d="M159.263 65.7635C159.54 65.7635 159.763 65.5396 159.763 65.2635V60.7635C159.763 60.4873 159.54 60.2635 159.263 60.2635C158.987 60.2635 158.763 60.4873 158.763 60.7635L158.763 64.7635H154.763C154.487 64.7635 154.263 64.9873 154.263 65.2635C154.263 65.5396 154.487 65.7635 154.763 65.7635H159.263ZM142.646 49.3536L158.91 65.617L159.617 64.9099L143.354 48.6464L142.646 49.3536Z" fill="#464646"/>
<path d="M110.263 117.763C110.54 117.763 110.763 117.54 110.763 117.263V112.763C110.763 112.487 110.54 112.263 110.263 112.263C109.987 112.263 109.763 112.487 109.763 112.763V116.763H105.763C105.487 116.763 105.263 116.987 105.263 117.263C105.263 117.54 105.487 117.763 105.763 117.763H110.263ZM93.6464 101.354L109.91 117.617L110.617 116.91L94.3536 100.646L93.6464 101.354Z" fill="#464646"/>
<path d="M188.263 117.763C188.54 117.763 188.763 117.54 188.763 117.263V112.763C188.763 112.487 188.54 112.263 188.263 112.263C187.987 112.263 187.763 112.487 187.763 112.763L187.763 116.763H183.763C183.487 116.763 183.263 116.987 183.263 117.263C183.263 117.54 183.487 117.763 183.763 117.763H188.263ZM171.646 101.354L187.91 117.617L188.617 116.91L172.354 100.646L171.646 101.354Z" fill="#464646"/>
</svg>
