<svg width="50" height="12" viewBox="0 0 50 12" fill="none" xmlns="http://www.w3.org/2000/svg">
<g clip-path="url(#clip0_439_17)">
<rect width="50" height="12" rx="2" fill="white"/>
<g clip-path="url(#clip1_439_17)">
<path d="M6.94972 5.52422V6.74481H4.52237V8.93689H3V3H7.49946V4.22059H4.52237V5.52422H6.94972Z" fill="black"/>
<path d="M10.9307 6.01828H11.8247C12.2548 6.01657 12.6841 5.97908 13.1077 5.90619C12.7779 6.29368 12.4678 6.48742 12.1774 6.48742L11.8213 6.47912L11.4162 6.47082L11.0931 6.46251H10.8766L10.847 6.76143L10.8056 7.1218C10.7588 7.50929 10.6742 7.78856 10.5518 7.95961C10.4292 8.13232 10.1907 8.30087 9.83886 8.46528L10.9899 8.52672L10.4918 9.00168L8.51609 8.90951L9.054 8.40217L9.50394 8.45116C9.84225 8.24081 10.0509 7.8107 10.1298 7.16082L10.1755 6.75977L10.5045 3.84447H10.3632C9.82364 3.84447 9.40076 3.95296 9.09459 4.16996C8.94778 4.26836 8.82859 4.4015 8.74803 4.55707C8.66747 4.71265 8.62813 4.88564 8.63365 5.06008C8.63803 5.3043 8.70399 5.54365 8.82564 5.75673L8.14903 6.39525C8.08638 6.19334 8.0539 5.98357 8.05261 5.7725C8.05261 5.0086 8.37654 4.39027 9.02439 3.91754C9.49689 3.57378 10.167 3.4019 11.0348 3.4019H12.4159C12.9324 3.4019 13.4593 3.3828 13.9966 3.3446L13.6583 4.18656L13.5915 4.33852C13.5272 4.49794 13.441 4.57765 13.3327 4.57765C13.3118 4.57784 13.2909 4.57645 13.2701 4.5735C13.2986 4.46652 13.3154 4.35684 13.32 4.24635C13.32 4.06644 13.2225 3.95379 13.0274 3.9084C12.8323 3.86301 12.3491 3.84059 11.5778 3.84114H11.176L10.9307 6.01828Z" fill="black"/>
</g>
<path d="M16.565 5.77H16.145V5.42H16.565V4.9C16.565 4.72 16.6117 4.575 16.705 4.465C16.7983 4.355 16.94 4.3 17.13 4.3H17.52V4.65H16.965V5.42H17.52V5.77H16.965V8H16.565V5.77ZM18.5711 8C18.4311 8 18.3244 7.96167 18.2511 7.885C18.1811 7.805 18.1461 7.705 18.1461 7.585V4.3H18.5461V7.65H18.9261V8H18.5711ZM20.5834 8.06C20.4101 8.06 20.2517 8.02833 20.1084 7.965C19.9651 7.90167 19.8417 7.81167 19.7384 7.695C19.6384 7.575 19.5601 7.43333 19.5034 7.27C19.4467 7.10333 19.4184 6.91667 19.4184 6.71C19.4184 6.50667 19.4467 6.32167 19.5034 6.155C19.5601 5.98833 19.6384 5.84667 19.7384 5.73C19.8417 5.61 19.9651 5.51833 20.1084 5.455C20.2517 5.39167 20.4101 5.36 20.5834 5.36C20.7567 5.36 20.9134 5.39167 21.0534 5.455C21.1967 5.51833 21.3201 5.61 21.4234 5.73C21.5267 5.84667 21.6067 5.98833 21.6634 6.155C21.7201 6.32167 21.7484 6.50667 21.7484 6.71C21.7484 6.91667 21.7201 7.10333 21.6634 7.27C21.6067 7.43333 21.5267 7.575 21.4234 7.695C21.3201 7.81167 21.1967 7.90167 21.0534 7.965C20.9134 8.02833 20.7567 8.06 20.5834 8.06ZM20.5834 7.705C20.8001 7.705 20.9767 7.63833 21.1134 7.505C21.2501 7.37167 21.3184 7.16833 21.3184 6.895V6.525C21.3184 6.25167 21.2501 6.04833 21.1134 5.915C20.9767 5.78167 20.8001 5.715 20.5834 5.715C20.3667 5.715 20.1901 5.78167 20.0534 5.915C19.9167 6.04833 19.8484 6.25167 19.8484 6.525V6.895C19.8484 7.16833 19.9167 7.37167 20.0534 7.505C20.1901 7.63833 20.3667 7.705 20.5834 7.705ZM22.2118 5.42H22.6018L22.8768 6.535L23.1518 7.665H23.1618L23.4768 6.535L23.8018 5.42H24.1568L24.4918 6.535L24.8118 7.665H24.8218L25.0868 6.535L25.3668 5.42H25.7418L25.0568 8H24.5618L24.2018 6.76L23.9768 5.975H23.9668L23.7468 6.76L23.3868 8H22.9018L22.2118 5.42ZM27.3553 8.06C27.1753 8.06 27.0136 8.02833 26.8703 7.965C26.727 7.90167 26.6053 7.81167 26.5053 7.695C26.4086 7.57833 26.3336 7.43667 26.2803 7.27C26.2303 7.10333 26.2053 6.91667 26.2053 6.71C26.2053 6.50333 26.2303 6.31667 26.2803 6.15C26.3336 5.98333 26.4086 5.84167 26.5053 5.725C26.6053 5.60833 26.727 5.51833 26.8703 5.455C27.0136 5.39167 27.1753 5.36 27.3553 5.36C27.612 5.36 27.817 5.41667 27.9703 5.53C28.127 5.64 28.2436 5.785 28.3203 5.965L27.9853 6.135C27.9386 6.00167 27.862 5.89833 27.7553 5.825C27.6486 5.75167 27.5153 5.715 27.3553 5.715C27.2353 5.715 27.1303 5.735 27.0403 5.775C26.9503 5.81167 26.8753 5.865 26.8153 5.935C26.7553 6.00167 26.7103 6.08333 26.6803 6.18C26.6503 6.27333 26.6353 6.37667 26.6353 6.49V6.93C26.6353 7.15667 26.6953 7.34333 26.8153 7.49C26.9386 7.63333 27.1186 7.705 27.3553 7.705C27.6786 7.705 27.912 7.555 28.0553 7.255L28.3453 7.45C28.262 7.63667 28.137 7.785 27.9703 7.895C27.807 8.005 27.602 8.06 27.3553 8.06ZM29.01 4.3H29.41V5.84H29.43C29.4933 5.69333 29.5816 5.57667 29.695 5.49C29.8116 5.40333 29.9666 5.36 30.16 5.36C30.4266 5.36 30.6366 5.44667 30.79 5.62C30.9466 5.79 31.025 6.03167 31.025 6.345V8H30.625V6.415C30.625 5.95167 30.43 5.72 30.04 5.72C29.96 5.72 29.8816 5.73 29.805 5.75C29.7316 5.77 29.665 5.8 29.605 5.84C29.545 5.88 29.4966 5.93167 29.46 5.995C29.4266 6.055 29.41 6.12667 29.41 6.21V8H29.01V4.3ZM33.8268 8C33.6768 8 33.5684 7.96 33.5018 7.88C33.4384 7.8 33.3984 7.7 33.3818 7.58H33.3568C33.3001 7.74 33.2068 7.86 33.0768 7.94C32.9468 8.02 32.7918 8.06 32.6118 8.06C32.3384 8.06 32.1251 7.99 31.9718 7.85C31.8218 7.71 31.7468 7.52 31.7468 7.28C31.7468 7.03667 31.8351 6.85 32.0118 6.72C32.1918 6.59 32.4701 6.525 32.8468 6.525H33.3568V6.27C33.3568 6.08667 33.3068 5.94667 33.2068 5.85C33.1068 5.75333 32.9534 5.705 32.7468 5.705C32.5901 5.705 32.4584 5.74 32.3518 5.81C32.2484 5.88 32.1618 5.97333 32.0918 6.09L31.8518 5.865C31.9218 5.725 32.0334 5.60667 32.1868 5.51C32.3401 5.41 32.5334 5.36 32.7668 5.36C33.0801 5.36 33.3234 5.43667 33.4968 5.59C33.6701 5.74333 33.7568 5.95667 33.7568 6.23V7.65H34.0518V8H33.8268ZM32.6768 7.72C32.7768 7.72 32.8684 7.70833 32.9518 7.685C33.0351 7.66167 33.1068 7.62833 33.1668 7.585C33.2268 7.54167 33.2734 7.49167 33.3068 7.435C33.3401 7.37833 33.3568 7.31667 33.3568 7.25V6.825H32.8268C32.5968 6.825 32.4284 6.85833 32.3218 6.925C32.2184 6.99167 32.1668 7.08833 32.1668 7.215V7.32C32.1668 7.44667 32.2118 7.545 32.3018 7.615C32.3951 7.685 32.5201 7.72 32.6768 7.72ZM34.7227 8V5.42H35.1227V5.895H35.1477C35.1943 5.77167 35.2777 5.66167 35.3977 5.565C35.5177 5.46833 35.6827 5.42 35.8927 5.42H36.0477V5.82H35.8127C35.596 5.82 35.426 5.86167 35.3027 5.945C35.1827 6.025 35.1227 6.12667 35.1227 6.25V8H34.7227ZM37.2481 8C37.1081 8 37.0015 7.96167 36.9281 7.885C36.8581 7.805 36.8231 7.70167 36.8231 7.575V5.77H36.3981V5.42H36.6381C36.7248 5.42 36.7831 5.40333 36.8131 5.37C36.8465 5.33333 36.8631 5.27167 36.8631 5.185V4.705H37.2231V5.42H37.7881V5.77H37.2231V7.65H37.7481V8H37.2481ZM38.7861 8.06C38.6794 8.06 38.6011 8.03333 38.5511 7.98C38.5044 7.92667 38.4811 7.85667 38.4811 7.77V7.705C38.4811 7.61833 38.5044 7.54833 38.5511 7.495C38.6011 7.44167 38.6794 7.415 38.7861 7.415C38.8927 7.415 38.9694 7.44167 39.0161 7.495C39.0661 7.54833 39.0911 7.61833 39.0911 7.705V7.77C39.0911 7.85667 39.0661 7.92667 39.0161 7.98C38.9694 8.03333 38.8927 8.06 38.7861 8.06ZM40.0601 5.77H39.6401V5.42H40.0601V4.9C40.0601 4.72 40.1068 4.575 40.2001 4.465C40.2935 4.355 40.4351 4.3 40.6251 4.3H41.0151V4.65H40.4601V5.42H41.0151V5.77H40.4601V8H40.0601V5.77ZM43.2312 7.58H43.2112C43.1845 7.64 43.1512 7.7 43.1112 7.76C43.0745 7.81667 43.0279 7.86833 42.9712 7.915C42.9145 7.95833 42.8462 7.99333 42.7662 8.02C42.6862 8.04667 42.5929 8.06 42.4862 8.06C42.2195 8.06 42.0079 7.975 41.8512 7.805C41.6945 7.63167 41.6162 7.38833 41.6162 7.075V5.42H42.0162V7.005C42.0162 7.46833 42.2129 7.7 42.6062 7.7C42.6862 7.7 42.7629 7.69 42.8362 7.67C42.9129 7.65 42.9795 7.62 43.0362 7.58C43.0962 7.54 43.1429 7.49 43.1762 7.43C43.2129 7.36667 43.2312 7.29167 43.2312 7.205V5.42H43.6312V8H43.2312V7.58ZM44.583 8V5.42H44.983V5.84H45.003C45.0663 5.69333 45.1547 5.57667 45.268 5.49C45.3847 5.40333 45.5397 5.36 45.733 5.36C45.9997 5.36 46.2097 5.44667 46.363 5.62C46.5197 5.79 46.598 6.03167 46.598 6.345V8H46.198V6.415C46.198 5.95167 46.003 5.72 45.613 5.72C45.533 5.72 45.4547 5.73 45.378 5.75C45.3047 5.77 45.238 5.8 45.178 5.84C45.118 5.88 45.0697 5.93167 45.033 5.995C44.9997 6.055 44.983 6.12667 44.983 6.21V8H44.583Z" fill="black"/>
</g>
<defs>
<clipPath id="clip0_439_17">
<rect width="50" height="12" fill="white"/>
</clipPath>
<clipPath id="clip1_439_17">
<rect width="11" height="6" fill="white" transform="translate(3 3)"/>
</clipPath>
</defs>
</svg>
