<?xml version="1.0" encoding="utf-8"?>
<!-- Generator: Adobe Illustrator 23.0.1, SVG Export Plug-In . SVG Version: 6.00 Build 0)  -->
<!DOCTYPE svg PUBLIC "-//W3C//DTD SVG 1.1//EN" "http://www.w3.org/Graphics/SVG/1.1/DTD/svg11.dtd" [
	<!ENTITY ns_extend "http://ns.adobe.com/Extensibility/1.0/">
	<!ENTITY ns_ai "http://ns.adobe.com/AdobeIllustrator/10.0/">
	<!ENTITY ns_graphs "http://ns.adobe.com/Graphs/1.0/">
	<!ENTITY ns_vars "http://ns.adobe.com/Variables/1.0/">
	<!ENTITY ns_imrep "http://ns.adobe.com/ImageReplacement/1.0/">
	<!ENTITY ns_sfw "http://ns.adobe.com/SaveForWeb/1.0/">
	<!ENTITY ns_custom "http://ns.adobe.com/GenericCustomNamespace/1.0/">
	<!ENTITY ns_adobe_xpath "http://ns.adobe.com/XPath/1.0/">
]>
<svg version="1.1" id="Livello_1" xmlns:x="&ns_extend;" xmlns:i="&ns_ai;" xmlns:graph="&ns_graphs;"
	 xmlns="http://www.w3.org/2000/svg" xmlns:xlink="http://www.w3.org/1999/xlink" x="0px" y="0px" viewBox="0 0 3543.2 1059.5"
	 style="enable-background:new 0 0 3543.2 1059.5;" xml:space="preserve">
<style type="text/css">
	.st0{fill:#004580;}
</style>
<metadata>
	<sfw  xmlns="&ns_sfw;">
		<slices></slices>
		<sliceSourceBounds  bottomLeftOrigin="true" height="1059.5" width="3543.2" x="-683.7" y="-1119.2"></sliceSourceBounds>
	</sfw>
</metadata>
<path class="st0" d="M642.6,561.6c11.6,3.9,25.1,9.7,40.5,17.4c27,15.5,50.1,36.7,69.5,63.7c23.2,38.6,34.7,84.9,34.7,138.9
	c0,185.3-112,277.9-335.8,277.9H17.4c-11.6,0-17.4-5.8-17.4-17.4V150.5c0-11.6,5.8-17.4,17.4-17.4h457.4
	c81.1,0,146.6,22.3,196.8,66.6c50.1,44.4,75.3,103.3,75.3,176.6c0,42.5-9.7,80.1-28.9,112.9C698.6,522.1,673.5,546.2,642.6,561.6z
	 M445.8,926.3c65.6,0,113.8-10.6,144.7-31.8c30.8-21.2,46.3-57.9,46.3-110c0-52.1-15.5-88.7-46.3-110
	c-30.9-21.2-79.2-31.8-144.7-31.8H173.7c-15.5,0-23.2,5.8-23.2,17.4v249c0,11.6,7.7,17.4,23.2,17.4H445.8z M173.7,266.3
	c-11.6,0-17.4,5.8-17.4,17.4v208.4c0,11.6,5.8,17.4,17.4,17.4H440c100.3,0,150.5-40.5,150.5-121.6c0-81.1-50.2-121.6-150.5-121.6
	H173.7z M1580.6,561.6c11.6,3.9,23.2,9.7,34.7,17.4c30.8,15.5,54,36.7,69.5,63.7c27,38.6,40.5,84.9,40.5,138.9
	c0,185.3-112,277.9-335.8,277.9H955.3c-11.6,0-17.4-5.8-17.4-17.4V150.5c0-11.6,5.8-17.4,17.4-17.4h457.4
	c77.2,0,141.8,22.3,194,66.6c52.1,44.4,78.2,103.3,78.2,176.6c0,42.5-9.7,80.1-28.9,112.9C1636.5,522.1,1611.4,546.2,1580.6,561.6z
	 M1105.8,266.3c-11.6,0-17.4,5.8-17.4,17.4v208.4c0,11.6,5.8,17.4,17.4,17.4h272.1c100.3,0,150.5-40.5,150.5-121.6
	c0-81.1-50.2-121.6-150.5-121.6H1105.8z M1383.7,926.3c65.6,0,113.8-10.6,144.7-31.8c30.8-21.2,46.3-57.9,46.3-110
	c0-52.1-15.5-88.7-46.3-110c-30.9-21.2-79.2-31.8-144.7-31.8h-277.9c-11.6,0-17.4,5.8-17.4,17.4v249c0,11.6,5.8,17.4,17.4,17.4
	H1383.7z M2553.2,144.7c3.8-7.7,7.7-11.6,11.6-11.6h150.5c3.8,0,7.7,2,11.6,5.8c3.8,3.9,3.8,7.8,0,11.6l-480.5,903.2
	c-3.9,3.9-8.7,5.8-14.5,5.8c-5.8,0-10.7-1.9-14.5-5.8l-480.5-903.2c-3.9-3.8-4.9-7.7-2.9-11.6c1.9-3.8,6.7-5.8,14.5-5.8h144.7
	c7.7,0,13.5,3.9,17.4,11.6l306.8,579c0,3.9,3.8,5.8,11.6,5.8c7.7,0,13.5-1.9,17.4-5.8L2553.2,144.7z M2726.9,914.8
	c-3.9,7.8-9.7,11.6-17.4,11.6H2559c-3.9,0-6.8-1.9-8.7-5.8c-2-3.8-2.9-7.7-2.9-11.6L3028,5.8c3.8-3.8,9.6-5.8,17.4-5.8
	c7.7,0,13.5,2,17.4,5.8L3543.2,909c0,3.9-1,7.8-2.9,11.6c-2,3.9-4.9,5.8-8.7,5.8h-150.5c-7.8,0-13.6-3.8-17.4-11.6l-301.1-579
	c-3.9-7.7-9.7-11.6-17.4-11.6c-7.8,0-13.6,3.9-17.4,11.6L2726.9,914.8z"/>
</svg>
