<svg version="1.1" id="Layer_1" xmlns="http://www.w3.org/2000/svg" xmlns:xlink="http://www.w3.org/1999/xlink" x="0px"
	y="0px" style="enable-background:new 0 0 216 216;" xml:space="preserve" viewBox="0 82.8 216 50.5">
	<style type="text/css">
		.st0 {
			fill: #00355A;
		}

		.st1 {
			fill: #0590C8;
		}
	</style>
	<g>
		<g>
			<g>
				<path class="st0"
					d="M206.1,98.8c4.2,0.8,6.8,1,9.9,1.3v17.2c-0.7-0.3-1.5-0.5-2.1-0.7c-1.1-0.3-15.6-4.5-18.6-5.3 				C199.5,107,203.4,102.1,206.1,98.8 M204.5,132.4c1.4-5.7,2.5-8.2,3.3-9.3l0,0l2.5-1.2c-2.7,0.2-6,0.2-9.9,0.1 				c-6.6-0.2-11-1.2-13.2-2c0,0,2-2.1,4.2-5.1c-1.2,1.1-2.4,2.2-3.6,3.2c-7.7,6.1-15.5,10.5-22,12.9v2.3h38.5L204.5,132.4 				 M210,133.1h6v-9.9L210,133.1z">
				</path>
				<path class="st1"
					d="M209.2,82.9h6.8v12.7c-0.1,0-0.1-0.1-0.2-0.1c-2.2-1-4.2-1.7-6.9-2.5l-1.4,2.2c-4.6-0.6-12.8-8.7-16.6-10.1 				c-2.5-0.9-5.3-1.6-8.4-2.3h18c1,2,2.1,3.7,3.8,5c0.5,0.4,1.2,0.9,1.4,0.9c0.4,0.1,0.8,0,0.9-0.3l0,0L209.2,82.9 M178.5,111.4 				c4-2.9,7.3-3.3,7.3-3.3l0.8,1.1c0.5-0.8,1-1.9,1.3-3.2c0.8-3.9,1.4-10.2,2-15.1c-5,0.5-8.1-3.2-19.6-8h-4.5v40.3 				c1.3-0.9,2.6-2,4.6-4C172.1,117.6,175.1,113.9,178.5,111.4z">
				</path>
			</g>
			<g>
				<path class="st0"
					d="M65.1,99.5h4.1c4.2,0,7.5,2.6,7.5,6.9c0,4.7-2.9,7.1-7.5,7.1h-4.1V99.5z M67.1,111.8h2.1 				c3.5,0,5.4-1.7,5.4-5.3c0-3.3-2.2-5.2-5.1-5.2h-2.3L67.1,111.8L67.1,111.8z">
				</path>
				<path class="st0"
					d="M78.9,116.3c0.2,0.1,0.6,0.2,0.9,0.2c1.7,0,2.2-2.3,2.2-2.5s-0.2-0.7-0.4-1.1l-3.5-9.6h2.1l2.8,8.5l0,0 				l2.8-8.5h1.9L84,113.7c-0.7,2-1.4,4.2-3.9,4.2c-0.6,0-0.9-0.1-1.3-0.1L78.9,116.3z">
				</path>
				<path class="st0"
					d="M89.6,103.3h1.8v1.6l0,0c0.6-1.2,1.9-1.9,3.4-1.9c2.6,0,3.8,1.6,3.8,4.4v6.1h-1.9v-5.3 				c0-2.4-0.5-3.6-2.2-3.7c-2.1,0-3.1,1.7-3.1,4.2v4.7h-1.9L89.6,103.3L89.6,103.3z">
				</path>
				<path class="st0"
					d="M102,104c0.9-0.6,2.1-1,3.4-1c2.9,0,4.1,1.4,4.1,4.2v4.2c0,1.2,0,1.7,0.1,2h-1.8v-1.3l0,0 				c-0.4,0.6-1.4,1.6-3.2,1.6c-2.2,0-3.8-1-3.8-3.2c0-2.6,2.8-3.4,4.8-3.4c0.7,0,1.3,0,2,0c0-1.8-0.6-2.7-2.5-2.7 				c-1.1,0-2.2,0.4-3,1L102,104z M107.6,108.6c-0.4,0-0.8,0-1.2,0c-1,0-3.6,0.2-3.6,2c0,1.1,1,1.7,1.9,1.7c1.9,0,2.9-1.2,2.9-2.7 				C107.6,109.6,107.6,108.6,107.6,108.6z">
				</path>
				<path class="st0"
					d="M112.2,103.3h1.8v1.5l0,0c0.7-1.2,1.7-1.7,3.3-1.7c1.2,0,2.4,0.6,2.9,2c0.7-1.5,2.3-2,3.2-2 				c2.6,0,3.6,1.7,3.6,3.9v6.6h-1.9v-6.1c0-1.3-0.3-2.9-1.8-2.9c-1.9,0-2.7,1.9-2.7,3.8v5.2h-1.9v-6.1c0-1.3-0.3-2.9-1.8-2.9 				c-1.9,0-2.7,1.9-2.7,3.8v5.2h-1.9L112.2,103.3L112.2,103.3z">
				</path>
				<path class="st0" d="M131.8,101h-2.1v-2.1h2.1V101z M129.8,103.3h1.9v10.2h-1.9V103.3z"></path>
				<path class="st0"
					d="M141.4,105c-0.7-0.3-1.4-0.4-2-0.4c-2.1,0-3.3,1.9-3.3,3.8c0,1.8,1,3.8,3.4,3.8c0.6,0,1.4-0.2,2-0.6l0.1,1.7 				c-0.8,0.4-1.7,0.4-2.4,0.4c-3.1,0-5.2-2.4-5.2-5.4c0-3.1,2.1-5.4,5.2-5.4c0.8,0,1.7,0.2,2.3,0.4L141.4,105z">
				</path>
				<path class="st0"
					d="M143.8,111.5c0.7,0.5,1.8,0.7,2.4,0.7c0.9,0,1.9-0.4,1.9-1.5c0-1.9-4.4-1.7-4.4-4.6c0-2.1,1.6-3.2,3.6-3.2 				c0.9,0,1.6,0.2,2.3,0.4l-0.2,1.6c-0.4-0.3-1.5-0.5-2-0.5c-1,0-1.8,0.4-1.8,1.2c0,2.1,4.4,1.5,4.4,4.8c0,2.2-1.7,3.2-3.6,3.2 				c-1,0-1.9-0.1-2.8-0.6L143.8,111.5z">
				</path>
				<g>
					<path class="st1"
						d="M0,99.5h3.8c2.9,0,4.9,0.9,4.9,3.5c0,1.9-1.1,2.9-2.9,3.3l0,0c1.9,0.2,3.3,1.4,3.3,3.4c0,3-2.5,3.7-5.3,3.7 					H0V99.5z M2,105.5h1.1c1.9,0,3.6-0.2,3.6-2.2c0-1.7-1.4-2.1-2.6-2.1H2V105.5z M2,111.9h1.5c1.8,0,3.4-0.4,3.4-2.3 					c0-2.2-1.9-2.5-3.6-2.5H2V111.9z">
					</path>
					<path class="st1"
						d="M15.9,103c3.1,0,5.2,2.2,5.2,5.4c0,2.9-2.1,5.4-5.2,5.4s-5.2-2.4-5.2-5.4C10.7,105.3,12.8,103,15.9,103z 					 M15.9,112.2c2.2,0,3.2-2,3.2-3.8c0-1.9-1.2-3.8-3.2-3.8s-3.2,1.9-3.2,3.8C12.7,110.2,13.7,112.2,15.9,112.2z">
					</path>
					<path class="st1"
						d="M23,111.5c0.7,0.5,1.8,0.7,2.3,0.7c0.9,0,1.9-0.4,1.9-1.5c0-1.9-4.4-1.7-4.4-4.6c0-2.1,1.6-3.2,3.6-3.2 					c0.9,0,1.6,0.2,2.3,0.4l-0.2,1.6c-0.4-0.3-1.5-0.5-2-0.5c-1,0-1.8,0.4-1.8,1.2c0,2.1,4.4,1.5,4.4,4.8c0,2.2-1.7,3.2-3.6,3.2 					c-1,0-1.9-0.1-2.8-0.6L23,111.5z">
					</path>
					<path class="st1"
						d="M37.6,104.8h-2.7v5.6c0,1.2,0.7,1.8,1.6,1.8c0.6,0,1-0.2,1.3-0.4v1.6c-0.4,0.1-1,0.3-1.6,0.3 					c-1.9,0-3.2-0.9-3.2-3v-6h-2.3v-1.5H33v-2.4l1.9-0.6v3h2.7C37.6,103.2,37.6,104.8,37.6,104.8z">
					</path>
					<path class="st1"
						d="M44.5,103c3.1,0,5.2,2.2,5.2,5.4c0,2.9-2.1,5.4-5.2,5.4c-3.1,0-5.2-2.4-5.2-5.4 					C39.3,105.3,41.4,103,44.5,103z M44.5,112.2c2.2,0,3.2-2,3.2-3.8c0-1.9-1.2-3.8-3.2-3.8s-3.2,1.9-3.2,3.8 					C41.3,110.2,42.3,112.2,44.5,112.2z">
					</path>
					<path class="st1"
						d="M51.9,103.3h1.8v1.6l0,0c0.6-1.2,1.9-1.9,3.4-1.9c2.7,0,3.8,1.6,3.8,4.4v6.1H59v-5.3c0-2.4-0.5-3.6-2.2-3.7 					c-2.1,0-3.1,1.7-3.1,4.2v4.7h-1.9v-10.1H51.9z">
					</path>
				</g>
			</g>
		</g>
		<g>
			<g>
				<path class="st0"
					d="M151.6,100.5L151.6,100.5c0-1,0.8-1.8,1.8-1.8s1.8,0.8,1.8,1.8l0,0c0,1-0.8,1.8-1.8,1.8 				C152.4,102.3,151.6,101.5,151.6,100.5z M155,100.5L155,100.5c0-0.9-0.7-1.6-1.6-1.6c-0.9,0-1.6,0.7-1.6,1.6l0,0 				c0,0.9,0.7,1.6,1.6,1.6S155,101.4,155,100.5z M152.7,99.5h0.8c0.4,0,0.7,0.2,0.7,0.6l0,0c0,0.3-0.2,0.5-0.4,0.6l0.5,0.7h-0.4 				l-0.4-0.6h-0.4v0.6h-0.4L152.7,99.5L152.7,99.5z M153.5,100.4c0.2,0,0.4-0.1,0.4-0.3l0,0c0-0.2-0.1-0.3-0.4-0.3h-0.4v0.6 				C153.1,100.4,153.5,100.4,153.5,100.4z">
				</path>
				<path class="st0"
					d="M153.4,102.4c-1,0-1.9-0.9-1.9-1.9s0.9-1.9,1.9-1.9s1.9,0.9,1.9,1.9S154.4,102.4,153.4,102.4z M153.4,99 				c-0.8,0-1.5,0.7-1.5,1.5s0.7,1.5,1.5,1.5c0.8,0,1.5-0.7,1.5-1.5S154.2,99,153.4,99z M155.1,100.4c0,0,0,0.1,0,0.1s0,0.1,0,0.1 				c0,0,0-0.1,0-0.1S155.1,100.4,155.1,100.4z M151.7,100.4c0,0,0,0.1,0,0.1s0,0.1,0,0.1c0,0,0-0.1,0-0.1S151.7,100.4,151.7,100.4z 				 M154.5,101.5h-0.6l-0.4-0.6h-0.2v0.6h-0.6v-2.1h0.9c0.5,0,0.8,0.3,0.8,0.7c0,0.3-0.1,0.5-0.4,0.6L154.5,101.5z M154,101.3h0.2 				l-0.5-0.6l0.1-0.1c0.1-0.1,0.3-0.2,0.3-0.5c0-0.5-0.4-0.5-0.6-0.5h-0.7v1.7h0.2v-0.6h0.6L154,101.3z M153.5,100.5H153v-0.8h0.5 				c0.1,0,0.5,0,0.5,0.4C154,100.4,153.7,100.5,153.5,100.5z M153.2,100.3h0.3c0.1,0,0.3,0,0.3-0.2c0-0.1,0-0.2-0.3-0.2h-0.3V100.3z 				">
				</path>
			</g>
		</g>
	</g>
</svg>