<svg width="256" height="44" viewBox="0 0 256 44" fill="none" xmlns="http://www.w3.org/2000/svg">
  <path
    d="M79.3384 19.0964C80.1733 18.5173 80.8499 17.8078 81.3394 16.9971C81.9728 15.9691 82.2895 14.8254 82.2895 13.5803C82.2895 12.1035 81.944 10.7571 81.2674 9.56989C80.5908 8.3827 79.5975 7.3982 78.3163 6.63087C77.5534 6.18205 76.6033 5.84906 75.466 5.64637C74.3432 5.45816 72.8172 5.35681 70.917 5.35681H63.7913V35.0511H74.6167C77.3518 35.0511 79.6839 34.2258 81.5265 32.6188C83.3835 30.9972 84.3336 28.9559 84.3336 26.567C84.3336 24.6559 83.8442 23.0199 82.8653 21.7169C82.0448 20.5876 80.8499 19.7045 79.3384 19.0964ZM76.6033 16.7075C75.7395 17.4459 74.4871 17.8223 72.8604 17.8223H68.2827V9.3672H72.6157C74.4007 9.3672 75.7395 9.72915 76.6177 10.453C77.4814 11.1625 77.8989 12.2049 77.8989 13.6237C77.8701 14.9702 77.4526 15.9836 76.6033 16.7075ZM68.2683 21.9051H73.7242C75.7395 21.9051 77.2798 22.296 78.2875 23.0633C79.2808 23.8162 79.7559 24.902 79.7559 26.3788C79.7559 27.8845 79.2664 28.9848 78.2443 29.7377C77.2079 30.505 75.6388 30.8959 73.5802 30.8959H68.2827V21.9051H68.2683Z"
    fill="currentColor" />
  <path
    d="M114.42 9.56995H110.159V14.4201H106.762H103.624H102.098L96.829 27.233C96.7426 27.4502 96.5698 27.9135 96.3251 28.6519C96.1812 29.0862 96.0228 29.5929 95.8357 30.1431C95.6629 29.5495 95.519 29.0283 95.375 28.594C95.0727 27.6239 94.9575 27.3489 94.9144 27.233L89.732 14.4201H85.0103L93.4316 34.6747L89.804 43.3035H94.1514L105.15 18.1264H110.174V30.5485C110.174 32.3148 110.591 33.6033 111.412 34.3851C112.232 35.1525 113.585 35.5578 115.442 35.5578H117.774V31.4606H115.558C115.14 31.4606 114.852 31.3737 114.679 31.1855C114.507 30.9828 114.42 30.6353 114.42 30.1431V18.1409H117.774V14.4201H114.42V9.56995Z"
    fill="currentColor" />
  <path
    d="M130.313 13.9277C127.189 13.9277 124.627 14.9557 122.683 16.9681C120.74 18.9805 119.761 21.6445 119.761 24.8875C119.761 26.2629 119.991 27.5949 120.466 28.84C120.927 30.0996 121.618 31.2144 122.496 32.1699C123.489 33.2558 124.713 34.0955 126.095 34.6891C127.477 35.2682 129.003 35.5723 130.601 35.5723C132.53 35.5723 134.3 35.2103 135.841 34.4864C137.381 33.7625 138.821 32.6332 140.116 31.1131L140.361 30.8235L137.266 28.3188L137.036 28.5939C136.157 29.6073 135.179 30.3892 134.113 30.9104C133.062 31.4316 131.925 31.6922 130.702 31.6922C128.816 31.6922 127.232 31.1565 126.009 30.0851C124.871 29.1006 124.224 27.8555 124.051 26.3064H141.038V25.6693C141.038 22.1802 140.044 19.328 138.086 17.1997C136.1 15.0136 133.494 13.9277 130.313 13.9277ZM126.037 19.2846C127.203 18.2856 128.629 17.7789 130.27 17.7789C131.882 17.7789 133.278 18.2711 134.401 19.2556C135.423 20.1532 136.071 21.3115 136.345 22.7014H124.065C124.31 21.3404 124.972 20.1967 126.037 19.2846Z"
    fill="currentColor" />
  <path
    d="M164.617 9.13555C161.753 6.63087 157.52 5.35681 152.064 5.35681H145.73V35.0511H152.064C157.52 35.0511 161.753 33.777 164.617 31.2723C167.496 28.7532 168.965 25.0323 168.965 20.2112C168.965 15.39 167.496 11.6692 164.617 9.13555ZM152.626 30.9104H150.236V9.52646H152.626C156.541 9.52646 159.507 10.4241 161.479 12.2194C163.437 14.0001 164.416 16.6786 164.416 20.2257C164.416 23.7438 163.423 26.4367 161.479 28.2175C159.521 29.9983 156.541 30.9104 152.626 30.9104Z"
    fill="currentColor" />
  <path
    d="M188.269 17.026C187.477 16.1863 186.57 15.5058 185.563 14.9991C184.253 14.3476 182.799 14.0291 181.23 14.0291C178.12 14.0291 175.587 15.0136 173.686 16.9681C171.786 18.9226 170.836 21.5142 170.836 24.6703C170.836 26.1326 171.081 27.4935 171.556 28.7386C172.031 29.9838 172.765 31.1275 173.715 32.1265C174.709 33.1544 175.875 33.9507 177.156 34.5009C178.437 35.0366 179.805 35.3116 181.23 35.3116C182.828 35.3116 184.267 35.0076 185.505 34.3995C186.441 33.9362 187.29 33.2992 188.01 32.4884V35.0655H192.242V14.42H188.269V17.026ZM186.369 19.8058C187.578 21.0798 188.197 22.7303 188.197 24.7138C188.197 26.7117 187.578 28.3622 186.369 29.6363C185.16 30.8959 183.591 31.5329 181.705 31.5329C179.819 31.5329 178.25 30.8959 177.041 29.6363C175.831 28.3767 175.212 26.7262 175.212 24.7138C175.212 22.7158 175.831 21.0653 177.041 19.7913C178.25 18.5317 179.819 17.8947 181.705 17.8947C183.591 17.8947 185.16 18.5317 186.369 19.8058Z"
    fill="currentColor" />
  <path
    d="M205.27 14.0291C204.119 14.0291 203.025 14.2607 202.017 14.724C201.254 15.0715 200.505 15.5637 199.786 16.2007V14.42H195.582V35.051H199.786V23.6569C199.786 21.7024 200.203 20.2256 201.009 19.2701C201.801 18.329 203.039 17.8512 204.651 17.8512C206.076 17.8512 207.084 18.2711 207.732 19.1542C208.394 20.0519 208.74 21.5141 208.74 23.5121V35.0655H212.972V23.1646C212.972 20.3559 212.281 18.1263 210.913 16.5048C209.546 14.8688 207.645 14.0291 205.27 14.0291Z"
    fill="currentColor" />
  <path
    d="M229.944 29.6074C229.412 30.2879 228.778 30.8091 228.03 31.1421C227.281 31.4896 226.403 31.6633 225.41 31.6633C223.581 31.6633 222.127 31.0407 220.99 29.7522C219.853 28.4781 219.277 26.7842 219.277 24.7428C219.277 22.7014 219.867 21.0075 221.019 19.7045C222.171 18.4015 223.61 17.7645 225.424 17.7645C226.345 17.7645 227.18 17.9237 227.9 18.2278C228.605 18.5318 229.253 19.0096 229.815 19.6611L230.088 19.9796L232.838 16.7944L232.564 16.5483C231.6 15.6652 230.52 14.9992 229.34 14.5648C228.173 14.1305 226.849 13.9133 225.41 13.9133C223.898 13.9133 222.487 14.1739 221.22 14.6662C219.954 15.1729 218.816 15.9258 217.881 16.9103C216.873 17.9237 216.11 19.1109 215.606 20.4429C215.088 21.7604 214.829 23.2082 214.829 24.7428C214.829 26.2775 215.088 27.7253 215.606 29.0283C216.124 30.3458 216.887 31.533 217.881 32.5464C218.816 33.5165 219.954 34.2693 221.235 34.776C222.516 35.2828 223.912 35.5434 225.424 35.5434C226.878 35.5434 228.217 35.3117 229.397 34.8629C230.578 34.4141 231.7 33.6902 232.766 32.7057L233.039 32.4596L230.246 29.231L229.944 29.6074Z"
    fill="currentColor" />
  <path
    d="M256 25.6404C256 22.1512 255.007 19.2991 253.049 17.1708C251.077 15.0281 248.471 13.9277 245.275 13.9277C242.151 13.9277 239.589 14.9557 237.646 16.9681C235.702 18.9805 234.723 21.6445 234.723 24.8875C234.723 26.2629 234.954 27.5949 235.429 28.84C235.889 30.0996 236.58 31.2144 237.459 32.1699C238.452 33.2558 239.675 34.0955 241.057 34.6891C242.439 35.2682 243.965 35.5723 245.563 35.5723C247.492 35.5723 249.263 35.2103 250.803 34.4864C252.343 33.7625 253.783 32.6332 255.079 31.1131L255.323 30.8235L252.228 28.3188L251.998 28.5939C251.12 29.6073 250.127 30.3892 249.076 30.9104C248.025 31.4316 246.888 31.6922 245.664 31.6922C243.778 31.6922 242.195 31.1565 240.971 30.0851C239.834 29.0861 239.186 27.8555 239.013 26.3064H255.986V25.6404H256ZM241 19.2846C242.166 18.2856 243.591 17.7789 245.232 17.7789C246.844 17.7789 248.241 18.2711 249.364 19.2556C250.386 20.1532 251.033 21.3115 251.307 22.7014H239.028C239.287 21.3404 239.949 20.1967 241 19.2846Z"
    fill="currentColor" />
  <path d="M12.5576 34.7182L5 36.6582V2.02698L12.5576 3.9815V34.7182Z" fill="currentColor" />
  <path d="M49.0791 36.745L41.5071 38.6851V0L49.0791 1.95452V36.745Z" fill="currentColor" />
  <path d="M24.5491 35.7606L16.9915 37.7151V17.3157L24.5491 19.2702V35.7606Z" fill="currentColor" />
  <path d="M29.4868 14.3043L37.0589 12.3497V32.7492L29.4868 30.7946V14.3043Z" fill="currentColor" />
</svg>