<svg id="Layer_1" data-name="Layer 1" xmlns="http://www.w3.org/2000/svg" viewBox="0 0 196.01 196.9">
  <defs>
    <style>
      .cls-1 {
        fill: #44d62c;
      }
    </style>
  </defs>
  <path class="cls-1" d="M152.63,192.12h2.12v.42h-.82v2.51h-.47v-2.51h-.83Z" transform="translate(-1.43 -1.87)" />
  <path class="cls-1"
    d="M155.56,192.12h.82l.65,2.3.64-2.3h.82v2.93H158v-2.41H158l-.69,2.29h-.49l-.69-2.29H156v2.41h-.47Z"
    transform="translate(-1.43 -1.87)" />
  <path class="cls-1"
    d="M108.63,56.36c-.57,4.33-2.88,13.47-1.75,19,1.46,7.12,6.92,6.74,8.94,3.23a12.65,12.65,0,0,0,.86-8.82A25.39,25.39,0,0,0,108.63,56.36Zm4.87,20.35c-.68,1.53-2.73,1.53-3.48-1.87-.66-3,.29-8.81.59-11.36a21.86,21.86,0,0,1,3,7A10.57,10.57,0,0,1,113.5,76.71Z"
    transform="translate(-1.43 -1.87)" />
  <path class="cls-1"
    d="M106.86,90a12.64,12.64,0,0,0-8.07,3.66A25.49,25.49,0,0,0,91.2,107.3c4-1.67,13.11-4.25,17.33-8C114,94.49,110.9,90,106.86,90Zm-.34,6.89c-2.26,2.07-7.78,4.15-10.14,5.17a22,22,0,0,1,4.56-6.09,10.61,10.61,0,0,1,5.46-3C108.06,92.73,109.08,94.5,106.52,96.85Z"
    transform="translate(-1.43 -1.87)" />
  <path class="cls-1"
    d="M197,6.76a3.17,3.17,0,0,0-1-1,3.16,3.16,0,0,0-5.36-2.87L188.9,4.69,185.59,6a5.85,5.85,0,0,0-3.41-.12,2.42,2.42,0,0,1-1.41,0,8.16,8.16,0,0,0-4.62.29,7.55,7.55,0,0,0-2.91.52,7.16,7.16,0,0,0-3.37,2.75l-.3.38c-4.55,1.16-6.52,3.68-7.38,5.62a9.15,9.15,0,0,0-.58,1.84,15.79,15.79,0,0,0-2.67-1.61c-5.28-2.42-12.08-1.41-16.92,2.5-5.16,4.17-7.21,10.6-5.64,17.63a30.34,30.34,0,0,0,3.49,8.61c3.58,6.21,9,11.94,14.25,17.48,4.62,4.89,9,9.51,11.49,13.84.16.27.31.54.44.8,3.25,6.17,2.65,10.71-1.78,13.49a11.34,11.34,0,0,1-4.68,1.63c1.57-4.57,2.25-11-1.19-16.94A19.4,19.4,0,0,0,156,71.41c-6.48-7.1-13.36-5.52-16.09-3.69a3.15,3.15,0,0,0-1.2,3.72,3.51,3.51,0,0,0,.22.48A3.17,3.17,0,0,0,142,73.48c2.88-.35,6.06,1.56,7.9,4.76a9.91,9.91,0,0,1-.08,10.21,40.29,40.29,0,0,1-4.4-4.22l-.55-.59-.33-.35c-5.37-5.9-10.64-9.23-15.71-9.92a25.27,25.27,0,0,0-3.33-11.9,35.7,35.7,0,0,0-11.12-12.13A20.2,20.2,0,0,0,112.21,48C110.45,34.7,101.66,27.8,93.77,25.77a22.13,22.13,0,0,0-24.3,9.34c-.46.69-.91,1.42-1.34,2.17-4,6.92-6.29,15-8.51,22.77C57.73,66.68,56,72.94,53.29,78l-.48.86c-1.77,3.06-3.33,4.75-5,5.29a3.35,3.35,0,0,1-3.07-.52c-1.67-1.14-1.27-3.47.21-7.95A28.71,28.71,0,0,0,46,72a9.81,9.81,0,0,0-1.66-7.76,9,9,0,0,0-6.46-3.37c-2.54-.22-6.21.63-9.26,5.91-.26.46-.48.87-.65,1.21a7.68,7.68,0,0,0-5.25-5.09,8.42,8.42,0,0,0-4.34-1.62A2.84,2.84,0,0,1,17,60.83,5.78,5.78,0,0,0,13.44,60l-2.66-2.1L9.6,55.68a3.16,3.16,0,0,0-5.54-.13,3.32,3.32,0,0,0-.42,1.38,3.18,3.18,0,0,0-1.79,1.43,3.42,3.42,0,0,0-.4,1.19A3.16,3.16,0,0,0,3.84,63l2.48.61,2.8,2.2a6,6,0,0,0,1.6,3A2.44,2.44,0,0,1,11.44,70,8.29,8.29,0,0,0,14,73.91a7.66,7.66,0,0,0,1.9,2.25A7.17,7.17,0,0,0,20,77.71l.48.07c3.28,3.35,6.44,3.8,8.55,3.57a8.67,8.67,0,0,0,1.88-.42,16.43,16.43,0,0,0-.05,3.12c.54,5.78,4.81,11.17,10.63,13.41,6.18,2.38,12.78,1,18.08-3.93a30.26,30.26,0,0,0,5.71-7.33c3.58-6.2,5.84-13.77,8-21.08C75.2,58.67,77,52.57,79.51,48.25l.47-.78c3.73-5.9,8-7.65,12.58-5.2a11,11,0,0,1,3.75,3.23C91.57,46.43,85.68,49,82.24,55a19.1,19.1,0,0,0-1.66,3.78c-2.91,9.17,1.9,14.34,4.85,15.79a3.16,3.16,0,0,0,3.92-4.74c-1.75-2.31-1.68-6,.17-9.22a9.92,9.92,0,0,1,8.88-5A40.74,40.74,0,0,1,97,61.5c-.09.27-.17.53-.24.77s-.08.27-.14.46c-2.42,7.61-2.67,13.83-.74,18.57a25.41,25.41,0,0,0-8.64,8.83,35.85,35.85,0,0,0-4.94,15.7,22.13,22.13,0,0,0,0,2.53c-10.66,8.19-12.25,19.25-10,27.1a22.12,22.12,0,0,0,20.23,16.38c.83,0,1.69.07,2.55.07,8,0,16.11-2,24-4,6.69-1.68,13-3.26,18.69-3.47l1,0c3.54,0,5.79.51,7.08,1.67a3.36,3.36,0,0,1,1.09,2.92c-.16,2-2.38,2.83-7,3.79a26.87,26.87,0,0,0-3.7.95,9.78,9.78,0,0,0-5.89,5.31,8.93,8.93,0,0,0,.31,7.28c1.08,2.31,3.65,5.06,9.75,5.06.53,0,1,0,1.37,0a7.91,7.91,0,0,0-2,4.13,7.64,7.64,0,0,0,.17,3,8.33,8.33,0,0,0,.76,4.57,2.68,2.68,0,0,1,.33,1.43,5.83,5.83,0,0,0,1.09,3.45l-.49,3.36-1.37,2.15a3.16,3.16,0,0,0,2.66,4.86,3.13,3.13,0,0,0,1.4-.33,3.15,3.15,0,0,0,2.14.84,3.1,3.1,0,0,0,1.22-.25,3.16,3.16,0,0,0,1.81-3.8l-.72-2.45.51-3.53a5.88,5.88,0,0,0,1.81-2.89,2.48,2.48,0,0,1,.69-1.23,8.23,8.23,0,0,0,2.06-4.15,7.68,7.68,0,0,0,1-2.78,7.2,7.2,0,0,0-.7-4.29c-.06-.14-.13-.31-.18-.46,1.26-4.51.07-7.48-1.18-9.19a8.4,8.4,0,0,0-1.31-1.42,16,16,0,0,0,2.73-1.51c4.74-3.36,7.27-9.76,6.3-15.91-1-6.55-5.57-11.54-12.45-13.7a30.4,30.4,0,0,0-9.2-1.28c-7.16,0-14.84,1.83-22.26,3.6-6.55,1.56-12.74,3-17.73,3l-.91,0c-7-.28-10.6-3.07-10.79-8.29a11.17,11.17,0,0,1,.92-4.87c3.18,3.64,8.38,7.44,15.26,7.44a19.23,19.23,0,0,0,4.11-.45c9.39-2.07,11.46-8.81,11.25-12.09a3.16,3.16,0,0,0-6.06-1c-1.14,2.67-4.38,4.46-8.08,4.46a9.94,9.94,0,0,1-8.8-5.17,40.47,40.47,0,0,1,5.86-1.71l.78-.18.47-.1c7.8-1.71,13.31-4.61,16.45-8.65a25.33,25.33,0,0,0,12,3.06,35.73,35.73,0,0,0,16.07-3.56,23,23,0,0,0,2.22-1.23c12.42,5.15,22.79,1,28.49-4.84A22.11,22.11,0,0,0,182,73.63c-.37-.74-.78-1.5-1.21-2.24-4-6.92-9.82-12.94-15.46-18.76-4.8-5-9.33-9.62-12.35-14.44-.18-.28-.35-.57-.51-.84-1.77-3.07-2.45-5.27-2.09-7a3.36,3.36,0,0,1,2-2.4c1.82-.88,3.64.64,6.78,4.16a28.83,28.83,0,0,0,2.66,2.72,9.8,9.8,0,0,0,7.56,2.45,9,9,0,0,0,6.15-3.91c1.45-2.09,2.55-5.69-.5-11-.26-.46-.51-.85-.71-1.17a7.86,7.86,0,0,0,4.54-.38,7.62,7.62,0,0,0,2.49-1.63,8.3,8.3,0,0,0,3.57-2.94,2.79,2.79,0,0,1,1.08-1,5.84,5.84,0,0,0,2.45-2.66l3.14-1.26,2.55.12a3.16,3.16,0,0,0,3.27-2.7A3.11,3.11,0,0,0,197,6.76ZM191,8.2l-5.37,2.15a2.16,2.16,0,0,1-1.27,2.22c-2.58,1.51-1.62,2.65-4.78,4-.65.27-.1.54-2.09,1.46-1.39.64-3.47-.2-4.53,0s-3.52,1.52-1.67,4.43c.83,1.31,4,5.68,1.59,9.13-2.09,3-5.74,3.63-9.08.84-3-2.52-7.24-10-12.84-7.31-5.81,2.8-4.11,9.28-.69,14.74,7.23,11.52,22.17,21.83,28.88,35.18,8.23,16.37-9.07,35.52-30.07,25.53a18.9,18.9,0,0,1-3.26,2c-9,4.36-20.71,4.68-27.65-1.16-3.24,7.71-14.69,9.71-16.66,10.18a36,36,0,0,0-10,3.4c4,13.22,20.24,11.93,23.82,3.5,0,0,.45,6.78-8.77,8.8C96.92,129.43,90,122,87.91,117.8a14.65,14.65,0,0,0-4,10.57c.21,5.66,3.76,10.94,13.82,11.34,13.64.53,34.84-10,49.29-5.49,13,4.08,12.77,18.7,5.26,24-2.48,1.76-7.07,3-10.06,3.16-1.51.08-1.6.78-1.47,1.18s1,.56,2.29.43c4.79-.46,9.93,2.33,7.65,9.54-.36,1.13,1.28,3,1,4.5-.44,2.15-.82,1.68-.93,2.37-.58,3.39-2,2.69-2.78,5.57a2.12,2.12,0,0,1-1.67,1.73l-.83,5.78.91,3.11L144.84,193l-2.05,2.12,1.74-2.73.83-5.73a2.15,2.15,0,0,1-1.3-2.21c0-3-1.48-2.73-1.06-6.14.09-.69-.41-.35-.21-2.53.13-1.52,1.9-2.9,2.24-3.94s.44-3.8-3-3.66c-1.55.06-6.92.62-8.7-3.18-1.56-3.32-.27-6.79,3.81-8.29,3.68-1.35,12.28-1.26,12.75-7.46.48-6.44-6-8.2-12.42-8-13.59.5-30,8.29-44.91,7.42-18.28-1.06-26.23-25.61-7.07-38.81a18.54,18.54,0,0,1-.09-3.81c.73-10,6.3-20.28,14.83-23.37-5.06-6.66-1.07-17.58-.49-19.51a36.32,36.32,0,0,0,2-10.33c-13.45-3.15-20.45,11.57-15,18.88,0,0-6.09-3-3.23-12,3-9.5,12.87-11.76,17.59-11.48A14.63,14.63,0,0,0,94,39.48c-5-2.65-11.35-2.21-16.73,6.3C70,57.32,68.57,81,57.42,91.2c-10,9.22-22.58,1.72-23.44-7.45-.28-3,1-7.62,2.3-10.28.69-1.36.13-1.78-.28-1.87-.56-.13-1,.57-1.52,1.77-2,4.38-7,7.44-12.09,1.85-.8-.87-3.24-.4-4.38-1.41-1.65-1.46-1.05-1.55-1.59-2-2.64-2.2-1.35-3-3.43-5.19a2.11,2.11,0,0,1-.66-2.31l-4.6-3.61-3.14-.77,3,0L6.8,57.13,8.29,60l4.55,3.58a2.17,2.17,0,0,1,2.56,0c2.59,1.49,3.1.08,5.85,2.15.55.42.51-.19,2.3,1.08,1.25.88,1.56,3.1,2.28,3.91s3.08,2.29,4.68-.77c.72-1.37,2.92-6.3,7.1-5.94,3.66.31,6,3.16,5.27,7.44-.67,3.87-5,11.27.1,14.77,5.32,3.64,10.08-1.07,13.1-6.77,6.36-12,7.82-30.11,16-42.6,10.06-15.3,35.3-9.9,37.14,13.28A19,19,0,0,1,112.61,52c8.29,5.63,14.4,15.59,12.81,24.52,8.31-1,15.77,7.87,17.15,9.34a36,36,0,0,0,7.92,6.92c9.46-10.07.21-23.5-8.87-22.39,0,0,5.64-3.77,12,3.2,6.72,7.37,3.75,17,1.15,21A14.62,14.62,0,0,0,166,92.72c4.79-3,7.59-8.72,2.9-17.63C162.49,63,142.76,49.92,139.46,35.14c-3-13.29,9.8-20.41,18.17-16.56,2.76,1.26,6.12,4.62,7.76,7.13.83,1.27,1.47,1,1.76.69s0-1.13-.78-2.21c-2.79-3.91-2.94-9.76,4.45-11.39,1.15-.25,2-2.61,3.41-3.08,2.08-.71,1.86-.14,2.52-.39C180,8.14,180.06,9.69,183,9a2.12,2.12,0,0,1,2.33.59l5.42-2.18L193,5l-1.54,2.6,2.87.72Z"
    transform="translate(-1.43 -1.87)" />
  <path class="cls-1"
    d="M121.19,92a12.62,12.62,0,0,0,7.21,5.16A25.43,25.43,0,0,0,144,96.92c-3.46-2.66-10.23-9.23-15.57-11C121.56,83.61,119.16,88.53,121.19,92Zm8.13,2.14A10.59,10.59,0,0,1,124,91c-1-1.35,0-3.13,3.36-2.08,2.91.92,7.48,4.66,9.54,6.19A21.75,21.75,0,0,1,129.32,94.17Z"
    transform="translate(-1.43 -1.87)" />
</svg>