<svg version="1.1" xmlns="http://www.w3.org/2000/svg" xmlns:xlink="http://www.w3.org/1999/xlink" x="0px" y="0px"
	viewBox="0 0 777.6 244" style="enable-background:new 0 0 777.6 244;" xml:space="preserve">
	<style type="text/css">
		.st0 {
			fill: currentColor;
		}
	</style>
	<g id="Layer_2">
	</g>
	<g id="PennAS_x5F_Option1">
		<g>
			<g>
				<path class="st0" d="M65.5,49.5c0,1.5,1.8,2.1,2.4,2.2c0.1,0,0.1,0,0.2,0.1c2.9,0.3,7-0.1,10.6-3.8c0.2-0.2,0.6-0.3,0.9,0
				c0.2,0.2,0.3,0.6,0,0.9c-2.7,2.8-6.2,4.3-10,4.3c-0.4,0-0.8,0-1.2-0.1c0,0.1,0.1,0.2,0.1,0.3c0.1,0.3,0.3,0.6,0.5,0.8
				c0.4,0.5,0.9,0.9,1.5,1.1c0.4,0.2,0.9,0.2,1.5,0.2c4.1,0,7.4-2,10.1-3.9c1.6-1.1,3.6-3.2,4.2-4.7c0.2-0.4,0.2-0.8,0.3-1.3
				l-2.8-0.5c0,0-0.1,0-0.1,0c-0.3-0.1-0.5-0.3-0.5-0.6c-0.1-0.6,0.4-0.9,1.4-1.6c0.3-0.2,0.6-0.4,0.9-0.6c1.5-1.1,2.7-2,3.4-2.5
				c-0.8-0.9-1.5-1.9-2-2.7c-0.4-0.6-0.8-1.1-1.1-1.5c0,0,0,0-0.1-0.1c-1.4-1.5-3.9-2.4-5.9-1.2c-0.8,0.5-1.5,1.1-2.3,1.8
				c-0.6,0.5-1.2,1.1-1.9,1.6c-0.3,0.2-0.6,0.1-0.8-0.1c-0.2-0.3-0.2-0.6,0-0.9c0.1-0.1,0.2-0.2,0.3-0.3c0.9-0.9,3.1-2.9,3.1-4.3
				c0-3.3-3.2-8.8-4.3-10.6c-2.2,2.1-3.9,5.2-5.2,7.9c-1.1,2.2-1.9,4.2-2.4,6.2l-0.1,0.2c-0.4,1.4-1.2,4.4-0.1,5.6
				c0.1,0.2,0.3,0.3,0.5,0.4c0.2,0.1,0.4,0.3,0.6,0.5c2.2,2.1,0.7,3.8-0.4,5.1C66.2,48.1,65.5,48.9,65.5,49.5z M71.7,42.9
				c-0.3-1.3,1-1.9,2-1.9c0.7,0,1.4,0.2,2,0.7c0.2,0.2,0.4,0.4,0.6,0.5c0.5,0.4,0.4,1.2-0.1,1.6c-0.5,0.4-1.1,0.8-1.4,1
				c-0.8,0.6-2.2,1.6-3.2,0.8C71.2,45.2,72.1,44.6,71.7,42.9z"></path>
				<path class="st0" d="M41.3,44.8c0.6,0.2,1.2,0.4,1.9,0.6C45,46,46.9,46,48.8,46c1.2,0,2.4,0,3.4,0.2V20.4
				c-0.7-0.1-1.3-0.3-1.9-0.5c-0.7-0.3-1.4-0.7-2-1.1c-1.3-0.8-2.6-1.6-4.6-1.6c-1.6,0-3.2,0.6-4.6,1.2c-1,0.4-1.8,0.7-2.6,0.9v24.4
				c0,0,0.1,0,0.1,0C37.7,43.7,39.4,44.2,41.3,44.8z"></path>
				<path class="st0" d="M88.9,21c4.1-0.2,10,0.5,15.1,4.4c3.1,2.4,5.7,5.4,8.2,8.3c0.7,0.8,1.3,1.5,2,2.3c2,2.3,3.9,4.3,5.9,6
				c0.4-1.1,0.4-2.1,0-2.9c-0.6-1.3-2.2-1.7-2.2-1.7c-0.2,0-0.3-0.1-0.4-0.3c-0.1-0.1-0.1-0.3,0-0.5c0.2-0.6,0.7-2.3,0.4-3.2
				c-0.3-0.7-1.7-1.1-2.1-1.1c-0.2,0-0.4-0.1-0.4-0.3c-0.1-0.2-0.1-0.4,0-0.5c0.2-0.5,0.6-1.9,0.1-2.6c-0.9-1.4-3.4-0.7-3.4-0.7
				c-0.2,0.1-0.4,0-0.6-0.2c-0.2-0.2-0.2-0.4-0.1-0.6c0,0,0.7-2.2-0.7-3.6c-1.6-1.6-5.1-0.7-5.1-0.7c-0.2,0.1-0.4,0-0.6-0.2
				c-0.2-0.2-0.2-0.4-0.1-0.6c0-0.1,0.6-1.9-0.6-2.7c-2-1.2-4.2,0.3-4.2,0.4c-0.2,0.1-0.4,0.1-0.6,0.1c-0.2-0.1-0.3-0.3-0.3-0.5
				c0-0.1-0.3-2.5-2.4-2.8c-2.3-0.3-4.7,2-4.7,2.1c-0.1,0.1-0.3,0.2-0.5,0.2c-0.2,0-0.3-0.1-0.4-0.2c0,0-1.6-2.1-3.7-2
				c-2,0.1-2.7,2.1-2.7,2.1c-0.1,0.2-0.2,0.3-0.4,0.4c-0.2,0-0.4,0-0.5-0.2c0,0-2-1.9-3.9-1.1c-2.3,0.9-3.1,3.6-3.4,4.7
				c0.2,0.4,0.5,0.8,0.7,1.3C81.6,21.3,88.2,21,88.9,21z"></path>
				<path class="st0" d="M136.3,48.1c-3.4,2.8-8.4,1.6-11.6-0.7c-3.7-2.7-7.5-6.2-11.4-10.6c-0.7-0.8-1.4-1.6-2-2.3
				c-2.5-2.9-5-5.8-8-8.1c-4.7-3.7-10.4-4.3-14.2-4.1c-2.6,0.1-7.9,0.8-11.5,3c1.1,2.3,2.1,4.9,2.1,6.9c0,0.4-0.1,0.7-0.2,1.1
				c2.3-1.4,5.1-0.6,6.8,0.9c0.8-1.2,1.8-2.1,2.9-2.3c1.1-0.3,2.3,0,3.4,0.7c2.2,1.5,2.7,1.5,4.8,0.3c1.3-0.7,2.9-0.6,4.2,0.3
				c1.3,0.8,2.1,2.2,2.2,3.8c1.1-0.1,3.1-0.2,4.4,0.9c1.3,1.1,1.5,2.8,1.5,3.8c1-0.2,2.6-0.3,3.7,1c0.9,1,1,2.3,1,3.3
				c0,0.3,0,0.8,0.1,0.9c0.1,0.1,0.3,0.1,0.5,0.2c1.1,0.3,3.4,1.1,3,4.3c0,0.3-0.3,0.5-0.6,0.5c0,0,0,0-0.1,0
				c-0.3,0-0.6-0.3-0.5-0.7c0.3-2.3-1.1-2.7-2.2-3c-0.3-0.1-0.6-0.2-0.8-0.3c-0.6-0.4-0.6-1.1-0.7-1.9c0-0.8-0.1-1.8-0.7-2.5
				c-1.1-1.2-3.3-0.4-3.3-0.4c-0.2,0.1-0.4,0-0.6-0.1c-0.2-0.1-0.2-0.3-0.2-0.5c0,0,0.3-2.4-1-3.6c-1.2-1-3.4-0.8-4.1-0.6
				c-0.2,0-0.4,0-0.5-0.1c-0.1-0.1-0.2-0.3-0.2-0.5c0.1-1.5-0.5-2.7-1.6-3.5c-1-0.6-2.1-0.7-3-0.2c-2.5,1.3-3.4,1.4-6-0.4
				c-0.8-0.6-1.6-0.8-2.4-0.6c-0.9,0.2-1.7,1-2.3,2.1c0.3,0.4,0.6,0.9,1,1.4c0.7,1,1.4,2.2,2.4,3.1c0.1,0.1,0.2,0.3,0.2,0.5
				c0,0.2-0.1,0.4-0.3,0.5c0,0-1.6,1.2-4,2.9c-0.3,0.2-0.6,0.5-0.9,0.7c-0.1,0-0.1,0.1-0.2,0.1l2,0.3c1.4-0.8,2.9-1.1,4.5-1.1
				c5,0,10.6,3.1,15,5.5c0.8,0.5,1.6,0.9,2.4,1.3c7.5,3.9,14.9,7.3,22.9,5.9c0.1,0,6.4-1.3,9.6-6.4c2-3.1,2.3-7.1,1.1-11.7
				c-0.1-0.5-0.3-1-0.4-1.4c-1.3-4.8-2.1-7.6,0.3-13.6c-2.7-0.2-4.4,0.7-5.3,1.6c-1.8,1.6-2.6,4.4-2.5,8.4c0,0.3-0.2,0.6-0.6,0.6
				c-2.5,0.3-4.5,1.4-5.5,3.1c-1,1.6-1,3.7-0.2,6.3c1.2-1.7,3.3-3.9,5.9-3.3c1.6,0.4,2.9,1.6,3.3,3.4
				C138.3,44.8,137.7,46.9,136.3,48.1z"></path>
				<path class="st0" d="M165.9,45.4c0.6-0.2,1.3-0.4,1.9-0.6c1.9-0.6,3.6-1.1,4.8-1.2c0,0,0.1,0,0.1,0V19.2
				c-0.8-0.1-1.7-0.5-2.7-0.9c-1.4-0.6-3-1.2-4.6-1.2c-2,0-3.3,0.8-4.6,1.6c-0.6,0.4-1.3,0.8-2,1.1c-0.6,0.2-1.2,0.4-1.9,0.5v25.7
				c1.1-0.2,2.2-0.2,3.4-0.2C162.2,46,164.1,46,165.9,45.4z"></path>
				<path class="st0"
					d="M150.4,46.4c0.1,0.2,0.4,0.4,0.7,0.6c0.6,0.4,1.2,1,1.2,2v2.7h21.1h0h21.1V49c0-1,0.7-1.6,1.2-2
				c0.3-0.2,0.5-0.4,0.7-0.6c0.1-0.2,0.2-0.5,0.2-0.7l0,0l0,0c0-0.3-0.1-0.5-0.2-0.7c-0.1-0.2-0.4-0.4-0.7-0.6c-0.6-0.4-1.2-1-1.2-2
				V30.2c0-1,0.7-1.6,1.2-2c0.3-0.2,0.5-0.4,0.7-0.6c0.1-0.2,0.2-0.5,0.2-0.7l0,0l0,0c0-0.3-0.1-0.5-0.2-0.7
				c-0.1-0.2-0.4-0.4-0.7-0.6c-0.6-0.4-1.2-1-1.2-2v-2.8c0,0-0.1,0-0.1,0c-1.1,0-2.2,0-3.2-0.1v27.9h0h-15.3
				c-0.3,1.1-1.3,1.9-2.5,1.9s-2.2-0.8-2.5-1.9h-15.3V20.6c-1,0.1-2.1,0.1-3.2,0.1c0,0-0.1,0-0.1,0v2.8c0,1-0.7,1.6-1.2,2
				c-0.3,0.2-0.5,0.4-0.7,0.6c-0.1,0.2-0.2,0.5-0.2,0.7l0,0l0,0c0,0.3,0.1,0.5,0.2,0.7c0.1,0.2,0.4,0.4,0.7,0.6c0.6,0.4,1.2,1,1.2,2
				v12.1c0,1-0.7,1.6-1.2,2c-0.3,0.2-0.5,0.4-0.7,0.6c-0.1,0.2-0.2,0.5-0.2,0.7l0,0l0,0C150.1,45.9,150.2,46.2,150.4,46.4z"></path>
				<path class="st0" d="M28.3,45.4c0.6-0.2,1.3-0.4,1.9-0.6c1.9-0.6,3.6-1.1,4.8-1.2c0,0,0.1,0,0.1,0V19.2c-0.8-0.1-1.7-0.5-2.7-0.9
				c-1.4-0.6-3-1.2-4.6-1.2c-2,0-3.3,0.8-4.6,1.6c-0.6,0.4-1.3,0.8-2,1.1c-0.6,0.2-1.2,0.4-1.9,0.5v25.7c1.1-0.2,2.2-0.2,3.4-0.2
				C24.5,46,26.4,46,28.3,45.4z"></path>
				<path class="st0" d="M178.9,44.8c0.6,0.2,1.2,0.4,1.9,0.6c1.8,0.6,3.8,0.6,5.6,0.6c1.2,0,2.4,0,3.4,0.2V20.4
				c-0.7-0.1-1.3-0.3-1.9-0.5c-0.7-0.3-1.4-0.7-2-1.1c-1.3-0.8-2.6-1.6-4.6-1.6c-1.6,0-3.2,0.6-4.6,1.2c-1,0.4-1.8,0.7-2.6,0.9v24.4
				c0,0,0.1,0,0.1,0C175.3,43.7,177,44.2,178.9,44.8z"></path>
				<circle class="st0" cx="104.5" cy="107.2" r="17.2"></circle>
				<path class="st0" d="M12.7,46.4c0.1,0.2,0.4,0.4,0.7,0.6c0.6,0.4,1.2,1,1.2,2v2.7h21.1h0h21.1V49c0-1,0.7-1.6,1.2-2
				c0.3-0.2,0.5-0.4,0.7-0.6c0.1-0.2,0.2-0.5,0.2-0.7l0,0l0,0c0-0.3-0.1-0.5-0.2-0.7c-0.1-0.2-0.4-0.4-0.7-0.6c-0.6-0.4-1.2-1-1.2-2
				V30.2c0-1,0.7-1.6,1.2-2c0.3-0.2,0.5-0.4,0.7-0.6c0.1-0.2,0.2-0.5,0.2-0.7l0,0l0,0c0-0.3-0.1-0.5-0.2-0.7
				c-0.1-0.2-0.4-0.4-0.7-0.6c-0.6-0.4-1.2-1-1.2-2v-2.8c0,0-0.1,0-0.1,0c-1.1,0-2.2,0-3.2-0.1v27.9h0H38.2
				c-0.3,1.1-1.3,1.9-2.5,1.9c-1.2,0-2.2-0.8-2.5-1.9H17.9V20.6c-1,0.1-2.1,0.1-3.2,0.1c0,0-0.1,0-0.1,0v2.8c0,1-0.7,1.6-1.2,2
				c-0.3,0.2-0.5,0.4-0.7,0.6c-0.1,0.2-0.2,0.5-0.2,0.7l0,0l0,0c0,0.3,0.1,0.5,0.2,0.7c0.1,0.2,0.4,0.4,0.7,0.6c0.6,0.4,1.2,1,1.2,2
				v12.1c0,1-0.7,1.6-1.2,2c-0.3,0.2-0.5,0.4-0.7,0.6c-0.1,0.2-0.2,0.5-0.2,0.7l0,0l0,0C12.5,45.9,12.6,46.2,12.7,46.4z">
				</path>
				<path class="st0" d="M202.3,67.2H6.8c0,19.6,0,36.5,0,37.1c-0.1,18.6,4.4,35,11.1,49.2l86.6-83.6l86.6,83.6
				c6.7-14.1,11.2-30.6,11.1-49.2C202.3,103.7,202.3,86.8,202.3,67.2z"></path>
				<path class="st0" d="M209.1,0H0c0,0,0,103.7,0,104.2c-0.1,45.4,25,78.2,46.1,97.8c23.2,21.5,48.8,33.9,57.4,35.8l1,0.2l1-0.2
				c8.5-1.9,34.1-14.3,57.4-35.8c21.1-19.6,46.3-52.4,46.1-97.8C209.1,102.9,209.1,0,209.1,0z M205.1,104.2
				c0.1,43.9-24.3,75.8-44.8,94.9c-22.4,20.8-47.6,33.1-55.5,34.8l-0.2,0l-0.2,0c-7.9-1.7-33.1-14.1-55.5-34.8
				c-20.5-19-45-50.9-44.8-94.9C4,102.9,4,4,4,4h201.1C205.1,4,205.1,102.9,205.1,104.2z"></path>
				<circle class="st0" cx="151.3" cy="149.9" r="17.2"></circle>
				<circle class="st0" cx="57.7" cy="149.9" r="17.2"></circle>
				<path class="st0" d="M49,195.4c0.6,0.5,1.1,1.1,1.7,1.6c23.3,21.6,47.4,32.4,53.8,34.1c6.5-1.6,30.6-12.5,53.8-34.1
				c0.6-0.5,1.1-1.1,1.7-1.6l-55.5-59L49,195.4z"></path>
			</g>
			<g>
				<g>
					<g>
						<path class="st0" d="M238.2,223.1c0,5.5,1.5,9.7,7.3,9.7c5.4,0,8.2-3.6,8.2-9.9V212c0-0.8-0.2-1.5-0.2-2.1
						c-0.2-1.4-1.5-2-3.4-2.1v-1h9.3v1c-1.9,0.2-3.2,0.7-3.4,2.1c-0.1,0.6-0.2,1.3-0.2,2.1v11.1c0,8.4-5.4,11.6-10.4,11.6
						c-8.3,0-10.9-4.2-10.9-11.3v-11.7c0-3.6,0.2-3.5-3.4-3.9v-1h10.5v1c-3.5,0.4-3.4,0.2-3.4,3.9V223.1L238.2,223.1z">
						</path>
						<path class="st0" d="M281.5,234.2c-4.8-5.7-9.8-11.6-14.7-17.5v13.4c0,0.6,0.1,1.1,0.2,1.6c0.2,1.1,1.2,1.5,3.2,1.7v0.8h-7.4
						v-0.8c1.5-0.1,2.4-0.6,2.6-1.7c0.1-0.5,0.2-1,0.2-1.6v-14.2c-0.9-1.1-1.8-2.1-3.5-2.1V213h5.5c4.5,5.5,9.2,11,13.7,16.5h0.1
						v-12.4c0-0.6-0.1-1.2-0.2-1.6c-0.2-1.1-1.2-1.5-3.2-1.7V213h7.4v0.8c-1.4,0.2-2.5,0.6-2.6,1.7c-0.1,0.5-0.2,1-0.2,1.6v17.1
						H281.5L281.5,234.2z"></path>
						<path class="st0" d="M296.5,230.4c0,2.8-0.1,2.7,2.6,3v0.8h-8.1v-0.8c2.7-0.3,2.6-0.2,2.6-3v-13.6c0-2.8,0.1-2.7-2.6-3V213h8.1
						v0.8c-2.7,0.3-2.6,0.2-2.6,3V230.4L296.5,230.4z"></path>
						<path class="st0" d="M312.2,213.8c-1.7,0-2.9,0.5-1.9,3.4c1.2,3.6,2.9,8.8,4.5,13.4c1.9-4.6,3.8-9.3,5.7-13.9
						c0.8-1.9,0-2.8-2.1-2.8V213h6.5v0.8c-0.9,0-1.9,0.3-2.5,1.8c-2.5,6.2-5.1,12.4-7.6,18.6h-1.5c-1.8-5.2-3.9-11.1-5.8-16.2
						c-1.1-3.2-2-4.2-3.5-4.2V213h8.2V213.8L312.2,213.8z"></path>
						<path class="st0" d="M329.6,233.4c2.7-0.3,2.6-0.2,2.6-3v-13.6c0-2.8,0.1-2.7-2.6-3V213h13.5v4.9h-0.8
						c-0.3-2.3-0.9-3.9-3.1-3.9h-4.1v8.6h2.5c1.9,0,2.7-0.8,2.8-2.6h0.8v6.4h-0.8c-0.1-1.8-0.8-2.8-2.8-2.8h-2.5v6.8
						c0,2.6,1.2,2.8,3.9,2.8c4.4,0,4.2-1.2,5.6-4.5h0.8l-0.9,5.4h-14.9V233.4L329.6,233.4z"></path>
						<path class="st0" d="M350.6,213h8.8c3.1,0,6.1,1.6,6.1,5.1c0,3.1-1.9,5.3-4.2,6.2l3,4.5c1.5,2.2,3.2,4.3,4.3,5v0.4h-3.1
						c-1.8,0-2.8-3.3-6.4-9.4h-2.8v5.6c0,2.8-0.1,2.7,2.6,3v0.8h-8.1v-0.8c2.7-0.3,2.6-0.2,2.6-3v-13.6c0-2.8,0.1-2.7-2.6-3V213
						L350.6,213z M356.1,223.9h2.5c2.6,0,3.8-2,3.8-5.4c0-3.3-1.8-4.4-4-4.4h-2.3V223.9L356.1,223.9z"></path>
						<path class="st0" d="M383.8,217.5c-0.2-2.1-1.4-3.8-3.8-3.8c-1.8,0-3.3,0.9-3.3,3.1c0,2.1,2.1,3.4,5.1,5.7
						c3.2,2.4,4.2,3.9,4.2,6.4c0,3.6-3.7,5.6-7.3,5.6c-1.9,0-3.6-0.4-5.2-1c-0.1-0.1-0.2-0.2-0.2-0.4v-4.4h0.8
						c0.3,3.4,2.5,4.7,4.9,4.7c2.1,0,3.9-1.6,3.9-3.8c0-2-1.1-3.6-5.6-6.6c-1.6-1.1-3.7-2.3-3.7-5.6c0-2.7,3-4.9,6.5-4.9
						c1.3,0,3,0.1,4.2,0.6c0.2,0.1,0.2,0.2,0.2,0.3v4H383.8L383.8,217.5z"></path>
						<path class="st0" d="M397.9,230.4c0,2.8-0.1,2.7,2.6,3v0.8h-8.1v-0.8c2.7-0.3,2.6-0.2,2.6-3v-13.6c0-2.8,0.1-2.7-2.6-3V213h8.1
						v0.8c-2.7,0.3-2.6,0.2-2.6,3V230.4L397.9,230.4z"></path>
						<path class="st0" d="M415.9,230.4c0,2.8-0.1,2.7,2.6,3v0.8h-8.1v-0.8c2.7-0.3,2.6-0.2,2.6-3V214h-2.7c-2.6,0-3.2,1.7-4.2,3.7
						h-0.8l0.8-4.6h16.7l0.8,4.6h-0.8c-1-2-1.6-3.7-4.2-3.7h-2.7V230.4L415.9,230.4z"></path>
						<path class="st0" d="M432.4,233.4c2.7-0.3,2.6-0.2,2.6-3v-4.7l-4.7-9.2c-1-2-1.8-2.7-3.2-2.7V213h7.7v0.8
						c-2.3,0-2.1,1.1-1.3,2.7l3.7,7.6l4.2-7.6c1-1.8,0.1-2.7-1.7-2.7V213h6.2v0.8c-0.8,0-1.7,0.4-2.5,1.8l-5.1,9.2
						c-0.3,0.6-0.4,1.5-0.4,2.2v3.4c0,2.8-0.1,2.7,2.6,3v0.8h-8.1V233.4L432.4,233.4z"></path>
						<path class="st0" d="M461.3,227c0-5.1,4.4-12.8,11-12.8c5.2,0,6.4,3.5,6.4,7.1c0,4.3-3.5,13.5-10.9,13.5
						C462.7,234.7,461.3,230.6,461.3,227L461.3,227z M475,219.3c0-4.1-2.5-4.2-3.1-4.2c-4.2,0-7,7.6-7,12.7c0,2,0.4,5.7,3.2,5.7
						C472.6,233.5,475,226.1,475,219.3L475,219.3z"></path>
						<path class="st0" d="M496.9,215.4l-0.9,0.8h-5.1c-1.9,9.3-5.1,21.8-7.3,27.7h-1.8l5.6-27.7h-3.7l0.4-1.6h3.7
						c2.1-8.3,9-9.2,10.6-9.2c0.9,0,2.8,0.2,3.4,0.7l-0.5,2.6l-1,0.5c-0.5-1.1-1.8-2.3-3.4-2.3c-2.4,0-4.1,1.6-5.1,5.8l-0.4,1.9h5.8
						L496.9,215.4L496.9,215.4z"></path>
						<path class="st0" d="M520.4,229.3c0,3.6-0.2,3.4,3.4,3.9v1h-10.5v-1c3.5-0.4,3.4-0.2,3.4-3.9v-17.6c0-3.6,0.2-3.5-3.4-3.9v-1
						h10.3c6.5,0,9.7,2.6,9.7,7.3c0,5.6-5.1,8.7-11.1,8.3v-0.8c4.9,0.1,7.2-2.9,7.2-7.2c0-4.4-2.1-6.4-6.5-6.4h-2.4V229.3
						L520.4,229.3z"></path>
						<path class="st0" d="M538.7,233.4c2.7-0.3,2.6-0.2,2.6-3v-13.6c0-2.8,0.1-2.7-2.6-3V213h13.5v4.9h-0.8
						c-0.3-2.3-0.9-3.9-3.1-3.9h-4.1v8.6h2.5c1.9,0,2.7-0.8,2.8-2.6h0.8v6.4h-0.8c-0.1-1.8-0.8-2.8-2.8-2.8h-2.5v6.8
						c0,2.6,1.2,2.8,3.9,2.8c4.4,0,4.2-1.2,5.6-4.5h0.8l-0.9,5.4h-14.9V233.4L538.7,233.4z"></path>
						<path class="st0" d="M578,234.2c-4.8-5.7-9.8-11.6-14.7-17.5v13.4c0,0.6,0.1,1.1,0.2,1.6c0.2,1.1,1.2,1.5,3.2,1.7v0.8h-7.4
						v-0.8c1.5-0.1,2.4-0.6,2.6-1.7c0.1-0.5,0.2-1,0.2-1.6v-14.2c-0.8-1.1-1.8-2.1-3.5-2.1V213h5.5c4.5,5.5,9.2,11,13.7,16.5h0.1
						v-12.4c0-0.6-0.1-1.2-0.2-1.6c-0.2-1.1-1.2-1.5-3.2-1.7V213h7.4v0.8c-1.4,0.2-2.5,0.6-2.6,1.7c-0.1,0.5-0.2,1-0.2,1.6v17.1H578
						L578,234.2z"></path>
						<path class="st0" d="M605.6,234.2c-4.8-5.7-9.8-11.6-14.7-17.5v13.4c0,0.6,0.1,1.1,0.2,1.6c0.2,1.1,1.2,1.5,3.2,1.7v0.8h-7.4
						v-0.8c1.5-0.1,2.4-0.6,2.6-1.7c0.1-0.5,0.2-1,0.2-1.6v-14.2c-0.8-1.1-1.8-2.1-3.5-2.1V213h5.5c4.5,5.5,9.2,11,13.7,16.5h0.1
						v-12.4c0-0.6-0.1-1.2-0.2-1.6c-0.2-1.1-1.2-1.5-3.2-1.7V213h7.4v0.8c-1.4,0.2-2.5,0.6-2.6,1.7c-0.1,0.5-0.2,1-0.2,1.6v17.1
						H605.6L605.6,234.2z"></path>
						<path class="st0" d="M625.3,217.5c-0.2-2.1-1.4-3.8-3.8-3.8c-1.7,0-3.3,0.9-3.3,3.1c0,2.1,2.1,3.4,5.1,5.7
						c3.2,2.4,4.2,3.9,4.2,6.4c0,3.6-3.7,5.6-7.3,5.6c-1.9,0-3.6-0.4-5.2-1c-0.1-0.1-0.2-0.2-0.2-0.4v-4.4h0.8
						c0.3,3.4,2.5,4.7,4.9,4.7c2.1,0,3.9-1.6,3.9-3.8c0-2-1.1-3.6-5.6-6.6c-1.6-1.1-3.7-2.3-3.7-5.6c0-2.7,3-4.9,6.5-4.9
						c1.3,0,3,0.1,4.2,0.6c0.2,0.1,0.2,0.2,0.2,0.3v4H625.3L625.3,217.5z"></path>
						<path class="st0" d="M637.5,233.4c2.7-0.3,2.6-0.2,2.6-3v-4.7l-4.7-9.2c-1-2-1.8-2.7-3.2-2.7V213h7.7v0.8
						c-2.3,0-2.1,1.1-1.3,2.7l3.7,7.6l4.2-7.6c1-1.8,0.1-2.7-1.7-2.7V213h6.2v0.8c-0.8,0-1.7,0.4-2.5,1.8l-5,9.2
						c-0.3,0.6-0.4,1.5-0.4,2.2v3.4c0,2.8-0.1,2.7,2.6,3v0.8h-8.1V233.4L637.5,233.4z"></path>
						<path class="st0" d="M656.1,233.4c2.7-0.3,2.6-0.2,2.6-3v-13.6c0-2.8,0.1-2.7-2.6-3V213h8.1v0.8c-2.7,0.3-2.6,0.2-2.6,3v14.1
						c0,2.1,1.2,2.3,3.9,2.3c4.4,0,4.2-1.2,5.6-4.5h0.8l-0.9,5.4h-14.9V233.4L656.1,233.4z"></path>
						<path class="st0" d="M680.7,213.8c-1.7,0-2.9,0.5-1.9,3.4c1.2,3.6,2.9,8.8,4.5,13.4c1.9-4.6,3.8-9.3,5.6-13.9
						c0.8-1.9,0-2.8-2.1-2.8V213h6.5v0.8c-0.9,0-1.9,0.3-2.5,1.8c-2.5,6.2-5.1,12.4-7.7,18.6h-1.5c-1.8-5.2-3.9-11.1-5.8-16.2
						c-1.1-3.2-2.1-4.2-3.5-4.2V213h8.2V213.8L680.7,213.8z"></path>
						<path class="st0" d="M699,227.2l-1.4,4c-0.4,1.2,0.2,2.2,1.5,2.2v0.8h-5.5v-0.8c0.8,0,1.7-0.5,2.2-1.5
						c1.3-2.7,4.8-12.5,7.4-19.2h1.7c2.1,6.1,5.1,15.4,6.2,18.1c0.7,1.7,1.2,2.7,2.4,2.7v0.8h-7v-0.8c1.9,0,2.1-1,1.6-2.3l-1.3-3.9
						H699L699,227.2z M706.3,226l-3.2-9.8H703l-3.6,9.8H706.3L706.3,226z"></path>
						<path class="st0" d="M736.2,234.2c-4.8-5.7-9.8-11.6-14.7-17.5v13.4c0,0.6,0.1,1.1,0.2,1.6c0.1,1.1,1.2,1.5,3.2,1.7v0.8h-7.4
						v-0.8c1.5-0.1,2.5-0.6,2.6-1.7c0.1-0.5,0.2-1,0.2-1.6v-14.2c-0.8-1.1-1.8-2.1-3.5-2.1V213h5.5c4.5,5.5,9.2,11,13.7,16.5h0.1
						v-12.4c0-0.6-0.1-1.2-0.2-1.6c-0.2-1.1-1.2-1.5-3.2-1.7V213h7.4v0.8c-1.4,0.2-2.4,0.6-2.6,1.7c-0.1,0.5-0.2,1-0.2,1.6v17.1
						H736.2L736.2,234.2z"></path>
						<path class="st0" d="M750.5,230.4c0,2.8-0.1,2.7,2.6,3v0.8H745v-0.8c2.7-0.3,2.6-0.2,2.6-3v-13.6c0-2.8,0.1-2.7-2.6-3V213h8.1
						v0.8c-2.7,0.3-2.6,0.2-2.6,3V230.4L750.5,230.4z"></path>
						<path class="st0" d="M763.2,227.2l-1.4,4c-0.4,1.2,0.2,2.2,1.5,2.2v0.8h-5.5v-0.8c0.8,0,1.7-0.5,2.2-1.5
						c1.3-2.7,4.8-12.5,7.4-19.2h1.7c2.1,6.1,5.1,15.4,6.2,18.1c0.7,1.7,1.1,2.7,2.4,2.7v0.8h-7v-0.8c1.9,0,2.1-1,1.6-2.3l-1.3-3.9
						H763.2L763.2,227.2z M770.5,226l-3.2-9.8h-0.1l-3.6,9.8H770.5L770.5,226z"></path>
					</g>
					<rect x="231" y="189.7" class="st0" width="546.6" height="3"></rect>
					<g>
						<path class="st0" d="M266.6,151.8h-19.3l-4.1,12c-2,5.8-3,10.3,3.2,10.4v1.8H231v-1.8c5.6-0.8,7-3.9,8.9-9.4l16.5-49.3h6.2
						l17.3,51.5c1.8,5.5,3.2,7.2,8.6,7.2v1.8h-21.1v-1.8c4.1,0,6.1-1.8,4.7-5.8L266.6,151.8z M257,122.8h-0.2l-8.4,25.4h16.8
						L257,122.8z"></path>
						<path class="st0"
							d="M305.2,169c0,4.1,1.3,5.2,6.2,5.2v1.8h-19.5v-1.8c5.6,0,6.3-1.5,6.3-7.1V147c0-5.4-1.4-6.1-7.6-6.1v-1.8
						l12.9-1.1h1.8v8c6.9-5.9,10.1-8,12.6-8c2.1,0,4.9,1.3,6.8,2.9l-2.8,6.6c-3-1.7-6.3-3.2-8.8-3.2c-2.4,0-4.5,1.3-7.8,4.5V169z"></path>
						<path class="st0" d="M342.7,139h12.8v2.7h-12.8v23.8c0,5.1,2.6,7.7,6.7,7.7c2.7,0,4.7-1,6.9-3.5l1.2,1.4
						c-3.2,4.1-7,6.2-11.2,6.2c-6.3,0-10.6-4.4-10.6-10.7v-24.7h-7v-1.8c5-2.5,9.2-7,12.3-13.4h1.8V139z"></path>
						<path class="st0" d="M382.4,149.4c-0.7-6.2-4.8-9.3-9.2-9.3c-3.7,0-6.2,2-6.2,5c0,9.4,19.4,6.9,19.4,20.7
						c0,6.2-5.3,11.4-11.7,11.4c-4.1,0-7.6-2.7-9.4-2.7c-1.4,0-2.3,1.2-2.4,2.5h-1.8v-12.6h1.8c1.6,7.7,7.3,10.7,11.9,10.7
						c3.7,0,6.5-2.7,6.5-6.4c0-10.3-19.6-7.5-19.6-20c0-5.7,5.1-10.6,11.3-10.6c3.9,0,5,1.8,7.5,1.8c0.9,0,1.7-0.5,2.2-1.8h1.8v11.4
						H382.4z"></path>
						<path class="st0" d="M404,157.3c0-9.5,6.3-14.9,9.7-16.3c-2.2-2.8-3.1-5.9-3.1-9.5c0-5.9,4.8-11.4,12.5-11.4
						c4.6,0,8.1,2.4,8.1,6.3c0,3.4-2.9,5.2-3.9,5.2c-0.3,0-0.4-0.6-0.2-1.4c0.7-3.3-2.2-5.4-5-5.4c-4.5,0-8,3.7-8,9.1
						c0,2.2,0.8,4.5,2.1,6.3c0.7-0.2,1.7-0.4,2.9-0.4c1.5,0,4.2,0.7,4.2,1.9c0,1.9-1.1,3.7-2.4,3.7s-4-1-4.7-1.6
						c-1.1-0.9-1.4-1-2.5-0.4c-2.8,1.8-4.8,5.9-4.8,10.7c0,9.8,9,17.6,24.4,17.6c15.3,0,23.3-9.5,23.3-17c0-6.3-5.1-12.4-12.4-12.4
						c-6.6,0-7.8,5.7-7.8,7.3c0,3.6,1.9,5.7,2.7,5.7c0.4,0,0.8-0.5,0.8-1.2c0-1,1-3.2,3.6-3.2c2.4,0,3.9,1.7,3.9,4
						c0,1.4-1.3,3.9-5.1,3.9c-3.3,0-8.8-3.1-8.8-9.8c0-5.3,4-11.3,12.8-11.3c3.2,0,7.4,0.6,8.9,0.6c9,0,13.3-2.5,13.3-7
						c0-2.9-2.5-5.6-4.7-5.6c-1.1,0-1.1,1-0.9,1.7c0.2,1-0.7,3.3-3.4,3.3c-2.7,0-3.6-1.8-3.6-2.9c0-3.3,3.3-4.9,6.3-4.9
						c5.7,0,9.6,4.1,9.6,8.3c0,7.4-5.2,11-13.6,12.1c-1.9,0.2-2.1,0.8-1.2,2.1c1.1,1.6,3,4.8,3,10.3c0,13.5-12.5,21.6-26.9,21.6
						C409.8,177.8,404,165.4,404,157.3z"></path>
						<path class="st0" d="M519.7,129.4h-1.8c-0.9-8.9-7.2-12.3-13.3-12.3c-6.3,0-10.8,3.5-10.8,9c0,11.1,15.2,14,23.8,22.5
						c4.2,4.2,5.2,7.9,5.2,11.9c0,9.4-7.6,17-17,17c-6.4,0-11.7-3.1-13.7-3.1c-1,0-1.8,0.7-2.3,2.3h-1.8v-16.2h1.8
						c0.1,11.1,9.2,14.7,14.4,14.7c7.2,0,12-4.2,12-10.6c0-10.3-16.1-15.1-22.8-21.8c-3.7-3.7-5.1-7.8-5.1-12.5
						c0-9.2,6.6-15.5,16.3-15.5c6.4,0,9.4,2.3,11.7,2.3c0.9,0,1.1-0.2,1.6-1.7h1.7V129.4z"></path>
						<path class="st0" d="M561.2,151.1h-1.8c-1.6-6.7-6.3-11-12.4-11c-7.3,0-12.4,6.3-12.4,15.3c0,10.1,6.4,18.6,13.9,18.6
						c4.5,0,9.9-2.4,13.8-7.7v2.7c-4,5.4-9.6,8.1-16.3,8.1c-11,0-18.6-7.6-18.6-18.7c0-11.4,8.6-20.5,19.1-20.5
						c5.5,0,8.6,2.1,10.4,2.1c0.9,0,1.9-0.7,2.5-2.1h1.8V151.1z"></path>
						<path class="st0" d="M580.6,169.1c0,3.7,0.9,5.1,6.2,5.1v1.8h-20.3v-1.8c5.6,0,7-0.7,7-5.1v-22.7c0-5.1-1.6-5.5-7-5.5v-1.8
						l12.3-1.1h1.8V169.1z M581.7,123.4c0,2.5-2,4.6-4.5,4.6c-2.5,0-4.6-2.1-4.6-4.6c0-2.5,2.1-4.5,4.6-4.5
						C579.7,118.9,581.7,120.9,581.7,123.4z"></path>
						<path class="st0" d="M596.3,153.5c-0.2,16.6,9.7,20.8,14.7,20.8c5.1,0,7.7-1.8,13.1-7.7v2.7c-4.5,5.7-8.8,7.9-15.2,7.9
						c-11.6,0-19.9-8-19.9-19.2c0-11.2,8.1-19.9,18.6-19.9c8.6,0,16.5,6.9,16,15.4H596.3z M616.4,151.7c0.3-8.1-5.2-11.5-9.9-11.5
						c-6.2,0-9.8,4.6-10.2,11.5H616.4z"></path>
						<path class="st0" d="M665.3,168c0,4.8,1,6.3,6.3,6.3v1.8h-19.7v-1.8c5,0,6.4-1.2,6.4-4.6v-19.3c0-5.9-4.3-8.5-8.2-8.5
						c-3.7,0-6.9,2.3-10.5,7.2v18.1c0,5.6,0.7,7.1,6.3,7.1v1.8h-19.5v-1.8c4.9,0,6.2-0.4,6.2-7.1v-20.8c0-4.5-1.1-5.4-6.2-5.4v-1.8
						l11.5-1.1h1.8v7.4c4.4-5,8.7-7.4,13.4-7.4c6.2,0,12.5,4.4,12.5,13.3V168z"></path>
						<path class="st0" d="M706.5,151.1h-1.8c-1.6-6.7-6.3-11-12.4-11c-7.3,0-12.4,6.3-12.4,15.3c0,10.1,6.4,18.6,13.9,18.6
						c4.5,0,9.9-2.4,13.8-7.7v2.7c-4,5.4-9.6,8.1-16.3,8.1c-11,0-18.6-7.6-18.6-18.7c0-11.4,8.6-20.5,19.1-20.5
						c5.5,0,8.6,2.1,10.4,2.1c0.9,0,1.9-0.7,2.5-2.1h1.8V151.1z"></path>
						<path class="st0" d="M719.5,153.5c-0.2,16.6,9.7,20.8,14.7,20.8c5.1,0,7.7-1.8,13-7.7v2.7c-4.5,5.7-8.8,7.9-15.2,7.9
						c-11.6,0-19.9-8-19.9-19.2c0-11.2,8.1-19.9,18.6-19.9c8.6,0,16.5,6.9,16,15.4H719.5z M739.6,151.7c0.3-8.1-5.2-11.5-9.9-11.5
						c-6.2,0-9.8,4.6-10.2,11.5H739.6z"></path>
						<path class="st0" d="M773.5,149.4c-0.7-6.2-4.8-9.3-9.2-9.3c-3.7,0-6.2,2-6.2,5c0,9.4,19.4,6.9,19.4,20.7
						c0,6.2-5.3,11.4-11.7,11.4c-4.1,0-7.6-2.7-9.4-2.7c-1.4,0-2.3,1.2-2.4,2.5h-1.8v-12.6h1.8c1.6,7.7,7.3,10.7,11.9,10.7
						c3.7,0,6.5-2.7,6.5-6.4c0-10.3-19.6-7.5-19.6-20c0-5.7,5.1-10.6,11.3-10.6c3.9,0,5,1.8,7.5,1.8c0.9,0,1.7-0.5,2.2-1.8h1.8v11.4
						H773.5z"></path>
					</g>
				</g>
				<path class="st0" d="M255,51.4c4.4,1.5,7,1.7,12.1,1.7c14.5,0,23.6-7.8,23.6-21.1c0-10.4-5.8-24.3-23.6-24.3H255V51.4L255,51.4z
				 M255,83c0,12.1,2.9,15.5,11.1,15.5v2.9h-35v-2.9c6.8,0,11.1-2.2,11.1-15.1v-61c0-11.9-2.9-15.5-11.1-15.5V4h35.5
				c26.9,0,37.7,14.3,37.7,27.7c0,16.2-12.2,25.2-34.3,25.2c-4.3,0-7.8-0.2-15-1V83L255,83z"></path>
				<path class="st0" d="M339.3,61.8c0.5-13.3-8.5-18.7-16.2-18.7c-10,0-16,7.5-16.7,18.7H339.3L339.3,61.8z M306.5,64.7
				c-0.3,27,15.8,33.8,24,33.8c8.3,0,12.6-2.9,21.3-12.6v4.4c-7.3,9.4-14.3,12.9-24.8,12.9c-18.9,0-32.5-13.1-32.5-31.3
				c0-18.2,13.3-32.5,30.3-32.5c13.9,0,26.9,11.2,26,25.2H306.5L306.5,64.7z"></path>
				<path class="st0" d="M416,88.3c0,7.8,1.7,10.2,10.2,10.2v2.9H394v-2.9c8.2,0,10.4-1.9,10.4-7.5V59.6c0-9.7-7-13.8-13.4-13.8
				c-5.9,0-11.2,3.7-17.2,11.7V87c0,9.2,1.2,11.6,10.2,11.6v2.9h-31.8v-2.9c8,0,10-0.7,10-11.6V53.1c0-7.3-1.9-8.8-10-8.8v-2.9
				l18.7-1.9h2.9v12.1c7.1-8.2,14.1-12.1,21.8-12.1c10,0,20.4,7.1,20.4,21.6V88.3L416,88.3z"></path>
				<path class="st0" d="M489.6,88.3c0,7.8,1.7,10.2,10.2,10.2v2.9h-32.1v-2.9c8.2,0,10.4-1.9,10.4-7.5V59.6c0-9.7-7-13.8-13.4-13.8
				c-6,0-11.2,3.7-17.2,11.7V87c0,9.2,1.2,11.6,10.2,11.6v2.9h-31.8v-2.9c8,0,10-0.7,10-11.6V53.1c0-7.3-1.9-8.8-10-8.8v-2.9
				l18.7-1.9h2.9v12.1c7.1-8.2,14.1-12.1,21.8-12.1c10,0,20.4,7.1,20.4,21.6V88.3L489.6,88.3z"></path>
			</g>
		</g>
	</g>
</svg>