<svg fill="none" xmlns="http://www.w3.org/2000/svg" viewBox="0.2 1 91 24">
  <path
    d="M11.6 1C5.29995 1 0.199951 6.1 0.199951 12.3C0.199951 18.1 4.49995 22.9 10.2 23.6V22C8.29995 21.7 6.49995 21.1 5.19995 19.4H11.6H18C16.8 21.1 14.9 21.7 13 22V23.6C18.6 22.9 23 18.1 23 12.3C23 6.1 17.9 1 11.6 1ZM5.29995 9.2C5.79995 8.7 9.59995 5 10.2 4.3C11.8 2.7 11.5 1.4 11.5 1.4C13.3 2.8 12.7 4.3 11.7 5.2C10.9 6 8.09995 8.8 6.69995 10.1C4.59995 12.1 4.89995 13.8 5.29995 15.2C3.79995 13.7 3.09995 11.5 5.29995 9.2ZM7.99995 10C8.59995 9.5 11.5 6.5 12.6 5.5C14.7 3.4 14.6 2.6 14.7 2.2C16.2 3.7 15.3 5.3 14.5 6.1C13.8 6.8 10.5 10.2 9.09995 11.4C8.79995 11.7 6.49995 13.8 6.69995 15.7C5.39995 14.1 5.69995 12.1 7.99995 10ZM9.29995 12.4C9.89995 11.9 13.4 8.4 14 7.7C16.2 5.6 16.1 5 16.1 5C17 7.2 15.8 8.5 15 9.2C14.2 10 12 12.1 10.8 13.4C7.69995 16.4 8.79995 18.9 8.79995 18.9C6.79995 17.4 7.29995 14.4 9.29995 12.4ZM17.6 14C16.8 14.7 17.1 14.4 15.9 15.6C13.9 17.6 13.9 18.9 13.9 18.9C12.8 17.7 13.5 15.6 14.7 14.5C15.2 14 16.0999 13.1 16.7999 12.5C18.0999 11.2 18.5999 10.8 18.7999 10.4C19.1999 12.4 18.1 13.4 17.6 14ZM17.6 10.3C16.8 11.1 15.3 12.5 14.1 13.8C11.2 16.5 11.2 18.2 11.3 19C9.19995 16.5 10.9 14.6 11.9 13.6C12.4 13.1 15.5 10.1 16.2 9.4C18.7 7 18.7 6.3 18.7 6.3C19.7 8.4 18.4 9.5 17.6 10.3Z"
    fill="#212121"></path>
  <path
    d="M36.7999 10.2C36.0999 11.2 35.1999 11.4 34.6999 11.4C33.1999 11.4 32.2999 10.2 32.2999 8.9C32.2999 8 32.5999 7.3 33.0999 6.8C33.6999 6.3 34.3999 6 34.9999 6C36.0999 6 36.8999 6.9 36.8999 7.9C36.8999 8.1 36.7999 8.3 36.5999 8.3C36.3999 8.3 34.8999 8.4 33.6999 8.5C33.6999 9.9 34.4999 10.6 35.3999 10.6C35.8999 10.6 36.2999 10.4 36.7999 10.2ZM33.6999 7.9C34.1999 7.9 34.7999 7.9 35.2999 7.9C35.4999 7.9 35.5999 7.9 35.5999 7.7C35.5999 7.1 35.2999 6.5 34.7999 6.5C34.1999 6.4 33.7999 7 33.6999 7.9Z"
    fill="#212121"></path>
  <path
    d="M42 10.2C41.5 10.9 40.7 11.5 40 11.5C38.4 11.5 37.5 10.3 37.5 9C37.5 8.1 37.9 7.3 38.7 6.7C39.4 6.2 40.2 6 40.6 6C41 6 41.4 6.1 41.6 6.3C41.8 6.4 41.8 6.5 41.8 6.7C41.8 7 41.5 7.3 41.3 7.3C41.2 7.3 41.2 7.3 41.1 7.2C40.7 6.8 40.3 6.6 39.9 6.6C39.3 6.6 38.7 7.1 38.7 8.4C38.7 10 39.8 10.5 40.4 10.5C40.9 10.5 41.3 10.4 41.7 10L42 10.2Z"
    fill="#212121"></path>
  <path
    d="M45.7 11.3V11C46.3 10.9 46.2999 10.9 46.2999 9.99999V7.99999C46.2999 7.19999 45.9 6.79999 45.4 6.79999C45 6.79999 44.7 6.99999 44.4 7.29999V10.1C44.4 10.9 44.5 10.9 45 11V11.4H42.2V11C43 10.9 43 10.9 43 10.1V7.59999C43 6.89999 42.8999 6.79999 42.2999 6.69999V6.39999C42.8999 6.29999 43.5999 6.19999 44.2999 5.89999V6.79999C44.4999 6.59999 44.7999 6.39999 45.0999 6.29999C45.3999 6.09999 45.6999 5.99999 46.0999 5.99999C47.0999 5.99999 47.5999 6.69999 47.5999 7.89999V10.2C47.5999 11 47.6999 11 48.2999 11.1V11.5H45.7V11.3Z"
    fill="#212121"></path>
  <path
    d="M54.3 8.6C54.3 10.5 52.9 11.5 51.6 11.5C49.8 11.5 48.9 10.2 48.9 8.9C48.9 7 50.4 6 51.7 6C53.2 6 54.3 7.2 54.3 8.6ZM50.4 8.4C50.4 9.9 50.9 11 51.8 11C52.4 11 52.9 10.6 52.9 8.9C52.9 7.4 52.4 6.4 51.6 6.4C50.9 6.4 50.4 7.1 50.4 8.4Z"
    fill="#212121"></path>
  <path
    d="M54.6 11.3V11C55.3 10.9 55.4 10.8 55.4 10.1V4.6C55.4 3.8 55.3 3.8 54.6 3.7V3.4C55.3 3.3 56.1 3.2 56.7 3V10.1C56.7 10.9 56.8 11 57.5 11V11.4L54.6 11.3Z"
    fill="#212121"></path>
  <path
    d="M63.4 8.6C63.4 10.5 62 11.5 60.7 11.5C58.9 11.5 58 10.2 58 8.9C58 6.9 59.5 6 60.8 6C62.3 6 63.4 7.2 63.4 8.6ZM59.5 8.4C59.5 9.9 60 11 60.9 11C61.5 11 62 10.6 62 8.9C62 7.4 61.5 6.4 60.7 6.4C60 6.4 59.5 7.1 59.5 8.4ZM60.3 5.4C60.5 4.9 60.9 3.7 61 3.5C61.1 3.4 62 3.3 62.2 3.4L62.3 3.5L60.8 5.6L60.3 5.4Z"
    fill="#212121"></path>
  <path
    d="M69.5 6.19999C69.4 6.39999 69.2 6.79999 69 6.89999H68.3C68.5 7.09999 68.6 7.49999 68.6 7.89999C68.6 9.19999 67.5 9.79999 66.4 9.79999C66.2 9.79999 66 9.79999 65.8 9.69999C65.7 9.79999 65.6 9.89999 65.6 10.1C65.6 10.3 65.8 10.6 66.4 10.5C66.8 10.5 67.2 10.5 67.6 10.5C68.3 10.5 69.4 10.7 69.4 11.9C69.4 13.2 67.9 14.3 66.3 14.3C64.8 14.3 64.1 13.5 64.1 12.9C64.1 12.6 64.2 12.4 64.4 12.2C64.7 12 65 11.7 65.3 11.5C64.8 11.3 64.6 11.1 64.4 10.8C64.3 10.6 64.2 10.4 64.2 10.2C64.8 9.99999 65.2 9.69999 65.4 9.39999C64.7 9.19999 64.3 8.59999 64.3 7.79999C64.3 6.49999 65.5 5.79999 66.5 5.79999C67 5.79999 67.3 5.89999 67.7 6.09999C68.3 6.29999 68.9 6.19999 69.5 6.19999ZM65.5 11.8C65.3 12 65.1 12.2 65.1 12.5C65.1 13.1 65.7 13.6 66.6 13.6C67.6 13.6 68.1 13.1 68.1 12.4C68.1 12 67.8 11.7 67.5 11.6C67.2 11.5 66.9 11.5 66.4 11.5C66 11.5 65.7 11.6 65.5 11.8ZM65.6 7.69999C65.6 8.59999 65.9 9.19999 66.5 9.19999C67 9.19999 67.3 8.69999 67.3 7.79999C67.3 6.99999 67 6.29999 66.4 6.29999C66 6.39999 65.6 6.89999 65.6 7.69999Z"
    fill="#212121"></path>
  <path
    d="M69.7 11.3V11C70.4 10.9 70.5 10.9 70.5 10V7.60001C70.5 6.80001 70.4 6.80001 69.8 6.70001V6.40001C70.5 6.30001 71.2 6.20001 71.8 6.00001V10C71.8 10.8 71.9 10.9 72.6 11V11.4L69.7 11.3ZM70.3 4.40001C70.3 4.00001 70.6 3.60001 71.1 3.60001C71.5 3.60001 71.8 3.90001 71.8 4.40001C71.8 4.80001 71.5 5.10001 71 5.10001C70.7 5.10001 70.3 4.80001 70.3 4.40001Z"
    fill="#212121"></path>
  <path
    d="M77.6 10.2C77.1 10.9 76.3 11.5 75.6 11.5C74 11.5 73 10.3 73 9C73 8.1 73.4 7.3 74.2 6.7C74.9 6.2 75.7 6 76.2 6C76.6 6 77 6.1 77.2 6.3C77.4 6.4 77.4 6.5 77.4 6.7C77.4 7 77.1 7.3 76.9 7.3C76.8 7.3 76.8 7.3 76.7 7.2C76.3 6.8 75.9 6.6 75.5 6.6C74.9 6.6 74.3 7.1 74.3 8.4C74.3 10 75.4 10.5 76 10.5C76.5 10.5 76.9 10.4 77.3 10L77.6 10.2Z"
    fill="#212121"></path>
  <path
    d="M83.3 8.6C83.3 10.5 81.9 11.5 80.6 11.5C78.8 11.5 77.9 10.2 77.9 8.9C77.9 7 79.4 6 80.7 6C82.3 6 83.3 7.2 83.3 8.6ZM79.4 8.4C79.4 9.9 79.9 11 80.8 11C81.4 11 81.9 10.6 81.9 8.9C81.9 7.4 81.4 6.4 80.6 6.4C79.9 6.4 79.4 7.1 79.4 8.4Z"
    fill="#212121"></path>
  <path
    d="M32.6 21.7C32.3 21.7 31.3 21.9 30.4 22.2V21.5L29.7 22C29.3 22.2 29.1 22.3 29 22.3C28 22.3 26.6 21.5 26.6 19.7C26.6 18.1 28 16.8 29.8 16.8C29.9 16.8 30.1 16.8 30.4 16.9V15.4C30.4 14.7 30.3 14.7 29.6 14.6V14.3C30.3 14.2 31.2 14.1 31.8 13.9V20.8C31.8 21.5 31.9 21.5 32.3 21.6H32.6V21.7ZM30.4 17.7C30.2 17.3 29.8 17.1 29.4 17.1C29 17.1 28.1 17.5 28.1 19.2C28.1 20.6 29 21.2 29.6 21.2C29.9 21.2 30.2 21.1 30.4 20.9V17.7Z"
    fill="#212121"></path>
  <path
    d="M37.6 20.9C36.9 21.9 36 22.1 35.5 22.1C34 22.1 33.1 20.9 33.1 19.6C33.1 18.7 33.4 18 33.9 17.5C34.4 17 35.1 16.6 35.7 16.6C36.8 16.6 37.6 17.5 37.6 18.5C37.6 18.7 37.5 18.9 37.3 18.9C37.1 18.9 35.6 19 34.4 19.1C34.4 20.5 35.2 21.2 36.1 21.2C36.6 21.2 37 21 37.4 20.7L37.6 20.9ZM34.4 18.6C34.9 18.6 35.5 18.6 36 18.6C36.2 18.6 36.3 18.6 36.3 18.4C36.3 17.8 36 17.2 35.5 17.2C35 17.1 34.5 17.7 34.4 18.6Z"
    fill="#212121"></path>
  <path
    d="M47.2999 22V21.6C48.1999 21.5 48.2999 21.4 48.2999 20.3V15.6H48.1999L45.4999 21.9H45.1999L42.6999 15.7L42.4999 19C42.4999 20 42.4999 20.5 42.4999 20.9C42.4999 21.4 42.7999 21.5 43.5999 21.6V22H40.7999V21.6C41.4999 21.5 41.6999 21.4 41.7999 20.9C41.8999 20.5 41.9999 19.9 41.9999 18.7L42.1999 16.3C42.2999 14.9 42.1999 14.7 41.1999 14.6V14.2H43.4999L45.8999 19.7L48.3999 14.2H50.6999V14.6C49.6999 14.7 49.6999 14.8 49.6999 15.8L49.7999 20.2C49.7999 21.4 49.8999 21.4 50.7999 21.5V22H47.2999Z"
    fill="#212121"></path>
  <path
    d="M56.5 19.3C56.5 21.2 55.1 22.2 53.8 22.2C52 22.2 51.1 20.9 51.1 19.6C51.1 17.7 52.6 16.7 53.9 16.7C55.5 16.7 56.5 17.9 56.5 19.3ZM52.6 19.1C52.6 20.6 53.1 21.7 54 21.7C54.6 21.7 55.1 21.3 55.1 19.6C55.1 18.1 54.6 17.1 53.8 17.1C53.1 17.1 52.6 17.8 52.6 19.1Z"
    fill="#212121"></path>
  <path
    d="M60.2999 22V21.6C60.8999 21.5 60.8999 21.5 60.8999 20.6V18.6C60.8999 17.8 60.4999 17.4 59.9999 17.4C59.5999 17.4 59.2999 17.6 58.9999 17.9V20.7C58.9999 21.5 59.0999 21.5 59.5999 21.6V22H56.7999V21.6C57.5999 21.5 57.5999 21.5 57.5999 20.7V18.2C57.5999 17.5 57.4999 17.4 56.8999 17.3V17C57.4999 16.9 58.1999 16.8 58.8999 16.5V17.4C59.0999 17.2 59.3999 17 59.6999 16.9C59.9999 16.7 60.2999 16.6 60.6999 16.6C61.6999 16.6 62.1999 17.3 62.1999 18.5V20.8C62.1999 21.6 62.2999 21.6 62.8999 21.7V22H60.2999Z"
    fill="#212121"></path>
  <path
    d="M65.7 22C65.5 22.1 65.3 22.1 65.2 22.1C64.3 22.1 63.8 21.7 63.8 20.6V17.2H63L63.3 16.8H63.8V15.9L64.9 15L65.1 15.1V16.8H66.3C66.4 16.9 66.4 17.2 66.2 17.3H65V20.3C65 21.2 65.4 21.4 65.7 21.4C65.9 21.4 66.2 21.3 66.4 21.2L66.5 21.6L65.7 22Z"
    fill="#212121"></path>
  <path
    d="M71.2999 20.9C70.5999 21.9 69.6999 22.1 69.1999 22.1C67.6999 22.1 66.7999 20.9 66.7999 19.6C66.7999 18.7 67.0999 18 67.5999 17.5C68.0999 17 68.7999 16.6 69.3999 16.6C70.4999 16.6 71.2999 17.5 71.2999 18.5C71.2999 18.7 71.1999 18.9 70.9999 18.9C70.7999 18.9 69.2999 19 68.0999 19.1C68.0999 20.5 68.8999 21.2 69.7999 21.2C70.2999 21.2 70.6999 21 71.0999 20.7L71.2999 20.9ZM68.1999 18.6C68.6999 18.6 69.2999 18.6 69.7999 18.6C69.9999 18.6 70.0999 18.6 70.0999 18.4C70.0999 17.8 69.7999 17.2 69.2999 17.2C68.6999 17.1 68.2999 17.7 68.1999 18.6Z"
    fill="#212121"></path>
  <path
    d="M73.7999 17.9C74.1999 17.2 74.6999 16.6 75.1999 16.6C75.6999 16.6 75.9999 16.9 75.9999 17.3C75.9999 17.7 75.7999 18 75.4999 18.1C75.2999 18.2 75.1999 18.1 75.1999 18.1C74.9999 17.9 74.8999 17.9 74.6999 17.9C74.3999 17.9 74.1999 18.1 73.8999 18.7V20.9C73.8999 21.6 73.9999 21.7 74.8999 21.8V22H71.7999V21.6C72.4999 21.5 72.5999 21.5 72.5999 20.7V18.2C72.5999 17.5 72.4999 17.5 71.8999 17.4V17.1C72.5999 17 73.1999 16.9 73.8999 16.6L73.7999 17.9Z"
    fill="#212121"></path>
  <path
    d="M78.5 17.9C78.9 17.2 79.4 16.6 79.9 16.6C80.4 16.6 80.7 16.9 80.7 17.3C80.7 17.7 80.5 18 80.2 18.1C80 18.2 79.9 18.1 79.9 18.1C79.7 17.9 79.6 17.9 79.4 17.9C79.1 17.9 78.9 18.1 78.6 18.7V20.9C78.6 21.6 78.7 21.7 79.6 21.8V22H76.5V21.6C77.2 21.5 77.3 21.5 77.3 20.7V18.2C77.3 17.5 77.2 17.5 76.6 17.4V17.1C77.3 17 77.9 16.9 78.6 16.6L78.5 17.9Z"
    fill="#212121"></path>
  <path
    d="M85.2999 20.9C84.5999 21.9 83.6999 22.1 83.1999 22.1C81.6999 22.1 80.7999 20.9 80.7999 19.6C80.7999 18.7 81.0999 18 81.5999 17.5C82.0999 17 82.7999 16.6 83.3999 16.6C84.4999 16.6 85.2999 17.5 85.2999 18.5C85.2999 18.7 85.1999 18.9 84.9999 18.9C84.7999 18.9 83.2999 19 82.0999 19.1C82.0999 20.5 82.8999 21.2 83.7999 21.2C84.2999 21.2 84.6999 21 85.0999 20.7L85.2999 20.9ZM82.0999 18.6C82.5999 18.6 83.1999 18.6 83.6999 18.6C83.8999 18.6 83.9999 18.6 83.9999 18.4C83.9999 17.8 83.6999 17.2 83.1999 17.2C82.6999 17.1 82.1999 17.7 82.0999 18.6Z"
    fill="#212121"></path>
  <path
    d="M91.2 17.1C90.6 17.2 90.5 17.3 90.2 18C89.9 18.6 89.5 19.6 88.8 21.4C88 23.3 87.8 24 87.6 24.7C87.5 24.9 87.4 25 87.2 25C86.9 25 86.4 24.7 86.4 24.3C86.4 24.1 86.5 24 86.7 23.8C87.1 23.6 87.4 23.3 87.6 22.9C87.8 22.6 87.8 22.4 87.9 22.3C88 22.1 87.9 21.9 87.9 21.7C87.3 20.1 86.7 18.5 86.4 17.9C86.2 17.3 86 17.2 85.4 17.1V16.8H88.1V17.1C87.6 17.2 87.5 17.3 87.6 17.7L88.6 20.5C88.9 19.8 89.3 18.5 89.6 17.8C89.7 17.4 89.6 17.2 89 17.1V16.8H91.1L91.2 17.1Z"
    fill="#212121"></path>
  <path
    d="M26.4999 3.5C26.4999 4.2 26.3999 4.8 26.3999 5.5H26.7999C26.8999 4.9 27.0999 4.5 27.1999 4.3C27.3999 4.1 27.5999 4 28.5999 4H29.0999V9.8C29.0999 10.8 28.9999 10.9 27.9999 11V11.4H31.6999V11C30.5999 10.9 30.4999 10.8 30.4999 9.8V4H31.0999C31.8999 4 32.0999 4.1 32.2999 4.3C32.4999 4.5 32.5999 4.9 32.7999 5.5H33.1999C33.1999 4.9 33.0999 4.2 33.0999 3.5H26.4999Z"
    fill="#212121"></path>
</svg>