<svg version="1.1" xmlns="http://www.w3.org/2000/svg" xmlns:xlink="http://www.w3.org/1999/xlink"
    viewBox="1.22 0.83 294.4 205.19">
    <!-- Generator: Sketch 50.2 (55047) - http://www.bohemiancoding.com/sketch -->
    <title>SW-Logo-SVG</title>
    <defs>
        <path
            d="M23.4643805,28.5974746 L23.4643805,24.1373031 C23.4643805,21.7326889 23.3868123,17.2725174 22.7274826,16.1089944 C22.4559939,15.6435852 21.7578801,15.3720965 20.7882776,15.2945283 L19.8186751,15.2169601 C19.5859705,14.9454714 19.6635387,14.4412781 19.8962433,14.2861417 C21.3700391,14.3637099 22.8050508,14.402494 24.3176307,14.402494 C25.9465629,14.402494 26.9937336,14.3637099 28.3899612,14.2861417 C28.700234,14.4800622 28.6614499,14.9842555 28.4675294,15.2169601 L27.536711,15.2945283 C26.5671085,15.3720965 25.8302106,15.7211534 25.597506,16.2253467 C25.0545286,17.505222 25.0545286,21.9653935 25.0545286,24.1373031 L25.0545286,28.5199064 C25.0545286,31.8941231 24.5115512,35.4622603 22.3396416,37.7893063 C20.6719253,39.612159 17.8019019,40.6205456 14.9318785,40.6205456 C12.2557756,40.6205456 9.5796727,40.1163523 7.6792518,38.4874201 C5.6236945,36.7809197 4.654092,33.9496804 4.654092,29.3343725 L4.654092,20.1813249 C4.654092,16.1477785 4.5765238,15.4884488 2.327046,15.2945283 L1.3574435,15.2169601 C1.1247389,15.0618237 1.2023071,14.402494 1.4350117,14.2861417 C3.3742167,14.3637099 4.6928761,14.402494 6.2442401,14.402494 C7.8343882,14.402494 9.1142635,14.3637099 11.0146844,14.2861417 C11.247389,14.402494 11.3249572,15.0618237 11.0922526,15.2169601 L10.1614342,15.2945283 C7.9119564,15.4884488 7.8343882,16.1477785 7.8343882,20.1813249 L7.8343882,28.5586905 C7.8343882,34.8029306 9.7735932,38.9140452 15.7075605,38.9140452 C21.331255,38.9140452 23.4643805,34.4926578 23.4643805,28.5974746 Z M62.2631492,24.1373031 L62.2631492,33.406703 C62.2631492,34.570226 62.2631492,39.1855339 62.3795015,40.1939205 C62.3019333,40.4266251 62.0692287,40.6205456 61.6426036,40.6205456 C61.1771944,39.9612159 60.0524555,38.6037724 56.6782388,34.7641465 L47.6803276,24.5251441 C46.6331569,23.322837 43.9958381,20.1425408 43.181372,19.2892906 L43.1038038,19.2892906 C42.9486674,19.7546998 42.9098833,20.6467341 42.9098833,21.8102571 L42.9098833,30.2651909 C42.9098833,32.0880436 42.9486674,37.1299766 43.6079971,38.2934996 C43.8407017,38.7201247 44.6163837,38.9528293 45.5859862,39.0303975 L46.7882933,39.1467498 C47.0209979,39.4570226 46.9822138,39.9224318 46.7107251,40.1163523 C44.9654406,40.0387841 43.6079971,40 42.1729854,40 C40.5440532,40 39.4968825,40.0387841 38.139439,40.1163523 C37.8679503,39.9224318 37.8291662,39.3794544 38.0618708,39.1467498 L39.1090415,39.0303975 C40.0010758,38.9140452 40.6216214,38.6813406 40.8155419,38.2547155 C41.3585193,36.8584879 41.3197352,32.1268277 41.3197352,30.2651909 L41.3197352,19.056586 C41.3197352,17.9706312 41.2809511,17.1561651 40.466485,16.2641308 C39.9235076,15.7211534 38.9926892,15.4496647 38.0618708,15.3333124 L37.4025411,15.2557442 C37.1698365,15.0230396 37.1698365,14.4412781 37.4801093,14.2861417 C39.1090415,14.402494 41.1645988,14.402494 41.8627126,14.402494 C42.4832582,14.402494 43.1425879,14.3637099 43.6467812,14.2861417 C44.4224632,16.2641308 48.998987,21.383632 50.2788623,22.8186437 L54.04092,27.0461106 C56.7170229,30.0324863 58.6174438,32.2043959 60.4402965,34.0660327 L60.5178647,34.0660327 C60.6730011,33.8721122 60.6730011,33.2515666 60.6730011,32.4371005 L60.6730011,24.1373031 C60.6730011,22.3144504 60.634217,17.2725174 59.8973191,16.1089944 C59.6646145,15.7599375 59.0440689,15.5272329 57.4927049,15.3333124 L56.8333752,15.2557442 C56.5618865,15.0230396 56.6006706,14.402494 56.9109434,14.2861417 C58.695012,14.3637099 60.0136714,14.402494 61.4874672,14.402494 C63.1551835,14.402494 64.1635701,14.3637099 65.4822295,14.2861417 C65.7925023,14.4800622 65.7925023,15.0230396 65.5597977,15.2557442 L65.0168203,15.3333124 C63.7757291,15.5272329 63.0000471,15.8375057 62.8449107,16.1477785 C62.185581,17.5440061 62.2631492,22.3532345 62.2631492,24.1373031 Z M79.2652537,34.1048168 L79.2652537,20.2976772 C79.2652537,16.1865626 79.1876855,15.5272329 76.8994236,15.3333124 L75.9298211,15.2557442 C75.6971165,15.1006078 75.7746847,14.402494 76.0073893,14.2861417 C77.9465943,14.3637099 79.2652537,14.402494 80.8941859,14.402494 C82.4455499,14.402494 83.7642093,14.3637099 85.7034143,14.2861417 C85.9361189,14.402494 86.0136871,15.1006078 85.7809825,15.2557442 L84.81138,15.3333124 C82.5231181,15.5272329 82.4455499,16.1865626 82.4455499,20.2976772 L82.4455499,34.1048168 C82.4455499,38.2159314 82.5231181,38.7589088 84.81138,39.0303975 L85.7809825,39.1467498 C86.0136871,39.3018862 85.9361189,40 85.7034143,40.1163523 C83.7642093,40.0387841 82.4455499,40 80.8941859,40 C79.2652537,40 77.9465943,40.0387841 76.0073893,40.1163523 C75.7746847,40 75.6971165,39.3794544 75.9298211,39.1467498 L76.8994236,39.0303975 C79.1876855,38.7589088 79.2652537,38.2159314 79.2652537,34.1048168 Z M105.614326,35.345908 L98.7883247,18.5136086 C97.8962904,16.341699 97.3145289,15.5272329 95.6468126,15.3333124 L94.9486988,15.2557442 C94.6772101,15.0230396 94.7159942,14.4800622 95.026267,14.2861417 C96.1510059,14.3637099 97.3920971,14.402494 99.0598134,14.402494 C100.766314,14.402494 102.123757,14.3637099 103.75269,14.2861417 C104.024178,14.4412781 104.101746,15.0230396 103.830258,15.2557442 L103.248496,15.3333124 C101.7747,15.5272329 101.464428,15.7599375 101.425644,16.0702103 C101.503212,16.4580513 102.162541,18.5523927 103.364849,21.4999843 C105.148917,25.9989399 106.932986,30.4591114 108.872191,34.8804988 C110.074498,32.3207482 111.70343,28.3259859 112.595464,26.2704286 C113.720203,23.6331098 115.543056,19.2505065 116.202386,17.5827902 C116.512658,16.7683241 116.551443,16.341699 116.551443,16.0702103 C116.551443,15.7987216 116.163602,15.4884488 114.806158,15.3333124 L114.108044,15.2557442 C113.836556,15.0230396 113.914124,14.4412781 114.185612,14.2861417 C115.271567,14.3637099 116.745363,14.402494 118.219159,14.402494 C119.499034,14.402494 120.701341,14.3637099 121.981217,14.2861417 C122.252705,14.4412781 122.252705,15.0618237 122.058785,15.2557442 L120.895262,15.3333124 C119.964443,15.4108806 119.382682,15.8762898 118.878489,16.6907559 C117.792534,18.5136086 116.279954,21.6551207 114.534669,25.6110989 L112.440328,30.3815432 C110.888964,33.9496804 109.066111,38.448636 108.406782,40.5041933 C108.290429,40.5817615 108.135293,40.6205456 107.980156,40.6205456 C107.786236,40.6205456 107.592315,40.5817615 107.398395,40.5041933 C106.97177,38.8752611 106.273656,36.9748402 105.614326,35.345908 Z M133.592331,34.182385 L133.592331,20.220109 C133.592331,16.1865626 133.514763,15.6048011 131.226501,15.3333124 L130.605955,15.2557442 C130.373251,15.1006078 130.450819,14.402494 130.683524,14.2861417 C132.35124,14.3637099 133.669899,14.402494 135.260047,14.402494 L142.551458,14.402494 C145.033641,14.402494 147.321902,14.402494 147.787312,14.2861417 C148.020016,14.9454714 148.252721,17.7379266 148.407857,19.444427 C148.252721,19.6771316 147.632175,19.7546998 147.438255,19.5219952 C146.856493,17.6991425 146.507436,16.341699 144.490663,15.8375057 C143.676197,15.6435852 142.435106,15.6048011 140.728605,15.6048011 L137.93615,15.6048011 C136.772627,15.6048011 136.772627,15.6823693 136.772627,17.1561651 L136.772627,24.9129851 C136.772627,25.9989399 136.88898,25.9989399 138.052503,25.9989399 L140.30198,25.9989399 C141.930913,25.9989399 143.13322,25.9213717 143.598629,25.7662353 C144.064038,25.6110989 144.335527,25.3783943 144.529447,24.4087918 L144.83972,22.8186437 C145.033641,22.5859391 145.69297,22.5859391 145.848107,22.8574278 C145.848107,23.7882462 145.69297,25.3008261 145.69297,26.7746219 C145.69297,28.1708495 145.848107,29.6446453 145.848107,30.4978955 C145.69297,30.7693842 145.033641,30.7693842 144.83972,30.5366796 L144.490663,29.0240997 C144.335527,28.3259859 144.064038,27.7442244 143.288356,27.5503039 C142.745379,27.3951675 141.81456,27.3563834 140.30198,27.3563834 L138.052503,27.3563834 C136.88898,27.3563834 136.772627,27.3951675 136.772627,28.4035541 L136.772627,33.8721122 C136.772627,35.9276695 136.88898,37.2463289 137.509525,37.9056586 C137.974934,38.3710678 138.7894,38.7976929 142.202401,38.7976929 C145.188777,38.7976929 146.313516,38.6425565 147.166766,38.2159314 C147.86488,37.8280904 148.912051,36.4706469 149.920437,34.4538737 C150.191926,34.2599532 150.734903,34.3763055 150.89004,34.7253624 C150.618551,36.0828059 149.648948,39.0691816 149.144755,40.1163523 C145.654186,40.0387841 142.202401,40 138.750616,40 L135.260047,40 C133.592331,40 132.273672,40.0387841 129.98541,40.1163523 C129.752705,40 129.675137,39.3794544 129.907842,39.1467498 L131.187717,39.0303975 C133.398411,38.836477 133.592331,38.2547155 133.592331,34.182385 Z M163.742246,34.182385 L163.742246,20.2588931 C163.742246,16.5744036 163.625893,15.9150739 162.035745,15.7211534 L160.794654,15.566017 C160.523165,15.3720965 160.523165,14.7515509 160.833438,14.5964145 C163.005348,14.402494 165.681451,14.2861417 169.482292,14.2861417 C171.886907,14.2861417 174.175168,14.4800622 175.959237,15.4496647 C177.820874,16.4192672 179.178317,18.1645517 179.178317,20.8794387 C179.178317,24.5639282 176.26951,26.5807014 174.330305,27.3563834 C174.136384,27.589088 174.330305,27.976929 174.524225,28.2872018 C177.626953,33.2903507 179.682511,36.3930787 182.319829,38.6037724 C182.979159,39.1855339 183.948762,39.612159 184.995932,39.6897272 C185.189853,39.7672954 185.228637,40.0775682 185.034716,40.2327046 C184.68566,40.3490569 184.065114,40.4266251 183.328216,40.4266251 C180.031568,40.4266251 178.053578,39.4570226 175.299907,35.5398285 C174.291521,34.1048168 172.701373,31.4287139 171.499066,29.6834294 C170.917304,28.8301792 170.296758,28.4423382 168.745394,28.4423382 C167.00011,28.4423382 166.922542,28.4811223 166.922542,29.2955884 L166.922542,34.182385 C166.922542,38.2547155 167.00011,38.7201247 169.249588,39.0303975 L170.064054,39.1467498 C170.296758,39.3406703 170.21919,40 169.986486,40.1163523 C168.241201,40.0387841 166.922542,40 165.371178,40 C163.742246,40 162.346018,40.0387841 160.523165,40.1163523 C160.290461,40 160.212892,39.4182385 160.445597,39.1467498 L161.4152,39.0303975 C163.664677,38.7589088 163.742246,38.2547155 163.742246,34.182385 Z M166.922542,16.72954 L166.922542,25.8050194 C166.922542,26.5031332 166.922542,26.9297583 167.038894,27.0848947 C167.155246,27.201247 167.737008,27.2788152 169.714997,27.2788152 C171.111224,27.2788152 172.58502,27.1236788 173.709759,26.2704286 C174.75693,25.4559625 175.648964,24.098519 175.648964,21.4612002 C175.648964,18.3972563 173.748543,15.4884488 169.443508,15.4884488 C167.038894,15.4884488 166.922542,15.6435852 166.922542,16.72954 Z M208.242277,33.4454871 C208.242277,37.7117381 205.023197,40.6205456 199.981264,40.6205456 C196.723399,40.6205456 194.667842,39.612159 193.930944,39.1855339 C193.465535,38.3322837 192.961342,35.5786126 192.883773,33.7557599 C193.077694,33.4842712 193.659455,33.406703 193.814592,33.6394076 C194.396353,35.6173967 195.986501,39.4182385 200.485457,39.4182385 C203.743321,39.4182385 205.333469,37.285113 205.333469,34.958067 C205.333469,33.2515666 204.984413,31.3511457 202.153173,29.528293 L198.468684,27.1236788 C196.529479,25.8438035 194.280001,23.6331098 194.280001,20.4528136 C194.280001,16.7683241 197.150024,13.7819484 202.191957,13.7819484 C203.394264,13.7819484 204.790492,14.014653 205.798879,14.2861417 C206.303072,14.4412781 206.846049,14.5188463 207.156322,14.5188463 C207.505379,15.4496647 207.854436,17.6215743 207.854436,19.2505065 C207.699299,19.4832111 207.078754,19.5995634 206.884833,19.3668588 C206.38064,17.505222 205.333469,14.9842555 201.610196,14.9842555 C197.809354,14.9842555 196.994888,17.505222 196.994888,19.2892906 C196.994888,21.5387684 198.856525,23.1677006 200.291536,24.0597349 L203.394264,25.9989399 C205.837663,27.5115198 208.242277,29.7609976 208.242277,33.4454871 Z M222.723415,34.1048168 L222.723415,20.2976772 C222.723415,16.1865626 222.645847,15.5272329 220.357585,15.3333124 L219.387982,15.2557442 C219.155278,15.1006078 219.232846,14.402494 219.465551,14.2861417 C221.404756,14.3637099 222.723415,14.402494 224.352347,14.402494 C225.903711,14.402494 227.222371,14.3637099 229.161576,14.2861417 C229.39428,14.402494 229.471848,15.1006078 229.239144,15.2557442 L228.269541,15.3333124 C225.981279,15.5272329 225.903711,16.1865626 225.903711,20.2976772 L225.903711,34.1048168 C225.903711,38.2159314 225.981279,38.7589088 228.269541,39.0303975 L229.239144,39.1467498 C229.471848,39.3018862 229.39428,40 229.161576,40.1163523 C227.222371,40.0387841 225.903711,40 224.352347,40 C222.723415,40 221.404756,40.0387841 219.465551,40.1163523 C219.232846,40 219.155278,39.3794544 219.387982,39.1467498 L220.357585,39.0303975 C222.645847,38.7589088 222.723415,38.2159314 222.723415,34.1048168 Z M252.640625,16.9234605 L252.640625,34.182385 C252.640625,38.2547155 252.718193,38.836477 254.967671,39.0303975 L256.208762,39.1467498 C256.441467,39.3018862 256.363898,40 256.131194,40.1163523 C253.9205,40.0387841 252.601841,40 251.050477,40 C249.499113,40 248.141669,40.0387841 245.659487,40.1163523 C245.426782,40 245.349214,39.3406703 245.659487,39.1467498 L247.055714,39.0303975 C249.266408,38.836477 249.460329,38.2547155 249.460329,34.182385 L249.460329,16.8458923 C249.460329,15.6435852 249.460329,15.6048011 248.296806,15.6048011 L246.16368,15.6048011 C244.495964,15.6048011 242.362838,15.6823693 241.393236,16.5744036 C240.462417,17.4276538 240.074576,18.280904 239.647951,19.2505065 C239.337678,19.4832111 238.794701,19.2892906 238.639565,18.9790178 C239.26011,17.2337333 239.841872,14.7515509 240.11336,13.2001869 C240.229713,13.1226187 240.733906,13.0838346 240.850258,13.2001869 C241.082963,14.4412781 242.362838,14.402494 244.146907,14.402494 L259.854467,14.402494 C261.948809,14.402494 262.297866,14.3249258 262.879627,13.3165392 C263.073548,13.238971 263.500173,13.2777551 263.577741,13.4328915 C263.151116,15.0230396 262.879627,18.1645517 262.995979,19.3280747 C262.840843,19.6383475 262.181513,19.6383475 261.987593,19.4056429 C261.871241,18.4360404 261.599752,17.0010287 261.01799,16.5744036 C260.125956,15.9150739 258.65216,15.6048011 256.519035,15.6048011 L253.765364,15.6048011 C252.601841,15.6048011 252.640625,15.6435852 252.640625,16.9234605 Z M284.962449,32.0880436 L284.962449,34.1048168 C284.962449,38.2547155 285.195153,38.8752611 287.289495,39.0303975 L288.76329,39.1467498 C288.995995,39.3794544 288.918427,40 288.685722,40.1163523 C286.281108,40.0387841 284.962449,40 283.411085,40 C281.782152,40 280.385925,40.0387841 278.330368,40.1163523 C278.097663,40 278.020095,39.3794544 278.252799,39.1467498 L279.455106,39.0303975 C281.704584,38.7976929 281.782152,38.2547155 281.782152,34.1048168 L281.782152,32.1268277 C281.782152,29.9937022 281.6658,29.4895089 280.541061,27.3175993 L275.964537,18.3972563 C274.645878,15.8375057 274.064117,15.6435852 272.900594,15.4496647 L271.814639,15.2557442 C271.581934,14.9842555 271.620718,14.4412781 271.892207,14.2861417 C273.133298,14.3637099 274.529526,14.402494 276.391163,14.402494 C278.175231,14.402494 279.571459,14.3637099 280.541061,14.2861417 C280.890118,14.402494 280.890118,15.0230396 280.657414,15.2557442 L280.15322,15.3333124 C278.795777,15.5272329 278.524288,15.7211534 278.524288,16.0314262 C278.524288,16.4192672 279.532675,18.6299609 279.726595,19.0178019 C281.161607,21.8878253 282.596619,24.9517692 284.109198,27.6278721 C285.311506,25.5723148 286.591381,23.322837 287.754904,21.0733592 C288.840859,19.056586 290.27587,16.4192672 290.27587,15.953858 C290.27587,15.7211534 289.577757,15.4496647 288.646938,15.3333124 L287.948824,15.2557442 C287.677336,14.9842555 287.71612,14.4412781 288.026393,14.2861417 C289.42262,14.3637099 290.547359,14.402494 291.749666,14.402494 C292.951973,14.402494 294.037928,14.3637099 295.356587,14.2861417 C295.66686,14.4800622 295.705644,15.0230396 295.434156,15.2557442 L294.348201,15.4496647 C292.331428,15.7987216 291.167905,18.2421199 289.2287,21.5775525 L286.785301,25.8050194 C285.078801,28.752611 284.962449,29.1016679 284.962449,32.0880436 Z"
            id="path-1"></path>
        <path
            d="M50.5783676,70.8708368 C52.167021,70.8708368 52.95016,72.056733 52.8606584,73.6901372 C52.7935322,74.9207842 52.1446456,77.0688226 50.488866,78.769353 C49.1015912,80.2013786 47.8933196,80.3132556 47.2891838,80.3132556 C45.8571582,80.3132556 44.9173914,79.2616118 45.0516438,77.3373274 C45.1411454,75.9500526 45.9690352,73.7796388 47.4905624,72.3252378 C48.6540832,71.2064678 49.6609762,70.8708368 50.5783676,70.8708368 Z M50.4217398,71.5420988 C49.9742318,71.5420988 49.4372222,71.7434774 48.7883356,72.616118 C47.4905624,74.3613992 46.6179218,77.0240718 46.5507956,78.209968 C46.5060448,78.993107 46.8193004,79.6419936 47.468187,79.6419936 C47.9604458,79.6419936 48.5198308,79.440615 49.2358436,78.4784728 C50.2203612,77.1583242 51.272005,74.2047714 51.3167558,73.0188752 C51.3391312,72.3252378 51.2048788,71.5420988 50.4217398,71.5420988 Z M61.005304,72.0119822 L58.2307544,72.0119822 C58.096502,72.392364 57.9174988,73.1083768 57.648994,74.0928944 C56.977732,76.5989392 56.3735962,78.7469776 55.6575834,81.2082716 C55.075823,83.2220576 54.3374348,84.363203 53.8899268,84.810711 C53.5542958,85.1239666 52.5250274,86.0189826 51.2048788,86.0189826 C49.9966072,86.0189826 49.5714746,85.258219 49.5714746,84.922588 C49.5714746,84.47508 49.8399794,84.0946982 50.0861088,83.915695 C50.265112,83.7814426 50.4664906,83.8485688 50.600743,84.0051966 C51.1377526,84.5645816 51.8090146,84.922588 52.3012734,84.922588 C52.7487814,84.922588 53.2186648,84.7659602 53.733299,83.0430544 C54.7625674,79.5077412 55.5457064,75.6591724 56.6197256,72.0119822 L54.7625674,72.0119822 C54.5388134,71.8106036 54.628315,71.385471 54.9191952,71.1840924 L56.8434796,71.1840924 C57.42524,69.1703064 58.0293758,67.4250252 59.3495244,65.8587472 C60.4682944,64.5385986 61.6318152,64.001589 62.9295884,64.001589 C63.7574782,64.001589 64.6524942,64.5833494 64.6524942,65.4783654 C64.6524942,66.0601258 64.0483584,66.7537632 63.690352,66.7537632 C63.4889734,66.7537632 63.3994718,66.5523846 63.3770964,66.3957568 C63.3099702,65.1651098 62.683459,64.7623526 62.124074,64.7623526 C61.6318152,64.7623526 61.0276794,65.2098606 60.5130452,65.9706242 C59.4837768,67.469776 59.0362688,69.0584294 58.432133,71.1840924 L61.229058,71.1840924 C61.3856858,71.4302218 61.340935,71.7658528 61.005304,72.0119822 Z"
            id="path-2"></path>
        <path
            d="M109.146116,76.5631328 L107.570885,71.6942376 C107.32028,70.9066222 107.177077,70.7992201 106.103056,70.7992201 L100.69715,70.7992201 C99.802133,70.7992201 99.5873288,70.9066222 99.3367239,71.6584369 L98.0836994,75.4175104 C97.5466889,77.0285419 97.296084,77.9951608 97.296084,78.3889685 C97.296084,78.8185769 97.4750875,79.0333811 98.3343043,79.1049825 L99.5157274,79.2123846 C99.7663323,79.3913881 99.7663323,79.9641993 99.444126,80.1074021 C98.5133078,80.0358007 97.4034861,80.0358007 95.7208532,80 C94.5394301,80 93.2506049,80.0716014 92.283986,80.1074021 C92.0691818,79.9641993 91.9975804,79.3913881 92.2123846,79.2123846 L93.3938077,79.1049825 C94.2530245,79.0333811 95.0406399,78.6395734 95.5418497,77.3507482 C96.1862623,75.703916 97.1886819,73.3768705 98.6923113,69.3671921 L102.343983,59.7010031 C102.845192,58.4121779 103.059997,57.7319646 102.952595,57.1591534 C103.811811,56.9085485 104.420423,56.2641359 104.814231,55.7987268 C105.029035,55.7987268 105.27964,55.8703282 105.351242,56.1209331 C105.816651,57.6961639 106.389462,59.3429961 106.926472,60.9182269 L111.831168,75.3101083 C112.869388,78.3889685 113.334798,78.925979 114.874228,79.1049825 L115.840847,79.2123846 C116.091452,79.3913881 116.01985,79.9641993 115.840847,80.1074021 C114.373018,80.0358007 113.119993,80 111.508962,80 C109.790528,80 108.430102,80.0716014 107.391881,80.1074021 C107.105476,79.9641993 107.069675,79.3913881 107.32028,79.2123846 L108.3585,79.1049825 C109.110315,79.0333811 109.611525,78.8185769 109.611525,78.4605699 C109.611525,78.0667622 109.432521,77.4223496 109.146116,76.5631328 Z M102.73779,62.2786535 L100.482346,68.5079753 C100.195941,69.3313914 100.231741,69.3671921 101.234161,69.3671921 L105.637647,69.3671921 C106.675867,69.3671921 106.747469,69.2239893 106.425263,68.2573704 L104.492025,62.4218563 C104.205619,61.5626395 103.883413,60.5960206 103.668609,60.1664122 L103.597007,60.1664122 C103.489605,60.3454157 103.131598,61.2046325 102.73779,62.2786535 Z M127.286326,74.629895 L127.286326,61.741643 C127.286326,57.9825695 127.214724,57.4097583 124.95928,57.2307548 L124.064263,57.1591534 C123.849459,57.0159506 123.92106,56.371538 124.135864,56.2641359 C126.140703,56.3357373 127.357927,56.371538 128.789955,56.371538 C130.186182,56.371538 131.403406,56.3357373 133.193441,56.2641359 C133.408245,56.371538 133.479847,57.0159506 133.265043,57.1591534 L132.405826,57.2307548 C130.293585,57.4097583 130.221983,57.9825695 130.221983,61.741643 L130.221983,74.2002866 C130.221983,76.4557307 130.329385,77.3865489 130.973798,78.0667622 C131.367606,78.4605699 132.047819,78.8901783 134.876074,78.8901783 C137.919134,78.8901783 138.670948,78.7469755 139.24376,78.4247692 C139.959774,77.9951608 140.890592,76.7063356 141.606606,74.8804999 C141.82141,74.7014964 142.501623,74.8446992 142.501623,75.0953041 C142.501623,75.4891118 141.499204,79.1407832 140.997994,80.1074021 C139.172158,80.0358007 135.771092,80 132.08362,80 L128.789955,80 C127.286326,80 126.140703,80.0358007 124.135864,80.1074021 C123.92106,80 123.849459,79.4271888 124.064263,79.2123846 L125.138284,79.1049825 C127.214724,78.8901783 127.286326,78.3889685 127.286326,74.629895 Z M166.477347,76.5631328 L164.902117,71.6942376 C164.651512,70.9066222 164.508309,70.7992201 163.434288,70.7992201 L158.028382,70.7992201 C157.133365,70.7992201 156.918561,70.9066222 156.667956,71.6584369 L155.414931,75.4175104 C154.877921,77.0285419 154.627316,77.9951608 154.627316,78.3889685 C154.627316,78.8185769 154.806319,79.0333811 155.665536,79.1049825 L156.846959,79.2123846 C157.097564,79.3913881 157.097564,79.9641993 156.775358,80.1074021 C155.84454,80.0358007 154.734718,80.0358007 153.052085,80 C151.870662,80 150.581837,80.0716014 149.615218,80.1074021 C149.400414,79.9641993 149.328812,79.3913881 149.543616,79.2123846 L150.725039,79.1049825 C151.584256,79.0333811 152.371872,78.6395734 152.873081,77.3507482 C153.517494,75.703916 154.519914,73.3768705 156.023543,69.3671921 L159.675214,59.7010031 C160.176424,58.4121779 160.391228,57.7319646 160.283826,57.1591534 C161.143043,56.9085485 161.751655,56.2641359 162.145463,55.7987268 C162.360267,55.7987268 162.610872,55.8703282 162.682473,56.1209331 C163.147882,57.6961639 163.720694,59.3429961 164.257704,60.9182269 L169.1624,75.3101083 C170.20062,78.3889685 170.666029,78.925979 172.205459,79.1049825 L173.172078,79.2123846 C173.422683,79.3913881 173.351082,79.9641993 173.172078,80.1074021 C171.70425,80.0358007 170.451225,80 168.840194,80 C167.12176,80 165.761333,80.0716014 164.723113,80.1074021 C164.436708,79.9641993 164.400907,79.3913881 164.651512,79.2123846 L165.689732,79.1049825 C166.441547,79.0333811 166.942757,78.8185769 166.942757,78.4605699 C166.942757,78.0667622 166.763753,77.4223496 166.477347,76.5631328 Z M160.069022,62.2786535 L157.813578,68.5079753 C157.527172,69.3313914 157.562973,69.3671921 158.565393,69.3671921 L162.968879,69.3671921 C164.007099,69.3671921 164.078701,69.2239893 163.756494,68.2573704 L161.823256,62.4218563 C161.536851,61.5626395 161.214645,60.5960206 160.99984,60.1664122 L160.928239,60.1664122 C160.820837,60.3454157 160.46283,61.2046325 160.069022,62.2786535 Z M195.679974,73.9496817 C195.679974,77.8877587 192.708516,80.5728112 188.054425,80.5728112 C185.047166,80.5728112 183.149729,79.641993 182.469516,79.2481853 C182.039907,78.4605699 181.574498,75.9187202 181.502897,74.2360873 C181.6819,73.9854824 182.218911,73.913881 182.362113,74.1286852 C182.899124,75.9545209 184.366953,79.4629895 188.519834,79.4629895 C191.527093,79.4629895 192.994921,77.493951 192.994921,75.345909 C192.994921,73.7706782 192.672715,72.0164439 190.059264,70.333811 L186.658197,68.1141676 C184.868162,66.9327445 182.791722,64.8921046 182.791722,61.9564472 C182.791722,58.5553807 185.440974,55.7987268 190.095065,55.7987268 C191.204886,55.7987268 192.493712,56.013531 193.42453,56.2641359 C193.889939,56.4073387 194.391149,56.4789401 194.677554,56.4789401 C194.999761,57.3381569 195.321967,59.3429961 195.321967,60.8466255 C195.178764,61.0614297 194.605953,61.1688318 194.426949,60.9540276 C193.96154,59.235594 192.994921,56.9085485 189.558054,56.9085485 C186.049586,56.9085485 185.297771,59.235594 185.297771,60.8824262 C185.297771,62.9588668 187.016204,64.4624962 188.34083,65.2859123 L191.204886,67.0759473 C193.46033,68.4721746 195.679974,70.5486152 195.679974,73.9496817 Z M209.5241,74.629895 L209.5241,61.741643 C209.5241,57.9825695 209.452499,57.4097583 207.376058,57.2307548 L206.48104,57.1591534 C206.266236,57.0159506 206.337838,56.371538 206.552642,56.2641359 C208.306876,56.3357373 209.452499,56.371538 211.06353,56.371538 C212.459757,56.371538 213.676981,56.3357373 215.216411,56.2641359 C215.431215,56.371538 215.502817,57.0159506 215.288013,57.1591534 L214.607799,57.2307548 C212.531359,57.445559 212.459757,57.9825695 212.459757,61.741643 L212.459757,65.8587235 C212.459757,66.5389368 212.531359,67.2191501 212.925166,67.2191501 C213.247373,67.2191501 213.676981,67.0043459 213.927586,66.8253424 C214.428796,66.395734 215.359614,65.4649158 215.753422,65.1069088 L219.619897,61.2762339 C220.300111,60.6318213 222.054345,58.8059856 222.412352,58.3047758 C222.591355,58.0541709 222.662957,57.8751674 222.662957,57.7319646 C222.662957,57.5887618 222.519754,57.4813597 222.054345,57.3739576 L221.087726,57.1591534 C220.837121,56.9085485 220.872922,56.4431394 221.159327,56.2641359 C222.412352,56.3357373 223.84438,56.371538 225.097404,56.371538 C226.350429,56.371538 227.567653,56.3357373 228.641674,56.2641359 C228.892279,56.4431394 228.928079,56.9443492 228.713275,57.1591534 C227.782457,57.2307548 226.38623,57.5887618 225.38381,58.161573 C224.38139,58.7343842 222.376551,60.4170171 220.371712,62.3144542 L217.149649,65.3575137 C216.648439,65.8587235 216.326233,66.1809298 216.326233,66.4673354 C216.326233,66.7179403 216.541037,67.0043459 217.006446,67.5771571 C220.407513,71.4794334 223.164167,74.7014964 225.956621,77.6371538 C226.815838,78.4963706 227.603453,78.9617797 228.820677,79.1049825 L229.787296,79.2123846 C230.037901,79.3913881 229.9663,80 229.715695,80.1074021 C228.784877,80.0358007 227.388649,80 225.706016,80 C224.238188,80 222.985163,80.0358007 221.338331,80.1074021 C221.087726,80.0358007 220.980324,79.4271888 221.195128,79.2123846 L222.018544,79.0691818 C222.519754,78.9975804 222.877761,78.8901783 222.877761,78.7111748 C222.877761,78.4963706 222.627156,78.209965 222.376551,77.8877587 C221.696338,77.0285419 220.76552,76.061923 219.405093,74.5224929 L216.541037,71.3004299 C214.500397,69.0091851 213.927586,68.2931711 213.068369,68.2931711 C212.531359,68.2931711 212.459757,68.7585802 212.459757,70.0116047 L212.459757,74.629895 C212.459757,78.3889685 212.531359,78.8901783 214.536198,79.1049825 L215.502817,79.2123846 C215.717621,79.3555874 215.64602,80 215.431215,80.1074021 C213.676981,80.0358007 212.459757,80 211.06353,80 C209.595701,80 208.378478,80.0358007 206.910649,80.1074021 C206.695845,80 206.624243,79.4629895 206.839047,79.2123846 L207.555061,79.1049825 C209.452499,78.8185769 209.5241,78.3889685 209.5241,74.629895 Z M252.653199,76.5631328 L251.077968,71.6942376 C250.827363,70.9066222 250.68416,70.7992201 249.610139,70.7992201 L244.204233,70.7992201 C243.309216,70.7992201 243.094412,70.9066222 242.843807,71.6584369 L241.590782,75.4175104 C241.053772,77.0285419 240.803167,77.9951608 240.803167,78.3889685 C240.803167,78.8185769 240.98217,79.0333811 241.841387,79.1049825 L243.02281,79.2123846 C243.273415,79.3913881 243.273415,79.9641993 242.951209,80.1074021 C242.020391,80.0358007 240.910569,80.0358007 239.227936,80 C238.046513,80 236.757688,80.0716014 235.791069,80.1074021 C235.576265,79.9641993 235.504663,79.3913881 235.719468,79.2123846 L236.900891,79.1049825 C237.760107,79.0333811 238.547723,78.6395734 239.048933,77.3507482 C239.693345,75.703916 240.695765,73.3768705 242.199394,69.3671921 L245.851066,59.7010031 C246.352275,58.4121779 246.56708,57.7319646 246.459678,57.1591534 C247.318894,56.9085485 247.927506,56.2641359 248.321314,55.7987268 C248.536118,55.7987268 248.786723,55.8703282 248.858324,56.1209331 C249.323734,57.6961639 249.896545,59.3429961 250.433555,60.9182269 L255.338251,75.3101083 C256.376471,78.3889685 256.841881,78.925979 258.381311,79.1049825 L259.34793,79.2123846 C259.598534,79.3913881 259.526933,79.9641993 259.34793,80.1074021 C257.880101,80.0358007 256.627076,80 255.016045,80 C253.297611,80 251.937185,80.0716014 250.898964,80.1074021 C250.612559,79.9641993 250.576758,79.3913881 250.827363,79.2123846 L251.865583,79.1049825 C252.617398,79.0333811 253.118608,78.8185769 253.118608,78.4605699 C253.118608,78.0667622 252.939604,77.4223496 252.653199,76.5631328 Z M246.244873,62.2786535 L243.989429,68.5079753 C243.703024,69.3313914 243.738824,69.3671921 244.741244,69.3671921 L249.14473,69.3671921 C250.18295,69.3671921 250.254552,69.2239893 249.932345,68.2573704 L247.999108,62.4218563 C247.712702,61.5626395 247.390496,60.5960206 247.175692,60.1664122 L247.10409,60.1664122 C246.996688,60.3454157 246.638681,61.2046325 246.244873,62.2786535 Z"
            id="path-3"></path>
    </defs>
    <g id="Page-1" stroke="none" stroke-width="1" fill="none" fill-rule="evenodd">
        <g id="logo">
            <g id="Group" transform="translate(0.000000, 120.000000)">
                <g id="UNIVERSITY">
                    <use fill="currentColor" xlink:href="#path-1"></use>
                    <use fill="currentColor" xlink:href="#path-1"></use>
                </g>
                <g id="of">
                    <use fill="currentColor" xlink:href="#path-2"></use>
                    <use fill="currentColor" xlink:href="#path-2"></use>
                </g>
                <g id="ALASKA">
                    <use fill="currentColor" xlink:href="#path-3"></use>
                    <use fill="currentColor" xlink:href="#path-3"></use>
                </g>
            </g>
            <rect id="Rectangle-path" fill="#EEEEEE" fill-rule="nonzero" x="100.391" y="0.833" width="103.921"
                height="113.369"></rect>
            <path
                d="M100.415,92.635 C147.591,26.442 203.888,50.174 204.741,50.775 C204.848,50.879 204.741,50.309 204.834,51.335 C140.226,35.672 100.508,93.847 100.508,93.847 C100.508,93.847 100.321,94.313 100.415,92.635 Z"
                id="Shape" fill="#00356B" fill-rule="nonzero"></path>
            <path
                d="M139.106,114.544 C150.853,49.75 204.834,50.682 204.834,50.682 L204.834,51.335 C204.834,51.335 152.438,57.954 140.412,114.544 C139.572,114.544 139.945,114.544 139.106,114.544 Z"
                id="Shape" fill="#00356B" fill-rule="nonzero"></path>
            <path
                d="M130.155,44.342 C130.155,44.342 155.608,86.855 204.833,84.058 C204.833,82.939 204.833,82.007 204.833,81.261 C159.524,83.312 130.155,44.342 130.155,44.342 Z"
                id="Shape" fill="#00356B" fill-rule="nonzero"></path>
        </g>
    </g>
</svg>