<?xml version="1.0" encoding="utf-8"?>
<!-- Generator: Adobe Illustrator 16.0.4, SVG Export Plug-In . SVG Version: 6.00 Build 0)  -->
<svg version="1.2" baseProfile="tiny" id="Layer_1" xmlns="http://www.w3.org/2000/svg"
	xmlns:xlink="http://www.w3.org/1999/xlink" x="0px" y="0px" width="1037px" height="298px" viewBox="0 0 1037 298"
	xml:space="preserve">
	<g>
		<g>
			<g>
				<polygon fill="#BF5700" points="95.217,80.18 95.41,80.18 95.41,80.113 95.217,80.113 95.217,80.18 			" />
				<path fill="#BF5700" d="M117.929,61.244c-4.75-0.723-9.235-1.416-13.29-1.416c-2.175,0-4.08,0.214-5.778,0.62l-0.948-26.499
				v-4.395c1.871-0.785,4.136-1.15,7.026-1.15c3.697,0,7.941,0.62,12.418,1.276c3.943,0.579,7.998,1.149,12.15,1.421l1.142,31.674
				C126.386,62.541,122.097,61.896,117.929,61.244L117.929,61.244z M72.698,61.244c-4.169,0.652-8.458,1.297-12.722,1.531
				l1.136-31.674c4.161-0.271,8.212-0.842,12.156-1.421c4.481-0.656,8.717-1.276,12.418-1.276c2.881,0,5.155,0.365,7.026,1.15v4.395
				l-0.944,26.499c-1.703-0.406-3.599-0.62-5.778-0.62C81.928,59.828,77.447,60.521,72.698,61.244L72.698,61.244z M140.027,42.555
				v-6.023h-3.718V26.238h-2.508c-5.319,0-10.601-0.771-15.714-1.523c-4.669-0.681-9.078-1.334-13.148-1.334
				c-3.834,0-6.994,0.604-9.624,1.839c-2.631-1.235-5.8-1.839-9.628-1.839c-4.071,0-8.479,0.653-13.145,1.334
				c-5.113,0.752-10.404,1.523-15.718,1.523h-2.508v10.293h-3.713v6.023h3.713v8.154h-3.673v6.025h3.673v11.171h2.508
				c5.685,0,11.253-0.862,16.642-1.695c4.551-0.697,8.852-1.366,12.525-1.366c2.955,0,5.183,0.43,6.903,1.325l0,0h4.838l0,0
				c1.724-0.896,3.948-1.325,6.907-1.325c3.673,0,7.97,0.669,12.521,1.366c5.388,0.833,10.965,1.695,16.642,1.695h2.508V56.734
				h3.668v-6.025h-3.668v-8.154H140.027L140.027,42.555z" />
				<path fill="#BF5700" d="M73.384,34.232c-0.251,0.033-0.493,0.074-0.743,0.106c-2.359,0.349-4.756,0.702-7.177,0.977l-0.14,4.063
				c2.68-0.291,5.307-0.686,7.9-1.067c0.054-0.009,0.107-0.017,0.16-0.024V34.232L73.384,34.232z" />
				<path fill="#BF5700" d="M76.396,33.801v4.055c4.267-0.595,8.191-1.018,11.589-0.738l0.143-3.996
				C84.501,32.841,80.529,33.238,76.396,33.801L76.396,33.801z" />
				<path fill="#BF5700" d="M73.384,52.61c-0.251,0.036-0.493,0.068-0.743,0.11c-2.572,0.378-5.191,0.76-7.838,1.051l-0.148,4.055
				c2.911-0.309,5.767-0.725,8.569-1.133c0.054-0.009,0.107-0.018,0.16-0.025V52.61L73.384,52.61z" />
				<path fill="#BF5700" d="M76.396,52.183v4.055c3.997-0.554,7.686-0.968,10.929-0.788l0.148-3.996
				C84.021,51.271,80.282,51.653,76.396,52.183L76.396,52.183z" />
				<path fill="#BF5700" d="M72.76,43.516v4.062c0.156-0.024,0.307-0.049,0.464-0.074c5.368-0.783,10.276-1.506,14.434-1.23
				l0.14-3.989C83.204,42.002,78.07,42.731,72.76,43.516L72.76,43.516z" />
				<path fill="#BF5700" d="M69.748,43.946c-1.527,0.218-3.066,0.423-4.617,0.604l-0.143,4.055c1.604-0.173,3.192-0.386,4.76-0.604
				V43.946L69.748,43.946z" />
				<path fill="#BF5700" d="M112.4,33.567c-3.476-0.423-6.817-0.685-9.903-0.446l0.144,3.996c2.901-0.238,6.202,0.041,9.76,0.497
				V33.567L112.4,33.567z" />
				<path fill="#BF5700" d="M125.163,35.315c-2.421-0.274-4.818-0.628-7.183-0.977c-0.862-0.123-1.715-0.25-2.568-0.365v4.055
				c0.656,0.091,1.317,0.185,1.995,0.283c2.584,0.382,5.219,0.776,7.904,1.067L125.163,35.315L125.163,35.315z" />
				<path fill="#BF5700" d="M111.575,42.657c-3.062-0.349-6-0.541-8.75-0.373l0.148,3.989c2.593-0.168,5.481,0.041,8.601,0.422
				V42.657L111.575,42.657z" />
				<path fill="#BF5700" d="M125.491,44.55c-2.533-0.288-5.044-0.653-7.511-1.018c-1.136-0.165-2.273-0.337-3.394-0.489v4.056
				c0.919,0.126,1.855,0.267,2.82,0.405c2.691,0.398,5.441,0.797,8.232,1.101L125.491,44.55L125.491,44.55z" />
				<path fill="#BF5700" d="M117.599,56.717c2.738,0.406,5.528,0.81,8.368,1.109l-0.139-4.055c-2.652-0.291-5.27-0.673-7.848-1.051
				c-0.126-0.025-0.25-0.042-0.381-0.059V56.717L117.599,56.717z" />
				<path fill="#BF5700" d="M114.587,52.232c-4.014-0.555-7.879-0.961-11.438-0.779l0.148,3.996c3.34-0.18,7.152,0.25,11.29,0.838
				V52.232L114.587,52.232z" />
				<path fill="#BF5700" d="M90.09,117.049l5.225-13.066l5.224,13.066l14.048,0.936l-10.818,9.013l3.459,13.638l-11.913-7.506
				l-11.906,7.506l3.451-13.638l-10.813-9.013L90.09,117.049L90.09,117.049z M58.265,112.412v0.008l22.703,16.498l-8.75,26.894
				c0.008,0.049,0.033,0.099,0.074,0.131c0.041,0.033,0.09,0.033,0.14,0.033l22.884-16.642l22.875,16.634
				c0.049,0.008,0.103,0,0.14-0.025c0.074-0.057,0.086-0.155,0.045-0.246l-8.705-26.786l22.699-16.49l-0.008-0.008
				c0.11-0.041,0.168-0.148,0.135-0.255c-0.029-0.099-0.143-0.147-0.25-0.114v-0.009h-28.063l-8.667-26.684h-0.013
				c0-0.114-0.077-0.214-0.188-0.214c-0.107,0-0.194,0.1-0.194,0.214h-0.012l-8.663,26.684H58.388l-0.008,0.017
				c-0.107-0.041-0.222,0.016-0.255,0.115C58.097,112.264,58.149,112.379,58.265,112.412L58.265,112.412z" />
				<path fill="#BF5700" d="M151.649,146.139c-2.043,2.26-4.703,3.83-7.641,4.535c0.414-3.005,1.715-5.815,3.759-8.061
				c2.064-2.271,4.719-3.85,7.645-4.543C154.999,141.065,153.702,143.881,151.649,146.139L151.649,146.139z M140.671,128.486
				c-0.39-3.036,0.14-6.079,1.498-8.781c2.003,2.26,3.292,5.064,3.689,8.102c0.407,3.02-0.123,6.064-1.486,8.757
				C142.362,134.311,141.07,131.5,140.671,128.486L140.671,128.486z M146.75,105.514c-0.566-3.014-0.226-6.078,0.969-8.857
				c2.133,2.135,3.595,4.859,4.169,7.863c0.583,2.996,0.242,6.066-0.965,8.854C148.786,111.23,147.329,108.5,146.75,105.514
				L146.75,105.514z M161.253,112.215c0.208,3.029-0.48,6.041-2.02,8.68c-1.539,2.635-3.809,4.72-6.538,6.021
				c-0.214-3.024,0.472-6.036,2.011-8.675C156.254,115.592,158.523,113.516,161.253,112.215L161.253,112.215z M139.018,169.271
				c-2.466,1.789-5.364,2.766-8.409,2.864c1.026-2.864,2.873-5.335,5.338-7.114c2.483-1.808,5.385-2.784,8.418-2.866
				C143.344,165.012,141.492,167.482,139.018,169.271L139.018,169.271z M131.917,149.737c0.247-3.062,1.396-5.918,3.284-8.282
				c1.498,2.615,2.179,5.627,1.937,8.674c-0.23,3.045-1.375,5.924-3.271,8.284C132.37,155.787,131.684,152.783,131.917,149.737
				L131.917,149.737z M123.993,170.191c-0.854,2.922-2.569,5.499-4.908,7.42c-0.923-2.873-0.977-5.959-0.119-8.89
				c0.875-2.938,2.589-5.517,4.925-7.428C124.814,164.158,124.859,167.253,123.993,170.191L123.993,170.191z M128.585,183.438
				c-1.597,2.577-3.915,4.62-6.71,5.86c-1.941,0.87-3.993,1.313-6.11,1.313l0,0c-0.907,0-1.815-0.082-2.709-0.246
				c1.597-2.577,3.915-4.612,6.706-5.86C122.548,183.258,125.623,182.906,128.585,183.438L128.585,183.438z M102.378,184.629
				c1.465-2.7,3.668-4.867,6.349-6.255c0.308,2.996-0.278,6.024-1.736,8.725c-1.44,2.693-3.644,4.854-6.336,6.255
				C100.347,190.341,100.929,187.312,102.378,184.629L102.378,184.629z M68.459,189.299c-2.791-1.24-5.114-3.283-6.71-5.86
				c2.963-0.532,6.033-0.181,8.827,1.067c2.787,1.248,5.105,3.283,6.702,5.86C74.311,190.916,71.237,190.547,68.459,189.299
				L68.459,189.299z M66.341,170.183c-0.861-2.93-0.812-6.024,0.111-8.889c2.327,1.911,4.047,4.481,4.917,7.42
				c0.857,2.938,0.808,6.024-0.119,8.897C68.911,175.69,67.195,173.113,66.341,170.183L66.341,170.183z M81.616,178.374
				c2.672,1.388,4.88,3.555,6.345,6.238c1.445,2.7,2.036,5.729,1.719,8.741c-2.688-1.4-4.896-3.562-6.336-6.255
				C81.896,184.398,81.3,181.37,81.616,178.374L81.616,178.374z M51.321,169.271c-2.475-1.789-4.321-4.26-5.352-7.116
				c3.037,0.082,5.938,1.059,8.413,2.866c2.474,1.779,4.321,4.25,5.347,7.114C56.685,172.037,53.787,171.061,51.321,169.271
				L51.321,169.271z M55.137,141.455c1.893,2.364,3.029,5.221,3.284,8.273c0.233,3.055-0.456,6.059-1.953,8.685
				c-1.896-2.36-3.037-5.239-3.275-8.292C52.959,147.082,53.639,144.07,55.137,141.455L55.137,141.455z M38.685,146.139
				c-2.04-2.258-3.345-5.073-3.759-8.068c2.926,0.693,5.586,2.272,7.642,4.543c2.048,2.245,3.345,5.056,3.759,8.061
				C43.388,149.969,40.729,148.398,38.685,146.139L38.685,146.139z M37.647,126.915c-2.729-1.301-5.002-3.386-6.542-6.021
				c-1.539-2.639-2.225-5.65-2.016-8.68c2.721,1.301,4.999,3.377,6.546,6.025C37.166,120.879,37.856,123.891,37.647,126.915
				L37.647,126.915z M38.447,104.512c0.579-3.004,2.04-5.721,4.174-7.855c1.194,2.779,1.534,5.844,0.969,8.849
				c-0.579,2.995-2.036,5.726-4.178,7.868C38.205,110.586,37.864,107.516,38.447,104.512L38.447,104.512z M44.476,127.798
				c0.398-3.028,1.687-5.833,3.693-8.093c1.363,2.702,1.893,5.745,1.498,8.773c-0.398,3.021-1.687,5.832-3.697,8.085
				C44.603,133.871,44.078,130.826,44.476,127.798L44.476,127.798z M151.658,131.598c4.673-1.407,8.602-4.485,11.044-8.685
				c2.442-4.193,3.197-9.134,2.121-13.907l-0.472-2.089l-2.061,0.606c-2.368,0.711-4.538,1.852-6.435,3.357
				c0.44-2.339,0.44-4.748-0.029-7.115c-0.915-4.785-3.59-9.005-7.534-11.877l-1.741-1.272l-1.145,1.827
				c-2.585,4.115-3.509,9.031-2.601,13.82c0.919,4.752,3.574,8.947,7.485,11.828c-0.727,1.638-1.219,3.353-1.457,5.113
				c-1.162-3.177-3.14-6.024-5.804-8.225l-1.662-1.375l-1.251,1.754c-2.832,3.955-4.055,8.807-3.427,13.641
				c0.628,4.814,3.053,9.193,6.812,12.312l0.09,0.053c-1.108,1.506-1.978,3.144-2.598,4.889c-0.48-3.35-1.822-6.538-3.981-9.252
				l-1.342-1.682l-1.588,1.457c-3.583,3.287-5.773,7.772-6.172,12.64c-0.374,4.843,1.095,9.62,4.128,13.444l0.082,0.099
				c-1.399,1.223-2.586,2.659-3.558,4.227c0.23-3.38-0.431-6.788-1.979-9.883l-0.964-1.92l-1.851,1.1
				c-4.195,2.488-7.269,6.428-8.656,11.098c-1.366,4.67-0.919,9.636,1.273,14.011l0.044,0.106c-1.617,0.92-3.073,2.069-4.346,3.405
				c0.919-3.257,0.977-6.729,0.099-10.07l-0.546-2.076l-2.043,0.682c-4.609,1.559-8.426,4.784-10.752,9.078
				c-2.229,4.146-2.836,8.93-1.749,13.501c-0.611,0.428-1.256,0.861-1.929,1.321c-0.675-0.46-1.312-0.894-1.929-1.321
				c1.088-4.571,0.484-9.355-1.748-13.509c-2.328-4.286-6.144-7.512-10.753-9.07l-2.04-0.682l-0.546,2.076
				c-0.878,3.341-0.821,6.813,0.099,10.07c-1.272-1.336-2.729-2.485-4.35-3.405l0.054-0.106c2.183-4.375,2.63-9.341,1.264-14.011
				c-1.387-4.67-4.461-8.609-8.651-11.098l-1.852-1.1l-0.964,1.92c-1.555,3.095-2.203,6.503-1.978,9.883
				c-0.977-1.575-2.167-3.004-3.558-4.227l0.074-0.099c3.045-3.824,4.51-8.602,4.129-13.453c-0.39-4.858-2.582-9.344-6.173-12.631
				l-1.588-1.457l-1.333,1.682c-2.159,2.714-3.505,5.902-3.981,9.252c-0.624-1.745-1.494-3.383-2.602-4.889l0.091-0.053
				c3.768-3.119,6.189-7.498,6.816-12.312c0.624-4.834-0.59-9.686-3.426-13.641l-1.251-1.754l-1.658,1.375
				c-2.671,2.2-4.65,5.048-5.803,8.232c-0.242-1.769-0.73-3.483-1.461-5.121c3.911-2.881,6.571-7.076,7.486-11.828
				c0.907-4.795-0.017-9.705-2.606-13.82l-1.145-1.827l-1.736,1.272c-3.944,2.872-6.624,7.092-7.543,11.868
				c-0.456,2.376-0.464,4.785-0.025,7.124c-1.892-1.506-4.067-2.646-6.435-3.357l-2.061-0.606l-0.472,2.089
				c-1.075,4.773-0.315,9.714,2.126,13.907c2.441,4.199,6.361,7.277,11.039,8.685l1.818,0.546c0.184,1.522,0.57,3.028,1.12,4.478
				c-2.593-1.662-5.557-2.672-8.684-2.922l-2.139-0.181l-0.033,2.159c-0.065,4.883,1.696,9.549,4.946,13.148
				c3.259,3.604,7.736,5.812,12.603,6.223l1.888,0.154c0.497,1.461,1.182,2.854,2.019,4.137c-2.113-0.787-4.354-1.206-6.656-1.206
				c-0.817,0-1.634,0.049-2.438,0.147l-2.134,0.279l0.415,2.102c0.948,4.801,3.632,9.012,7.563,11.868
				c3.267,2.381,7.149,3.627,11.211,3.627c0.801,0,1.605-0.05,2.397-0.149l1.879-0.235c0.796,1.321,1.744,2.536,2.84,3.637
				c-3.049-0.452-6.181-0.19-9.127,0.836l-2.035,0.716l0.85,1.978c1.912,4.489,5.413,8.051,9.841,10.03
				c2.462,1.099,5.069,1.657,7.748,1.657c2.143,0,4.26-0.362,6.292-1.059l1.498-0.526c2.508,2.127,5.331,4.244,9.205,6.902
				c-1.764,1.166-3.726,2.447-5.917,3.851l3.78,2.339c2.129-1.369,4.021-2.609,5.741-3.759c1.725,1.149,3.612,2.39,5.746,3.759
				l3.775-2.339c-2.192-1.403-4.149-2.685-5.914-3.851c3.87-2.658,6.693-4.775,9.201-6.902l1.498,0.526
				c2.035,0.696,4.153,1.059,6.292,1.059l0,0c2.679,0,5.286-0.559,7.748-1.65c4.436-1.986,7.933-5.548,9.85-10.037l0.837-1.978
				l-2.027-0.716c-2.947-1.026-6.082-1.288-9.127-0.828c1.092-1.101,2.044-2.323,2.84-3.645l1.879,0.235
				c0.792,0.1,1.601,0.149,2.397,0.149l0,0c4.062,0,7.937-1.246,11.208-3.627c3.936-2.856,6.62-7.067,7.563-11.868l0.414-2.102
				l-2.129-0.279c-0.809-0.099-1.629-0.147-2.438-0.147c-2.302,0-4.543,0.419-6.657,1.206c0.837-1.283,1.515-2.676,2.019-4.137
				l1.883-0.154c4.871-0.411,9.345-2.619,12.6-6.223c3.258-3.6,5.015-8.266,4.949-13.148l-0.025-2.159l-2.15,0.181
				c-3.114,0.25-6.081,1.26-8.675,2.922c0.554-1.449,0.931-2.955,1.119-4.478L151.658,131.598L151.658,131.598z" />
				<path fill="#BF5700" d="M152.175,174.032c-4.092,5.983-8.775,11.54-14.417,16.942c-17.405,15.986-36.956,24.828-42.463,27.117
				c-5.508-2.289-25.055-11.131-42.468-27.117c-5.643-5.402-10.321-10.959-14.413-16.942c-19.772-28.953-22.37-62.527-22.387-88.616
				h0.024l79.264-4.402l79.247,4.395C174.542,111.496,171.947,145.079,152.175,174.032L152.175,174.032z M20.254,18.043
				c14.738-1.639,47.864-4.934,75.062-4.934c27.188,0,60.319,3.295,75.052,4.934l4.125,58.057H95.315H16.134L20.254,18.043
				L20.254,18.043z M182.597,11.324l-3.513-0.439C178.617,10.828,131.803,5,95.34,5c-0.008,0-0.016,0-0.024,0s-0.021,0-0.029,0
				c-36.46,0-83.273,5.828-83.737,5.885l-3.517,0.439V76.1H8v9.037c0,27.292,2.705,62.557,23.786,93.435
				c4.347,6.361,9.284,12.23,15.197,17.935l-0.004,0.008c0.041,0.033,0.078,0.065,0.119,0.099
				c11.438,11.007,26.552,21.381,48.176,33.431v0.032c0.008-0.017,0.012-0.017,0.021-0.017s0.012,0,0.021,0.017v-0.032
				c21.618-12.05,36.738-22.424,48.175-33.431c0.041-0.033,0.078-0.065,0.115-0.099v-0.008c5.914-5.704,10.846-11.573,15.202-17.935
				c21.077-30.878,23.786-66.143,23.786-93.435v-1.283h0.004V11.324L182.597,11.324z" />
			</g>
			<g>
				<polygon fill="#BF5700" points="230.018,18.399 230.018,64.133 240.089,64.133 251.982,31.318 290.74,30.797 290.74,187.395 
				259.73,190.761 261.022,199.806 304.434,199.024 346.294,199.806 347.587,190.761 317.87,187.395 317.87,30.797 356.632,31.318 
				368.521,64.133 378.601,64.133 378.601,18.399 304.18,19.176 			" />
				<polygon fill="#BF5700" points="514.266,186.887 443.208,187.657 443.208,110.13 479.384,111.164 489.727,138.3 498.771,138.3 
				496.182,103.416 498.771,71.109 489.727,71.109 479.384,98.245 443.208,99.279 443.208,30.539 511.691,31.318 526.15,64.909 
				534.951,64.909 532.356,18.399 429.772,19.176 394.114,18.399 392.816,27.444 416.075,30.797 416.075,187.395 392.816,190.761 
				394.114,199.806 429.772,199.024 532.356,199.806 541.401,151.996 531.585,151.996 			" />
				<path fill="#BF5700" d="M814.295,16.072l-15.504,4.396l-64.088,167.453l-12.442,1.674l-12.369-1.938l-57.364-84.504
				l52.963-72.869l20.16-2.84l-1.279-9.045l-30.238,0.776l-30.238-0.776l-1.295,9.045l22.488,3.353L644.064,91.08l-36.499-60.541
				l21.964-3.354l-1.29-9.045l-36.696,1.035l-36.951-1.035l-1.297,9.045l20.158,2.84l53.489,80.881l-55.813,76.751l-20.16,2.84
				l1.299,9.309l28.941-0.781l30.229,0.781l1.296-9.309l-21.191-3.103l44.053-64.443l40.185,64.188l-21.965,3.357l1.297,9.309
				l36.952-0.781l30.196,0.642l21.225-0.642l31.01,0.781l1.297-9.045l-22.493-3.366l16.814-48.324h63.824l17.572,48.324
				l-21.973,3.366l1.298,9.045l34.108-0.781l35.666,0.781l1.285-9.045l-20.155-2.84L814.295,16.072z M774.248,126.924l26.8-77.482
				l28.234,77.482H774.248z" />
				<path fill="#BF5700" d="M989.509,98.245l-29.731-12.919c-14.197-6.205-24.276-14.987-24.276-29.203
				c0-17.314,12.147-28.429,32.552-28.429c15.514,0,23.778,5.692,30.496,12.669l7.49,23.512h12.919V28.992
				c-12.919-9.559-31.01-14.988-47.278-14.988c-35.924,7.498-61.773,24.033-61.773,52.197c0,22.999,15.252,34.884,33.857,42.895
				l31.266,13.695c15.514,6.722,26.872,16.801,26.872,34.365c0,18.869-12.919,32.824-35.138,32.824
				c-14.469,0-28.686-6.723-36.434-16.275l-9.045-21.965h-18.091l5.679,34.884c13.709,10.85,29.73,17.563,53.501,17.563
				c48.573-10.071,65.12-33.586,65.12-57.877C1027.749,119.946,1009.913,107.027,989.509,98.245z" />
			</g>
		</g>
		<g>
			<path fill="#BF5700" d="M310.457,277.696l-5.169,0.165l-0.277-1.925l2.699-0.545v-15.732c0-2.865-1.321-4.129-3.521-4.129
			c-1.652,0-3.794,1.212-5.832,2.473l-1.65,1.044v16.345l3.024,0.545l-0.277,1.925l-5.224-0.165l-5.778,0.165l-0.273-1.925
			l3.299-0.545v-33.667l-1.982,0.323l-11.164-0.166v33.343l6.326,0.712l-0.272,1.925l-8.914-0.165l-9.245,0.165l-0.272-1.925
			l6.599-0.712v-33.343l-8.25,0.166l-2.53,6.877h-2.149v-9.736l15.792,0.111l13.529-0.111l5.891-0.657h1.871v17.824l8.031-5.229
			c7.042,0,8.195,2.642,8.195,9.63v14.636l4.126,0.545l-0.272,1.925L310.457,277.696z" />
			<path fill="#BF5700" d="M324.77,263.775c0,6.275,3.354,10.736,9.128,10.736c2.205,0,4.846-1.046,6.876-2.313l0.885,2.091
			c-2.643,1.813-6.108,3.36-9.63,4.349c-6.659,0-12.655-4.736-12.655-13.371c0-8.145,4.9-12.484,12.432-14.141
			c7.265,0,9.742,4.571,9.742,10.348v2.302H324.77z M335.823,261.027c0-4.233-0.823-7.154-5.056-7.154
			c-3.36,0-5.503,3.138-5.947,7.711L335.823,261.027z" />
			<path fill="#BF5700" d="M379.015,241.168l0.272-1.924l7.042,0.166l6.437-0.166l0.277,1.924l-4.679,0.714v22.449
			c0,7.153-2.914,11.938-13.861,14.466c-10.838,0-14.692-5.832-14.692-14.576v-22.339l-4.951-0.714l0.279-1.924l7.588,0.166
			l7.537-0.166l0.277,1.924l-4.677,0.714v23.163c0,6.82,2.914,10.725,9.189,10.725c5.718,0,8.911-3.849,8.911-10.891v-22.997
			L379.015,241.168z" />
			<path fill="#BF5700" d="M400.475,277.696l-6.33,0.165l-0.273-1.925l3.849-0.545v-20.083l-3.849,0.333l-0.274-1.925l6.6-1.712
			l2.368-0.167l0.273,4.628l8.145-5.34c7.042,0,8.193,2.369,8.193,8.967v15.299l4.184,0.545l-0.277,1.925l-6.326-0.165l-5.279,0.165
			l-0.277-1.925l2.753-0.545v-15.732c0-2.865-1.268-4.129-3.634-4.129c-1.925,0-3.849,1.212-5.723,2.473l-1.647,1.1v16.289
			l3.027,0.545l-0.277,1.925L400.475,277.696z" />
			<path fill="#BF5700" d="M432.001,277.696l-6.331,0.165l-0.272-1.925l3.849-0.545v-20.083l-3.849,0.333l-0.277-1.925l6.603-1.712
			l2.751-0.218v23.604l4.125,0.545l-0.274,1.925L432.001,277.696z M429.247,239.845l3.962-0.268l1.539,0.268l0.275,3.082
			l-0.604,2.648l-3.909,0.322l-1.483-0.322l-0.33-3.083L429.247,239.845z" />
			<path fill="#BF5700" d="M454.059,274.289l6.659-19.914l-2.532-0.558l0.272-1.924l4.846,0.167l4.568-0.167l0.272,1.924
			l-3.521,0.558l-9.023,22.608l-4.016,1.654l-9.575-24.263l-3.41-0.558l0.277-1.924l6.326,0.167l5.774-0.167l0.277,1.924
			l-3.632,0.558l5.998,16.121L454.059,274.289z" />
			<path fill="#BF5700" d="M473.536,263.775c0,6.275,3.357,10.736,9.134,10.736c2.202,0,4.84-1.046,6.876-2.313l0.879,2.091
			c-2.638,1.813-6.104,3.36-9.625,4.349c-6.659,0-12.655-4.736-12.655-13.371c0-8.145,4.896-12.484,12.433-14.141
			c7.264,0,9.738,4.571,9.738,10.348v2.302H473.536z M484.594,261.027c0-4.233-0.822-7.154-5.06-7.154
			c-3.354,0-5.503,3.138-5.942,7.711L484.594,261.027z" />
			<path fill="#BF5700" d="M502.644,259.103l6.271-7.699h4.399v5.497h-4.068c-1.322,0.277-3.741,2.091-5.227,3.904l-1.102,1.324
			v13.096l5.779,0.545l-0.277,2.092l-7.977-0.165l-6.159,0.165l-0.278-1.925l3.849-0.545v-20.083l-3.849,0.333l-0.272-1.925
			l6.598-1.712l2.203-0.167L502.644,259.103z" />
			<path fill="#BF5700" d="M530.648,255.031c-0.559-0.324-2.203-1.214-4.186-1.214c-2.143,0-4.178,1.158-4.178,3.249
			c0,1.759,1.375,2.86,3.849,4.13l4.235,2.146c3.685,1.869,5.172,3.961,5.172,7.098c0,4.952-4.014,6.821-10.343,8.198
			c-3.352,0-6.934-1.654-8.358-2.479l-1.047-6.218h3.519l1.868,4.571c1.159,0.769,2.758,1.369,4.521,1.369
			c2.913,0,4.39-1.869,4.39-4.175c0-2.146-1.146-3.08-4.014-4.57l-4.341-2.257c-2.368-1.204-4.625-3.295-4.625-6.377
			c0-3.85,3.583-5.996,9.955-7.376c2.972,0,6.164,1.324,7.767,2.479v5.497h-2.92L530.648,255.031z" />
			<path fill="#BF5700" d="M545.834,277.696l-6.329,0.165l-0.279-1.925l3.849-0.545v-20.083l-3.849,0.333l-0.269-1.925l6.602-1.712
			l2.745-0.218v23.604l4.129,0.545l-0.28,1.925L545.834,277.696z M543.074,239.845l3.966-0.268l1.543,0.268l0.28,3.082l-0.613,2.648
			l-3.902,0.322l-1.485-0.322l-0.328-3.083L543.074,239.845z" />
			<path fill="#BF5700" d="M573.12,290.733v-5.497h4.726l5.452-8.309l-2.204,0.666l-9.242-23.164h-8.301v16.777
			c0,1.592,0.603,3.305,2.918,3.305c1.591,0,3.3-0.777,4.837-1.547l0.933,1.869l-6.929,3.804c-6.164,0-6.988-2.202-6.988-7.153
			v-16.397h-5.34v-0.935l1.931-1.926h3.578v-3.571l3.569-3.583h1.438v6.877h17.331l0.266,1.868l-3.628,0.558l6.111,16.121
			l0.435,3.793l6.818-19.914l-2.525-0.558l0.275-1.924l4.842,0.167l4.563-0.167l0.28,1.924l-3.52,0.558l-8.922,22.495l-6.153,13.863
			H573.12z" />
			<path fill="#BF5700" d="M634.527,264.331c0,8.2-5.006,12.93-13.544,14.307c-7.31,0-12.261-5.673-12.261-13.149
			c0-8.256,4.992-12.927,13.533-14.362C629.574,251.126,634.527,256.845,634.527,264.331z M622.364,275.937
			c4.397,0,6.655-4.508,6.655-10.448c0-6.986-3.357-11.671-8.143-11.671c-4.455,0-6.656,4.519-6.656,10.514
			C614.221,270.606,617.472,275.937,622.364,275.937z" />
			<path fill="#BF5700" d="M646.899,252.506h6.875v2.581h-6.875v20.305l6.329,0.378l-0.275,2.092l-8.526-0.165l-6.329,0.165
			l-0.279-1.925l3.854-0.545v-20.305h-4.839v-0.935l1.655-1.926h3.184v-0.545c0-3.305,1.046-5.451,3.023-7.709l4.631-5.219h6.927
			v4.395h-7.148l-1.051,1.49c-0.763,1.047-1.154,2.639-1.154,6.21V252.506z" />
			<path fill="#BF5700"
				d="M695.868,277.861l-8.913-0.165l-9.247,0.165l-0.266-1.925l6.599-0.712v-33.343l-8.253,0.11l-2.527,6.988
			h-2.151v-9.736l15.792,0.166l15.841-0.166v9.736h-2.146l-2.522-6.988l-8.258-0.11v33.343l6.328,0.712L695.868,277.861z" />
			<path fill="#BF5700" d="M705.656,263.775c0,6.275,3.361,10.736,9.136,10.736c2.204,0,4.843-1.046,6.877-2.313l0.878,2.091
			c-2.637,1.813-6.104,3.36-9.627,4.349c-6.651,0-12.647-4.736-12.647-13.371c0-8.145,4.896-12.484,12.426-14.141
			c7.265,0,9.739,4.571,9.739,10.348v2.302H705.656z M716.717,261.027c0-4.233-0.825-7.154-5.061-7.154
			c-3.348,0-5.499,3.138-5.942,7.711L716.717,261.027z" />
			<path fill="#BF5700" d="M734.987,275.937l-0.275,1.925l-4.292-0.165l-5.668,0.165l-0.275-1.925l3.859-0.545l8.133-10.014
			l-7.979-10.948l-3.405-0.557l0.271-1.979l6.327,0.167l5.229-0.167l0.279,1.979l-2.151,0.557l4.076,6.107l0.435,1.426l5.229-7.533
			l-2.695-0.557l0.275-1.979l4.287,0.167l5.672-0.167l0.271,1.979l-3.96,0.557l-7.266,8.801l8.645,12.161l3.405,0.545l-0.266,1.925
			l-6.333-0.165l-5.229,0.165l-0.273-1.925l2.256-0.545l-4.899-7.098l-0.436-1.27l-5.833,8.367L734.987,275.937z" />
			<path fill="#BF5700" d="M766.186,251.126c6.933,0,8.688,1.759,8.688,8.745v10.791c0,2.358,0.379,3.239,0.936,4.117h2.749
			l0.223,1.93l-7.1,1.374l-1.698-4.237l-6.552,4.792c-4.731,0-8.093-2.646-8.093-7.042c0-1.98,0.724-3.413,1.93-5.061l12.377-4.129
			v-2.747c0-3.304-0.275-5.284-3.247-5.284c-1.48,0-3.294,0.49-4.505,0.989l-0.936,4.351h-4.731v-4.185L766.186,251.126z
			 M769.645,264.608l-7.974,3.295c-0.824,0.831-1.104,1.924-1.104,3.082c0,2.805,1.601,3.794,3.192,3.794
			c1.537,0,2.859-0.934,3.574-1.426l2.311-1.6V264.608z" />
			<path fill="#BF5700" d="M795.837,255.031c-0.555-0.324-2.201-1.214-4.184-1.214c-2.146,0-4.182,1.158-4.182,3.249
			c0,1.759,1.38,2.86,3.85,4.13l4.236,2.146c3.685,1.869,5.174,3.961,5.174,7.098c0,4.952-4.018,6.821-10.346,8.198
			c-3.348,0-6.932-1.654-8.355-2.479l-1.046-6.218h3.517l1.871,4.571c1.157,0.769,2.759,1.369,4.515,1.369
			c2.914,0,4.396-1.869,4.396-4.175c0-2.146-1.147-3.08-4.019-4.57l-4.341-2.257c-2.365-1.204-4.623-3.295-4.623-6.377
			c0-3.85,3.581-5.996,9.954-7.376c2.975,0,6.168,1.324,7.769,2.479v5.497h-2.918L795.837,255.031z" />
			<path fill="#BF5700" d="M828.458,251.126c6.931,0,8.691,1.759,8.691,8.745v10.791c0,2.358,0.387,3.239,0.937,4.117h2.754
			l0.207,1.93l-7.085,1.374l-1.708-4.237l-6.541,4.792c-4.731,0-8.093-2.646-8.093-7.042c0-1.98,0.713-3.413,1.928-5.061
			l12.378-4.129v-2.747c0-3.304-0.274-5.284-3.246-5.284c-1.49,0-3.304,0.49-4.518,0.989l-0.934,4.351h-4.73v-4.185L828.458,251.126
			z M831.926,264.608l-7.973,3.295c-0.838,0.831-1.105,1.924-1.105,3.082c0,2.805,1.593,3.794,3.193,3.794
			c1.539,0,2.86-0.934,3.574-1.426l2.311-1.6V264.608z" />
			<path fill="#BF5700" d="M840.791,255.087v-0.935l1.925-1.926h3.569v-3.571l3.584-3.583h1.423v7.545h8.311v2.47h-8.253v16.12
			c0,1.592,0.609,3.305,2.913,3.305c1.603,0,2.802-0.555,4.352-1.325l0.931,1.87l-6.439,3.581c-6.154,0-6.984-2.202-6.984-7.153
			v-16.397H840.791z" />
			<path fill="#BF5700" d="M882.823,264.934l-3.58,10.291l4.781,0.712l-0.266,1.925l-6.607-0.165l-5.886,0.165l-0.279-1.925
			l4.293-0.601l13.639-35.648l3.307-0.934l14.364,36.582l4.282,0.601l-0.269,1.925l-7.597-0.165l-7.255,0.165l-0.276-1.925
			l4.671-0.712l-3.738-10.291H882.823z M890.136,247.822l-0.381-2.972l-6.053,17.5h11.715L890.136,247.822z" />
			<path fill="#BF5700" d="M934.262,270.662c0,2.358,0.279,3.239,0.655,4.117h2.76l0.212,1.93l-7.104,1.374l-1.531-4.45l-7.978,5.005
			c-7.265,0-8.472-2.591-8.472-8.967v-14.362l-3.853,0.277l-0.27-2.146l6.599-1.435l2.749-0.218v18.319
			c0,2.858,1.211,4.128,3.902,4.128c1.712,0,3.907-1.381,6-2.75l1.1-0.72v-15.456l-3.294,0.277l-0.279-2.146l6.053-1.435l2.75-0.218
			V270.662z" />
			<path fill="#BF5700" d="M955.225,255.031c-0.549-0.324-2.204-1.214-4.187-1.214c-2.147,0-4.183,1.158-4.183,3.249
			c0,1.759,1.38,2.86,3.85,4.13l4.239,2.146c3.694,1.869,5.176,3.961,5.176,7.098c0,4.952-4.018,6.821-10.347,8.198
			c-3.352,0-6.931-1.654-8.358-2.479l-1.047-6.218h3.517l1.877,4.571c1.151,0.769,2.753,1.369,4.509,1.369
			c2.918,0,4.405-1.869,4.405-4.175c0-2.146-1.154-3.08-4.016-4.57l-4.35-2.257c-2.368-1.204-4.615-3.295-4.615-6.377
			c0-3.85,3.568-5.996,9.955-7.376c2.971,0,6.154,1.324,7.756,2.479v5.497h-2.913L955.225,255.031z" />
			<path fill="#BF5700" d="M961.881,255.087v-0.935l1.924-1.926h3.579v-3.571l3.575-3.583h1.433v7.545h8.3v2.47h-8.242v16.12
			c0,1.592,0.598,3.305,2.913,3.305c1.592,0,2.803-0.555,4.339-1.325l0.932,1.87l-6.428,3.581c-6.164,0-6.985-2.202-6.985-7.153
			v-16.397H961.881z" />
			<path fill="#BF5700" d="M990.44,277.696l-6.328,0.165l-0.279-1.925l3.847-0.545v-20.083l-3.847,0.333l-0.271-1.925l6.599-1.712
			l2.749-0.218v23.604l4.129,0.545l-0.279,1.925L990.44,277.696z M987.68,239.845l3.965-0.268l1.546,0.268l0.275,3.082l-0.608,2.648
			l-3.908,0.322l-1.479-0.322l-0.333-3.083L987.68,239.845z" />
			<path fill="#BF5700" d="M1006.117,277.696l-6.329,0.165l-0.269-1.925l3.849-0.545v-20.083l-3.849,0.333l-0.281-1.925l6.6-1.712
			l2.372-0.167l0.275,4.628l8.132-5.34c7.043,0,8.201,2.369,8.201,8.967v15.299l4.182,0.545l-0.274,1.925l-6.319-0.165l-5.287,0.165
			l-0.279-1.925l2.752-0.545v-15.732c0-2.865-1.261-4.129-3.63-4.129c-1.925,0-3.849,1.212-5.716,2.473l-1.66,1.1v16.289
			l3.023,0.545l-0.264,1.925L1006.117,277.696z" />
		</g>
	</g>
</svg>