<svg xmlns="http://www.w3.org/2000/svg" viewBox="0 0 130.06 72.26"><g id="Layer_2" data-name="Layer 2"><g id="Layer_1-2" data-name="Layer 1"><path d="M46.7,30.4V45.1H18V71.5H0V0H53.2V14.7H18V30.4Z"/><path d="M93.77,36.35h10.57A90,90,0,0,0,119.51,35q-5.85,7-11,7l-4.21-.1-4.79-.1-3.82-.1H93.13l-.35,3.6-.49,4.34q-.83,7-3,10.09c-1.45,2.08-4.27,4.11-8.43,6.09l13.61.74-5.89,5.72L65.22,71.17l6.36-6.11,5.32.59q6-3.8,7.4-15.54l.54-4.83,3.89-35.11H87.06q-9.57,0-15,3.92a12.51,12.51,0,0,0-5.45,10.72,17.8,17.8,0,0,0,2.27,8.39l-8,7.69a26.28,26.28,0,0,1-1.14-7.5q0-13.8,11.49-22.34Q79.61,4.84,95,4.84h16.33q9.16,0,18.69-.69l-4,10.14-.79,1.83Q124.09,19,122.17,19a4.84,4.84,0,0,1-.74-.05,18.61,18.61,0,0,0,.59-3.94q0-3.25-3.46-4.07t-17.14-.81H96.67Z"/></g></g></svg>