<svg version="1.0" xmlns="http://www.w3.org/2000/svg" preserveAspectRatio="xMidYMid meet" viewBox="0 231 1039.7 578"> <metadata> Created by potrace 1.11, written by Peter Selinger 2001-2013 </metadata> <g transform="translate(0.000000,1040.000000) scale(0.100000,-0.100000)" stroke="none"> <path d="M0 5230 l0 -2860 715 0 c687 0 715 1 724 19 6 10 8 21 5 24 -4 4 -5 35 -4 142 1 51 1 202 1 215 -3 71 -2 121 4 130 3 5 3 10 -2 10 -4 0 -7 26 -6 57 3 96 3 125 2 185 0 32 2 62 6 68 3 5 3 10 -2 10 -4 0 -7 26 -6 57 3 96 3 125 2 185 0 32 2 62 6 68 3 5 3 10 -2 10 -4 0 -7 26 -6 57 3 96 3 125 2 185 0 32 2 62 6 68 3 5 3 10 -2 10 -6 0 -9 203 -3 245 1 6 1 33 1 60 -3 123 -2 176 4 185 3 6 3 10 -2 10 -4 0 -7 17 -6 37 1 21 2 47 2 58 1 20 8 20 1148 19 l1148 0 0 585 0 586 -1143 2 c-629 1 -1146 3 -1148 6 -4 4 -5 29 -3 87 0 8 -1 74 -1 145 -1 72 -1 135 0 140 1 6 1 33 1 60 -1 42 -1 101 -1 158 1 6 0 66 0 132 -1 66 -1 125 0 130 1 6 1 33 0 60 -2 122 -1 155 5 165 3 5 3 10 -2 10 -4 0 -7 26 -6 57 1 32 2 69 2 83 l1 25 1407 0 1407 0 1 588 0 587 -2127 0 -2128 0 0 -2860z"/> <path d="M10337 7754 c-1 -1 -60 -5 -132 -9 -71 -4 -152 -9 -180 -11 -49 -3 -240 -12 -425 -20 -52 -2 -563 -6 -1135 -8 -932 -3 -1188 -8 -1320 -22 -22 -2 -65 -6 -95 -9 -83 -8 -129 -14 -169 -20 -20 -4 -49 -8 -66 -11 -27 -3 -81 -14 -155 -30 -14 -3 -36 -7 -50 -10 -231 -46 -563 -173 -740 -283 -69 -42 -203 -132 -210 -140 -3 -3 -27 -24 -55 -46 -110 -88 -236 -210 -326 -316 -93 -109 -84 -98 -199 -269 -42 -63 -160 -308 -160 -333 0 -9 -5 -17 -12 -17 -6 0 -9 -3 -6 -6 3 -3 -3 -29 -13 -57 -65 -175 -111 -466 -112 -697 0 -91 10 -249 18 -290 3 -14 10 -52 15 -85 18 -108 20 -120 30 -145 9 -22 17 -57 19 -82 2 -18 25 -5 75 45 30 28 129 124 221 212 92 88 209 201 261 251 l93 90 -17 30 c-59 97 -133 322 -148 444 -2 19 -7 47 -10 62 -9 45 -5 323 5 323 1 0 4 14 7 30 7 51 9 60 17 73 5 6 6 12 3 12 -8 0 43 130 77 195 125 240 376 438 693 548 117 41 271 78 379 92 22 3 51 8 65 10 120 19 520 28 515 11 -2 -6 -7 -40 -10 -76 -4 -36 -8 -76 -10 -90 -1 -14 -5 -56 -9 -95 -4 -38 -9 -81 -11 -95 -2 -14 -7 -52 -10 -85 -4 -33 -8 -73 -10 -90 -2 -16 -6 -59 -10 -95 -3 -36 -7 -76 -10 -88 -2 -13 -7 -51 -10 -85 -3 -34 -8 -78 -10 -97 -2 -19 -7 -57 -10 -85 -3 -27 -8 -70 -11 -95 -2 -25 -7 -63 -9 -85 -2 -22 -7 -67 -11 -100 -4 -33 -8 -71 -9 -85 -12 -111 -23 -210 -30 -265 -3 -22 -7 -60 -10 -85 -5 -62 -14 -146 -21 -200 -7 -57 -11 -90 -18 -165 -4 -33 -9 -78 -12 -100 -2 -22 -6 -56 -8 -75 -4 -37 -14 -129 -22 -195 -3 -22 -7 -65 -9 -95 -3 -30 -7 -66 -10 -80 -3 -14 -8 -50 -10 -80 -6 -68 -12 -127 -21 -205 -4 -33 -8 -71 -9 -85 -25 -223 -48 -393 -62 -455 -2 -11 -6 -33 -9 -50 -9 -56 -54 -214 -90 -316 -89 -256 -226 -460 -395 -587 -47 -36 -61 -41 -95 -38 -21 3 -68 7 -104 10 -36 3 -76 8 -90 10 -14 2 -59 7 -99 11 -41 3 -78 8 -81 10 -3 2 -11 0 -18 -4 -17 -10 -502 -477 -502 -483 0 -2 21 -4 48 -4 83 -2 335 -14 402 -19 36 -2 135 -7 220 -10 85 -3 184 -8 220 -10 36 -2 124 -6 195 -10 72 -3 173 -8 225 -11 52 -2 139 -6 192 -8 53 -2 102 -7 108 -11 5 -3 10 -1 10 5 0 6 5 8 10 5 6 -4 61 -9 123 -11 l112 -4 235 229 235 230 -65 2 c-36 0 -90 3 -120 4 -55 4 -190 11 -350 20 -47 3 -119 7 -160 9 -231 14 -328 19 -354 18 -40 -2 -27 8 79 64 137 71 251 142 334 207 84 66 221 204 221 223 0 7 4 14 9 16 11 4 83 138 73 138 -4 0 -2 4 3 8 6 4 19 34 29 67 11 33 22 65 25 70 3 6 7 15 8 20 1 6 7 28 13 50 16 60 17 66 29 116 6 25 13 61 15 80 3 19 10 61 15 94 6 33 13 79 16 103 3 23 7 59 10 80 2 20 7 64 10 97 3 33 7 69 9 80 2 11 7 52 10 90 4 39 9 86 11 105 3 19 7 67 10 105 3 39 7 81 10 95 l5 25 148 -1 c81 -1 282 -5 447 -9 411 -10 703 -11 745 -3 160 31 317 115 484 258 64 54 220 215 264 272 13 16 11 17 -17 13 -47 -7 -83 -13 -116 -19 -39 -6 -108 -16 -148 -21 -18 -2 -54 -6 -82 -10 -97 -12 -124 -15 -197 -20 -40 -4 -89 -8 -108 -11 -104 -12 -341 -18 -825 -18 l-540 -1 1 35 c0 19 4 64 8 100 11 106 14 132 21 195 3 33 8 71 10 85 2 14 7 57 10 95 3 39 8 84 10 100 3 17 7 53 10 80 8 73 14 129 21 183 6 54 11 101 19 187 3 33 8 78 11 100 4 22 8 53 9 70 12 118 16 154 20 185 3 19 7 62 11 95 11 111 13 130 19 180 7 52 10 83 19 175 5 55 8 77 21 178 7 47 10 52 34 53 14 1 31 0 36 -1 21 -5 125 -1 135 5 5 3 10 2 10 -2 0 -5 31 -6 69 -3 38 3 68 3 66 0 -2 -3 31 -4 73 -2 43 2 82 3 87 3 46 1 659 -12 725 -16 152 -7 284 -15 323 -20 20 -3 56 -7 80 -10 39 -5 60 -8 112 -20 91 -19 177 -69 222 -129 64 -84 74 -209 33 -421 -6 -27 -12 -60 -15 -72 -4 -21 0 -23 43 -23 74 1 128 31 190 105 21 25 84 165 156 345 37 91 71 173 76 182 6 10 10 23 10 29 0 6 7 25 14 42 8 18 40 97 71 177 31 80 62 159 70 175 7 17 22 53 33 81 l19 52 -29 -2 c-16 0 -30 -2 -31 -2z"/> </g> </svg>