<svg xmlns="http://www.w3.org/2000/svg" version="1.0" viewBox="0 0 1040 1040"><style>path {fill:#000;}@media (prefers-color-scheme:dark) { path { fill: #fff; } }</style><path d="M0 517v286h71.5c68.7 0 71.5-.1 72.4-1.9.6-1 .8-2.1.5-2.4-.4-.4-.5-3.5-.4-14.2.1-5.1.1-20.2.1-21.5-.3-7.1-.2-12.1.4-13 .3-.5.3-1-.2-1-.4 0-.7-2.6-.6-5.7.3-9.6.3-12.5.2-18.5 0-3.2.2-6.2.6-6.8.3-.5.3-1-.2-1-.4 0-.7-2.6-.6-5.7.3-9.6.3-12.5.2-18.5 0-3.2.2-6.2.6-6.8.3-.5.3-1-.2-1-.4 0-.7-2.6-.6-5.7.3-9.6.3-12.5.2-18.5 0-3.2.2-6.2.6-6.8.3-.5.3-1-.2-1-.6 0-.9-20.3-.3-24.5.1-.6.1-3.3.1-6-.3-12.3-.2-17.6.4-18.5.3-.6.3-1-.2-1-.4 0-.7-1.7-.6-3.7.1-2.1.2-4.7.2-5.8.1-2 .8-2 114.8-1.9h114.8V474.5l-114.3-.2c-62.9-.1-114.6-.3-114.8-.6-.4-.4-.5-2.9-.3-8.7 0-.8-.1-7.4-.1-14.5-.1-7.2-.1-13.5 0-14 .1-.6.1-3.3.1-6-.1-4.2-.1-10.1-.1-15.8.1-.6 0-6.6 0-13.2-.1-6.6-.1-12.5 0-13 .1-.6.1-3.3 0-6-.2-12.2-.1-15.5.5-16.5.3-.5.3-1-.2-1-.4 0-.7-2.6-.6-5.7.1-3.2.2-6.9.2-8.3l.1-2.5h281.4l.1-58.8V231H0v286zM1033.7 264.6c-.1.1-6 .5-13.2.9-7.1.4-15.2.9-18 1.1-4.9.3-24 1.2-42.5 2-5.2.2-56.3.6-113.5.8-93.2.3-118.8.8-132 2.2-2.2.2-6.5.6-9.5.9-8.3.8-12.9 1.4-16.9 2-2 .4-4.9.8-6.6 1.1-2.7.3-8.1 1.4-15.5 3-1.4.3-3.6.7-5 1-23.1 4.6-56.3 17.3-74 28.3-6.9 4.2-20.3 13.2-21 14-.3.3-2.7 2.4-5.5 4.6-11 8.8-23.6 21-32.6 31.6-9.3 10.9-8.4 9.8-19.9 26.9-4.2 6.3-16 30.8-16 33.3 0 .9-.5 1.7-1.2 1.7-.6 0-.9.3-.6.6.3.3-.3 2.9-1.3 5.7-6.5 17.5-11.1 46.6-11.2 69.7 0 9.1 1 24.9 1.8 29 .3 1.4 1 5.2 1.5 8.5 1.8 10.8 2 12 3 14.5.9 2.2 1.7 5.7 1.9 8.2.2 1.8 2.5.5 7.5-4.5 3-2.8 12.9-12.4 22.1-21.2 9.2-8.8 20.9-20.1 26.1-25.1l9.3-9-1.7-3c-5.9-9.7-13.3-32.2-14.8-44.4-.2-1.9-.7-4.7-1-6.2-.9-4.5-.5-32.3.5-32.3.1 0 .4-1.4.7-3 .7-5.1.9-6 1.7-7.3.5-.6.6-1.2.3-1.2-.8 0 4.3-13 7.7-19.5 12.5-24 37.6-43.8 69.3-54.8 11.7-4.1 27.1-7.8 37.9-9.2 2.2-.3 5.1-.8 6.5-1 12-1.9 52-2.8 51.5-1.1-.2.6-.7 4-1 7.6-.4 3.6-.8 7.6-1 9-.1 1.4-.5 5.6-.9 9.5-.4 3.8-.9 8.1-1.1 9.5-.2 1.4-.7 5.2-1 8.5-.4 3.3-.8 7.3-1 9-.2 1.6-.6 5.9-1 9.5-.3 3.6-.7 7.6-1 8.8-.2 1.3-.7 5.1-1 8.5-.3 3.4-.8 7.8-1 9.7-.2 1.9-.7 5.7-1 8.5-.3 2.7-.8 7-1.1 9.5-.2 2.5-.7 6.3-.9 8.5-.2 2.2-.7 6.7-1.1 10-.4 3.3-.8 7.1-.9 8.5-1.2 11.1-2.3 21-3 26.5-.3 2.2-.7 6-1 8.5-.5 6.2-1.4 14.6-2.1 20-.7 5.7-1.1 9-1.8 16.5-.4 3.3-.9 7.8-1.2 10-.2 2.2-.6 5.6-.8 7.5-.4 3.7-1.4 12.9-2.2 19.5-.3 2.2-.7 6.5-.9 9.5-.3 3-.7 6.6-1 8-.3 1.4-.8 5-1 8-.6 6.8-1.2 12.7-2.1 20.5-.4 3.3-.8 7.1-.9 8.5-2.5 22.3-4.8 39.3-6.2 45.5-.2 1.1-.6 3.3-.9 5-.9 5.6-5.4 21.4-9 31.6-8.9 25.6-22.6 46-39.5 58.7-4.7 3.6-6.1 4.1-9.5 3.8-2.1-.3-6.8-.7-10.4-1-3.6-.3-7.6-.8-9-1-1.4-.2-5.9-.7-9.9-1.1-4.1-.3-7.8-.8-8.1-1-.3-.2-1.1 0-1.8.4-1.7 1-50.2 47.7-50.2 48.3 0 .2 2.1.4 4.8.4 8.3.2 33.5 1.4 40.2 1.9 3.6.2 13.5.7 22 1 8.5.3 18.4.8 22 1 3.6.2 12.4.6 19.5 1 7.2.3 17.3.8 22.5 1.1 5.2.2 13.9.6 19.2.8 5.3.2 10.2.7 10.8 1.1.5.3 1 .1 1-.5s.5-.8 1-.5c.6.4 6.1.9 12.3 1.1l11.2.4 23.5-22.9 23.5-23-6.5-.2c-3.6 0-9-.3-12-.4-5.5-.4-19-1.1-35-2-4.7-.3-11.9-.7-16-.9-23.1-1.4-32.8-1.9-35.4-1.8-4 .2-2.7-.8 7.9-6.4 13.7-7.1 25.1-14.2 33.4-20.7 8.4-6.6 22.1-20.4 22.1-22.3 0-.7.4-1.4.9-1.6 1.1-.4 8.3-13.8 7.3-13.8-.4 0-.2-.4.3-.8.6-.4 1.9-3.4 2.9-6.7 1.1-3.3 2.2-6.5 2.5-7 .3-.6.7-1.5.8-2 .1-.6.7-2.8 1.3-5 1.6-6 1.7-6.6 2.9-11.6.6-2.5 1.3-6.1 1.5-8 .3-1.9 1-6.1 1.5-9.4.6-3.3 1.3-7.9 1.6-10.3.3-2.3.7-5.9 1-8 .2-2 .7-6.4 1-9.7.3-3.3.7-6.9.9-8 .2-1.1.7-5.2 1-9 .4-3.9.9-8.6 1.1-10.5.3-1.9.7-6.7 1-10.5.3-3.9.7-8.1 1-9.5l.5-2.5 14.8.1c8.1.1 28.2.5 44.7.9 41.1 1 70.3 1.1 74.5.3 16-3.1 31.7-11.5 48.4-25.8 6.4-5.4 22-21.5 26.4-27.2 1.3-1.6 1.1-1.7-1.7-1.3-4.7.7-8.3 1.3-11.6 1.9-3.9.6-10.8 1.6-14.8 2.1-1.8.2-5.4.6-8.2 1-9.7 1.2-12.4 1.5-19.7 2-4 .4-8.9.8-10.8 1.1-10.4 1.2-34.1 1.8-82.5 1.8l-54 .1.1-3.5c0-1.9.4-6.4.8-10 1.1-10.6 1.4-13.2 2.1-19.5.3-3.3.8-7.1 1-8.5.2-1.4.7-5.7 1-9.5.3-3.9.8-8.4 1-10 .3-1.7.7-5.3 1-8 .8-7.3 1.4-12.9 2.1-18.3.6-5.4 1.1-10.1 1.9-18.7.3-3.3.8-7.8 1.1-10 .4-2.2.8-5.3.9-7 1.2-11.8 1.6-15.4 2-18.5.3-1.9.7-6.2 1.1-9.5 1.1-11.1 1.3-13 1.9-18 .7-5.2 1-8.3 1.9-17.5.5-5.5.8-7.7 2.1-17.8.7-4.7 1-5.2 3.4-5.3 1.4-.1 3.1 0 3.6.1 2.1.5 12.5.1 13.5-.5.5-.3 1-.2 1 .2 0 .5 3.1.6 6.9.3 3.8-.3 6.8-.3 6.6 0-.2.3 3.1.4 7.3.2 4.3-.2 8.2-.3 8.7-.3 4.6-.1 65.9 1.2 72.5 1.6 15.2.7 28.4 1.5 32.3 2 2 .3 5.6.7 8 1 3.9.5 6 .8 11.2 2 9.1 1.9 17.7 6.9 22.2 12.9 6.4 8.4 7.4 20.9 3.3 42.1-.6 2.7-1.2 6-1.5 7.2-.4 2.1 0 2.3 4.3 2.3 7.4-.1 12.8-3.1 19-10.5 2.1-2.5 8.4-16.5 15.6-34.5 3.7-9.1 7.1-17.3 7.6-18.2.6-1 1-2.3 1-2.9 0-.6.7-2.5 1.4-4.2.8-1.8 4-9.7 7.1-17.7 3.1-8 6.2-15.9 7-17.5.7-1.7 2.2-5.3 3.3-8.1l1.9-5.2-2.9.2c-1.6 0-3 .2-3.1.2z"/></svg>